<?xml version="1.0" encoding="UTF-8" standalone="no"?>
<!-- Uploaded to: SVG Repo, www.svgrepo.com, Generator: SVG Repo Mixer Tools -->

<svg
   fill="#000000"
   height="799.99689"
   width="559.99689"
   version="1.1"
   id="Layer_1"
   viewBox="0 0 358.39801 511.99801"
   xml:space="preserve"
   sodipodi:docname="air-pump-pump-svgrepo-com.svg"
   inkscape:version="1.3.2 (1:1.3.2+202311252150+091e20ef0f)"
   xmlns:inkscape="http://www.inkscape.org/namespaces/inkscape"
   xmlns:sodipodi="http://sodipodi.sourceforge.net/DTD/sodipodi-0.dtd"
   xmlns="http://www.w3.org/2000/svg"
   xmlns:svg="http://www.w3.org/2000/svg"><defs
   id="defs2" /><sodipodi:namedview
   id="namedview2"
   pagecolor="#ffffff"
   bordercolor="#000000"
   borderopacity="0.25"
   inkscape:showpageshadow="2"
   inkscape:pageopacity="0.0"
   inkscape:pagecheckerboard="0"
   inkscape:deskcolor="#d1d1d1"
   inkscape:zoom="1.18875"
   inkscape:cx="179.17981"
   inkscape:cy="400"
   inkscape:window-width="1888"
   inkscape:window-height="1173"
   inkscape:window-x="0"
   inkscape:window-y="0"
   inkscape:window-maximized="1"
   inkscape:current-layer="g1" />
<g
   transform="translate(-139.801,1)"
   id="g2">
	<g
   id="g1">
		<path
   d="m 489.667,-1 h -85.333 c -5.12,0 -8.533,3.413 -8.533,8.533 v 8.533 H 361.668 V 7.533 c 0,-5.12 -3.413,-8.533 -8.533,-8.533 h -68.267 c -5.12,0 -8.533,3.413 -8.533,8.533 v 8.533 H 242.2 V 7.533 C 242.2,2.413 238.787,-1 233.667,-1 h -85.333 c -5.12,0 -8.533,3.413 -8.533,8.533 v 34.133 c 0,5.12 3.413,8.533 8.533,8.533 h 85.333 c 5.12,0 8.533,-3.413 8.533,-8.533 v -8.533 h 34.133 v 8.533 c 0,5.12 3.413,8.533 8.533,8.533 h 8.533 v 34.133 h -25.6 c -5.12,0 -8.533,3.413 -8.533,8.533 V 127 c 0,5.12 3.413,8.533 8.533,8.533 h 8.533 v 256 h -42.667 c -5.12,0 -8.533,3.413 -8.533,8.533 v 8.533 H 216.6 c -9.387,0 -17.067,-7.68 -17.067,-17.067 l -17.066,0.001 c 0,18.773 15.36,34.133 34.133,34.133 h 8.533 v 8.533 c 0,5.12 3.413,8.533 8.533,8.533 h 42.667 v 21.211 l -55.467,31.695 c -3.413,1.707 -5.12,5.973 -4.267,9.387 0.853,3.413 4.267,5.973 8.533,5.973 h 187.733 c 4.267,0 7.68,-3.413 8.533,-6.827 0.853,-3.414 -0.853,-7.68 -4.267,-9.387 L 361.664,463.089 V 135.533 h 8.533 c 5.12,0 8.533,-3.413 8.533,-8.533 V 92.867 c 0,-5.12 -3.413,-8.533 -8.533,-8.533 h -25.6 V 50.2 h 8.533 c 5.12,0 8.533,-3.413 8.533,-8.533 V 33.134 H 395.8 v 8.533 c 0,5.12 3.413,8.533 8.533,8.533 h 85.333 c 5.12,0 8.533,-3.413 8.533,-8.533 V 7.533 C 498.2,2.413 494.787,-1 489.667,-1 Z M 225.133,33.133 H 156.866 V 16.067 h 68.267 z M 242.2,425.667 V 408.6 h 34.133 v 17.067 H 242.2 Z m 15.36,68.266 29.867,-17.067 h 64 l 29.867,17.067 z M 352.28,459.8 H 287 V 135.533 h 65.28 z m 9.387,-341.333 h -8.533 -68.267 -8.533 V 101.4 h 25.6 34.133 25.6 z M 327.533,84.333 H 310.466 V 50.2 h 17.067 z M 344.6,33.133 H 336.067 301.934 293.4 V 16.067 h 51.2 z m 136.533,0 H 412.866 V 16.067 h 68.267 z"
   id="path1"
   sodipodi:nodetypes="sssccssssccssssssssccssccssssccsscsccscssccccssscccssssccssccsssscsccccccccccccccccccccccccccccccccccccccccccccccc"
   style="stroke-width:0;stroke-dasharray:none" />
	</g>
</g>
</svg>
