<?xml version="1.0" encoding="UTF-8"?>
<!DOCTYPE svg PUBLIC "-//W3C//DTD SVG 1.1//EN" "http://www.w3.org/Graphics/SVG/1.1/DTD/svg11.dtd">
<svg version="1.2" viewBox="2971 4953 10182 8504" preserveAspectRatio="xMidYMid" fill-rule="evenodd" stroke-width="28.222" stroke-linejoin="round" xmlns="http://www.w3.org/2000/svg" xmlns:ooo="http://xml.openoffice.org/svg/export" xmlns:xlink="http://www.w3.org/1999/xlink" xmlns:presentation="http://sun.com/xmlns/staroffice/presentation" xmlns:smil="http://www.w3.org/2001/SMIL20/" xmlns:anim="urn:oasis:names:tc:opendocument:xmlns:animation:1.0" xmlns:svg="urn:oasis:names:tc:opendocument:xmlns:svg-compatible:1.0" xml:space="preserve">
 <defs class="EmbeddedBulletChars">
  <g id="bullet-char-template-57356" transform="scale(0.00048828125,-0.00048828125)">
   <path d="M 580,1141 L 1163,571 580,0 -4,571 580,1141 Z"/>
  </g>
  <g id="bullet-char-template-57354" transform="scale(0.00048828125,-0.00048828125)">
   <path d="M 8,1128 L 1137,1128 1137,0 8,0 8,1128 Z"/>
  </g>
  <g id="bullet-char-template-10146" transform="scale(0.00048828125,-0.00048828125)">
   <path d="M 174,0 L 602,739 174,1481 1456,739 174,0 Z M 1358,739 L 309,1346 659,739 1358,739 Z"/>
  </g>
  <g id="bullet-char-template-10132" transform="scale(0.00048828125,-0.00048828125)">
   <path d="M 2015,739 L 1276,0 717,0 1260,543 174,543 174,936 1260,936 717,1481 1274,1481 2015,739 Z"/>
  </g>
  <g id="bullet-char-template-10007" transform="scale(0.00048828125,-0.00048828125)">
   <path d="M 0,-2 C -7,14 -16,27 -25,37 L 356,567 C 262,823 215,952 215,954 215,979 228,992 255,992 264,992 276,990 289,987 310,991 331,999 354,1012 L 381,999 492,748 772,1049 836,1024 860,1049 C 881,1039 901,1025 922,1006 886,937 835,863 770,784 769,783 710,716 594,584 L 774,223 C 774,196 753,168 711,139 L 727,119 C 717,90 699,76 672,76 641,76 570,178 457,381 L 164,-76 C 142,-110 111,-127 72,-127 30,-127 9,-110 8,-76 1,-67 -2,-52 -2,-32 -2,-23 -1,-13 0,-2 Z"/>
  </g>
  <g id="bullet-char-template-10004" transform="scale(0.00048828125,-0.00048828125)">
   <path d="M 285,-33 C 182,-33 111,30 74,156 52,228 41,333 41,471 41,549 55,616 82,672 116,743 169,778 240,778 293,778 328,747 346,684 L 369,508 C 377,444 397,411 428,410 L 1163,1116 C 1174,1127 1196,1133 1229,1133 1271,1133 1292,1118 1292,1087 L 1292,965 C 1292,929 1282,901 1262,881 L 442,47 C 390,-6 338,-33 285,-33 Z"/>
  </g>
  <g id="bullet-char-template-9679" transform="scale(0.00048828125,-0.00048828125)">
   <path d="M 813,0 C 632,0 489,54 383,161 276,268 223,411 223,592 223,773 276,916 383,1023 489,1130 632,1184 813,1184 992,1184 1136,1130 1245,1023 1353,916 1407,772 1407,592 1407,412 1353,268 1245,161 1136,54 992,0 813,0 Z"/>
  </g>
  <g id="bullet-char-template-8226" transform="scale(0.00048828125,-0.00048828125)">
   <path d="M 346,457 C 273,457 209,483 155,535 101,586 74,649 74,723 74,796 101,859 155,911 209,963 273,989 346,989 419,989 480,963 531,910 582,859 608,796 608,723 608,648 583,586 532,535 482,483 420,457 346,457 Z"/>
  </g>
  <g id="bullet-char-template-8211" transform="scale(0.00048828125,-0.00048828125)">
   <path d="M -4,459 L 1135,459 1135,606 -4,606 -4,459 Z"/>
  </g>
  <g id="bullet-char-template-61548" transform="scale(0.00048828125,-0.00048828125)">
   <path d="M 173,740 C 173,903 231,1043 346,1159 462,1274 601,1332 765,1332 928,1332 1067,1274 1183,1159 1299,1043 1357,903 1357,740 1357,577 1299,437 1183,322 1067,206 928,148 765,148 601,148 462,206 346,322 231,437 173,577 173,740 Z"/>
  </g>
 </defs>
 <g ooo:name="page15" class="Page">
  <g class="com.sun.star.drawing.ClosedBezierShape">
   <g id="id3">
    <rect class="BoundingBox" stroke="none" fill="none" x="2971" y="4953" width="8808" height="8504"/>
    <g style="opacity: 0.8">
     <path fill="none" stroke="rgb(85,85,85)" stroke-width="159" stroke-linejoin="round" d="M 8347,10279 C 9048,9622 12010,9327 11671,8226 11332,7125 8856,3862 7247,5471 5638,7080 6844,6999 4601,7274 2358,7549 2951,9390 3882,11274 4814,13158 5407,13349 7692,13370 9660,13517 7649,10936 8347,10279 Z"/>
    </g>
   </g>
  </g>
  <g class="Group">
   <g class="com.sun.star.drawing.ClosedBezierShape">
    <g id="id4">
     <rect class="BoundingBox" stroke="none" fill="none" x="7129" y="9549" width="551" height="549"/>
     <path fill="rgb(68,119,170)" stroke="none" d="M 7678,9727 C 7670,9710 7662,9692 7654,9675 7575,9711 7497,9748 7418,9785 7381,9706 7345,9628 7308,9549 7291,9557 7273,9566 7256,9574 7293,9652 7329,9731 7366,9809 7287,9846 7209,9882 7130,9919 7138,9936 7146,9954 7154,9971 7233,9934 7311,9898 7390,9861 7427,9940 7463,10018 7500,10097 7517,10089 7535,10080 7552,10072 7515,9994 7479,9915 7442,9837 7521,9800 7599,9764 7678,9727 Z"/>
    </g>
   </g>
   <g class="com.sun.star.drawing.ClosedBezierShape">
    <g id="id5">
     <rect class="BoundingBox" stroke="none" fill="none" x="7624" y="9140" width="675" height="788"/>
     <path fill="rgb(68,119,170)" stroke="none" d="M 8298,9724 C 8289,9705 8284,9694 8278,9681 8272,9670 8267,9659 8258,9640 8149,9694 8040,9748 7930,9803 7960,9713 7990,9624 8019,9534 8066,9392 8070,9328 8036,9256 7984,9144 7878,9110 7755,9168 7686,9200 7648,9241 7625,9312 7640,9358 7655,9404 7670,9451 7679,9447 7688,9442 7697,9438 7693,9421 7690,9404 7686,9386 7677,9324 7701,9283 7764,9253 7847,9215 7926,9241 7964,9323 7997,9395 7989,9485 7933,9651 7907,9735 7880,9818 7853,9902 7857,9910 7861,9918 7865,9927 7935,9891 8006,9857 8077,9824 8151,9789 8225,9755 8298,9724 Z"/>
    </g>
   </g>
   <g class="com.sun.star.drawing.ClosedBezierShape">
    <g id="id6">
     <rect class="BoundingBox" stroke="none" fill="none" x="8368" y="8854" width="1015" height="750"/>
     <path fill="rgb(68,119,170)" stroke="none" d="M 9381,9219 C 9377,9210 9373,9201 9369,9192 9353,9198 9337,9205 9321,9211 9286,9224 9280,9217 9252,9156 9221,9091 9191,9025 9160,8959 9115,8863 9034,8831 8946,8872 8910,8889 8887,8910 8876,8931 8862,8965 8848,8998 8833,9032 8774,8983 8721,8977 8655,9008 8619,9025 8596,9046 8586,9067 8574,9098 8561,9129 8549,9161 8537,9133 8524,9106 8511,9078 8508,9079 8505,9079 8501,9080 8461,9122 8418,9158 8368,9188 8373,9197 8377,9206 8381,9216 8393,9210 8405,9205 8417,9199 8455,9181 8461,9185 8490,9248 8524,9320 8557,9392 8591,9465 8619,9525 8620,9534 8588,9552 8574,9560 8560,9568 8546,9576 8550,9585 8554,9594 8559,9603 8598,9581 8640,9562 8681,9543 8719,9525 8757,9507 8797,9492 8793,9483 8789,9473 8784,9464 8770,9470 8756,9475 8742,9481 8708,9493 8701,9486 8673,9426 8642,9359 8610,9291 8579,9224 8558,9180 8600,9104 8657,9077 8709,9053 8768,9085 8801,9156 8828,9214 8855,9271 8882,9329 8910,9389 8911,9399 8879,9417 8865,9425 8851,9432 8837,9440 8841,9449 8845,9458 8849,9467 8889,9445 8928,9428 8969,9408 9010,9389 9048,9371 9091,9355 9086,9346 9082,9337 9078,9327 9063,9333 9048,9339 9033,9345 8999,9358 8992,9351 8964,9291 8932,9223 8901,9156 8869,9088 8849,9044 8890,8968 8948,8941 9000,8917 9059,8950 9092,9021 9134,9112 9177,9203 9220,9295 9243,9280 9268,9269 9295,9256 9322,9243 9350,9231 9381,9219 Z"/>
    </g>
   </g>
   <g class="com.sun.star.drawing.ClosedBezierShape">
    <g id="id7">
     <rect class="BoundingBox" stroke="none" fill="none" x="9297" y="8609" width="514" height="533"/>
     <path fill="rgb(68,119,170)" stroke="none" d="M 9781,8753 C 9721,8624 9585,8574 9453,8636 9311,8702 9261,8846 9327,8988 9389,9122 9518,9176 9644,9117 9792,9048 9849,8898 9781,8753 Z M 9710,8829 C 9761,8939 9744,9030 9664,9067 9571,9111 9466,9050 9402,8913 9348,8798 9363,8714 9448,8675 9539,8633 9649,8698 9710,8829 Z"/>
    </g>
   </g>
   <g class="com.sun.star.drawing.ClosedBezierShape">
    <g id="id8">
     <rect class="BoundingBox" stroke="none" fill="none" x="9633" y="8187" width="551" height="773"/>
     <path fill="rgb(68,119,170)" stroke="none" d="M 10182,8846 C 10178,8837 10174,8828 10169,8818 10154,8824 10139,8830 10124,8836 10090,8849 10084,8842 10055,8782 9963,8584 9872,8387 9780,8190 9775,8189 9770,8188 9765,8187 9731,8223 9702,8246 9633,8292 9638,8301 9642,8310 9646,8319 9663,8311 9681,8303 9698,8295 9717,8286 9728,8294 9742,8324 9819,8490 9896,8655 9973,8820 10001,8880 10002,8890 9971,8908 9956,8916 9942,8923 9928,8931 9932,8940 9937,8949 9941,8958 9981,8936 10019,8919 10060,8899 10101,8880 10140,8862 10182,8846 Z"/>
    </g>
   </g>
   <g class="com.sun.star.drawing.ClosedBezierShape">
    <g id="id9">
     <rect class="BoundingBox" stroke="none" fill="none" x="10216" y="7935" width="191" height="1067"/>
     <path fill="rgb(68,119,170)" stroke="none" d="M 10351,9000 C 10369,8992 10388,8983 10406,8975 10360,8628 10314,8282 10269,7936 10251,7944 10234,7952 10216,7960 10261,8307 10306,8654 10351,9000 Z"/>
    </g>
   </g>
   <g class="com.sun.star.drawing.ClosedBezierShape">
    <g id="id10">
     <rect class="BoundingBox" stroke="none" fill="none" x="10542" y="8031" width="450" height="572"/>
     <path fill="rgb(68,119,170)" stroke="none" d="M 10976,8299 C 10962,8269 10943,8251 10915,8241 10879,8228 10841,8232 10751,8254 10665,8277 10629,8271 10607,8224 10585,8178 10608,8134 10666,8107 10732,8076 10794,8087 10815,8134 10819,8141 10822,8149 10825,8156 10835,8152 10844,8147 10853,8143 10830,8087 10819,8062 10807,8031 10747,8039 10712,8049 10671,8068 10561,8119 10517,8203 10556,8288 10578,8335 10613,8358 10670,8359 10699,8358 10758,8347 10831,8333 10876,8322 10904,8332 10922,8371 10947,8423 10914,8481 10848,8512 10777,8545 10712,8535 10689,8486 10683,8473 10677,8461 10671,8448 10661,8453 10651,8457 10641,8462 10672,8528 10683,8559 10693,8601 10750,8595 10790,8582 10834,8562 10961,8503 11020,8395 10976,8299 Z"/>
    </g>
   </g>
  </g>
  <g class="Group">
   <g class="com.sun.star.drawing.ClosedBezierShape">
    <g id="id11">
     <rect class="BoundingBox" stroke="none" fill="none" x="9298" y="10592" width="543" height="299"/>
     <path fill="rgb(170,51,119)" stroke="none" d="M 9298,10832 C 9470,10752 9642,10672 9813,10592 9822,10611 9831,10631 9840,10650 9668,10730 9497,10810 9325,10890 9316,10871 9307,10851 9298,10832 Z"/>
    </g>
   </g>
   <g class="com.sun.star.drawing.ClosedBezierShape">
    <g id="id12">
     <rect class="BoundingBox" stroke="none" fill="none" x="9790" y="10058" width="675" height="788"/>
     <path fill="rgb(170,51,119)" stroke="none" d="M 10463,10642 C 10454,10623 10449,10612 10443,10599 10438,10588 10433,10577 10424,10558 10315,10612 10205,10666 10096,10720 10126,10631 10155,10542 10185,10452 10232,10310 10235,10246 10202,10174 10149,10062 10043,10028 9920,10086 9852,10118 9814,10158 9791,10229 9806,10276 9821,10322 9836,10369 9845,10364 9854,10360 9863,10356 9859,10339 9856,10321 9852,10304 9843,10242 9867,10200 9930,10171 10012,10133 10091,10159 10130,10241 10163,10313 10155,10403 10099,10569 10072,10653 10046,10736 10019,10820 10023,10828 10027,10836 10031,10844 10101,10808 10172,10775 10243,10742 10317,10707 10391,10673 10463,10642 Z"/>
    </g>
   </g>
   <g class="com.sun.star.drawing.ClosedBezierShape">
    <g id="id13">
     <rect class="BoundingBox" stroke="none" fill="none" x="10533" y="9773" width="1013" height="750"/>
     <path fill="rgb(170,51,119)" stroke="none" d="M 11545,10138 C 11541,10129 11536,10120 11532,10111 11516,10117 11500,10123 11484,10130 11450,10142 11444,10135 11415,10075 11385,10009 11354,9944 11323,9878 11279,9782 11197,9750 11110,9791 11074,9808 11050,9829 11040,9850 11026,9883 11012,9917 10997,9950 10938,9901 10885,9896 10819,9926 10784,9943 10760,9964 10750,9985 10738,10017 10726,10048 10714,10079 10701,10052 10688,10024 10676,9997 10672,9997 10669,9998 10666,9998 10626,10040 10583,10077 10533,10106 10538,10116 10542,10125 10546,10134 10558,10128 10570,10123 10582,10117 10620,10099 10625,10104 10655,10167 10688,10239 10722,10311 10756,10383 10784,10443 10785,10453 10753,10471 10739,10478 10725,10486 10711,10494 10715,10503 10719,10512 10723,10521 10763,10499 10804,10480 10845,10461 10884,10443 10922,10425 10962,10410 10957,10401 10953,10392 10949,10383 10935,10388 10921,10394 10906,10399 10872,10412 10866,10405 10838,10345 10806,10277 10775,10209 10743,10142 10723,10098 10764,10022 10822,9995 10874,9971 10932,10004 10965,10075 10992,10133 11019,10190 11046,10248 11074,10308 11075,10317 11043,10335 11029,10343 11015,10351 11001,10358 11005,10368 11009,10377 11014,10386 11053,10364 11092,10346 11133,10327 11174,10308 11212,10290 11255,10274 11250,10264 11246,10255 11242,10246 11227,10252 11212,10258 11197,10264 11163,10276 11156,10269 11128,10209 11096,10142 11065,10074 11033,10007 11013,9963 11054,9887 11112,9860 11164,9836 11222,9868 11256,9940 11298,10031 11341,10122 11383,10214 11407,10199 11431,10188 11459,10175 11486,10162 11513,10149 11545,10138 Z"/>
    </g>
   </g>
   <g class="com.sun.star.drawing.ClosedBezierShape">
    <g id="id14">
     <rect class="BoundingBox" stroke="none" fill="none" x="11461" y="9528" width="513" height="533"/>
     <path fill="rgb(170,51,119)" stroke="none" d="M 11944,9672 C 11884,9543 11748,9494 11616,9555 11474,9621 11424,9765 11490,9907 11553,10041 11681,10095 11807,10036 11955,9967 12012,9817 11944,9672 Z M 11873,9748 C 11924,9858 11907,9949 11827,9986 11734,10030 11629,9969 11565,9832 11512,9717 11526,9634 11611,9594 11701,9552 11812,9617 11873,9748 Z"/>
    </g>
   </g>
   <g class="com.sun.star.drawing.ClosedBezierShape">
    <g id="id15">
     <rect class="BoundingBox" stroke="none" fill="none" x="11795" y="9106" width="551" height="773"/>
     <path fill="rgb(170,51,119)" stroke="none" d="M 12344,9765 C 12340,9756 12336,9747 12332,9738 12317,9744 12301,9750 12286,9756 12252,9768 12246,9761 12218,9701 12126,9504 12034,9307 11942,9110 11937,9109 11932,9108 11927,9107 11894,9142 11865,9166 11796,9211 11800,9220 11804,9229 11809,9238 11826,9230 11843,9222 11861,9214 11880,9205 11890,9214 11904,9244 11981,9409 12058,9574 12136,9739 12164,9800 12165,9809 12133,9827 12119,9835 12105,9843 12091,9850 12095,9859 12099,9869 12103,9878 12143,9856 12181,9838 12223,9819 12264,9800 12302,9782 12344,9765 Z"/>
    </g>
   </g>
   <g class="com.sun.star.drawing.ClosedBezierShape">
    <g id="id16">
     <rect class="BoundingBox" stroke="none" fill="none" x="12377" y="8855" width="192" height="1066"/>
     <path fill="rgb(170,51,119)" stroke="none" d="M 12513,9920 C 12531,9911 12550,9903 12568,9894 12522,9548 12476,9202 12430,8855 12413,8863 12395,8872 12378,8880 12423,9226 12468,9573 12513,9920 Z"/>
    </g>
   </g>
   <g class="com.sun.star.drawing.ClosedBezierShape">
    <g id="id17">
     <rect class="BoundingBox" stroke="none" fill="none" x="12703" y="8951" width="450" height="572"/>
     <path fill="rgb(170,51,119)" stroke="none" d="M 13136,9219 C 13122,9189 13104,9171 13076,9161 13040,9148 13002,9152 12912,9174 12826,9197 12790,9191 12768,9144 12746,9098 12769,9054 12827,9027 12892,8996 12954,9008 12976,9054 12979,9061 12983,9069 12986,9076 12995,9072 13004,9067 13014,9063 12991,9007 12979,8983 12968,8951 12908,8959 12873,8969 12832,8988 12722,9039 12678,9123 12718,9208 12739,9254 12774,9278 12831,9279 12860,9278 12919,9267 12992,9253 13037,9242 13065,9253 13083,9291 13107,9343 13075,9401 13009,9432 12938,9465 12873,9455 12850,9406 12844,9393 12838,9381 12832,9368 12822,9372 12812,9377 12802,9382 12833,9448 12844,9479 12854,9521 12911,9515 12952,9502 12995,9482 13121,9423 13181,9315 13136,9219 Z"/>
    </g>
   </g>
  </g>
 </g>
</svg>