<?xml version="1.0" encoding="UTF-8"?>
<!DOCTYPE svg PUBLIC "-//W3C//DTD SVG 1.1//EN" "http://www.w3.org/Graphics/SVG/1.1/DTD/svg11.dtd">
<svg version="1.2" viewBox="3941 6871 22322 3718" preserveAspectRatio="xMidYMid" fill-rule="evenodd" stroke-width="28.222" stroke-linejoin="round" xmlns="http://www.w3.org/2000/svg" xmlns:ooo="http://xml.openoffice.org/svg/export" xmlns:xlink="http://www.w3.org/1999/xlink" xmlns:presentation="http://sun.com/xmlns/staroffice/presentation" xmlns:smil="http://www.w3.org/2001/SMIL20/" xmlns:anim="urn:oasis:names:tc:opendocument:xmlns:animation:1.0" xmlns:svg="urn:oasis:names:tc:opendocument:xmlns:svg-compatible:1.0" xml:space="preserve">
 <defs class="EmbeddedBulletChars">
  <g id="bullet-char-template-57356" transform="scale(0.00048828125,-0.00048828125)">
   <path d="M 580,1141 L 1163,571 580,0 -4,571 580,1141 Z"/>
  </g>
  <g id="bullet-char-template-57354" transform="scale(0.00048828125,-0.00048828125)">
   <path d="M 8,1128 L 1137,1128 1137,0 8,0 8,1128 Z"/>
  </g>
  <g id="bullet-char-template-10146" transform="scale(0.00048828125,-0.00048828125)">
   <path d="M 174,0 L 602,739 174,1481 1456,739 174,0 Z M 1358,739 L 309,1346 659,739 1358,739 Z"/>
  </g>
  <g id="bullet-char-template-10132" transform="scale(0.00048828125,-0.00048828125)">
   <path d="M 2015,739 L 1276,0 717,0 1260,543 174,543 174,936 1260,936 717,1481 1274,1481 2015,739 Z"/>
  </g>
  <g id="bullet-char-template-10007" transform="scale(0.00048828125,-0.00048828125)">
   <path d="M 0,-2 C -7,14 -16,27 -25,37 L 356,567 C 262,823 215,952 215,954 215,979 228,992 255,992 264,992 276,990 289,987 310,991 331,999 354,1012 L 381,999 492,748 772,1049 836,1024 860,1049 C 881,1039 901,1025 922,1006 886,937 835,863 770,784 769,783 710,716 594,584 L 774,223 C 774,196 753,168 711,139 L 727,119 C 717,90 699,76 672,76 641,76 570,178 457,381 L 164,-76 C 142,-110 111,-127 72,-127 30,-127 9,-110 8,-76 1,-67 -2,-52 -2,-32 -2,-23 -1,-13 0,-2 Z"/>
  </g>
  <g id="bullet-char-template-10004" transform="scale(0.00048828125,-0.00048828125)">
   <path d="M 285,-33 C 182,-33 111,30 74,156 52,228 41,333 41,471 41,549 55,616 82,672 116,743 169,778 240,778 293,778 328,747 346,684 L 369,508 C 377,444 397,411 428,410 L 1163,1116 C 1174,1127 1196,1133 1229,1133 1271,1133 1292,1118 1292,1087 L 1292,965 C 1292,929 1282,901 1262,881 L 442,47 C 390,-6 338,-33 285,-33 Z"/>
  </g>
  <g id="bullet-char-template-9679" transform="scale(0.00048828125,-0.00048828125)">
   <path d="M 813,0 C 632,0 489,54 383,161 276,268 223,411 223,592 223,773 276,916 383,1023 489,1130 632,1184 813,1184 992,1184 1136,1130 1245,1023 1353,916 1407,772 1407,592 1407,412 1353,268 1245,161 1136,54 992,0 813,0 Z"/>
  </g>
  <g id="bullet-char-template-8226" transform="scale(0.00048828125,-0.00048828125)">
   <path d="M 346,457 C 273,457 209,483 155,535 101,586 74,649 74,723 74,796 101,859 155,911 209,963 273,989 346,989 419,989 480,963 531,910 582,859 608,796 608,723 608,648 583,586 532,535 482,483 420,457 346,457 Z"/>
  </g>
  <g id="bullet-char-template-8211" transform="scale(0.00048828125,-0.00048828125)">
   <path d="M -4,459 L 1135,459 1135,606 -4,606 -4,459 Z"/>
  </g>
  <g id="bullet-char-template-61548" transform="scale(0.00048828125,-0.00048828125)">
   <path d="M 173,740 C 173,903 231,1043 346,1159 462,1274 601,1332 765,1332 928,1332 1067,1274 1183,1159 1299,1043 1357,903 1357,740 1357,577 1299,437 1183,322 1067,206 928,148 765,148 601,148 462,206 346,322 231,437 173,577 173,740 Z"/>
  </g>
 </defs>
 <g ooo:name="page2" class="Page">
  <g class="com.sun.star.drawing.LineShape">
   <g id="id3">
    <rect class="BoundingBox" stroke="none" fill="none" x="3941" y="8669" width="22322" height="423"/>
    <g style="opacity: 0.498039215686275">
     <path fill="none" stroke="rgb(0,0,0)" stroke-width="81" stroke-linejoin="round" d="M 3982,8880 L 25448,8880"/>
     <path fill="rgb(0,0,0)" stroke="none" d="M 25420,8670 L 26262,8880 25420,9091 25420,8670 Z"/>
    </g>
   </g>
  </g>
  <g class="com.sun.star.drawing.CustomShape">
   <g id="id4">
    <rect class="BoundingBox" stroke="none" fill="none" x="9817" y="8118" width="6321" height="1525"/>
    <g>
     <defs>
      <pattern id="pattern1" x="9817" y="8118" width="6321" height="1525" patternUnits="userSpaceOnUse">
       <g transform="translate(-9817,-8118)">
        <line fill="rgb(0,169,51)" stroke="rgb(0,169,51)" x1="9817" y1="8479" x2="10025" y2="8118"/>
        <line fill="rgb(0,169,51)" stroke="rgb(0,169,51)" x1="9817" y1="8876" x2="10254" y2="8118"/>
        <line fill="rgb(0,169,51)" stroke="rgb(0,169,51)" x1="9817" y1="9272" x2="10483" y2="8118"/>
        <line fill="rgb(0,169,51)" stroke="rgb(0,169,51)" x1="9833" y1="9642" x2="10712" y2="8118"/>
        <line fill="rgb(0,169,51)" stroke="rgb(0,169,51)" x1="10062" y1="9642" x2="10941" y2="8118"/>
        <line fill="rgb(0,169,51)" stroke="rgb(0,169,51)" x1="10291" y1="9642" x2="11170" y2="8118"/>
        <line fill="rgb(0,169,51)" stroke="rgb(0,169,51)" x1="10520" y1="9642" x2="11399" y2="8118"/>
        <line fill="rgb(0,169,51)" stroke="rgb(0,169,51)" x1="10749" y1="9642" x2="11628" y2="8118"/>
        <line fill="rgb(0,169,51)" stroke="rgb(0,169,51)" x1="10978" y1="9642" x2="11857" y2="8118"/>
        <line fill="rgb(0,169,51)" stroke="rgb(0,169,51)" x1="11207" y1="9642" x2="12086" y2="8118"/>
        <line fill="rgb(0,169,51)" stroke="rgb(0,169,51)" x1="11436" y1="9642" x2="12315" y2="8118"/>
        <line fill="rgb(0,169,51)" stroke="rgb(0,169,51)" x1="11665" y1="9642" x2="12544" y2="8118"/>
        <line fill="rgb(0,169,51)" stroke="rgb(0,169,51)" x1="11894" y1="9642" x2="12773" y2="8118"/>
        <line fill="rgb(0,169,51)" stroke="rgb(0,169,51)" x1="12123" y1="9642" x2="13002" y2="8118"/>
        <line fill="rgb(0,169,51)" stroke="rgb(0,169,51)" x1="12352" y1="9642" x2="13231" y2="8118"/>
        <line fill="rgb(0,169,51)" stroke="rgb(0,169,51)" x1="12581" y1="9642" x2="13460" y2="8118"/>
        <line fill="rgb(0,169,51)" stroke="rgb(0,169,51)" x1="12810" y1="9642" x2="13689" y2="8118"/>
        <line fill="rgb(0,169,51)" stroke="rgb(0,169,51)" x1="13039" y1="9642" x2="13918" y2="8118"/>
        <line fill="rgb(0,169,51)" stroke="rgb(0,169,51)" x1="13268" y1="9642" x2="14147" y2="8118"/>
        <line fill="rgb(0,169,51)" stroke="rgb(0,169,51)" x1="13497" y1="9642" x2="14376" y2="8118"/>
        <line fill="rgb(0,169,51)" stroke="rgb(0,169,51)" x1="13726" y1="9642" x2="14605" y2="8118"/>
        <line fill="rgb(0,169,51)" stroke="rgb(0,169,51)" x1="13955" y1="9642" x2="14834" y2="8118"/>
        <line fill="rgb(0,169,51)" stroke="rgb(0,169,51)" x1="14184" y1="9642" x2="15063" y2="8118"/>
        <line fill="rgb(0,169,51)" stroke="rgb(0,169,51)" x1="14413" y1="9642" x2="15292" y2="8118"/>
        <line fill="rgb(0,169,51)" stroke="rgb(0,169,51)" x1="14642" y1="9642" x2="15521" y2="8118"/>
        <line fill="rgb(0,169,51)" stroke="rgb(0,169,51)" x1="14871" y1="9642" x2="15750" y2="8118"/>
        <line fill="rgb(0,169,51)" stroke="rgb(0,169,51)" x1="15100" y1="9642" x2="15979" y2="8118"/>
        <line fill="rgb(0,169,51)" stroke="rgb(0,169,51)" x1="15329" y1="9642" x2="16137" y2="8242"/>
        <line fill="rgb(0,169,51)" stroke="rgb(0,169,51)" x1="15558" y1="9642" x2="16137" y2="8638"/>
        <line fill="rgb(0,169,51)" stroke="rgb(0,169,51)" x1="15787" y1="9642" x2="16137" y2="9035"/>
        <line fill="rgb(0,169,51)" stroke="rgb(0,169,51)" x1="16016" y1="9642" x2="16137" y2="9432"/>
       </g>
      </pattern>
     </defs>
     <path style="fill:url(#pattern1)" d="M 12977,9642 L 9817,9642 9817,8118 16137,8118 16137,9642 12977,9642 Z"/>
    </g>
   </g>
  </g>
  <g class="com.sun.star.drawing.LineShape">
   <g id="id5">
    <rect class="BoundingBox" stroke="none" fill="none" x="9764" y="8276" width="2926" height="459"/>
    <path fill="none" stroke="rgb(238,102,119)" stroke-width="106" stroke-linejoin="round" d="M 9817,8505 L 12080,8505"/>
    <path fill="rgb(238,102,119)" stroke="none" d="M 12085,8686 L 12049,8734 12689,8504 12049,8276 12084,8322 12111,8377 12130,8437 12137,8502 12131,8568 12113,8630 12085,8686 Z"/>
   </g>
  </g>
  <g class="com.sun.star.drawing.LineShape">
   <g id="id6">
    <rect class="BoundingBox" stroke="none" fill="none" x="16066" y="8250" width="6720" height="511"/>
    <path fill="none" stroke="rgb(170,51,119)" stroke-width="141" stroke-linejoin="round" d="M 16137,8505 L 22107,8505"/>
    <path fill="rgb(170,51,119)" stroke="none" d="M 22113,8707 L 22073,8760 22785,8504 22073,8250 22111,8301 22142,8363 22162,8429 22170,8502 22164,8575 22143,8644 22113,8707 Z"/>
   </g>
  </g>
  <g class="com.sun.star.drawing.LineShape">
   <g id="id7">
    <rect class="BoundingBox" stroke="none" fill="none" x="9790" y="8091" width="55" height="1579"/>
    <path fill="none" stroke="rgb(0,0,0)" stroke-width="53" stroke-linejoin="round" d="M 9817,9642 L 9817,8118"/>
   </g>
  </g>
  <g class="Group">
   <g class="com.sun.star.drawing.ClosedBezierShape">
    <g id="id8">
     <rect class="BoundingBox" stroke="none" fill="none" x="9585" y="9909" width="465" height="482"/>
     <path fill="rgb(0,0,0)" stroke="none" d="M 10015,10303 C 10012,10296 10009,10290 10006,10283 9970,10311 9945,10328 9931,10328 9914,10328 9903,10317 9892,10297 9884,10278 9873,10244 9870,10216 9863,10183 9857,10150 9850,10116 9862,10100 9875,10084 9887,10069 9931,10007 9956,9985 9987,9985 10004,9985 10015,9991 10020,10007 10025,10006 10030,10004 10034,10002 10039,9975 10044,9948 10048,9921 10037,9913 10029,9910 10018,9910 9979,9910 9942,9946 9881,10035 9869,10053 9857,10071 9845,10088 9843,10072 9841,10057 9839,10041 9828,9946 9800,9910 9745,9910 9719,9910 9697,9918 9689,9929 9670,9956 9652,9983 9633,10010 9639,10014 9644,10018 9650,10021 9678,9988 9697,9974 9717,9974 9747,9974 9770,10013 9786,10110 9790,10130 9794,10150 9797,10169 9784,10189 9771,10210 9758,10230 9717,10294 9683,10325 9655,10325 9641,10325 9630,10322 9628,10317 9624,10307 9620,10298 9616,10289 9610,10290 9603,10291 9597,10292 9597,10311 9597,10325 9591,10356 9589,10367 9589,10370 9586,10378 9602,10384 9616,10389 9628,10389 9661,10389 9697,10361 9728,10314 9753,10277 9778,10240 9803,10202 9807,10225 9810,10247 9814,10269 9825,10350 9848,10389 9884,10389 9903,10389 9934,10372 9967,10345 9983,10331 9999,10317 10015,10303 Z"/>
    </g>
   </g>
  </g>
  <g class="com.sun.star.drawing.LineShape">
   <g id="id9">
    <rect class="BoundingBox" stroke="none" fill="none" x="16110" y="8091" width="55" height="1579"/>
    <path fill="none" stroke="rgb(0,0,0)" stroke-width="53" stroke-linejoin="round" d="M 16137,9642 L 16137,8118"/>
   </g>
  </g>
  <g class="Group">
   <g class="com.sun.star.drawing.ClosedBezierShape">
    <g id="id10">
     <rect class="BoundingBox" stroke="none" fill="none" x="15022" y="10107" width="467" height="482"/>
     <path fill="rgb(0,0,0)" stroke="none" d="M 15454,10501 C 15451,10494 15448,10488 15445,10481 15409,10512 15387,10526 15370,10526 15356,10526 15342,10514 15333,10495 15325,10478 15314,10442 15308,10414 15303,10382 15297,10349 15292,10316 15303,10300 15314,10283 15325,10266 15370,10205 15398,10183 15429,10183 15443,10183 15454,10191 15459,10205 15464,10203 15469,10201 15473,10199 15478,10172 15483,10145 15487,10118 15476,10110 15468,10107 15459,10107 15420,10107 15381,10143 15319,10233 15307,10250 15295,10268 15283,10286 15281,10270 15279,10254 15278,10238 15266,10143 15238,10107 15182,10107 15157,10107 15135,10116 15126,10130 15108,10156 15089,10183 15071,10210 15076,10213 15082,10216 15087,10219 15115,10185 15135,10171 15154,10171 15185,10171 15208,10213 15224,10308 15228,10328 15232,10347 15236,10367 15223,10387 15209,10408 15196,10428 15154,10492 15121,10523 15093,10523 15079,10523 15068,10520 15065,10514 15061,10505 15057,10496 15054,10487 15047,10488 15041,10490 15034,10492 15034,10512 15034,10523 15029,10554 15026,10565 15023,10567 15023,10576 15037,10584 15054,10587 15065,10587 15099,10587 15135,10559 15166,10514 15191,10476 15216,10438 15241,10400 15245,10422 15249,10445 15252,10467 15266,10548 15286,10587 15322,10587 15342,10587 15375,10570 15406,10542 15422,10528 15438,10514 15454,10501 Z"/>
    </g>
   </g>
   <g class="com.sun.star.drawing.ClosedBezierShape">
    <g id="id11">
     <rect class="BoundingBox" stroke="none" fill="none" x="15834" y="10048" width="536" height="532"/>
     <path fill="rgb(0,0,0)" stroke="none" d="M 16368,10342 C 16368,10323 16368,10304 16368,10286 16288,10286 16208,10286 16128,10286 16128,10207 16128,10128 16128,10049 16110,10049 16092,10049 16075,10049 16075,10128 16075,10207 16075,10286 15995,10286 15914,10286 15834,10286 15834,10304 15834,10323 15834,10342 15914,10342 15995,10342 16075,10342 16075,10421 16075,10500 16075,10579 16092,10579 16110,10579 16128,10579 16128,10500 16128,10421 16128,10342 16208,10342 16288,10342 16368,10342 Z"/>
    </g>
   </g>
   <g class="com.sun.star.drawing.ClosedBezierShape">
    <g id="id12">
     <rect class="BoundingBox" stroke="none" fill="none" x="16676" y="9898" width="651" height="685"/>
     <path fill="rgb(0,0,0)" stroke="none" d="M 17003,9923 C 16894,10126 16785,10329 16676,10531 16677,10545 16678,10559 16679,10573 16752,10567 16824,10567 16897,10567 17020,10567 17141,10573 17264,10581 17283,10570 17303,10559 17322,10548 17323,10543 17324,10539 17325,10534 17219,10330 17135,10116 17062,9898 17043,9906 17023,9915 17003,9923 Z M 17199,10528 C 17085,10528 16970,10526 16852,10526 16819,10526 16785,10526 16749,10526 16748,10522 16747,10518 16746,10514 16824,10350 16903,10196 16998,10037 17002,10037 17005,10037 17009,10037 17074,10198 17166,10428 17205,10520 17203,10523 17201,10526 17199,10528 Z"/>
    </g>
   </g>
   <g class="com.sun.star.drawing.ClosedBezierShape">
    <g id="id13">
     <rect class="BoundingBox" stroke="none" fill="none" x="17386" y="10107" width="467" height="482"/>
     <path fill="rgb(0,0,0)" stroke="none" d="M 17817,10501 C 17815,10494 17812,10488 17809,10481 17773,10512 17748,10526 17734,10526 17717,10526 17706,10514 17694,10495 17686,10478 17675,10442 17672,10414 17665,10382 17659,10349 17652,10316 17665,10300 17677,10283 17689,10266 17734,10205 17759,10183 17789,10183 17806,10183 17817,10191 17823,10205 17828,10203 17832,10201 17837,10199 17842,10172 17846,10145 17851,10118 17840,10110 17831,10107 17823,10107 17784,10107 17745,10143 17683,10233 17671,10250 17659,10268 17647,10286 17645,10270 17643,10254 17641,10238 17630,10143 17602,10107 17546,10107 17518,10107 17499,10116 17490,10130 17471,10156 17451,10183 17431,10210 17437,10213 17443,10216 17448,10219 17479,10185 17499,10171 17515,10171 17549,10171 17571,10213 17588,10308 17591,10328 17594,10347 17596,10367 17583,10387 17570,10408 17557,10428 17515,10492 17485,10523 17457,10523 17440,10523 17431,10520 17429,10514 17425,10505 17421,10496 17417,10487 17411,10488 17404,10490 17398,10492 17398,10512 17395,10523 17389,10554 17389,10565 17387,10567 17387,10576 17401,10584 17417,10587 17429,10587 17459,10587 17499,10559 17529,10514 17554,10476 17580,10438 17605,10400 17608,10422 17610,10445 17613,10467 17627,10548 17650,10587 17686,10587 17706,10587 17736,10570 17770,10542 17786,10528 17802,10514 17817,10501 Z"/>
    </g>
   </g>
  </g>
  <g class="Group">
   <g class="com.sun.star.drawing.ClosedBezierShape">
    <g id="id14">
     <rect class="BoundingBox" stroke="none" fill="none" x="10098" y="6916" width="329" height="963"/>
     <path fill="rgb(238,102,119)" stroke="none" d="M 10383,7199 C 10386,7182 10389,7168 10389,7162 10389,7146 10380,7137 10364,7137 10344,7137 10308,7157 10235,7210 10226,7216 10216,7223 10207,7229 10209,7236 10211,7242 10213,7249 10223,7242 10233,7236 10243,7229 10257,7224 10277,7204 10291,7204 10299,7204 10308,7214 10308,7227 10308,7239 10305,7254 10302,7266 10270,7427 10237,7588 10204,7749 10193,7799 10176,7832 10157,7832 10143,7832 10126,7827 10106,7816 10104,7834 10101,7853 10098,7871 10106,7874 10120,7877 10134,7877 10174,7877 10213,7838 10246,7763 10266,7715 10280,7668 10311,7539 10335,7426 10359,7312 10383,7199 Z M 10425,6956 C 10425,6933 10411,6917 10392,6917 10361,6917 10333,6947 10333,6981 10333,7006 10347,7020 10372,7020 10403,7020 10425,6992 10425,6956 Z"/>
    </g>
   </g>
   <g class="com.sun.star.drawing.ClosedBezierShape">
    <g id="id15">
     <rect class="BoundingBox" stroke="none" fill="none" x="10467" y="7410" width="340" height="354"/>
     <path fill="rgb(238,102,119)" stroke="none" d="M 10780,7698 C 10779,7694 10777,7689 10775,7684 10750,7707 10730,7718 10719,7718 10708,7718 10699,7710 10694,7696 10685,7682 10680,7656 10674,7634 10670,7611 10667,7588 10663,7564 10671,7552 10680,7540 10688,7528 10722,7483 10738,7467 10761,7467 10772,7467 10783,7472 10786,7483 10789,7482 10792,7482 10794,7481 10798,7460 10802,7440 10806,7419 10797,7414 10792,7411 10786,7411 10755,7411 10727,7439 10682,7503 10674,7516 10666,7529 10657,7542 10655,7531 10654,7520 10652,7509 10643,7439 10624,7411 10582,7411 10565,7411 10548,7416 10543,7428 10529,7447 10515,7467 10501,7486 10504,7488 10508,7490 10512,7492 10534,7469 10548,7458 10562,7458 10585,7458 10601,7489 10613,7559 10615,7573 10618,7587 10621,7601 10612,7616 10602,7630 10593,7645 10562,7693 10537,7715 10517,7715 10506,7715 10498,7712 10498,7710 10495,7703 10492,7696 10490,7690 10485,7691 10480,7692 10476,7693 10476,7707 10476,7715 10470,7737 10470,7746 10467,7749 10467,7754 10478,7760 10490,7763 10498,7763 10520,7763 10548,7743 10571,7710 10589,7682 10608,7654 10627,7626 10628,7642 10630,7657 10632,7673 10643,7735 10660,7763 10685,7763 10699,7763 10724,7751 10747,7729 10758,7719 10769,7709 10780,7698 Z"/>
    </g>
   </g>
   <g class="com.sun.star.drawing.ClosedBezierShape">
    <g id="id16">
     <rect class="BoundingBox" stroke="none" fill="none" x="10962" y="6872" width="251" height="945"/>
     <path fill="rgb(238,102,119)" stroke="none" d="M 11200,6872 C 11052,6970 10962,7134 10962,7344 10962,7536 11054,7718 11197,7816 11202,7810 11206,7804 11211,7799 11074,7682 11052,7567 11052,7341 11052,7115 11077,6995 11211,6889 11207,6883 11204,6878 11200,6872 Z"/>
    </g>
   </g>
   <g class="com.sun.star.drawing.ClosedBezierShape">
    <g id="id17">
     <rect class="BoundingBox" stroke="none" fill="none" x="11280" y="7137" width="467" height="482"/>
     <path fill="rgb(238,102,119)" stroke="none" d="M 11712,7531 C 11709,7524 11706,7518 11703,7511 11667,7542 11645,7556 11628,7556 11614,7556 11600,7548 11591,7528 11583,7509 11572,7472 11566,7444 11561,7412 11555,7379 11549,7347 11561,7331 11572,7315 11583,7299 11628,7235 11656,7213 11686,7213 11700,7213 11712,7221 11717,7235 11722,7233 11727,7231 11731,7229 11736,7202 11741,7175 11745,7148 11734,7140 11726,7137 11717,7137 11678,7137 11639,7174 11577,7263 11565,7281 11553,7298 11541,7316 11539,7300 11537,7284 11535,7268 11524,7174 11496,7137 11440,7137 11415,7137 11393,7146 11384,7160 11366,7187 11347,7214 11329,7241 11334,7243 11340,7246 11345,7249 11373,7215 11393,7201 11412,7201 11443,7201 11466,7243 11482,7338 11486,7359 11490,7379 11494,7400 11480,7419 11467,7439 11454,7458 11412,7525 11379,7556 11351,7556 11337,7556 11326,7550 11323,7548 11319,7538 11315,7529 11312,7520 11305,7521 11299,7522 11292,7522 11292,7542 11292,7553 11287,7587 11284,7598 11284,7601 11281,7606 11295,7615 11312,7617 11323,7617 11356,7617 11393,7589 11424,7545 11449,7507 11474,7468 11499,7430 11503,7453 11507,7475 11510,7497 11524,7581 11544,7617 11580,7617 11600,7617 11633,7603 11664,7573 11680,7559 11696,7545 11712,7531 Z"/>
    </g>
   </g>
   <g class="com.sun.star.drawing.ClosedBezierShape">
    <g id="id18">
     <rect class="BoundingBox" stroke="none" fill="none" x="11843" y="6872" width="251" height="945"/>
     <path fill="rgb(238,102,119)" stroke="none" d="M 11854,6872 C 11851,6878 11847,6883 11843,6889 11977,6995 12003,7115 12003,7341 12003,7567 11980,7682 11843,7799 11848,7804 11852,7810 11857,7816 12000,7718 12092,7536 12092,7344 12092,7134 12003,6970 11854,6872 Z"/>
    </g>
   </g>
  </g>
  <g class="Group">
   <g class="com.sun.star.drawing.ClosedBezierShape">
    <g id="id19">
     <rect class="BoundingBox" stroke="none" fill="none" x="16572" y="6916" width="330" height="963"/>
     <path fill="rgb(170,51,119)" stroke="none" d="M 16858,7199 C 16864,7182 16867,7168 16867,7162 16867,7148 16856,7137 16842,7137 16819,7137 16783,7157 16710,7210 16701,7216 16691,7223 16682,7229 16685,7236 16688,7242 16690,7249 16701,7242 16711,7236 16721,7229 16735,7224 16752,7204 16766,7204 16777,7204 16783,7214 16783,7227 16783,7239 16780,7254 16777,7266 16745,7427 16712,7588 16679,7749 16668,7799 16651,7832 16635,7832 16621,7832 16604,7827 16581,7813 16579,7831 16576,7850 16573,7869 16584,7874 16595,7877 16612,7877 16649,7877 16688,7838 16721,7763 16744,7715 16758,7668 16786,7539 16810,7426 16834,7312 16858,7199 Z M 16900,6956 C 16900,6933 16886,6917 16867,6917 16836,6917 16811,6947 16811,6981 16811,7006 16825,7023 16850,7023 16878,7023 16900,6992 16900,6956 Z"/>
    </g>
   </g>
   <g class="com.sun.star.drawing.ClosedBezierShape">
    <g id="id20">
     <rect class="BoundingBox" stroke="none" fill="none" x="16942" y="7410" width="343" height="354"/>
     <path fill="rgb(170,51,119)" stroke="none" d="M 17259,7698 C 17257,7694 17255,7689 17253,7684 17225,7707 17208,7718 17197,7718 17186,7718 17177,7710 17169,7696 17163,7682 17155,7657 17152,7634 17148,7611 17143,7588 17138,7564 17147,7552 17155,7540 17163,7528 17197,7483 17217,7467 17239,7467 17250,7467 17259,7472 17261,7483 17265,7482 17269,7482 17273,7481 17276,7460 17280,7440 17284,7419 17275,7414 17267,7411 17261,7411 17233,7411 17205,7436 17161,7503 17151,7516 17142,7529 17133,7542 17132,7531 17131,7520 17130,7509 17121,7436 17102,7411 17060,7411 17040,7411 17026,7416 17018,7428 17004,7447 16990,7467 16976,7486 16981,7488 16985,7490 16990,7492 17009,7469 17026,7458 17037,7458 17063,7458 17077,7489 17091,7559 17093,7573 17096,7587 17099,7601 17089,7616 17079,7630 17068,7645 17037,7693 17015,7715 16995,7715 16984,7715 16976,7712 16973,7710 16971,7703 16969,7697 16968,7690 16962,7691 16956,7692 16951,7693 16951,7707 16951,7715 16945,7737 16945,7746 16945,7749 16942,7754 16954,7760 16965,7763 16973,7763 16998,7763 17026,7740 17049,7710 17066,7682 17084,7654 17102,7626 17105,7642 17107,7657 17110,7673 17121,7735 17135,7763 17161,7763 17177,7763 17200,7751 17222,7729 17234,7719 17246,7709 17259,7698 Z"/>
    </g>
   </g>
   <g class="com.sun.star.drawing.ClosedBezierShape">
    <g id="id21">
     <rect class="BoundingBox" stroke="none" fill="none" x="17440" y="6871" width="251" height="946"/>
     <path fill="rgb(170,51,119)" stroke="none" d="M 17678,6872 C 17530,6970 17440,7134 17440,7344 17440,7536 17533,7718 17675,7816 17680,7810 17685,7805 17689,7799 17552,7682 17530,7567 17530,7341 17530,7115 17555,6995 17689,6889 17686,6883 17682,6877 17678,6872 Z"/>
    </g>
   </g>
   <g class="com.sun.star.drawing.ClosedBezierShape">
    <g id="id22">
     <rect class="BoundingBox" stroke="none" fill="none" x="17759" y="7137" width="466" height="482"/>
     <path fill="rgb(170,51,119)" stroke="none" d="M 18190,7531 C 18187,7524 18185,7518 18182,7511 18146,7542 18120,7556 18106,7556 18092,7556 18078,7548 18070,7528 18059,7509 18050,7472 18045,7444 18039,7412 18034,7379 18028,7347 18039,7331 18050,7315 18062,7299 18106,7235 18134,7213 18165,7213 18179,7213 18190,7221 18196,7235 18201,7234 18205,7233 18210,7232 18215,7204 18219,7176 18224,7148 18213,7140 18204,7137 18196,7137 18157,7137 18118,7173 18056,7263 18044,7280 18032,7298 18020,7316 18018,7301 18016,7286 18014,7271 18003,7173 17975,7137 17919,7137 17894,7137 17871,7146 17863,7160 17843,7186 17824,7213 17804,7240 17810,7243 17815,7246 17821,7249 17852,7215 17871,7201 17891,7201 17922,7201 17944,7243 17961,7338 17965,7359 17968,7379 17972,7400 17959,7419 17946,7439 17933,7458 17891,7525 17857,7556 17829,7556 17815,7556 17804,7550 17801,7548 17798,7538 17794,7529 17790,7520 17784,7521 17777,7522 17771,7522 17771,7542 17768,7553 17762,7587 17762,7598 17759,7601 17759,7606 17773,7615 17790,7617 17801,7617 17835,7617 17871,7590 17902,7545 17927,7507 17952,7469 17978,7430 17981,7453 17985,7475 17989,7497 18000,7581 18022,7617 18059,7617 18078,7617 18112,7601 18143,7573 18159,7559 18174,7545 18190,7531 Z"/>
    </g>
   </g>
   <g class="com.sun.star.drawing.ClosedBezierShape">
    <g id="id23">
     <rect class="BoundingBox" stroke="none" fill="none" x="18570" y="7078" width="537" height="533"/>
     <path fill="rgb(170,51,119)" stroke="none" d="M 19105,7372 C 19105,7353 19105,7334 19105,7316 19026,7316 18947,7316 18867,7316 18867,7237 18867,7158 18867,7079 18849,7079 18830,7079 18811,7079 18811,7158 18811,7237 18811,7316 18731,7316 18651,7316 18571,7316 18571,7334 18571,7353 18571,7372 18651,7372 18731,7372 18811,7372 18811,7451 18811,7530 18811,7609 18830,7609 18849,7609 18867,7609 18867,7530 18867,7451 18867,7372 18947,7372 19026,7372 19105,7372 Z"/>
    </g>
   </g>
   <g class="com.sun.star.drawing.ClosedBezierShape">
    <g id="id24">
     <rect class="BoundingBox" stroke="none" fill="none" x="19415" y="6927" width="649" height="686"/>
     <path fill="rgb(170,51,119)" stroke="none" d="M 19743,6953 C 19634,7157 19525,7361 19416,7564 19417,7577 19418,7590 19419,7603 19489,7601 19561,7598 19634,7598 19757,7598 19880,7603 20003,7612 20023,7602 20043,7591 20062,7581 20062,7576 20062,7570 20062,7564 19956,7361 19872,7146 19799,6928 19781,6936 19762,6945 19743,6953 Z M 19939,7559 C 19824,7559 19707,7556 19592,7556 19556,7556 19522,7556 19489,7556 19488,7552 19487,7549 19486,7545 19564,7380 19643,7227 19735,7067 19739,7067 19742,7067 19746,7067 19812,7228 19903,7458 19945,7550 19943,7553 19941,7556 19939,7559 Z"/>
    </g>
   </g>
   <g class="com.sun.star.drawing.ClosedBezierShape">
    <g id="id25">
     <rect class="BoundingBox" stroke="none" fill="none" x="20126" y="7137" width="467" height="482"/>
     <path fill="rgb(170,51,119)" stroke="none" d="M 20557,7531 C 20554,7524 20550,7518 20546,7511 20513,7542 20488,7556 20471,7556 20457,7556 20446,7548 20434,7528 20426,7509 20415,7472 20409,7444 20404,7412 20398,7379 20392,7347 20404,7331 20415,7315 20426,7299 20474,7235 20499,7213 20530,7213 20546,7213 20557,7221 20563,7235 20568,7234 20572,7233 20577,7232 20582,7204 20586,7176 20591,7148 20580,7140 20569,7137 20560,7137 20521,7137 20482,7173 20423,7263 20411,7280 20399,7298 20387,7316 20385,7301 20383,7286 20381,7271 20367,7173 20342,7137 20283,7137 20258,7137 20236,7146 20227,7160 20209,7186 20190,7213 20171,7240 20177,7243 20183,7246 20188,7249 20216,7215 20236,7201 20255,7201 20289,7201 20308,7243 20325,7338 20329,7359 20333,7379 20336,7400 20323,7419 20310,7439 20297,7458 20255,7525 20222,7556 20194,7556 20180,7556 20169,7550 20169,7548 20165,7538 20161,7529 20157,7520 20151,7521 20144,7522 20138,7522 20138,7542 20135,7553 20129,7587 20127,7598 20127,7601 20127,7606 20141,7615 20155,7617 20169,7617 20199,7617 20238,7590 20269,7545 20294,7507 20318,7469 20342,7430 20346,7453 20349,7475 20353,7497 20367,7581 20390,7617 20423,7617 20446,7617 20476,7601 20507,7573 20524,7559 20541,7545 20557,7531 Z"/>
    </g>
   </g>
   <g class="com.sun.star.drawing.ClosedBezierShape">
    <g id="id26">
     <rect class="BoundingBox" stroke="none" fill="none" x="20688" y="6871" width="252" height="946"/>
     <path fill="rgb(170,51,119)" stroke="none" d="M 20697,6872 C 20695,6877 20692,6883 20689,6889 20821,6995 20848,7115 20848,7341 20848,7567 20826,7682 20689,7799 20693,7805 20696,7810 20700,7816 20846,7718 20938,7536 20938,7344 20938,7134 20848,6970 20697,6872 Z"/>
    </g>
   </g>
  </g>
 </g>
</svg>