<?xml version="1.0" encoding="UTF-8"?>
<!DOCTYPE svg PUBLIC "-//W3C//DTD SVG 1.1//EN" "http://www.w3.org/Graphics/SVG/1.1/DTD/svg11.dtd">
<svg version="1.2" viewBox="4001 3602 8159 3594" preserveAspectRatio="xMidYMid" fill-rule="evenodd" stroke-width="28.222" stroke-linejoin="round" xmlns="http://www.w3.org/2000/svg" xmlns:ooo="http://xml.openoffice.org/svg/export" xmlns:xlink="http://www.w3.org/1999/xlink" xmlns:presentation="http://sun.com/xmlns/staroffice/presentation" xmlns:smil="http://www.w3.org/2001/SMIL20/" xmlns:anim="urn:oasis:names:tc:opendocument:xmlns:animation:1.0" xmlns:svg="urn:oasis:names:tc:opendocument:xmlns:svg-compatible:1.0" xml:space="preserve">
 <defs class="EmbeddedBulletChars">
  <g id="bullet-char-template-57356" transform="scale(0.00048828125,-0.00048828125)">
   <path d="M 580,1141 L 1163,571 580,0 -4,571 580,1141 Z"/>
  </g>
  <g id="bullet-char-template-57354" transform="scale(0.00048828125,-0.00048828125)">
   <path d="M 8,1128 L 1137,1128 1137,0 8,0 8,1128 Z"/>
  </g>
  <g id="bullet-char-template-10146" transform="scale(0.00048828125,-0.00048828125)">
   <path d="M 174,0 L 602,739 174,1481 1456,739 174,0 Z M 1358,739 L 309,1346 659,739 1358,739 Z"/>
  </g>
  <g id="bullet-char-template-10132" transform="scale(0.00048828125,-0.00048828125)">
   <path d="M 2015,739 L 1276,0 717,0 1260,543 174,543 174,936 1260,936 717,1481 1274,1481 2015,739 Z"/>
  </g>
  <g id="bullet-char-template-10007" transform="scale(0.00048828125,-0.00048828125)">
   <path d="M 0,-2 C -7,14 -16,27 -25,37 L 356,567 C 262,823 215,952 215,954 215,979 228,992 255,992 264,992 276,990 289,987 310,991 331,999 354,1012 L 381,999 492,748 772,1049 836,1024 860,1049 C 881,1039 901,1025 922,1006 886,937 835,863 770,784 769,783 710,716 594,584 L 774,223 C 774,196 753,168 711,139 L 727,119 C 717,90 699,76 672,76 641,76 570,178 457,381 L 164,-76 C 142,-110 111,-127 72,-127 30,-127 9,-110 8,-76 1,-67 -2,-52 -2,-32 -2,-23 -1,-13 0,-2 Z"/>
  </g>
  <g id="bullet-char-template-10004" transform="scale(0.00048828125,-0.00048828125)">
   <path d="M 285,-33 C 182,-33 111,30 74,156 52,228 41,333 41,471 41,549 55,616 82,672 116,743 169,778 240,778 293,778 328,747 346,684 L 369,508 C 377,444 397,411 428,410 L 1163,1116 C 1174,1127 1196,1133 1229,1133 1271,1133 1292,1118 1292,1087 L 1292,965 C 1292,929 1282,901 1262,881 L 442,47 C 390,-6 338,-33 285,-33 Z"/>
  </g>
  <g id="bullet-char-template-9679" transform="scale(0.00048828125,-0.00048828125)">
   <path d="M 813,0 C 632,0 489,54 383,161 276,268 223,411 223,592 223,773 276,916 383,1023 489,1130 632,1184 813,1184 992,1184 1136,1130 1245,1023 1353,916 1407,772 1407,592 1407,412 1353,268 1245,161 1136,54 992,0 813,0 Z"/>
  </g>
  <g id="bullet-char-template-8226" transform="scale(0.00048828125,-0.00048828125)">
   <path d="M 346,457 C 273,457 209,483 155,535 101,586 74,649 74,723 74,796 101,859 155,911 209,963 273,989 346,989 419,989 480,963 531,910 582,859 608,796 608,723 608,648 583,586 532,535 482,483 420,457 346,457 Z"/>
  </g>
  <g id="bullet-char-template-8211" transform="scale(0.00048828125,-0.00048828125)">
   <path d="M -4,459 L 1135,459 1135,606 -4,606 -4,459 Z"/>
  </g>
  <g id="bullet-char-template-61548" transform="scale(0.00048828125,-0.00048828125)">
   <path d="M 173,740 C 173,903 231,1043 346,1159 462,1274 601,1332 765,1332 928,1332 1067,1274 1183,1159 1299,1043 1357,903 1357,740 1357,577 1299,437 1183,322 1067,206 928,148 765,148 601,148 462,206 346,322 231,437 173,577 173,740 Z"/>
  </g>
 </defs>
 <g ooo:name="page5" class="Page">
  <g class="com.sun.star.drawing.CustomShape">
   <g id="id3">
    <rect class="BoundingBox" stroke="none" fill="none" x="4001" y="3602" width="2259" height="3594"/>
    <path fill="rgb(85,85,85)" fill-opacity="0.251" stroke="none" d="M 4412,3656 L 4413,3656 C 4350,3656 4288,3673 4233,3704 4179,3736 4134,3781 4102,3835 4071,3890 4054,3952 4054,4015 L 4054,6783 4054,6783 C 4054,6846 4071,6908 4102,6963 4134,7017 4179,7062 4233,7094 4288,7125 4350,7142 4413,7142 L 5847,7142 5847,7142 C 5910,7142 5972,7125 6027,7094 6081,7062 6126,7017 6158,6963 6189,6908 6206,6846 6206,6783 L 6206,4014 6206,4015 6206,4015 C 6206,3952 6189,3890 6158,3835 6126,3781 6081,3736 6027,3704 5972,3673 5910,3656 5847,3656 L 4412,3656 Z"/>
    <path fill="none" stroke="rgb(85,85,85)" stroke-width="106" stroke-linejoin="round" d="M 4412,3656 L 4413,3656 C 4350,3656 4288,3673 4233,3704 4179,3736 4134,3781 4102,3835 4071,3890 4054,3952 4054,4015 L 4054,6783 4054,6783 C 4054,6846 4071,6908 4102,6963 4134,7017 4179,7062 4233,7094 4288,7125 4350,7142 4413,7142 L 5847,7142 5847,7142 C 5910,7142 5972,7125 6027,7094 6081,7062 6126,7017 6158,6963 6189,6908 6206,6846 6206,6783 L 6206,4014 6206,4015 6206,4015 C 6206,3952 6189,3890 6158,3835 6126,3781 6081,3736 6027,3704 5972,3673 5910,3656 5847,3656 L 4412,3656 Z"/>
   </g>
  </g>
  <g class="com.sun.star.drawing.CustomShape">
   <g id="id4">
    <rect class="BoundingBox" stroke="none" fill="none" x="7005" y="3602" width="2259" height="3594"/>
    <path fill="rgb(85,85,85)" fill-opacity="0.251" stroke="none" d="M 7416,3656 L 7417,3656 C 7354,3656 7292,3673 7237,3704 7183,3736 7138,3781 7106,3835 7075,3890 7058,3952 7058,4015 L 7058,6783 7058,6783 C 7058,6846 7075,6908 7106,6963 7138,7017 7183,7062 7237,7094 7292,7125 7354,7142 7417,7142 L 8851,7142 8851,7142 C 8914,7142 8976,7125 9031,7094 9085,7062 9130,7017 9162,6963 9193,6908 9210,6846 9210,6783 L 9210,4014 9210,4015 9210,4015 C 9210,3952 9193,3890 9162,3835 9130,3781 9085,3736 9031,3704 8976,3673 8914,3656 8851,3656 L 7416,3656 Z"/>
    <path fill="none" stroke="rgb(85,85,85)" stroke-width="106" stroke-linejoin="round" d="M 7416,3656 L 7417,3656 C 7354,3656 7292,3673 7237,3704 7183,3736 7138,3781 7106,3835 7075,3890 7058,3952 7058,4015 L 7058,6783 7058,6783 C 7058,6846 7075,6908 7106,6963 7138,7017 7183,7062 7237,7094 7292,7125 7354,7142 7417,7142 L 8851,7142 8851,7142 C 8914,7142 8976,7125 9031,7094 9085,7062 9130,7017 9162,6963 9193,6908 9210,6846 9210,6783 L 9210,4014 9210,4015 9210,4015 C 9210,3952 9193,3890 9162,3835 9130,3781 9085,3736 9031,3704 8976,3673 8914,3656 8851,3656 L 7416,3656 Z"/>
   </g>
  </g>
  <g class="com.sun.star.drawing.CustomShape">
   <g id="id5">
    <rect class="BoundingBox" stroke="none" fill="none" x="9901" y="3602" width="2259" height="3594"/>
    <path fill="rgb(85,85,85)" fill-opacity="0.251" stroke="none" d="M 10312,3656 L 10313,3656 C 10250,3656 10188,3673 10133,3704 10079,3736 10034,3781 10002,3835 9971,3890 9954,3952 9954,4015 L 9954,6783 9954,6783 C 9954,6846 9971,6908 10002,6963 10034,7017 10079,7062 10133,7094 10188,7125 10250,7142 10313,7142 L 11747,7142 11747,7142 C 11810,7142 11872,7125 11927,7094 11981,7062 12026,7017 12058,6963 12089,6908 12106,6846 12106,6783 L 12106,4014 12106,4015 12106,4015 C 12106,3952 12089,3890 12058,3835 12026,3781 11981,3736 11927,3704 11872,3673 11810,3656 11747,3656 L 10312,3656 Z"/>
    <path fill="none" stroke="rgb(85,85,85)" stroke-width="106" stroke-linejoin="round" d="M 10312,3656 L 10313,3656 C 10250,3656 10188,3673 10133,3704 10079,3736 10034,3781 10002,3835 9971,3890 9954,3952 9954,4015 L 9954,6783 9954,6783 C 9954,6846 9971,6908 10002,6963 10034,7017 10079,7062 10133,7094 10188,7125 10250,7142 10313,7142 L 11747,7142 11747,7142 C 11810,7142 11872,7125 11927,7094 11981,7062 12026,7017 12058,6963 12089,6908 12106,6846 12106,6783 L 12106,4014 12106,4015 12106,4015 C 12106,3952 12089,3890 12058,3835 12026,3781 11981,3736 11927,3704 11872,3673 11810,3656 11747,3656 L 10312,3656 Z"/>
   </g>
  </g>
  <g class="com.sun.star.drawing.CustomShape">
   <g id="id6">
    <rect class="BoundingBox" stroke="none" fill="none" x="8342" y="4213" width="320" height="321"/>
    <path fill="rgb(68,119,170)" stroke="none" d="M 8661,4373 C 8661,4400 8654,4428 8640,4452 8626,4476 8605,4497 8581,4511 8557,4525 8529,4532 8502,4532 8474,4532 8446,4525 8422,4511 8398,4497 8377,4476 8363,4452 8349,4428 8342,4400 8342,4373 8342,4345 8349,4317 8363,4293 8377,4269 8398,4248 8422,4234 8446,4220 8474,4213 8502,4213 8529,4213 8557,4220 8581,4234 8605,4248 8626,4269 8640,4293 8654,4317 8661,4345 8661,4373 L 8661,4373 Z"/>
   </g>
  </g>
  <g class="com.sun.star.drawing.CustomShape">
   <g id="id7">
    <rect class="BoundingBox" stroke="none" fill="none" x="8363" y="5986" width="320" height="321"/>
    <path fill="rgb(238,102,119)" stroke="none" d="M 8682,6146 C 8682,6173 8675,6201 8661,6225 8647,6249 8626,6270 8602,6284 8578,6298 8550,6305 8523,6305 8495,6305 8467,6298 8443,6284 8419,6270 8398,6249 8384,6225 8370,6201 8363,6173 8363,6146 8363,6118 8370,6090 8384,6066 8398,6042 8419,6021 8443,6007 8467,5993 8495,5986 8523,5986 8550,5986 8578,5993 8602,6007 8626,6021 8647,6042 8661,6066 8675,6090 8682,6118 8682,6146 L 8682,6146 Z"/>
   </g>
  </g>
  <g class="com.sun.star.drawing.CustomShape">
   <g id="id8">
    <rect class="BoundingBox" stroke="none" fill="none" x="5417" y="4749" width="320" height="320"/>
    <path fill="rgb(68,119,170)" stroke="none" d="M 5736,4909 C 5736,4936 5729,4964 5715,4988 5701,5012 5680,5033 5656,5047 5632,5061 5604,5068 5577,5068 5549,5068 5521,5061 5497,5047 5473,5033 5452,5012 5438,4988 5424,4964 5417,4936 5417,4909 5417,4881 5424,4853 5438,4829 5452,4805 5473,4784 5497,4770 5521,4756 5549,4749 5577,4749 5604,4749 5632,4756 5656,4770 5680,4784 5701,4805 5715,4829 5729,4853 5736,4881 5736,4909 L 5736,4909 Z"/>
   </g>
  </g>
  <g class="com.sun.star.drawing.CustomShape">
   <g id="id9">
    <rect class="BoundingBox" stroke="none" fill="none" x="7306" y="5222" width="321" height="321"/>
    <path fill="rgb(68,119,170)" stroke="none" d="M 7625,5382 C 7625,5409 7618,5437 7604,5461 7590,5485 7569,5506 7545,5520 7521,5534 7493,5541 7466,5541 7438,5541 7410,5534 7386,5520 7362,5506 7341,5485 7327,5461 7313,5437 7306,5409 7306,5382 7306,5354 7313,5326 7327,5302 7341,5278 7362,5257 7386,5243 7410,5229 7438,5222 7466,5222 7493,5222 7521,5229 7545,5243 7569,5257 7590,5278 7604,5302 7618,5326 7625,5354 7625,5382 L 7625,5382 Z"/>
   </g>
  </g>
  <g class="com.sun.star.drawing.CustomShape">
   <g id="id10">
    <rect class="BoundingBox" stroke="none" fill="none" x="11342" y="4213" width="320" height="320"/>
    <path fill="rgb(68,119,170)" stroke="none" d="M 11661,4373 C 11661,4400 11654,4428 11640,4452 11626,4476 11605,4497 11581,4511 11557,4525 11529,4532 11502,4532 11474,4532 11446,4525 11422,4511 11398,4497 11377,4476 11363,4452 11349,4428 11342,4400 11342,4373 11342,4345 11349,4317 11363,4293 11377,4269 11398,4248 11422,4234 11446,4220 11474,4213 11502,4213 11529,4213 11557,4220 11581,4234 11605,4248 11626,4269 11640,4293 11654,4317 11661,4345 11661,4373 L 11661,4373 Z"/>
   </g>
  </g>
  <g class="com.sun.star.drawing.CustomShape">
   <g id="id11">
    <rect class="BoundingBox" stroke="none" fill="none" x="10880" y="6586" width="320" height="320"/>
    <path fill="rgb(238,102,119)" stroke="none" d="M 11199,6746 C 11199,6773 11192,6801 11178,6825 11164,6849 11143,6870 11119,6884 11095,6898 11067,6905 11040,6905 11012,6905 10984,6898 10960,6884 10936,6870 10915,6849 10901,6825 10887,6801 10880,6773 10880,6746 10880,6718 10887,6690 10901,6666 10915,6642 10936,6621 10960,6607 10984,6593 11012,6586 11040,6586 11067,6586 11095,6593 11119,6607 11143,6621 11164,6642 11178,6666 11192,6690 11199,6718 11199,6746 L 11199,6746 Z"/>
   </g>
  </g>
  <g class="com.sun.star.drawing.CustomShape">
   <g id="id12">
    <rect class="BoundingBox" stroke="none" fill="none" x="10511" y="4447" width="320" height="321"/>
    <path fill="rgb(68,119,170)" stroke="none" d="M 10830,4607 C 10830,4634 10823,4662 10809,4686 10795,4710 10774,4731 10750,4745 10726,4759 10698,4766 10671,4766 10643,4766 10615,4759 10591,4745 10567,4731 10546,4710 10532,4686 10518,4662 10511,4634 10511,4607 10511,4579 10518,4551 10532,4527 10546,4503 10567,4482 10591,4468 10615,4454 10643,4447 10671,4447 10698,4447 10726,4454 10750,4468 10774,4482 10795,4503 10809,4527 10823,4551 10830,4579 10830,4607 L 10830,4607 Z"/>
   </g>
  </g>
  <g class="com.sun.star.drawing.CustomShape">
   <g id="id13">
    <rect class="BoundingBox" stroke="none" fill="none" x="10879" y="4948" width="320" height="321"/>
    <path fill="rgb(68,119,170)" stroke="none" d="M 11198,5108 C 11198,5135 11191,5163 11177,5187 11163,5211 11142,5232 11118,5246 11094,5260 11066,5267 11039,5267 11011,5267 10983,5260 10959,5246 10935,5232 10914,5211 10900,5187 10886,5163 10879,5135 10879,5108 10879,5080 10886,5052 10900,5028 10914,5004 10935,4983 10959,4969 10983,4955 11011,4948 11039,4948 11066,4948 11094,4955 11118,4969 11142,4983 11163,5004 11177,5028 11191,5052 11198,5080 11198,5108 L 11198,5108 Z"/>
   </g>
  </g>
  <g class="com.sun.star.drawing.CustomShape">
   <g id="id14">
    <rect class="BoundingBox" stroke="none" fill="none" x="11176" y="6323" width="320" height="321"/>
    <path fill="rgb(68,119,170)" stroke="none" d="M 11495,6483 C 11495,6510 11488,6538 11474,6562 11460,6586 11439,6607 11415,6621 11391,6635 11363,6642 11336,6642 11308,6642 11280,6635 11256,6621 11232,6607 11211,6586 11197,6562 11183,6538 11176,6510 11176,6483 11176,6455 11183,6427 11197,6403 11211,6379 11232,6358 11256,6344 11280,6330 11308,6323 11336,6323 11363,6323 11391,6330 11415,6344 11439,6358 11460,6379 11474,6403 11488,6427 11495,6455 11495,6483 L 11495,6483 Z"/>
   </g>
  </g>
  <g class="com.sun.star.drawing.CustomShape">
   <g id="id15">
    <rect class="BoundingBox" stroke="none" fill="none" x="11281" y="5950" width="321" height="320"/>
    <path fill="rgb(68,119,170)" stroke="none" d="M 11600,6110 C 11600,6137 11593,6165 11579,6189 11565,6213 11544,6234 11520,6248 11496,6262 11468,6269 11441,6269 11413,6269 11385,6262 11361,6248 11337,6234 11316,6213 11302,6189 11288,6165 11281,6137 11281,6110 11281,6082 11288,6054 11302,6030 11316,6006 11337,5985 11361,5971 11385,5957 11413,5950 11441,5950 11468,5950 11496,5957 11520,5971 11544,5985 11565,6006 11579,6030 11593,6054 11600,6082 11600,6110 L 11600,6110 Z"/>
   </g>
  </g>
  <g class="com.sun.star.drawing.CustomShape">
   <g id="id16">
    <rect class="BoundingBox" stroke="none" fill="none" x="10479" y="5248" width="320" height="320"/>
    <path fill="rgb(68,119,170)" stroke="none" d="M 10798,5408 C 10798,5435 10791,5463 10777,5487 10763,5511 10742,5532 10718,5546 10694,5560 10666,5567 10639,5567 10611,5567 10583,5560 10559,5546 10535,5532 10514,5511 10500,5487 10486,5463 10479,5435 10479,5408 10479,5380 10486,5352 10500,5328 10514,5304 10535,5283 10559,5269 10583,5255 10611,5248 10639,5248 10666,5248 10694,5255 10718,5269 10742,5283 10763,5304 10777,5328 10791,5352 10798,5380 10798,5408 L 10798,5408 Z"/>
   </g>
  </g>
  <g class="com.sun.star.drawing.CustomShape">
   <g id="id17">
    <rect class="BoundingBox" stroke="none" fill="none" x="11280" y="5249" width="320" height="320"/>
    <path fill="rgb(68,119,170)" stroke="none" d="M 11599,5409 C 11599,5436 11592,5464 11578,5488 11564,5512 11543,5533 11519,5547 11495,5561 11467,5568 11440,5568 11412,5568 11384,5561 11360,5547 11336,5533 11315,5512 11301,5488 11287,5464 11280,5436 11280,5409 11280,5381 11287,5353 11301,5329 11315,5305 11336,5284 11360,5270 11384,5256 11412,5249 11440,5249 11467,5249 11495,5256 11519,5270 11543,5284 11564,5305 11578,5329 11592,5353 11599,5381 11599,5409 L 11599,5409 Z"/>
   </g>
  </g>
  <g class="com.sun.star.drawing.CustomShape">
   <g id="id18">
    <rect class="BoundingBox" stroke="none" fill="none" x="10181" y="5950" width="320" height="320"/>
    <path fill="rgb(68,119,170)" stroke="none" d="M 10500,6110 C 10500,6137 10493,6165 10479,6189 10465,6213 10444,6234 10420,6248 10396,6262 10368,6269 10341,6269 10313,6269 10285,6262 10261,6248 10237,6234 10216,6213 10202,6189 10188,6165 10181,6137 10181,6110 10181,6082 10188,6054 10202,6030 10216,6006 10237,5985 10261,5971 10285,5957 10313,5950 10341,5950 10368,5950 10396,5957 10420,5971 10444,5985 10465,6006 10479,6030 10493,6054 10500,6082 10500,6110 L 10500,6110 Z"/>
   </g>
  </g>
  <g class="com.sun.star.drawing.CustomShape">
   <g id="id19">
    <rect class="BoundingBox" stroke="none" fill="none" x="10282" y="6451" width="321" height="321"/>
    <path fill="rgb(68,119,170)" stroke="none" d="M 10601,6611 C 10601,6638 10594,6666 10580,6690 10566,6714 10545,6735 10521,6749 10497,6763 10469,6770 10442,6770 10414,6770 10386,6763 10362,6749 10338,6735 10317,6714 10303,6690 10289,6666 10282,6638 10282,6611 10282,6583 10289,6555 10303,6531 10317,6507 10338,6486 10362,6472 10386,6458 10414,6451 10442,6451 10469,6451 10497,6458 10521,6472 10545,6486 10566,6507 10580,6531 10594,6555 10601,6583 10601,6611 L 10601,6611 Z"/>
   </g>
  </g>
  <g class="com.sun.star.drawing.CustomShape">
   <g id="id20">
    <rect class="BoundingBox" stroke="none" fill="none" x="11576" y="6516" width="320" height="321"/>
    <path fill="rgb(68,119,170)" stroke="none" d="M 11895,6676 C 11895,6703 11888,6731 11874,6755 11860,6779 11839,6800 11815,6814 11791,6828 11763,6835 11736,6835 11708,6835 11680,6828 11656,6814 11632,6800 11611,6779 11597,6755 11583,6731 11576,6703 11576,6676 11576,6648 11583,6620 11597,6596 11611,6572 11632,6551 11656,6537 11680,6523 11708,6516 11736,6516 11763,6516 11791,6523 11815,6537 11839,6551 11860,6572 11874,6596 11888,6620 11895,6648 11895,6676 L 11895,6676 Z"/>
   </g>
  </g>
  <g class="com.sun.star.drawing.CustomShape">
   <g id="id21">
    <rect class="BoundingBox" stroke="none" fill="none" x="10784" y="5653" width="320" height="320"/>
    <path fill="rgb(68,119,170)" stroke="none" d="M 11103,5813 C 11103,5840 11096,5868 11082,5892 11068,5916 11047,5937 11023,5951 10999,5965 10971,5972 10944,5972 10916,5972 10888,5965 10864,5951 10840,5937 10819,5916 10805,5892 10791,5868 10784,5840 10784,5813 10784,5785 10791,5757 10805,5733 10819,5709 10840,5688 10864,5674 10888,5660 10916,5653 10944,5653 10971,5653 10999,5660 11023,5674 11047,5688 11068,5709 11082,5733 11096,5757 11103,5785 11103,5813 L 11103,5813 Z"/>
   </g>
  </g>
  <g class="com.sun.star.drawing.CustomShape">
   <g id="id22">
    <rect class="BoundingBox" stroke="none" fill="none" x="11329" y="3817" width="321" height="321"/>
    <path fill="rgb(238,102,119)" stroke="none" d="M 11648,3977 C 11648,4004 11641,4032 11627,4056 11613,4080 11592,4101 11568,4115 11544,4129 11516,4136 11489,4136 11461,4136 11433,4129 11409,4115 11385,4101 11364,4080 11350,4056 11336,4032 11329,4004 11329,3977 11329,3949 11336,3921 11350,3897 11364,3873 11385,3852 11409,3838 11433,3824 11461,3817 11489,3817 11516,3817 11544,3824 11568,3838 11592,3852 11613,3873 11627,3897 11641,3921 11648,3949 11648,3977 L 11648,3977 Z"/>
   </g>
  </g>
  <g class="com.sun.star.drawing.CustomShape">
   <g id="id23">
    <rect class="BoundingBox" stroke="none" fill="none" x="10942" y="4505" width="321" height="321"/>
    <path fill="rgb(238,102,119)" stroke="none" d="M 11261,4665 C 11261,4692 11254,4720 11240,4744 11226,4768 11205,4789 11181,4803 11157,4817 11129,4824 11102,4824 11074,4824 11046,4817 11022,4803 10998,4789 10977,4768 10963,4744 10949,4720 10942,4692 10942,4665 10942,4637 10949,4609 10963,4585 10977,4561 10998,4540 11022,4526 11046,4512 11074,4505 11102,4505 11129,4505 11157,4512 11181,4526 11205,4540 11226,4561 11240,4585 11254,4609 11261,4637 11261,4665 L 11261,4665 Z"/>
   </g>
  </g>
  <g class="com.sun.star.drawing.CustomShape">
   <g id="id24">
    <rect class="BoundingBox" stroke="none" fill="none" x="10160" y="4312" width="321" height="321"/>
    <path fill="rgb(238,102,119)" stroke="none" d="M 10479,4472 C 10479,4499 10472,4527 10458,4551 10444,4575 10423,4596 10399,4610 10375,4624 10347,4631 10320,4631 10292,4631 10264,4624 10240,4610 10216,4596 10195,4575 10181,4551 10167,4527 10160,4499 10160,4472 10160,4444 10167,4416 10181,4392 10195,4368 10216,4347 10240,4333 10264,4319 10292,4312 10320,4312 10347,4312 10375,4319 10399,4333 10423,4347 10444,4368 10458,4392 10472,4416 10479,4444 10479,4472 L 10479,4472 Z"/>
   </g>
  </g>
  <g class="com.sun.star.drawing.CustomShape">
   <g id="id25">
    <rect class="BoundingBox" stroke="none" fill="none" x="10161" y="5566" width="321" height="321"/>
    <path fill="rgb(238,102,119)" stroke="none" d="M 10480,5726 C 10480,5753 10473,5781 10459,5805 10445,5829 10424,5850 10400,5864 10376,5878 10348,5885 10321,5885 10293,5885 10265,5878 10241,5864 10217,5850 10196,5829 10182,5805 10168,5781 10161,5753 10161,5726 10161,5698 10168,5670 10182,5646 10196,5622 10217,5601 10241,5587 10265,5573 10293,5566 10321,5566 10348,5566 10376,5573 10400,5587 10424,5601 10445,5622 10459,5646 10473,5670 10480,5698 10480,5726 L 10480,5726 Z"/>
   </g>
  </g>
  <g class="com.sun.star.drawing.CustomShape">
   <g id="id26">
    <rect class="BoundingBox" stroke="none" fill="none" x="11599" y="5632" width="321" height="321"/>
    <path fill="rgb(238,102,119)" stroke="none" d="M 11918,5792 C 11918,5819 11911,5847 11897,5871 11883,5895 11862,5916 11838,5930 11814,5944 11786,5951 11759,5951 11731,5951 11703,5944 11679,5930 11655,5916 11634,5895 11620,5871 11606,5847 11599,5819 11599,5792 11599,5764 11606,5736 11620,5712 11634,5688 11655,5667 11679,5653 11703,5639 11731,5632 11759,5632 11786,5632 11814,5639 11838,5653 11862,5667 11883,5688 11897,5712 11911,5736 11918,5764 11918,5792 L 11918,5792 Z"/>
   </g>
  </g>
  <g class="com.sun.star.drawing.CustomShape">
   <g id="id27">
    <rect class="BoundingBox" stroke="none" fill="none" x="10600" y="6133" width="321" height="321"/>
    <path fill="rgb(238,102,119)" stroke="none" d="M 10919,6293 C 10919,6320 10912,6348 10898,6372 10884,6396 10863,6417 10839,6431 10815,6445 10787,6452 10760,6452 10732,6452 10704,6445 10680,6431 10656,6417 10635,6396 10621,6372 10607,6348 10600,6320 10600,6293 10600,6265 10607,6237 10621,6213 10635,6189 10656,6168 10680,6154 10704,6140 10732,6133 10760,6133 10787,6133 10815,6140 10839,6154 10863,6168 10884,6189 10898,6213 10912,6237 10919,6265 10919,6293 L 10919,6293 Z"/>
   </g>
  </g>
  <g class="com.sun.star.drawing.CustomShape">
   <g id="id28">
    <rect class="BoundingBox" stroke="none" fill="none" x="10296" y="4807" width="321" height="321"/>
    <path fill="rgb(238,102,119)" stroke="none" d="M 10615,4967 C 10615,4994 10608,5022 10594,5046 10580,5070 10559,5091 10535,5105 10511,5119 10483,5126 10456,5126 10428,5126 10400,5119 10376,5105 10352,5091 10331,5070 10317,5046 10303,5022 10296,4994 10296,4967 10296,4939 10303,4911 10317,4887 10331,4863 10352,4842 10376,4828 10400,4814 10428,4807 10456,4807 10483,4807 10511,4814 10535,4828 10559,4842 10580,4863 10594,4887 10608,4911 10615,4939 10615,4967 L 10615,4967 Z"/>
   </g>
  </g>
  <g class="com.sun.star.drawing.CustomShape">
   <g id="id29">
    <rect class="BoundingBox" stroke="none" fill="none" x="11480" y="4700" width="321" height="321"/>
    <path fill="rgb(238,102,119)" stroke="none" d="M 11799,4860 C 11799,4887 11792,4915 11778,4939 11764,4963 11743,4984 11719,4998 11695,5012 11667,5019 11640,5019 11612,5019 11584,5012 11560,4998 11536,4984 11515,4963 11501,4939 11487,4915 11480,4887 11480,4860 11480,4832 11487,4804 11501,4780 11515,4756 11536,4735 11560,4721 11584,4707 11612,4700 11640,4700 11667,4700 11695,4707 11719,4721 11743,4735 11764,4756 11778,4780 11792,4804 11799,4832 11799,4860 L 11799,4860 Z"/>
   </g>
  </g>
  <g class="com.sun.star.drawing.CustomShape">
   <g id="id30">
    <rect class="BoundingBox" stroke="none" fill="none" x="10619" y="3929" width="321" height="321"/>
    <path fill="rgb(238,102,119)" stroke="none" d="M 10938,4089 C 10938,4116 10931,4144 10917,4168 10903,4192 10882,4213 10858,4227 10834,4241 10806,4248 10779,4248 10751,4248 10723,4241 10699,4227 10675,4213 10654,4192 10640,4168 10626,4144 10619,4116 10619,4089 10619,4061 10626,4033 10640,4009 10654,3985 10675,3964 10699,3950 10723,3936 10751,3929 10779,3929 10806,3929 10834,3936 10858,3950 10882,3964 10903,3985 10917,4009 10931,4033 10938,4061 10938,4089 L 10938,4089 Z"/>
   </g>
  </g>
 </g>
</svg>