<?xml version="1.0" encoding="UTF-8"?>
<!DOCTYPE svg PUBLIC "-//W3C//DTD SVG 1.1//EN" "http://www.w3.org/Graphics/SVG/1.1/DTD/svg11.dtd">
<svg version="1.2" viewBox="17458 605 7007 19461" preserveAspectRatio="xMidYMid" fill-rule="evenodd" stroke-width="28.222" stroke-linejoin="round" xmlns="http://www.w3.org/2000/svg" xmlns:ooo="http://xml.openoffice.org/svg/export" xmlns:xlink="http://www.w3.org/1999/xlink" xmlns:presentation="http://sun.com/xmlns/staroffice/presentation" xmlns:smil="http://www.w3.org/2001/SMIL20/" xmlns:anim="urn:oasis:names:tc:opendocument:xmlns:animation:1.0" xmlns:svg="urn:oasis:names:tc:opendocument:xmlns:svg-compatible:1.0" xml:space="preserve">
 <defs class="EmbeddedBulletChars">
  <g id="bullet-char-template-57356" transform="scale(0.00048828125,-0.00048828125)">
   <path d="M 580,1141 L 1163,571 580,0 -4,571 580,1141 Z"/>
  </g>
  <g id="bullet-char-template-57354" transform="scale(0.00048828125,-0.00048828125)">
   <path d="M 8,1128 L 1137,1128 1137,0 8,0 8,1128 Z"/>
  </g>
  <g id="bullet-char-template-10146" transform="scale(0.00048828125,-0.00048828125)">
   <path d="M 174,0 L 602,739 174,1481 1456,739 174,0 Z M 1358,739 L 309,1346 659,739 1358,739 Z"/>
  </g>
  <g id="bullet-char-template-10132" transform="scale(0.00048828125,-0.00048828125)">
   <path d="M 2015,739 L 1276,0 717,0 1260,543 174,543 174,936 1260,936 717,1481 1274,1481 2015,739 Z"/>
  </g>
  <g id="bullet-char-template-10007" transform="scale(0.00048828125,-0.00048828125)">
   <path d="M 0,-2 C -7,14 -16,27 -25,37 L 356,567 C 262,823 215,952 215,954 215,979 228,992 255,992 264,992 276,990 289,987 310,991 331,999 354,1012 L 381,999 492,748 772,1049 836,1024 860,1049 C 881,1039 901,1025 922,1006 886,937 835,863 770,784 769,783 710,716 594,584 L 774,223 C 774,196 753,168 711,139 L 727,119 C 717,90 699,76 672,76 641,76 570,178 457,381 L 164,-76 C 142,-110 111,-127 72,-127 30,-127 9,-110 8,-76 1,-67 -2,-52 -2,-32 -2,-23 -1,-13 0,-2 Z"/>
  </g>
  <g id="bullet-char-template-10004" transform="scale(0.00048828125,-0.00048828125)">
   <path d="M 285,-33 C 182,-33 111,30 74,156 52,228 41,333 41,471 41,549 55,616 82,672 116,743 169,778 240,778 293,778 328,747 346,684 L 369,508 C 377,444 397,411 428,410 L 1163,1116 C 1174,1127 1196,1133 1229,1133 1271,1133 1292,1118 1292,1087 L 1292,965 C 1292,929 1282,901 1262,881 L 442,47 C 390,-6 338,-33 285,-33 Z"/>
  </g>
  <g id="bullet-char-template-9679" transform="scale(0.00048828125,-0.00048828125)">
   <path d="M 813,0 C 632,0 489,54 383,161 276,268 223,411 223,592 223,773 276,916 383,1023 489,1130 632,1184 813,1184 992,1184 1136,1130 1245,1023 1353,916 1407,772 1407,592 1407,412 1353,268 1245,161 1136,54 992,0 813,0 Z"/>
  </g>
  <g id="bullet-char-template-8226" transform="scale(0.00048828125,-0.00048828125)">
   <path d="M 346,457 C 273,457 209,483 155,535 101,586 74,649 74,723 74,796 101,859 155,911 209,963 273,989 346,989 419,989 480,963 531,910 582,859 608,796 608,723 608,648 583,586 532,535 482,483 420,457 346,457 Z"/>
  </g>
  <g id="bullet-char-template-8211" transform="scale(0.00048828125,-0.00048828125)">
   <path d="M -4,459 L 1135,459 1135,606 -4,606 -4,459 Z"/>
  </g>
  <g id="bullet-char-template-61548" transform="scale(0.00048828125,-0.00048828125)">
   <path d="M 173,740 C 173,903 231,1043 346,1159 462,1274 601,1332 765,1332 928,1332 1067,1274 1183,1159 1299,1043 1357,903 1357,740 1357,577 1299,437 1183,322 1067,206 928,148 765,148 601,148 462,206 346,322 231,437 173,577 173,740 Z"/>
  </g>
 </defs>
 <g ooo:name="page7" class="Page">
  <g class="Group">
   <g class="com.sun.star.drawing.OpenBezierShape">
    <g id="id3">
     <rect class="BoundingBox" stroke="none" fill="none" x="20858" y="605" width="3494" height="7343"/>
     <g style="opacity: 0.749019607843137">
      <path fill="none" stroke="rgb(85,85,85)" stroke-width="159" stroke-linejoin="round" d="M 22341,685 C 22523,1991 22505,3116 23050,3629 23595,4142 24487,4868 24223,5729 23959,6589 22193,8740 20938,7482"/>
     </g>
    </g>
   </g>
   <g class="com.sun.star.drawing.CustomShape">
    <g id="id4">
     <rect class="BoundingBox" stroke="none" fill="none" x="20908" y="2305" width="275" height="276"/>
     <path fill="rgb(68,119,170)" stroke="none" d="M 21182,2443 C 21182,2467 21176,2490 21164,2511 21152,2532 21134,2550 21114,2562 21093,2574 21069,2580 21045,2580 21021,2580 20997,2574 20977,2562 20956,2550 20938,2532 20926,2511 20914,2490 20908,2467 20908,2443 20908,2418 20914,2395 20926,2374 20938,2353 20956,2335 20977,2323 20997,2311 21021,2305 21045,2305 21069,2305 21093,2311 21114,2323 21134,2335 21152,2353 21164,2374 21176,2395 21182,2418 21182,2443 L 21182,2443 Z"/>
    </g>
   </g>
   <g class="com.sun.star.drawing.CustomShape">
    <g id="id5">
     <rect class="BoundingBox" stroke="none" fill="none" x="21231" y="3039" width="276" height="276"/>
     <path fill="rgb(68,119,170)" stroke="none" d="M 21506,3177 C 21506,3201 21500,3224 21488,3245 21476,3266 21458,3284 21437,3296 21416,3308 21393,3314 21369,3314 21344,3314 21321,3308 21300,3296 21279,3284 21261,3266 21249,3245 21237,3224 21231,3201 21231,3177 21231,3152 21237,3129 21249,3108 21261,3087 21279,3069 21300,3057 21321,3045 21344,3039 21369,3039 21393,3039 21416,3045 21437,3057 21458,3069 21476,3087 21488,3108 21500,3129 21506,3152 21506,3177 L 21506,3177 Z"/>
    </g>
   </g>
   <g class="com.sun.star.drawing.CustomShape">
    <g id="id6">
     <rect class="BoundingBox" stroke="none" fill="none" x="21898" y="5293" width="275" height="276"/>
     <path fill="rgb(68,119,170)" stroke="none" d="M 22172,5431 C 22172,5455 22166,5478 22154,5499 22142,5520 22124,5538 22104,5550 22083,5562 22059,5568 22035,5568 22011,5568 21987,5562 21967,5550 21946,5538 21928,5520 21916,5499 21904,5478 21898,5455 21898,5431 21898,5406 21904,5383 21916,5362 21928,5341 21946,5323 21967,5311 21987,5299 22011,5293 22035,5293 22059,5293 22083,5299 22104,5311 22124,5323 22142,5341 22154,5362 22166,5383 22172,5406 22172,5431 L 22172,5431 Z"/>
    </g>
   </g>
   <g class="com.sun.star.drawing.CustomShape">
    <g id="id7">
     <rect class="BoundingBox" stroke="none" fill="none" x="20410" y="6785" width="276" height="276"/>
     <path fill="rgb(68,119,170)" stroke="none" d="M 20685,6923 C 20685,6947 20679,6970 20667,6991 20655,7012 20637,7030 20616,7042 20595,7054 20572,7060 20548,7060 20523,7060 20500,7054 20479,7042 20458,7030 20440,7012 20428,6991 20416,6970 20410,6947 20410,6923 20410,6898 20416,6875 20428,6854 20440,6833 20458,6815 20479,6803 20500,6791 20523,6785 20548,6785 20572,6785 20595,6791 20616,6803 20637,6815 20655,6833 20667,6854 20679,6875 20685,6898 20685,6923 L 20685,6923 Z"/>
    </g>
   </g>
   <g class="com.sun.star.drawing.CustomShape">
    <g id="id8">
     <rect class="BoundingBox" stroke="none" fill="none" x="21469" y="6006" width="275" height="276"/>
     <path fill="rgb(68,119,170)" stroke="none" d="M 21743,6144 C 21743,6168 21737,6191 21725,6212 21713,6233 21695,6251 21675,6263 21654,6275 21630,6281 21606,6281 21582,6281 21558,6275 21538,6263 21517,6251 21499,6233 21487,6212 21475,6191 21469,6168 21469,6144 21469,6119 21475,6096 21487,6075 21499,6054 21517,6036 21538,6024 21558,6012 21582,6006 21606,6006 21630,6006 21654,6012 21675,6024 21695,6036 21713,6054 21725,6075 21737,6096 21743,6119 21743,6144 L 21743,6144 Z"/>
    </g>
   </g>
   <g class="com.sun.star.drawing.CustomShape">
    <g id="id9">
     <rect class="BoundingBox" stroke="none" fill="none" x="20930" y="6430" width="277" height="276"/>
     <path fill="rgb(68,119,170)" stroke="none" d="M 21205,6568 C 21205,6592 21199,6615 21187,6636 21175,6657 21157,6675 21136,6687 21115,6699 21092,6705 21068,6705 21043,6705 21020,6699 20999,6687 20978,6675 20960,6657 20948,6636 20936,6615 20930,6592 20930,6568 20930,6543 20936,6520 20948,6499 20960,6478 20978,6460 20999,6448 21020,6436 21043,6430 21068,6430 21092,6430 21115,6436 21136,6448 21157,6460 21175,6478 21187,6499 21199,6520 21205,6543 21205,6568 L 21205,6568 Z"/>
    </g>
   </g>
   <g class="com.sun.star.drawing.CustomShape">
    <g id="id10">
     <rect class="BoundingBox" stroke="none" fill="none" x="20773" y="1492" width="276" height="277"/>
     <path fill="rgb(68,119,170)" stroke="none" d="M 21048,1630 C 21048,1654 21042,1677 21030,1698 21018,1719 21000,1737 20979,1749 20958,1761 20935,1767 20911,1767 20886,1767 20863,1761 20842,1749 20821,1737 20803,1719 20791,1698 20779,1677 20773,1654 20773,1630 20773,1605 20779,1582 20791,1561 20803,1540 20821,1522 20842,1510 20863,1498 20886,1492 20911,1492 20935,1492 20958,1498 20979,1510 21000,1522 21018,1540 21030,1561 21042,1582 21048,1605 21048,1630 L 21048,1630 Z"/>
    </g>
   </g>
   <g class="com.sun.star.drawing.CustomShape">
    <g id="id11">
     <rect class="BoundingBox" stroke="none" fill="none" x="20733" y="666" width="277" height="276"/>
     <path fill="rgb(68,119,170)" stroke="none" d="M 21008,804 C 21008,828 21002,851 20990,872 20978,893 20960,911 20939,923 20918,935 20895,941 20871,941 20846,941 20823,935 20802,923 20781,911 20763,893 20751,872 20739,851 20733,828 20733,804 20733,779 20739,756 20751,735 20763,714 20781,696 20802,684 20823,672 20846,666 20871,666 20895,666 20918,672 20939,684 20960,696 20978,714 20990,735 21002,756 21008,779 21008,803 L 21008,804 Z"/>
    </g>
   </g>
   <g class="com.sun.star.drawing.CustomShape">
    <g id="id12">
     <rect class="BoundingBox" stroke="none" fill="none" x="22066" y="4559" width="276" height="277"/>
     <path fill="rgb(68,119,170)" stroke="none" d="M 22341,4697 C 22341,4721 22335,4744 22323,4765 22311,4786 22293,4804 22272,4816 22251,4828 22228,4834 22204,4834 22179,4834 22156,4828 22135,4816 22114,4804 22096,4786 22084,4765 22072,4744 22066,4721 22066,4697 22066,4672 22072,4649 22084,4628 22096,4607 22114,4589 22135,4577 22156,4565 22179,4559 22204,4559 22228,4559 22251,4565 22272,4577 22293,4589 22311,4607 22323,4628 22335,4649 22341,4672 22341,4697 L 22341,4697 Z"/>
    </g>
   </g>
  </g>
  <g class="Group">
   <g class="com.sun.star.drawing.OpenBezierShape">
    <g id="id13">
     <rect class="BoundingBox" stroke="none" fill="none" x="17458" y="12723" width="3494" height="7343"/>
     <g style="opacity: 0.749019607843137">
      <path fill="none" stroke="rgb(85,85,85)" stroke-width="159" stroke-linejoin="round" d="M 18941,12803 C 19123,14109 19105,15234 19650,15747 20195,16260 21087,16986 20823,17846 20559,18707 18793,20857 17538,19600"/>
     </g>
    </g>
   </g>
   <g class="com.sun.star.drawing.CustomShape">
    <g id="id14">
     <rect class="BoundingBox" stroke="none" fill="none" x="20909" y="15306" width="275" height="276"/>
     <path fill="rgb(68,119,170)" stroke="none" d="M 21183,15444 C 21183,15468 21177,15491 21165,15512 21153,15533 21135,15551 21115,15563 21094,15575 21070,15581 21046,15581 21022,15581 20998,15575 20978,15563 20957,15551 20939,15533 20927,15512 20915,15491 20909,15468 20909,15444 20909,15419 20915,15396 20927,15375 20939,15354 20957,15336 20978,15324 20998,15312 21022,15306 21046,15306 21070,15306 21094,15312 21115,15324 21135,15336 21153,15354 21165,15375 21177,15396 21183,15419 21183,15444 L 21183,15444 Z"/>
    </g>
   </g>
   <g class="com.sun.star.drawing.CustomShape">
    <g id="id15">
     <rect class="BoundingBox" stroke="none" fill="none" x="21232" y="16040" width="276" height="276"/>
     <path fill="rgb(68,119,170)" stroke="none" d="M 21507,16178 C 21507,16202 21501,16225 21489,16246 21477,16267 21459,16285 21438,16297 21417,16309 21394,16315 21370,16315 21345,16315 21322,16309 21301,16297 21280,16285 21262,16267 21250,16246 21238,16225 21232,16202 21232,16178 21232,16153 21238,16130 21250,16109 21262,16088 21280,16070 21301,16058 21322,16046 21345,16040 21370,16040 21394,16040 21417,16046 21438,16058 21459,16070 21477,16088 21489,16109 21501,16130 21507,16153 21507,16178 L 21507,16178 Z"/>
    </g>
   </g>
   <g class="com.sun.star.drawing.CustomShape">
    <g id="id16">
     <rect class="BoundingBox" stroke="none" fill="none" x="21899" y="18294" width="275" height="276"/>
     <path fill="rgb(68,119,170)" stroke="none" d="M 22173,18432 C 22173,18456 22167,18479 22155,18500 22143,18521 22125,18539 22105,18551 22084,18563 22060,18569 22036,18569 22012,18569 21988,18563 21968,18551 21947,18539 21929,18521 21917,18500 21905,18479 21899,18456 21899,18432 21899,18407 21905,18384 21917,18363 21929,18342 21947,18324 21968,18312 21988,18300 22012,18294 22036,18294 22060,18294 22084,18300 22105,18312 22125,18324 22143,18342 22155,18363 22167,18384 22173,18407 22173,18432 L 22173,18432 Z"/>
    </g>
   </g>
   <g class="com.sun.star.drawing.CustomShape">
    <g id="id17">
     <rect class="BoundingBox" stroke="none" fill="none" x="20411" y="19786" width="276" height="276"/>
     <path fill="rgb(68,119,170)" stroke="none" d="M 20686,19924 C 20686,19948 20680,19971 20668,19992 20656,20013 20638,20031 20617,20043 20596,20055 20573,20061 20549,20061 20524,20061 20501,20055 20480,20043 20459,20031 20441,20013 20429,19992 20417,19971 20411,19948 20411,19924 20411,19899 20417,19876 20429,19855 20441,19834 20459,19816 20480,19804 20501,19792 20524,19786 20549,19786 20573,19786 20596,19792 20617,19804 20638,19816 20656,19834 20668,19855 20680,19876 20686,19899 20686,19924 L 20686,19924 Z"/>
    </g>
   </g>
   <g class="com.sun.star.drawing.CustomShape">
    <g id="id18">
     <rect class="BoundingBox" stroke="none" fill="none" x="21470" y="19007" width="275" height="276"/>
     <path fill="rgb(68,119,170)" stroke="none" d="M 21744,19145 C 21744,19169 21738,19192 21726,19213 21714,19234 21696,19252 21676,19264 21655,19276 21631,19282 21607,19282 21583,19282 21559,19276 21539,19264 21518,19252 21500,19234 21488,19213 21476,19192 21470,19169 21470,19145 21470,19120 21476,19097 21488,19076 21500,19055 21518,19037 21539,19025 21559,19013 21583,19007 21607,19007 21631,19007 21655,19013 21676,19025 21696,19037 21714,19055 21726,19076 21738,19097 21744,19120 21744,19145 L 21744,19145 Z"/>
    </g>
   </g>
   <g class="com.sun.star.drawing.CustomShape">
    <g id="id19">
     <rect class="BoundingBox" stroke="none" fill="none" x="20931" y="19431" width="276" height="277"/>
     <path fill="rgb(68,119,170)" stroke="none" d="M 21206,19569 C 21206,19593 21200,19616 21188,19637 21176,19658 21158,19676 21137,19688 21116,19700 21093,19706 21069,19706 21044,19706 21021,19700 21000,19688 20979,19676 20961,19658 20949,19637 20937,19616 20931,19593 20931,19569 20931,19544 20937,19521 20949,19500 20961,19479 20979,19461 21000,19449 21021,19437 21044,19431 21069,19431 21093,19431 21116,19437 21137,19449 21158,19461 21176,19479 21188,19500 21200,19521 21206,19544 21206,19569 L 21206,19569 Z"/>
    </g>
   </g>
   <g class="com.sun.star.drawing.CustomShape">
    <g id="id20">
     <rect class="BoundingBox" stroke="none" fill="none" x="20774" y="14493" width="277" height="276"/>
     <path fill="rgb(68,119,170)" stroke="none" d="M 21049,14631 C 21049,14655 21043,14678 21031,14699 21019,14720 21001,14738 20980,14750 20959,14762 20936,14768 20912,14768 20887,14768 20864,14762 20843,14750 20822,14738 20804,14720 20792,14699 20780,14678 20774,14655 20774,14631 20774,14606 20780,14583 20792,14562 20804,14541 20822,14523 20843,14511 20864,14499 20887,14493 20912,14493 20936,14493 20959,14499 20980,14511 21001,14523 21019,14541 21031,14562 21043,14583 21049,14606 21049,14631 L 21049,14631 Z"/>
    </g>
   </g>
   <g class="com.sun.star.drawing.CustomShape">
    <g id="id21">
     <rect class="BoundingBox" stroke="none" fill="none" x="20734" y="13667" width="276" height="276"/>
     <path fill="rgb(68,119,170)" stroke="none" d="M 21009,13805 C 21009,13829 21003,13852 20991,13873 20979,13894 20961,13912 20940,13924 20919,13936 20896,13942 20872,13942 20847,13942 20824,13936 20803,13924 20782,13912 20764,13894 20752,13873 20740,13852 20734,13829 20734,13805 20734,13780 20740,13757 20752,13736 20764,13715 20782,13697 20803,13685 20824,13673 20847,13667 20872,13667 20896,13667 20919,13673 20940,13685 20961,13697 20979,13715 20991,13736 21003,13757 21009,13780 21009,13805 L 21009,13805 Z"/>
    </g>
   </g>
   <g class="com.sun.star.drawing.CustomShape">
    <g id="id22">
     <rect class="BoundingBox" stroke="none" fill="none" x="22067" y="17560" width="277" height="276"/>
     <path fill="rgb(68,119,170)" stroke="none" d="M 22342,17698 C 22342,17722 22336,17745 22324,17766 22312,17787 22294,17805 22273,17817 22252,17829 22229,17835 22205,17835 22180,17835 22157,17829 22136,17817 22115,17805 22097,17787 22085,17766 22073,17745 22067,17722 22067,17698 22067,17673 22073,17650 22085,17629 22097,17608 22115,17590 22136,17578 22157,17566 22180,17560 22205,17560 22229,17560 22252,17566 22273,17578 22294,17590 22312,17608 22324,17629 22336,17650 22342,17673 22342,17698 L 22342,17698 Z"/>
    </g>
   </g>
  </g>
  <g class="com.sun.star.drawing.CustomShape">
   <g id="id23">
    <rect class="BoundingBox" stroke="none" fill="none" x="20958" y="8860" width="935" height="3110"/>
    <path fill="rgb(204,187,68)" fill-opacity="0.8" stroke="none" d="M 21192,8861 L 21192,11192 20959,11192 21425,11969 21892,11192 21658,11192 21658,8861 21192,8861 Z"/>
   </g>
  </g>
  <g class="Group">
   <g class="com.sun.star.drawing.ClosedBezierShape">
    <g id="id24">
     <rect class="BoundingBox" stroke="none" fill="none" x="22009" y="10121" width="265" height="641"/>
     <path fill="rgb(204,187,68)" stroke="none" d="M 22231,10654 C 22227,10648 22223,10643 22220,10637 22205,10648 22190,10658 22175,10668 22147,10687 22127,10696 22116,10696 22108,10696 22105,10690 22105,10676 22105,10651 22116,10576 22147,10431 22151,10411 22154,10392 22158,10372 22194,10372 22229,10372 22264,10372 22267,10356 22270,10339 22273,10322 22237,10328 22203,10328 22167,10328 22183,10238 22192,10188 22211,10138 22208,10132 22204,10127 22200,10121 22181,10135 22153,10146 22125,10157 22116,10212 22108,10267 22099,10322 22055,10344 22030,10353 22013,10358 22012,10363 22011,10368 22010,10372 22038,10372 22066,10372 22094,10372 22075,10464 22057,10556 22038,10648 22032,10671 22027,10696 22027,10721 22027,10746 22035,10760 22055,10760 22088,10760 22122,10740 22200,10679 22217,10665 22211,10671 22231,10654 Z"/>
    </g>
   </g>
   <g class="com.sun.star.drawing.ClosedBezierShape">
    <g id="id25">
     <rect class="BoundingBox" stroke="none" fill="none" x="22636" y="10221" width="536" height="535"/>
     <path fill="rgb(204,187,68)" stroke="none" d="M 23171,10515 C 23171,10496 23171,10477 23171,10459 23091,10459 23010,10459 22930,10459 22930,10380 22930,10301 22930,10222 22912,10222 22895,10222 22877,10222 22877,10301 22877,10380 22877,10459 22797,10459 22717,10459 22637,10459 22637,10477 22637,10496 22637,10515 22717,10515 22797,10515 22877,10515 22877,10594 22877,10674 22877,10754 22895,10754 22912,10754 22930,10754 22930,10674 22930,10594 22930,10515 23010,10515 23091,10515 23171,10515 Z"/>
    </g>
   </g>
   <g class="com.sun.star.drawing.ClosedBezierShape">
    <g id="id26">
     <rect class="BoundingBox" stroke="none" fill="none" x="23478" y="10071" width="651" height="685"/>
     <path fill="rgb(204,187,68)" stroke="none" d="M 23806,10096 C 23697,10300 23588,10503 23478,10707 23479,10721 23480,10735 23481,10749 23554,10743 23627,10740 23699,10740 23820,10740 23943,10746 24066,10754 24085,10744 24105,10734 24125,10724 24125,10718 24126,10713 24127,10707 24021,10503 23934,10289 23864,10071 23845,10079 23825,10088 23806,10096 Z M 24001,10701 C 23887,10701 23772,10699 23655,10699 23621,10699 23588,10699 23551,10701 23550,10697 23549,10692 23548,10687 23627,10523 23705,10369 23800,10210 23804,10210 23808,10210 23811,10210 23877,10371 23968,10601 24007,10693 24005,10696 24003,10699 24001,10701 Z"/>
    </g>
   </g>
   <g class="com.sun.star.drawing.ClosedBezierShape">
    <g id="id27">
     <rect class="BoundingBox" stroke="none" fill="none" x="24200" y="10121" width="265" height="641"/>
     <path fill="rgb(204,187,68)" stroke="none" d="M 24418,10654 C 24415,10648 24413,10643 24410,10637 24395,10648 24380,10658 24365,10668 24337,10687 24318,10696 24306,10696 24298,10696 24292,10690 24292,10676 24292,10651 24304,10576 24334,10431 24339,10411 24344,10392 24348,10372 24383,10372 24417,10372 24452,10372 24456,10356 24459,10339 24463,10322 24427,10328 24393,10328 24357,10328 24371,10238 24382,10188 24399,10138 24395,10132 24391,10127 24387,10121 24368,10135 24343,10146 24312,10157 24304,10212 24295,10267 24287,10322 24245,10344 24220,10353 24203,10358 24202,10363 24201,10368 24200,10372 24227,10372 24254,10372 24281,10372 24263,10464 24246,10556 24228,10648 24222,10671 24214,10696 24214,10721 24214,10746 24225,10760 24245,10760 24278,10760 24312,10740 24387,10679 24407,10665 24401,10671 24418,10654 Z"/>
    </g>
   </g>
  </g>
  <g class="com.sun.star.drawing.EllipseShape">
   <g id="id28">
    <rect class="BoundingBox" stroke="none" fill="none" x="20641" y="4681" width="3366" height="436"/>
    <g style="opacity: 0.498039215686275">
     <path fill="none" stroke="rgb(85,85,85)" stroke-width="28" stroke-linejoin="round" d="M 23991,4695 C 23847,4743 23676,4788 23483,4828 23161,4894 22789,4944 22404,4973 22020,5002 21635,5010 21290,4994 21045,4983 21098,4983 21009,4976"/>
     <path fill="rgb(85,85,85)" stroke="none" d="M 21020,4865 L 21045,4839 20641,4929 21010,5116 20993,5085 20981,5050 20974,5012 20975,4972 20983,4933 20999,4897 21020,4865 Z"/>
    </g>
   </g>
  </g>
 </g>
</svg>