<?xml version="1.0" encoding="UTF-8"?>
<!DOCTYPE svg PUBLIC "-//W3C//DTD SVG 1.1//EN" "http://www.w3.org/Graphics/SVG/1.1/DTD/svg11.dtd">
<svg version="1.2" viewBox="712 6265 12253 9052" preserveAspectRatio="xMidYMid" fill-rule="evenodd" stroke-width="28.222" stroke-linejoin="round" xmlns="http://www.w3.org/2000/svg" xmlns:ooo="http://xml.openoffice.org/svg/export" xmlns:xlink="http://www.w3.org/1999/xlink" xmlns:presentation="http://sun.com/xmlns/staroffice/presentation" xmlns:smil="http://www.w3.org/2001/SMIL20/" xmlns:anim="urn:oasis:names:tc:opendocument:xmlns:animation:1.0" xmlns:svg="urn:oasis:names:tc:opendocument:xmlns:svg-compatible:1.0" xml:space="preserve">
 <defs class="EmbeddedBulletChars">
  <g id="bullet-char-template-57356" transform="scale(0.00048828125,-0.00048828125)">
   <path d="M 580,1141 L 1163,571 580,0 -4,571 580,1141 Z"/>
  </g>
  <g id="bullet-char-template-57354" transform="scale(0.00048828125,-0.00048828125)">
   <path d="M 8,1128 L 1137,1128 1137,0 8,0 8,1128 Z"/>
  </g>
  <g id="bullet-char-template-10146" transform="scale(0.00048828125,-0.00048828125)">
   <path d="M 174,0 L 602,739 174,1481 1456,739 174,0 Z M 1358,739 L 309,1346 659,739 1358,739 Z"/>
  </g>
  <g id="bullet-char-template-10132" transform="scale(0.00048828125,-0.00048828125)">
   <path d="M 2015,739 L 1276,0 717,0 1260,543 174,543 174,936 1260,936 717,1481 1274,1481 2015,739 Z"/>
  </g>
  <g id="bullet-char-template-10007" transform="scale(0.00048828125,-0.00048828125)">
   <path d="M 0,-2 C -7,14 -16,27 -25,37 L 356,567 C 262,823 215,952 215,954 215,979 228,992 255,992 264,992 276,990 289,987 310,991 331,999 354,1012 L 381,999 492,748 772,1049 836,1024 860,1049 C 881,1039 901,1025 922,1006 886,937 835,863 770,784 769,783 710,716 594,584 L 774,223 C 774,196 753,168 711,139 L 727,119 C 717,90 699,76 672,76 641,76 570,178 457,381 L 164,-76 C 142,-110 111,-127 72,-127 30,-127 9,-110 8,-76 1,-67 -2,-52 -2,-32 -2,-23 -1,-13 0,-2 Z"/>
  </g>
  <g id="bullet-char-template-10004" transform="scale(0.00048828125,-0.00048828125)">
   <path d="M 285,-33 C 182,-33 111,30 74,156 52,228 41,333 41,471 41,549 55,616 82,672 116,743 169,778 240,778 293,778 328,747 346,684 L 369,508 C 377,444 397,411 428,410 L 1163,1116 C 1174,1127 1196,1133 1229,1133 1271,1133 1292,1118 1292,1087 L 1292,965 C 1292,929 1282,901 1262,881 L 442,47 C 390,-6 338,-33 285,-33 Z"/>
  </g>
  <g id="bullet-char-template-9679" transform="scale(0.00048828125,-0.00048828125)">
   <path d="M 813,0 C 632,0 489,54 383,161 276,268 223,411 223,592 223,773 276,916 383,1023 489,1130 632,1184 813,1184 992,1184 1136,1130 1245,1023 1353,916 1407,772 1407,592 1407,412 1353,268 1245,161 1136,54 992,0 813,0 Z"/>
  </g>
  <g id="bullet-char-template-8226" transform="scale(0.00048828125,-0.00048828125)">
   <path d="M 346,457 C 273,457 209,483 155,535 101,586 74,649 74,723 74,796 101,859 155,911 209,963 273,989 346,989 419,989 480,963 531,910 582,859 608,796 608,723 608,648 583,586 532,535 482,483 420,457 346,457 Z"/>
  </g>
  <g id="bullet-char-template-8211" transform="scale(0.00048828125,-0.00048828125)">
   <path d="M -4,459 L 1135,459 1135,606 -4,606 -4,459 Z"/>
  </g>
  <g id="bullet-char-template-61548" transform="scale(0.00048828125,-0.00048828125)">
   <path d="M 173,740 C 173,903 231,1043 346,1159 462,1274 601,1332 765,1332 928,1332 1067,1274 1183,1159 1299,1043 1357,903 1357,740 1357,577 1299,437 1183,322 1067,206 928,148 765,148 601,148 462,206 346,322 231,437 173,577 173,740 Z"/>
  </g>
 </defs>
 <g ooo:name="page18" class="Page">
  <g class="com.sun.star.drawing.CustomShape">
   <g id="id3">
    <rect class="BoundingBox" stroke="none" fill="none" x="3071" y="6993" width="7596" height="7596"/>
    <path fill="rgb(187,187,187)" fill-opacity="0.251" stroke="none" d="M 6869,14535 L 3124,14535 3124,7046 10613,7046 10613,14535 6869,14535 Z"/>
    <g style="opacity: 0.8">
     <path fill="none" stroke="rgb(119,119,119)" stroke-width="106" stroke-linejoin="round" d="M 6869,14535 L 3124,14535 3124,7046 10613,7046 10613,14535 6869,14535 Z"/>
    </g>
   </g>
  </g>
  <g class="com.sun.star.drawing.LineShape">
   <g id="id4">
    <rect class="BoundingBox" stroke="none" fill="none" x="5783" y="6265" width="2093" height="652"/>
    <path fill="none" stroke="rgb(102,204,238)" stroke-width="159" stroke-linejoin="round" d="M 5863,6591 L 7193,6591"/>
    <path fill="rgb(102,204,238)" stroke="none" d="M 7201,6913 L 7848,6625 7867,6611 7875,6592 7867,6571 7851,6557 7201,6269 7193,6266 7188,6266 7174,6269 7161,6277 7152,6288 7150,6301 7150,6881 7153,6894 7161,6908 7174,6913 7188,6916 7193,6916 7201,6913 Z"/>
   </g>
  </g>
  <g class="com.sun.star.drawing.LineShape">
   <g id="id5">
    <rect class="BoundingBox" stroke="none" fill="none" x="5783" y="14665" width="2093" height="652"/>
    <path fill="none" stroke="rgb(102,204,238)" stroke-width="159" stroke-linejoin="round" d="M 5863,14991 L 7193,14991"/>
    <path fill="rgb(102,204,238)" stroke="none" d="M 7201,15313 L 7848,15025 7867,15011 7875,14992 7867,14971 7851,14957 7201,14669 7193,14666 7188,14666 7174,14669 7161,14677 7152,14688 7150,14701 7150,15281 7153,15294 7161,15308 7174,15313 7188,15316 7193,15316 7201,15313 Z"/>
   </g>
  </g>
  <g class="com.sun.star.drawing.LineShape">
   <g id="id6">
    <rect class="BoundingBox" stroke="none" fill="none" x="712" y="10465" width="2093" height="652"/>
    <path fill="none" stroke="rgb(102,204,238)" stroke-width="159" stroke-linejoin="round" d="M 792,10791 L 2122,10791"/>
    <path fill="rgb(102,204,238)" stroke="none" d="M 2130,11113 L 2777,10825 2796,10811 2804,10792 2796,10771 2780,10757 2130,10469 2122,10466 2117,10466 2103,10469 2090,10477 2081,10488 2079,10501 2079,11081 2082,11094 2090,11108 2103,11113 2117,11116 2122,11116 2130,11113 Z"/>
   </g>
  </g>
  <g class="com.sun.star.drawing.LineShape">
   <g id="id7">
    <rect class="BoundingBox" stroke="none" fill="none" x="10872" y="10465" width="2093" height="652"/>
    <path fill="none" stroke="rgb(102,204,238)" stroke-width="159" stroke-linejoin="round" d="M 10952,10791 L 12282,10791"/>
    <path fill="rgb(102,204,238)" stroke="none" d="M 12290,11113 L 12937,10825 12956,10811 12964,10792 12956,10771 12940,10757 12290,10469 12282,10466 12277,10466 12263,10469 12250,10477 12241,10488 12239,10501 12239,11081 12242,11094 12250,11108 12263,11113 12277,11116 12282,11116 12290,11113 Z"/>
   </g>
  </g>
  <g class="com.sun.star.drawing.LineShape">
   <g id="id8">
    <rect class="BoundingBox" stroke="none" fill="none" x="8312" y="10465" width="2093" height="652"/>
    <path fill="none" stroke="rgb(238,102,119)" stroke-width="159" stroke-linejoin="round" d="M 10324,10791 L 8994,10791"/>
    <path fill="rgb(238,102,119)" stroke="none" d="M 8986,10469 L 8339,10757 8320,10771 8312,10789 8320,10811 8336,10825 8986,11113 8994,11116 8999,11116 9013,11113 9026,11105 9034,11094 9037,11081 9037,10501 9035,10488 9026,10474 9013,10469 8999,10466 8994,10466 8986,10469 Z"/>
   </g>
  </g>
  <g class="com.sun.star.drawing.LineShape">
   <g id="id9">
    <rect class="BoundingBox" stroke="none" fill="none" x="3452" y="10465" width="2093" height="652"/>
    <path fill="none" stroke="rgb(238,102,119)" stroke-width="159" stroke-linejoin="round" d="M 5464,10791 L 4134,10791"/>
    <path fill="rgb(238,102,119)" stroke="none" d="M 4126,10469 L 3479,10757 3460,10771 3452,10789 3460,10811 3476,10825 4126,11113 4134,11116 4139,11116 4153,11113 4166,11105 4174,11094 4177,11081 4177,10501 4175,10488 4166,10474 4153,10469 4139,10466 4134,10466 4126,10469 Z"/>
   </g>
  </g>
  <g class="com.sun.star.drawing.LineShape">
   <g id="id10">
    <rect class="BoundingBox" stroke="none" fill="none" x="5863" y="13665" width="2093" height="652"/>
    <path fill="none" stroke="rgb(238,102,119)" stroke-width="159" stroke-linejoin="round" d="M 7875,13991 L 6545,13991"/>
    <path fill="rgb(238,102,119)" stroke="none" d="M 6537,13669 L 5890,13957 5871,13971 5863,13989 5871,14011 5887,14025 6537,14313 6545,14316 6550,14316 6564,14313 6577,14305 6585,14294 6588,14281 6588,13701 6586,13688 6577,13674 6564,13669 6550,13666 6545,13666 6537,13669 Z"/>
   </g>
  </g>
  <g class="com.sun.star.drawing.LineShape">
   <g id="id11">
    <rect class="BoundingBox" stroke="none" fill="none" x="5863" y="7265" width="2093" height="652"/>
    <path fill="none" stroke="rgb(238,102,119)" stroke-width="159" stroke-linejoin="round" d="M 7875,7591 L 6545,7591"/>
    <path fill="rgb(238,102,119)" stroke="none" d="M 6537,7269 L 5890,7557 5871,7571 5863,7589 5871,7611 5887,7625 6537,7913 6545,7916 6550,7916 6564,7913 6577,7905 6585,7894 6588,7881 6588,7301 6586,7288 6577,7274 6564,7269 6550,7266 6545,7266 6537,7269 Z"/>
   </g>
  </g>
 </g>
</svg>