<?xml version="1.0" encoding="UTF-8"?>
<!DOCTYPE svg PUBLIC "-//W3C//DTD SVG 1.1//EN" "http://www.w3.org/Graphics/SVG/1.1/DTD/svg11.dtd">
<svg version="1.2" viewBox="15332 11174 7414 8501" preserveAspectRatio="xMidYMid" fill-rule="evenodd" stroke-width="28.222" stroke-linejoin="round" xmlns="http://www.w3.org/2000/svg" xmlns:ooo="http://xml.openoffice.org/svg/export" xmlns:xlink="http://www.w3.org/1999/xlink" xmlns:presentation="http://sun.com/xmlns/staroffice/presentation" xmlns:smil="http://www.w3.org/2001/SMIL20/" xmlns:anim="urn:oasis:names:tc:opendocument:xmlns:animation:1.0" xmlns:svg="urn:oasis:names:tc:opendocument:xmlns:svg-compatible:1.0" xml:space="preserve">
 <defs class="EmbeddedBulletChars">
  <g id="bullet-char-template-57356" transform="scale(0.00048828125,-0.00048828125)">
   <path d="M 580,1141 L 1163,571 580,0 -4,571 580,1141 Z"/>
  </g>
  <g id="bullet-char-template-57354" transform="scale(0.00048828125,-0.00048828125)">
   <path d="M 8,1128 L 1137,1128 1137,0 8,0 8,1128 Z"/>
  </g>
  <g id="bullet-char-template-10146" transform="scale(0.00048828125,-0.00048828125)">
   <path d="M 174,0 L 602,739 174,1481 1456,739 174,0 Z M 1358,739 L 309,1346 659,739 1358,739 Z"/>
  </g>
  <g id="bullet-char-template-10132" transform="scale(0.00048828125,-0.00048828125)">
   <path d="M 2015,739 L 1276,0 717,0 1260,543 174,543 174,936 1260,936 717,1481 1274,1481 2015,739 Z"/>
  </g>
  <g id="bullet-char-template-10007" transform="scale(0.00048828125,-0.00048828125)">
   <path d="M 0,-2 C -7,14 -16,27 -25,37 L 356,567 C 262,823 215,952 215,954 215,979 228,992 255,992 264,992 276,990 289,987 310,991 331,999 354,1012 L 381,999 492,748 772,1049 836,1024 860,1049 C 881,1039 901,1025 922,1006 886,937 835,863 770,784 769,783 710,716 594,584 L 774,223 C 774,196 753,168 711,139 L 727,119 C 717,90 699,76 672,76 641,76 570,178 457,381 L 164,-76 C 142,-110 111,-127 72,-127 30,-127 9,-110 8,-76 1,-67 -2,-52 -2,-32 -2,-23 -1,-13 0,-2 Z"/>
  </g>
  <g id="bullet-char-template-10004" transform="scale(0.00048828125,-0.00048828125)">
   <path d="M 285,-33 C 182,-33 111,30 74,156 52,228 41,333 41,471 41,549 55,616 82,672 116,743 169,778 240,778 293,778 328,747 346,684 L 369,508 C 377,444 397,411 428,410 L 1163,1116 C 1174,1127 1196,1133 1229,1133 1271,1133 1292,1118 1292,1087 L 1292,965 C 1292,929 1282,901 1262,881 L 442,47 C 390,-6 338,-33 285,-33 Z"/>
  </g>
  <g id="bullet-char-template-9679" transform="scale(0.00048828125,-0.00048828125)">
   <path d="M 813,0 C 632,0 489,54 383,161 276,268 223,411 223,592 223,773 276,916 383,1023 489,1130 632,1184 813,1184 992,1184 1136,1130 1245,1023 1353,916 1407,772 1407,592 1407,412 1353,268 1245,161 1136,54 992,0 813,0 Z"/>
  </g>
  <g id="bullet-char-template-8226" transform="scale(0.00048828125,-0.00048828125)">
   <path d="M 346,457 C 273,457 209,483 155,535 101,586 74,649 74,723 74,796 101,859 155,911 209,963 273,989 346,989 419,989 480,963 531,910 582,859 608,796 608,723 608,648 583,586 532,535 482,483 420,457 346,457 Z"/>
  </g>
  <g id="bullet-char-template-8211" transform="scale(0.00048828125,-0.00048828125)">
   <path d="M -4,459 L 1135,459 1135,606 -4,606 -4,459 Z"/>
  </g>
  <g id="bullet-char-template-61548" transform="scale(0.00048828125,-0.00048828125)">
   <path d="M 173,740 C 173,903 231,1043 346,1159 462,1274 601,1332 765,1332 928,1332 1067,1274 1183,1159 1299,1043 1357,903 1357,740 1357,577 1299,437 1183,322 1067,206 928,148 765,148 601,148 462,206 346,322 231,437 173,577 173,740 Z"/>
  </g>
 </defs>
 <g ooo:name="page6" class="Page">
  <g class="com.sun.star.drawing.OpenBezierShape">
   <g id="id3">
    <rect class="BoundingBox" stroke="none" fill="none" x="15498" y="11174" width="4031" height="8501"/>
    <g style="opacity: 0.749019607843137">
     <path fill="none" stroke="rgb(85,85,85)" stroke-width="159" stroke-linejoin="round" d="M 17208,11254 C 17418,12772 17397,14077 18030,14673 18664,15269 19699,16111 19393,17110 19086,18109 17035,20607 15578,19147"/>
    </g>
   </g>
  </g>
  <g class="Group">
   <g class="com.sun.star.drawing.ClosedBezierShape">
    <g id="id4">
     <rect class="BoundingBox" stroke="none" fill="none" x="15332" y="16545" width="711" height="81"/>
     <path fill="rgb(170,51,119)" stroke="none" d="M 15332,16545 C 15568,16545 15805,16545 16041,16545 16041,16572 16041,16598 16041,16625 15805,16625 15568,16625 15332,16625 15332,16598 15332,16572 15332,16545 Z"/>
    </g>
   </g>
   <g class="com.sun.star.drawing.ClosedBezierShape">
    <g id="id5">
     <rect class="BoundingBox" stroke="none" fill="none" x="16135" y="16024" width="625" height="923"/>
     <path fill="rgb(170,51,119)" stroke="none" d="M 16759,16946 C 16759,16934 16759,16921 16759,16908 16737,16907 16716,16906 16695,16904 16631,16897 16615,16882 16615,16803 16615,16770 16615,16737 16615,16705 16695,16705 16721,16705 16759,16708 16759,16676 16759,16645 16759,16613 16723,16615 16695,16618 16650,16618 16638,16618 16626,16618 16615,16618 16615,16556 16615,16494 16615,16433 16615,16198 16619,16085 16623,16028 16618,16027 16613,16025 16607,16025 16575,16036 16542,16047 16510,16058 16385,16262 16260,16466 16136,16670 16141,16681 16146,16693 16151,16705 16268,16705 16385,16705 16502,16705 16502,16737 16502,16770 16502,16803 16502,16882 16487,16901 16423,16904 16395,16906 16368,16907 16339,16908 16339,16921 16339,16934 16339,16946 16412,16942 16483,16942 16555,16942 16623,16942 16691,16942 16759,16946 Z M 16502,16618 C 16407,16618 16314,16618 16219,16618 16314,16463 16407,16308 16502,16153 16502,16308 16502,16463 16502,16618 Z"/>
    </g>
   </g>
   <g class="com.sun.star.drawing.ClosedBezierShape">
    <g id="id6">
     <rect class="BoundingBox" stroke="none" fill="none" x="17068" y="16024" width="436" height="1176"/>
     <path fill="rgb(170,51,119)" stroke="none" d="M 17502,16066 C 17502,16052 17502,16038 17502,16025 17439,16028 17371,16028 17307,16028 17242,16028 17178,16028 17114,16025 17114,16038 17114,16052 17114,16066 17136,16068 17157,16068 17178,16070 17239,16074 17246,16085 17246,16187 17246,16446 17246,16706 17246,16965 17246,17075 17228,17116 17174,17116 17141,17116 17114,17108 17084,17089 17079,17092 17074,17095 17069,17097 17071,17130 17074,17163 17076,17195 17088,17196 17099,17198 17110,17199 17112,17199 17112,17199 17114,17199 17163,17199 17239,17157 17288,17093 17356,17014 17371,16946 17371,16787 17371,16588 17371,16387 17371,16187 17371,16085 17378,16074 17439,16070 17460,16068 17482,16068 17502,16066 Z"/>
    </g>
   </g>
   <g class="com.sun.star.drawing.ClosedBezierShape">
    <g id="id7">
     <rect class="BoundingBox" stroke="none" fill="none" x="17615" y="15960" width="470" height="1251"/>
     <path fill="rgb(170,51,119)" stroke="none" d="M 17616,17210 C 17641,17210 17666,17210 17691,17210 17822,16793 17953,16377 18084,15960 18060,15960 18036,15960 18013,15960 17880,16377 17748,16793 17616,17210 Z"/>
    </g>
   </g>
   <g class="com.sun.star.drawing.ClosedBezierShape">
    <g id="id8">
     <rect class="BoundingBox" stroke="none" fill="none" x="18212" y="16322" width="482" height="648"/>
     <path fill="rgb(170,51,119)" stroke="none" d="M 18692,16745 C 18692,16704 18681,16674 18654,16647 18621,16613 18575,16598 18462,16576 18353,16557 18315,16530 18315,16466 18315,16402 18364,16364 18443,16364 18530,16364 18598,16409 18598,16473 18598,16483 18598,16494 18598,16504 18610,16504 18623,16504 18635,16504 18640,16428 18640,16394 18643,16353 18572,16330 18526,16322 18470,16322 18318,16322 18224,16394 18224,16511 18224,16576 18251,16621 18315,16651 18348,16666 18421,16685 18511,16707 18567,16719 18594,16745 18594,16798 18594,16870 18526,16919 18435,16919 18337,16919 18269,16873 18269,16806 18269,16788 18269,16771 18269,16753 18256,16753 18242,16753 18228,16753 18228,16843 18224,16885 18213,16938 18281,16960 18334,16968 18394,16968 18567,16968 18692,16878 18692,16745 Z"/>
    </g>
   </g>
  </g>
  <g class="Group">
   <g class="com.sun.star.drawing.ClosedBezierShape">
    <g id="id9">
     <rect class="BoundingBox" stroke="none" fill="none" x="19383" y="14893" width="723" height="723"/>
     <path fill="rgb(68,119,170)" stroke="none" d="M 20104,15290 C 20104,15266 20104,15242 20104,15218 19996,15218 19888,15218 19780,15218 19780,15110 19780,15002 19780,14893 19756,14893 19732,14893 19708,14893 19708,15002 19708,15110 19708,15218 19600,15218 19492,15218 19384,15218 19384,15242 19384,15266 19384,15290 19492,15290 19600,15290 19708,15290 19708,15398 19708,15506 19708,15615 19732,15615 19756,15615 19780,15615 19780,15506 19780,15398 19780,15290 19888,15290 19996,15290 20104,15290 Z"/>
    </g>
   </g>
   <g class="com.sun.star.drawing.ClosedBezierShape">
    <g id="id10">
     <rect class="BoundingBox" stroke="none" fill="none" x="20190" y="14693" width="625" height="923"/>
     <path fill="rgb(68,119,170)" stroke="none" d="M 20813,15615 C 20813,15602 20813,15589 20813,15577 20792,15576 20770,15574 20749,15573 20685,15566 20670,15550 20670,15471 20670,15438 20670,15406 20670,15373 20749,15373 20775,15373 20813,15377 20813,15345 20813,15314 20813,15282 20777,15284 20749,15286 20704,15286 20692,15286 20681,15286 20670,15286 20670,15224 20670,15163 20670,15101 20670,14867 20674,14754 20677,14697 20672,14696 20667,14694 20662,14693 20630,14705 20597,14716 20564,14727 20440,14931 20315,15135 20191,15339 20196,15350 20201,15362 20206,15373 20323,15373 20440,15373 20557,15373 20557,15406 20557,15438 20557,15471 20557,15550 20542,15569 20478,15573 20450,15574 20422,15576 20395,15577 20395,15589 20395,15602 20395,15615 20466,15611 20538,15611 20610,15611 20677,15611 20745,15611 20813,15615 Z M 20557,15286 C 20462,15286 20368,15286 20274,15286 20368,15131 20462,14976 20557,14822 20557,14976 20557,15131 20557,15286 Z"/>
    </g>
   </g>
   <g class="com.sun.star.drawing.ClosedBezierShape">
    <g id="id11">
     <rect class="BoundingBox" stroke="none" fill="none" x="21122" y="14693" width="436" height="1176"/>
     <path fill="rgb(68,119,170)" stroke="none" d="M 21556,14735 C 21556,14721 21556,14707 21556,14693 21492,14697 21424,14697 21360,14697 21296,14697 21232,14697 21168,14693 21168,14707 21168,14721 21168,14735 21189,14736 21210,14737 21232,14739 21292,14742 21300,14754 21300,14856 21300,15115 21300,15374 21300,15634 21300,15743 21281,15785 21228,15785 21194,15785 21168,15777 21137,15758 21132,15761 21127,15763 21122,15766 21125,15798 21127,15831 21130,15864 21141,15865 21153,15866 21164,15868 21165,15868 21166,15868 21168,15868 21217,15868 21292,15826 21341,15762 21409,15683 21424,15615 21424,15456 21424,15256 21424,15056 21424,14856 21424,14754 21432,14742 21492,14739 21513,14737 21535,14736 21556,14735 Z"/>
    </g>
   </g>
   <g class="com.sun.star.drawing.ClosedBezierShape">
    <g id="id12">
     <rect class="BoundingBox" stroke="none" fill="none" x="21669" y="14629" width="469" height="1252"/>
     <path fill="rgb(68,119,170)" stroke="none" d="M 21669,15879 C 21694,15879 21720,15879 21745,15879 21875,15462 22006,15046 22137,14629 22113,14629 22089,14629 22065,14629 21933,15046 21801,15462 21669,15879 Z"/>
    </g>
   </g>
   <g class="com.sun.star.drawing.ClosedBezierShape">
    <g id="id13">
     <rect class="BoundingBox" stroke="none" fill="none" x="22265" y="14991" width="481" height="648"/>
     <path fill="rgb(68,119,170)" stroke="none" d="M 22744,15415 C 22744,15373 22733,15343 22706,15316 22672,15282 22627,15267 22514,15245 22405,15226 22367,15199 22367,15135 22367,15071 22416,15033 22495,15033 22582,15033 22650,15078 22650,15143 22650,15153 22650,15163 22650,15173 22662,15173 22675,15173 22687,15173 22691,15097 22691,15063 22695,15022 22623,14999 22578,14992 22522,14992 22371,14992 22276,15063 22276,15180 22276,15245 22303,15290 22367,15320 22401,15335 22472,15354 22563,15377 22620,15388 22646,15415 22646,15467 22646,15539 22578,15588 22488,15588 22390,15588 22322,15543 22322,15475 22322,15457 22322,15440 22322,15422 22308,15422 22294,15422 22280,15422 22280,15513 22276,15554 22265,15607 22333,15630 22386,15637 22446,15637 22620,15637 22744,15547 22744,15415 Z"/>
    </g>
   </g>
  </g>
 </g>
</svg>