<?xml version="1.0" encoding="UTF-8"?>
<!DOCTYPE svg PUBLIC "-//W3C//DTD SVG 1.1//EN" "http://www.w3.org/Graphics/SVG/1.1/DTD/svg11.dtd">
<svg version="1.2" viewBox="5484 546 16132 7524" preserveAspectRatio="xMidYMid" fill-rule="evenodd" stroke-width="28.222" stroke-linejoin="round" xmlns="http://www.w3.org/2000/svg" xmlns:ooo="http://xml.openoffice.org/svg/export" xmlns:xlink="http://www.w3.org/1999/xlink" xmlns:presentation="http://sun.com/xmlns/staroffice/presentation" xmlns:smil="http://www.w3.org/2001/SMIL20/" xmlns:anim="urn:oasis:names:tc:opendocument:xmlns:animation:1.0" xmlns:svg="urn:oasis:names:tc:opendocument:xmlns:svg-compatible:1.0" xml:space="preserve">
 <defs class="EmbeddedBulletChars">
  <g id="bullet-char-template-57356" transform="scale(0.00048828125,-0.00048828125)">
   <path d="M 580,1141 L 1163,571 580,0 -4,571 580,1141 Z"/>
  </g>
  <g id="bullet-char-template-57354" transform="scale(0.00048828125,-0.00048828125)">
   <path d="M 8,1128 L 1137,1128 1137,0 8,0 8,1128 Z"/>
  </g>
  <g id="bullet-char-template-10146" transform="scale(0.00048828125,-0.00048828125)">
   <path d="M 174,0 L 602,739 174,1481 1456,739 174,0 Z M 1358,739 L 309,1346 659,739 1358,739 Z"/>
  </g>
  <g id="bullet-char-template-10132" transform="scale(0.00048828125,-0.00048828125)">
   <path d="M 2015,739 L 1276,0 717,0 1260,543 174,543 174,936 1260,936 717,1481 1274,1481 2015,739 Z"/>
  </g>
  <g id="bullet-char-template-10007" transform="scale(0.00048828125,-0.00048828125)">
   <path d="M 0,-2 C -7,14 -16,27 -25,37 L 356,567 C 262,823 215,952 215,954 215,979 228,992 255,992 264,992 276,990 289,987 310,991 331,999 354,1012 L 381,999 492,748 772,1049 836,1024 860,1049 C 881,1039 901,1025 922,1006 886,937 835,863 770,784 769,783 710,716 594,584 L 774,223 C 774,196 753,168 711,139 L 727,119 C 717,90 699,76 672,76 641,76 570,178 457,381 L 164,-76 C 142,-110 111,-127 72,-127 30,-127 9,-110 8,-76 1,-67 -2,-52 -2,-32 -2,-23 -1,-13 0,-2 Z"/>
  </g>
  <g id="bullet-char-template-10004" transform="scale(0.00048828125,-0.00048828125)">
   <path d="M 285,-33 C 182,-33 111,30 74,156 52,228 41,333 41,471 41,549 55,616 82,672 116,743 169,778 240,778 293,778 328,747 346,684 L 369,508 C 377,444 397,411 428,410 L 1163,1116 C 1174,1127 1196,1133 1229,1133 1271,1133 1292,1118 1292,1087 L 1292,965 C 1292,929 1282,901 1262,881 L 442,47 C 390,-6 338,-33 285,-33 Z"/>
  </g>
  <g id="bullet-char-template-9679" transform="scale(0.00048828125,-0.00048828125)">
   <path d="M 813,0 C 632,0 489,54 383,161 276,268 223,411 223,592 223,773 276,916 383,1023 489,1130 632,1184 813,1184 992,1184 1136,1130 1245,1023 1353,916 1407,772 1407,592 1407,412 1353,268 1245,161 1136,54 992,0 813,0 Z"/>
  </g>
  <g id="bullet-char-template-8226" transform="scale(0.00048828125,-0.00048828125)">
   <path d="M 346,457 C 273,457 209,483 155,535 101,586 74,649 74,723 74,796 101,859 155,911 209,963 273,989 346,989 419,989 480,963 531,910 582,859 608,796 608,723 608,648 583,586 532,535 482,483 420,457 346,457 Z"/>
  </g>
  <g id="bullet-char-template-8211" transform="scale(0.00048828125,-0.00048828125)">
   <path d="M -4,459 L 1135,459 1135,606 -4,606 -4,459 Z"/>
  </g>
  <g id="bullet-char-template-61548" transform="scale(0.00048828125,-0.00048828125)">
   <path d="M 173,740 C 173,903 231,1043 346,1159 462,1274 601,1332 765,1332 928,1332 1067,1274 1183,1159 1299,1043 1357,903 1357,740 1357,577 1299,437 1183,322 1067,206 928,148 765,148 601,148 462,206 346,322 231,437 173,577 173,740 Z"/>
  </g>
 </defs>
 <g ooo:name="page14" class="Page">
  <g class="Group">
   <g class="com.sun.star.drawing.OpenBezierShape">
    <g id="id3">
     <rect class="BoundingBox" stroke="none" fill="none" x="5658" y="582" width="3493" height="7342"/>
     <g style="opacity: 0.749019607843137">
      <path fill="none" stroke="rgb(85,85,85)" stroke-width="159" stroke-linejoin="round" d="M 7141,662 C 7322,1967 7304,3093 7849,3605 8395,4119 9287,4844 9023,5705 8758,6565 6992,8715 5738,7458"/>
     </g>
    </g>
   </g>
   <g class="com.sun.star.drawing.LineShape">
    <g id="id4">
     <rect class="BoundingBox" stroke="none" fill="none" x="5565" y="546" width="1143" height="1258"/>
     <path fill="none" stroke="rgb(68,119,170)" stroke-width="53" stroke-linejoin="round" d="M 6548,1638 L 5802,810"/>
     <path fill="rgb(68,119,170)" stroke="none" d="M 6554,1618 L 6571,1610 6591,1604 6611,1603 6632,1606 6651,1614 6666,1624 6681,1636 6691,1651 6700,1668 6705,1688 6706,1708 6702,1728 6695,1747 6686,1764 6673,1777 6658,1788 6640,1796 6622,1801 6601,1803 6581,1800 6562,1792 6546,1782 6532,1770 6521,1754 6513,1738 6508,1718 6506,1697 6510,1677 6517,1659 6527,1642 6539,1629 6554,1618 Z"/>
     <path fill="rgb(68,119,170)" stroke="none" d="M 5678,955 L 5565,547 5959,702 5678,955 Z"/>
    </g>
   </g>
   <g class="com.sun.star.drawing.LineShape">
    <g id="id5">
     <rect class="BoundingBox" stroke="none" fill="none" x="5682" y="1359" width="1143" height="1258"/>
     <path fill="none" stroke="rgb(68,119,170)" stroke-width="53" stroke-linejoin="round" d="M 6665,2451 L 5919,1623"/>
     <path fill="rgb(68,119,170)" stroke="none" d="M 6671,2431 L 6688,2423 6708,2417 6728,2416 6749,2419 6768,2427 6783,2437 6798,2449 6808,2464 6817,2481 6822,2501 6823,2521 6819,2541 6812,2560 6803,2577 6790,2590 6775,2601 6757,2609 6739,2614 6718,2616 6698,2613 6679,2605 6663,2595 6649,2583 6638,2567 6630,2551 6625,2531 6623,2510 6627,2490 6634,2472 6644,2455 6656,2442 6671,2431 Z"/>
     <path fill="rgb(68,119,170)" stroke="none" d="M 5795,1768 L 5682,1360 6076,1515 5795,1768 Z"/>
    </g>
   </g>
   <g class="com.sun.star.drawing.LineShape">
    <g id="id6">
     <rect class="BoundingBox" stroke="none" fill="none" x="5999" y="2272" width="1143" height="1258"/>
     <path fill="none" stroke="rgb(68,119,170)" stroke-width="53" stroke-linejoin="round" d="M 6982,3364 L 6236,2536"/>
     <path fill="rgb(68,119,170)" stroke="none" d="M 6988,3344 L 7005,3336 7025,3330 7045,3329 7066,3332 7085,3340 7100,3350 7115,3362 7125,3377 7134,3394 7139,3414 7140,3434 7136,3454 7129,3473 7120,3490 7107,3503 7092,3514 7074,3522 7056,3527 7035,3529 7015,3526 6996,3518 6980,3508 6966,3496 6955,3480 6947,3464 6942,3444 6940,3423 6944,3403 6951,3385 6961,3368 6973,3355 6988,3344 Z"/>
     <path fill="rgb(68,119,170)" stroke="none" d="M 6112,2681 L 5999,2273 6393,2428 6112,2681 Z"/>
    </g>
   </g>
   <g class="com.sun.star.drawing.LineShape">
    <g id="id7">
     <rect class="BoundingBox" stroke="none" fill="none" x="6416" y="3285" width="1143" height="1258"/>
     <path fill="none" stroke="rgb(68,119,170)" stroke-width="53" stroke-linejoin="round" d="M 7399,4377 L 6653,3549"/>
     <path fill="rgb(68,119,170)" stroke="none" d="M 7405,4357 L 7422,4349 7442,4343 7462,4342 7483,4345 7502,4353 7517,4363 7532,4375 7542,4390 7551,4407 7556,4427 7557,4447 7553,4467 7546,4486 7537,4503 7524,4516 7509,4527 7491,4535 7473,4540 7452,4542 7432,4539 7413,4531 7397,4521 7383,4509 7372,4493 7364,4477 7359,4457 7357,4436 7361,4416 7368,4398 7378,4381 7390,4368 7405,4357 Z"/>
     <path fill="rgb(68,119,170)" stroke="none" d="M 6529,3694 L 6416,3286 6810,3441 6529,3694 Z"/>
    </g>
   </g>
   <g class="com.sun.star.drawing.LineShape">
    <g id="id8">
     <rect class="BoundingBox" stroke="none" fill="none" x="7133" y="4798" width="1143" height="1258"/>
     <path fill="none" stroke="rgb(68,119,170)" stroke-width="53" stroke-linejoin="round" d="M 8116,5890 L 7370,5062"/>
     <path fill="rgb(68,119,170)" stroke="none" d="M 8122,5870 L 8139,5862 8159,5856 8179,5855 8200,5858 8219,5866 8234,5876 8249,5888 8259,5903 8268,5920 8273,5940 8274,5960 8270,5980 8263,5999 8254,6016 8241,6029 8226,6040 8208,6048 8190,6053 8169,6055 8149,6052 8130,6044 8114,6034 8100,6022 8089,6006 8081,5990 8076,5970 8074,5949 8078,5929 8085,5911 8095,5894 8107,5881 8122,5870 Z"/>
     <path fill="rgb(68,119,170)" stroke="none" d="M 7246,5207 L 7133,4799 7527,4954 7246,5207 Z"/>
    </g>
   </g>
   <g class="com.sun.star.drawing.LineShape">
    <g id="id9">
     <rect class="BoundingBox" stroke="none" fill="none" x="6850" y="5411" width="1143" height="1258"/>
     <path fill="none" stroke="rgb(68,119,170)" stroke-width="53" stroke-linejoin="round" d="M 7833,6503 L 7087,5675"/>
     <path fill="rgb(68,119,170)" stroke="none" d="M 7839,6483 L 7856,6475 7876,6469 7896,6468 7917,6471 7936,6479 7951,6489 7966,6501 7976,6516 7985,6533 7990,6553 7991,6573 7987,6593 7980,6612 7971,6629 7958,6642 7943,6653 7925,6661 7907,6666 7886,6668 7866,6665 7847,6657 7831,6647 7817,6635 7806,6619 7798,6603 7793,6583 7791,6562 7795,6542 7802,6524 7812,6507 7824,6494 7839,6483 Z"/>
     <path fill="rgb(68,119,170)" stroke="none" d="M 6963,5820 L 6850,5412 7244,5567 6963,5820 Z"/>
    </g>
   </g>
   <g class="com.sun.star.drawing.LineShape">
    <g id="id10">
     <rect class="BoundingBox" stroke="none" fill="none" x="6267" y="5824" width="1143" height="1258"/>
     <path fill="none" stroke="rgb(68,119,170)" stroke-width="53" stroke-linejoin="round" d="M 7250,6916 L 6504,6088"/>
     <path fill="rgb(68,119,170)" stroke="none" d="M 7256,6896 L 7273,6888 7293,6882 7313,6881 7334,6884 7353,6892 7368,6902 7383,6914 7393,6929 7402,6946 7407,6966 7408,6986 7404,7006 7397,7025 7388,7042 7375,7055 7360,7066 7342,7074 7324,7079 7303,7081 7283,7078 7264,7070 7248,7060 7234,7048 7223,7032 7215,7016 7210,6996 7208,6975 7212,6955 7219,6937 7229,6920 7241,6907 7256,6896 Z"/>
     <path fill="rgb(68,119,170)" stroke="none" d="M 6380,6233 L 6267,5825 6661,5980 6380,6233 Z"/>
    </g>
   </g>
   <g class="com.sun.star.drawing.LineShape">
    <g id="id11">
     <rect class="BoundingBox" stroke="none" fill="none" x="5484" y="5937" width="1143" height="1258"/>
     <path fill="none" stroke="rgb(68,119,170)" stroke-width="53" stroke-linejoin="round" d="M 6467,7029 L 5721,6201"/>
     <path fill="rgb(68,119,170)" stroke="none" d="M 6473,7009 L 6490,7001 6510,6995 6530,6994 6551,6997 6570,7005 6585,7015 6600,7027 6610,7042 6619,7059 6624,7079 6625,7099 6621,7119 6614,7138 6605,7155 6592,7168 6577,7179 6559,7187 6541,7192 6520,7194 6500,7191 6481,7183 6465,7173 6451,7161 6440,7145 6432,7129 6427,7109 6425,7088 6429,7068 6436,7050 6446,7033 6458,7020 6473,7009 Z"/>
     <path fill="rgb(68,119,170)" stroke="none" d="M 5597,6346 L 5484,5938 5878,6093 5597,6346 Z"/>
    </g>
   </g>
  </g>
  <g class="Group">
   <g class="com.sun.star.drawing.OpenBezierShape">
    <g id="id12">
     <rect class="BoundingBox" stroke="none" fill="none" x="16663" y="561" width="3493" height="7343"/>
     <g style="opacity: 0.749019607843137">
      <path fill="none" stroke="rgb(85,85,85)" stroke-width="159" stroke-linejoin="round" d="M 18146,641 C 18327,1947 18309,3072 18854,3585 19400,4098 20292,4824 20028,5684 19763,6544 17997,8695 16743,7438"/>
     </g>
    </g>
   </g>
   <g class="com.sun.star.drawing.LineShape">
    <g id="id13">
     <rect class="BoundingBox" stroke="none" fill="none" x="19088" y="621" width="1143" height="1258"/>
     <path fill="none" stroke="rgb(68,119,170)" stroke-width="53" stroke-linejoin="round" d="M 20071,1713 L 19325,885"/>
     <path fill="rgb(68,119,170)" stroke="none" d="M 20077,1693 L 20094,1685 20114,1679 20134,1678 20155,1681 20174,1689 20189,1699 20204,1711 20214,1726 20223,1743 20228,1763 20229,1783 20225,1803 20218,1822 20209,1839 20196,1852 20181,1863 20163,1871 20145,1876 20124,1878 20104,1875 20085,1867 20069,1857 20055,1845 20044,1829 20036,1813 20031,1793 20029,1772 20033,1752 20040,1734 20050,1717 20062,1704 20077,1693 Z"/>
     <path fill="rgb(68,119,170)" stroke="none" d="M 19201,1030 L 19088,622 19482,777 19201,1030 Z"/>
    </g>
   </g>
   <g class="com.sun.star.drawing.LineShape">
    <g id="id14">
     <rect class="BoundingBox" stroke="none" fill="none" x="19205" y="1434" width="1143" height="1258"/>
     <path fill="none" stroke="rgb(68,119,170)" stroke-width="53" stroke-linejoin="round" d="M 20188,2526 L 19442,1698"/>
     <path fill="rgb(68,119,170)" stroke="none" d="M 20194,2506 L 20211,2498 20231,2492 20251,2491 20272,2494 20291,2502 20306,2512 20321,2524 20331,2539 20340,2556 20345,2576 20346,2596 20342,2616 20335,2635 20326,2652 20313,2665 20298,2676 20280,2684 20262,2689 20241,2691 20221,2688 20202,2680 20186,2670 20172,2658 20161,2642 20153,2626 20148,2606 20146,2585 20150,2565 20157,2547 20167,2530 20179,2517 20194,2506 Z"/>
     <path fill="rgb(68,119,170)" stroke="none" d="M 19318,1843 L 19205,1435 19599,1590 19318,1843 Z"/>
    </g>
   </g>
   <g class="com.sun.star.drawing.LineShape">
    <g id="id15">
     <rect class="BoundingBox" stroke="none" fill="none" x="19522" y="2347" width="1143" height="1258"/>
     <path fill="none" stroke="rgb(68,119,170)" stroke-width="53" stroke-linejoin="round" d="M 20505,3439 L 19759,2611"/>
     <path fill="rgb(68,119,170)" stroke="none" d="M 20511,3419 L 20528,3411 20548,3405 20568,3404 20589,3407 20608,3415 20623,3425 20638,3437 20648,3452 20657,3469 20662,3489 20663,3509 20659,3529 20652,3548 20643,3565 20630,3578 20615,3589 20597,3597 20579,3602 20558,3604 20538,3601 20519,3593 20503,3583 20489,3571 20478,3555 20470,3539 20465,3519 20463,3498 20467,3478 20474,3460 20484,3443 20496,3430 20511,3419 Z"/>
     <path fill="rgb(68,119,170)" stroke="none" d="M 19635,2756 L 19522,2348 19916,2503 19635,2756 Z"/>
    </g>
   </g>
   <g class="com.sun.star.drawing.LineShape">
    <g id="id16">
     <rect class="BoundingBox" stroke="none" fill="none" x="19939" y="3360" width="1143" height="1258"/>
     <path fill="none" stroke="rgb(68,119,170)" stroke-width="53" stroke-linejoin="round" d="M 20922,4452 L 20176,3624"/>
     <path fill="rgb(68,119,170)" stroke="none" d="M 20928,4432 L 20945,4424 20965,4418 20985,4417 21006,4420 21025,4428 21040,4438 21055,4450 21065,4465 21074,4482 21079,4502 21080,4522 21076,4542 21069,4561 21060,4578 21047,4591 21032,4602 21014,4610 20996,4615 20975,4617 20955,4614 20936,4606 20920,4596 20906,4584 20895,4568 20887,4552 20882,4532 20880,4511 20884,4491 20891,4473 20901,4456 20913,4443 20928,4432 Z"/>
     <path fill="rgb(68,119,170)" stroke="none" d="M 20052,3769 L 19939,3361 20333,3516 20052,3769 Z"/>
    </g>
   </g>
   <g class="com.sun.star.drawing.LineShape">
    <g id="id17">
     <rect class="BoundingBox" stroke="none" fill="none" x="20356" y="4673" width="1143" height="1258"/>
     <path fill="none" stroke="rgb(68,119,170)" stroke-width="53" stroke-linejoin="round" d="M 21339,5765 L 20593,4937"/>
     <path fill="rgb(68,119,170)" stroke="none" d="M 21345,5745 L 21362,5737 21382,5731 21402,5730 21423,5733 21442,5741 21457,5751 21472,5763 21482,5778 21491,5795 21496,5815 21497,5835 21493,5855 21486,5874 21477,5891 21464,5904 21449,5915 21431,5923 21413,5928 21392,5930 21372,5927 21353,5919 21337,5909 21323,5897 21312,5881 21304,5865 21299,5845 21297,5824 21301,5804 21308,5786 21318,5769 21330,5756 21345,5745 Z"/>
     <path fill="rgb(68,119,170)" stroke="none" d="M 20469,5082 L 20356,4674 20750,4829 20469,5082 Z"/>
    </g>
   </g>
   <g class="com.sun.star.drawing.LineShape">
    <g id="id18">
     <rect class="BoundingBox" stroke="none" fill="none" x="20473" y="5586" width="1143" height="1258"/>
     <path fill="none" stroke="rgb(68,119,170)" stroke-width="53" stroke-linejoin="round" d="M 21456,6678 L 20710,5850"/>
     <path fill="rgb(68,119,170)" stroke="none" d="M 21462,6658 L 21479,6650 21499,6644 21519,6643 21540,6646 21559,6654 21574,6664 21589,6676 21599,6691 21608,6708 21613,6728 21614,6748 21610,6768 21603,6787 21594,6804 21581,6817 21566,6828 21548,6836 21530,6841 21509,6843 21489,6840 21470,6832 21454,6822 21440,6810 21429,6794 21421,6778 21416,6758 21414,6737 21418,6717 21425,6699 21435,6682 21447,6669 21462,6658 Z"/>
     <path fill="rgb(68,119,170)" stroke="none" d="M 20586,5995 L 20473,5587 20867,5742 20586,5995 Z"/>
    </g>
   </g>
   <g class="com.sun.star.drawing.LineShape">
    <g id="id19">
     <rect class="BoundingBox" stroke="none" fill="none" x="20290" y="6299" width="1143" height="1258"/>
     <path fill="none" stroke="rgb(68,119,170)" stroke-width="53" stroke-linejoin="round" d="M 21273,7391 L 20527,6563"/>
     <path fill="rgb(68,119,170)" stroke="none" d="M 21279,7371 L 21296,7363 21316,7357 21336,7356 21357,7359 21376,7367 21391,7377 21406,7389 21416,7404 21425,7421 21430,7441 21431,7461 21427,7481 21420,7500 21411,7517 21398,7530 21383,7541 21365,7549 21347,7554 21326,7556 21306,7553 21287,7545 21271,7535 21257,7523 21246,7507 21238,7491 21233,7471 21231,7450 21235,7430 21242,7412 21252,7395 21264,7382 21279,7371 Z"/>
     <path fill="rgb(68,119,170)" stroke="none" d="M 20403,6708 L 20290,6300 20684,6455 20403,6708 Z"/>
    </g>
   </g>
   <g class="com.sun.star.drawing.LineShape">
    <g id="id20">
     <rect class="BoundingBox" stroke="none" fill="none" x="19707" y="6812" width="1143" height="1258"/>
     <path fill="none" stroke="rgb(68,119,170)" stroke-width="53" stroke-linejoin="round" d="M 20690,7904 L 19944,7076"/>
     <path fill="rgb(68,119,170)" stroke="none" d="M 20696,7884 L 20713,7876 20733,7870 20753,7869 20774,7872 20793,7880 20808,7890 20823,7902 20833,7917 20842,7934 20847,7954 20848,7974 20844,7994 20837,8013 20828,8030 20815,8043 20800,8054 20782,8062 20764,8067 20743,8069 20723,8066 20704,8058 20688,8048 20674,8036 20663,8020 20655,8004 20650,7984 20648,7963 20652,7943 20659,7925 20669,7908 20681,7895 20696,7884 Z"/>
     <path fill="rgb(68,119,170)" stroke="none" d="M 19820,7221 L 19707,6813 20101,6968 19820,7221 Z"/>
    </g>
   </g>
  </g>
  <g class="com.sun.star.drawing.CustomShape">
   <g id="id21">
    <rect class="BoundingBox" stroke="none" fill="none" x="11723" y="3865" width="3109" height="934"/>
    <path fill="rgb(204,187,68)" fill-opacity="0.8" stroke="none" d="M 11723,4565 L 14054,4565 14054,4798 14831,4332 14054,3865 14054,4099 11723,4099 11723,4565 Z"/>
   </g>
  </g>
  <g class="Group">
   <g class="com.sun.star.drawing.ClosedBezierShape">
    <g id="id22">
     <rect class="BoundingBox" stroke="none" fill="none" x="12051" y="3099" width="264" height="641"/>
     <path fill="rgb(204,187,68)" stroke="none" d="M 12272,3632 C 12268,3626 12265,3621 12261,3615 12246,3625 12231,3636 12216,3646 12188,3665 12168,3674 12157,3674 12149,3674 12146,3668 12146,3654 12146,3629 12157,3554 12188,3409 12192,3389 12196,3370 12199,3350 12235,3350 12270,3350 12306,3350 12308,3333 12311,3317 12314,3300 12278,3305 12244,3305 12208,3305 12224,3216 12233,3166 12252,3116 12249,3110 12245,3105 12241,3099 12222,3113 12194,3124 12166,3135 12157,3190 12149,3245 12141,3300 12096,3322 12071,3331 12054,3336 12053,3341 12052,3345 12051,3350 12079,3350 12107,3350 12135,3350 12116,3442 12098,3534 12079,3626 12073,3649 12068,3674 12068,3699 12068,3724 12076,3738 12096,3738 12129,3738 12163,3718 12241,3657 12258,3643 12252,3649 12272,3632 Z"/>
    </g>
   </g>
   <g class="com.sun.star.drawing.ClosedBezierShape">
    <g id="id23">
     <rect class="BoundingBox" stroke="none" fill="none" x="12678" y="3200" width="535" height="534"/>
     <path fill="rgb(204,187,68)" stroke="none" d="M 13212,3493 C 13212,3474 13212,3456 13212,3437 13132,3437 13052,3437 12972,3437 12972,3358 12972,3279 12972,3200 12954,3200 12936,3200 12919,3200 12919,3279 12919,3358 12919,3437 12838,3437 12758,3437 12678,3437 12678,3456 12678,3474 12678,3493 12758,3493 12838,3493 12919,3493 12919,3573 12919,3653 12919,3733 12936,3733 12954,3733 12972,3733 12972,3653 12972,3573 12972,3493 13052,3493 13132,3493 13212,3493 Z"/>
    </g>
   </g>
   <g class="com.sun.star.drawing.ClosedBezierShape">
    <g id="id24">
     <rect class="BoundingBox" stroke="none" fill="none" x="13519" y="3049" width="650" height="684"/>
     <path fill="rgb(204,187,68)" stroke="none" d="M 13846,3074 C 13737,3278 13628,3481 13519,3685 13520,3699 13521,3713 13522,3727 13595,3721 13667,3718 13740,3718 13860,3718 13983,3724 14106,3732 14126,3722 14146,3712 14165,3702 14166,3696 14167,3691 14168,3685 14062,3481 13975,3267 13905,3049 13885,3057 13866,3066 13846,3074 Z M 14042,3679 C 13927,3679 13813,3677 13695,3677 13662,3677 13628,3677 13592,3679 13591,3675 13590,3670 13589,3665 13667,3501 13746,3347 13841,3188 13844,3188 13848,3188 13852,3188 13917,3349 14008,3579 14048,3671 14046,3674 14044,3677 14042,3679 Z"/>
    </g>
   </g>
   <g class="com.sun.star.drawing.ClosedBezierShape">
    <g id="id25">
     <rect class="BoundingBox" stroke="none" fill="none" x="14240" y="3099" width="265" height="641"/>
     <path fill="rgb(204,187,68)" stroke="none" d="M 14459,3632 C 14456,3626 14454,3621 14451,3615 14436,3625 14421,3636 14406,3646 14378,3665 14358,3674 14347,3674 14339,3674 14333,3668 14333,3654 14333,3629 14344,3554 14375,3409 14380,3389 14385,3370 14389,3350 14424,3350 14458,3350 14493,3350 14496,3333 14500,3317 14504,3300 14468,3305 14434,3305 14398,3305 14412,3216 14423,3166 14440,3116 14436,3110 14432,3105 14428,3099 14409,3113 14384,3124 14353,3135 14344,3190 14336,3245 14328,3300 14286,3322 14261,3331 14244,3336 14243,3341 14242,3345 14241,3350 14268,3350 14295,3350 14322,3350 14304,3442 14287,3534 14269,3626 14263,3649 14255,3674 14255,3699 14255,3724 14266,3738 14286,3738 14319,3738 14353,3718 14428,3657 14448,3643 14442,3649 14459,3632 Z"/>
    </g>
   </g>
  </g>
 </g>
</svg>