<?xml version="1.0" encoding="UTF-8"?>
<!DOCTYPE svg PUBLIC "-//W3C//DTD SVG 1.1//EN" "http://www.w3.org/Graphics/SVG/1.1/DTD/svg11.dtd">
<svg version="1.2" viewBox="17556 5751 5452 10105" preserveAspectRatio="xMidYMid" fill-rule="evenodd" stroke-width="28.222" stroke-linejoin="round" xmlns="http://www.w3.org/2000/svg" xmlns:ooo="http://xml.openoffice.org/svg/export" xmlns:xlink="http://www.w3.org/1999/xlink" xmlns:presentation="http://sun.com/xmlns/staroffice/presentation" xmlns:smil="http://www.w3.org/2001/SMIL20/" xmlns:anim="urn:oasis:names:tc:opendocument:xmlns:animation:1.0" xmlns:svg="urn:oasis:names:tc:opendocument:xmlns:svg-compatible:1.0" xml:space="preserve">
 <defs class="EmbeddedBulletChars">
  <g id="bullet-char-template-57356" transform="scale(0.00048828125,-0.00048828125)">
   <path d="M 580,1141 L 1163,571 580,0 -4,571 580,1141 Z"/>
  </g>
  <g id="bullet-char-template-57354" transform="scale(0.00048828125,-0.00048828125)">
   <path d="M 8,1128 L 1137,1128 1137,0 8,0 8,1128 Z"/>
  </g>
  <g id="bullet-char-template-10146" transform="scale(0.00048828125,-0.00048828125)">
   <path d="M 174,0 L 602,739 174,1481 1456,739 174,0 Z M 1358,739 L 309,1346 659,739 1358,739 Z"/>
  </g>
  <g id="bullet-char-template-10132" transform="scale(0.00048828125,-0.00048828125)">
   <path d="M 2015,739 L 1276,0 717,0 1260,543 174,543 174,936 1260,936 717,1481 1274,1481 2015,739 Z"/>
  </g>
  <g id="bullet-char-template-10007" transform="scale(0.00048828125,-0.00048828125)">
   <path d="M 0,-2 C -7,14 -16,27 -25,37 L 356,567 C 262,823 215,952 215,954 215,979 228,992 255,992 264,992 276,990 289,987 310,991 331,999 354,1012 L 381,999 492,748 772,1049 836,1024 860,1049 C 881,1039 901,1025 922,1006 886,937 835,863 770,784 769,783 710,716 594,584 L 774,223 C 774,196 753,168 711,139 L 727,119 C 717,90 699,76 672,76 641,76 570,178 457,381 L 164,-76 C 142,-110 111,-127 72,-127 30,-127 9,-110 8,-76 1,-67 -2,-52 -2,-32 -2,-23 -1,-13 0,-2 Z"/>
  </g>
  <g id="bullet-char-template-10004" transform="scale(0.00048828125,-0.00048828125)">
   <path d="M 285,-33 C 182,-33 111,30 74,156 52,228 41,333 41,471 41,549 55,616 82,672 116,743 169,778 240,778 293,778 328,747 346,684 L 369,508 C 377,444 397,411 428,410 L 1163,1116 C 1174,1127 1196,1133 1229,1133 1271,1133 1292,1118 1292,1087 L 1292,965 C 1292,929 1282,901 1262,881 L 442,47 C 390,-6 338,-33 285,-33 Z"/>
  </g>
  <g id="bullet-char-template-9679" transform="scale(0.00048828125,-0.00048828125)">
   <path d="M 813,0 C 632,0 489,54 383,161 276,268 223,411 223,592 223,773 276,916 383,1023 489,1130 632,1184 813,1184 992,1184 1136,1130 1245,1023 1353,916 1407,772 1407,592 1407,412 1353,268 1245,161 1136,54 992,0 813,0 Z"/>
  </g>
  <g id="bullet-char-template-8226" transform="scale(0.00048828125,-0.00048828125)">
   <path d="M 346,457 C 273,457 209,483 155,535 101,586 74,649 74,723 74,796 101,859 155,911 209,963 273,989 346,989 419,989 480,963 531,910 582,859 608,796 608,723 608,648 583,586 532,535 482,483 420,457 346,457 Z"/>
  </g>
  <g id="bullet-char-template-8211" transform="scale(0.00048828125,-0.00048828125)">
   <path d="M -4,459 L 1135,459 1135,606 -4,606 -4,459 Z"/>
  </g>
  <g id="bullet-char-template-61548" transform="scale(0.00048828125,-0.00048828125)">
   <path d="M 173,740 C 173,903 231,1043 346,1159 462,1274 601,1332 765,1332 928,1332 1067,1274 1183,1159 1299,1043 1357,903 1357,740 1357,577 1299,437 1183,322 1067,206 928,148 765,148 601,148 462,206 346,322 231,437 173,577 173,740 Z"/>
  </g>
 </defs>
 <g ooo:name="page4" class="Page">
  <g class="Group">
   <g class="com.sun.star.drawing.CustomShape">
    <g id="id3">
     <rect class="BoundingBox" stroke="none" fill="none" x="18879" y="6700" width="321" height="321"/>
     <path fill="rgb(68,119,170)" stroke="none" d="M 19196,6837 C 19200,6865 19197,6893 19187,6919 19177,6945 19160,6968 19138,6985 19116,7003 19090,7014 19062,7018 19034,7022 19006,7019 18980,7009 18954,6998 18931,6981 18914,6959 18896,6938 18885,6911 18881,6884 18877,6856 18880,6828 18890,6802 18901,6776 18918,6753 18940,6735 18961,6718 18988,6707 19015,6703 19043,6699 19071,6702 19097,6712 19123,6722 19146,6739 19164,6761 19181,6783 19192,6809 19196,6837 L 19196,6837 Z"/>
    </g>
   </g>
   <g class="com.sun.star.drawing.EllipseShape">
    <g id="id4">
     <rect class="BoundingBox" stroke="none" fill="none" x="18940" y="6473" width="1744" height="456"/>
     <path fill="none" stroke="rgb(68,119,170)" stroke-width="28" stroke-linejoin="round" d="M 18955,6914 C 19029,6866 19117,6821 19217,6781 19383,6715 19575,6665 19773,6636 19972,6606 20148,6600 20319,6612"/>
     <path fill="rgb(68,119,170)" stroke="none" d="M 20301,6723 L 20274,6748 20683,6680 20324,6474 20339,6505 20350,6541 20355,6579 20352,6619 20341,6657 20324,6692 20301,6723 Z"/>
    </g>
   </g>
  </g>
  <g class="Group">
   <g class="com.sun.star.drawing.CustomShape">
    <g id="id5">
     <rect class="BoundingBox" stroke="none" fill="none" x="19084" y="7305" width="321" height="321"/>
     <path fill="rgb(68,119,170)" stroke="none" d="M 19401,7437 C 19406,7465 19403,7493 19394,7519 19384,7546 19368,7569 19347,7587 19325,7605 19299,7617 19272,7622 19244,7627 19216,7625 19190,7616 19163,7606 19140,7590 19122,7568 19104,7547 19092,7521 19087,7494 19082,7466 19084,7438 19093,7411 19103,7385 19119,7362 19141,7344 19162,7326 19188,7313 19215,7308 19243,7303 19271,7306 19298,7315 19324,7325 19347,7341 19365,7362 19383,7384 19396,7410 19401,7437 L 19401,7437 Z"/>
    </g>
   </g>
   <g class="com.sun.star.drawing.EllipseShape">
    <g id="id6">
     <rect class="BoundingBox" stroke="none" fill="none" x="19147" y="7038" width="1735" height="500"/>
     <path fill="none" stroke="rgb(68,119,170)" stroke-width="28" stroke-linejoin="round" d="M 19161,7522 C 19234,7472 19321,7424 19419,7381 19583,7310 19773,7254 19970,7218 20168,7182 20344,7170 20515,7177"/>
     <path fill="rgb(68,119,170)" stroke="none" d="M 20500,7289 L 20474,7314 20880,7233 20515,7038 20532,7069 20544,7105 20549,7142 20548,7182 20539,7221 20522,7257 20500,7289 Z"/>
    </g>
   </g>
  </g>
  <g class="Group">
   <g class="com.sun.star.drawing.CustomShape">
    <g id="id7">
     <rect class="BoundingBox" stroke="none" fill="none" x="19097" y="9138" width="321" height="321"/>
     <path fill="rgb(68,119,170)" stroke="none" d="M 19411,9259 C 19418,9286 19418,9315 19410,9342 19402,9369 19388,9393 19368,9413 19348,9432 19323,9446 19296,9453 19268,9460 19240,9459 19213,9452 19186,9444 19162,9430 19142,9409 19123,9389 19109,9365 19102,9337 19095,9310 19096,9282 19103,9255 19111,9228 19125,9203 19145,9184 19166,9164 19190,9151 19218,9144 19245,9137 19273,9137 19300,9145 19327,9153 19352,9167 19371,9187 19391,9207 19404,9232 19411,9259 L 19411,9259 Z"/>
    </g>
   </g>
   <g class="com.sun.star.drawing.EllipseShape">
    <g id="id8">
     <rect class="BoundingBox" stroke="none" fill="none" x="19163" y="8784" width="1711" height="592"/>
     <path fill="none" stroke="rgb(68,119,170)" stroke-width="28" stroke-linejoin="round" d="M 19177,9360 C 19246,9305 19330,9252 19425,9202 19583,9120 19769,9050 19964,9001 20158,8952 20333,8928 20504,8923"/>
     <path fill="rgb(68,119,170)" stroke="none" d="M 20498,9035 L 20473,9063 20873,8954 20495,8784 20514,8814 20528,8849 20536,8886 20538,8926 20531,8965 20517,9002 20498,9035 Z"/>
    </g>
   </g>
  </g>
  <g class="Group">
   <g class="com.sun.star.drawing.CustomShape">
    <g id="id9">
     <rect class="BoundingBox" stroke="none" fill="none" x="19603" y="9540" width="321" height="321"/>
     <path fill="rgb(68,119,170)" stroke="none" d="M 19916,9657 C 19924,9684 19924,9712 19917,9740 19910,9767 19896,9792 19877,9812 19857,9832 19833,9846 19806,9854 19779,9861 19750,9862 19723,9855 19696,9848 19671,9834 19651,9815 19631,9795 19617,9771 19609,9744 19602,9717 19601,9688 19608,9661 19615,9634 19629,9609 19648,9589 19668,9569 19692,9554 19719,9547 19746,9539 19775,9539 19802,9546 19829,9553 19854,9567 19874,9586 19894,9606 19909,9630 19916,9657 L 19916,9657 Z"/>
    </g>
   </g>
   <g class="com.sun.star.drawing.EllipseShape">
    <g id="id10">
     <rect class="BoundingBox" stroke="none" fill="none" x="19670" y="9152" width="1700" height="628"/>
     <path fill="none" stroke="rgb(68,119,170)" stroke-width="28" stroke-linejoin="round" d="M 19685,9764 C 19752,9707 19834,9651 19928,9599 20084,9512 20268,9438 20461,9383 20654,9329 20828,9300 20999,9290"/>
     <path fill="rgb(68,119,170)" stroke="none" d="M 20995,9403 L 20972,9431 21368,9311 20986,9152 21006,9181 21021,9216 21030,9253 21032,9292 21027,9332 21014,9369 20995,9403 Z"/>
    </g>
   </g>
  </g>
  <g class="Group">
   <g class="com.sun.star.drawing.CustomShape">
    <g id="id11">
     <rect class="BoundingBox" stroke="none" fill="none" x="20185" y="10542" width="321" height="321"/>
     <path fill="rgb(68,119,170)" stroke="none" d="M 20502,10677 C 20507,10704 20504,10733 20494,10759 20484,10785 20467,10808 20446,10826 20424,10844 20398,10855 20370,10860 20343,10864 20314,10862 20288,10852 20262,10842 20239,10825 20221,10804 20203,10782 20192,10756 20187,10728 20183,10701 20185,10672 20195,10646 20205,10620 20222,10597 20243,10579 20265,10561 20291,10550 20319,10545 20346,10540 20375,10543 20401,10553 20427,10563 20450,10580 20468,10601 20486,10623 20497,10649 20502,10677 L 20502,10677 Z"/>
    </g>
   </g>
   <g class="com.sun.star.drawing.EllipseShape">
    <g id="id12">
     <rect class="BoundingBox" stroke="none" fill="none" x="20246" y="10294" width="1740" height="479"/>
     <path fill="none" stroke="rgb(68,119,170)" stroke-width="28" stroke-linejoin="round" d="M 20261,10757 C 20334,10708 20422,10662 20521,10621 20686,10552 20877,10498 21075,10466 21273,10433 21449,10424 21620,10433"/>
     <path fill="rgb(68,119,170)" stroke="none" d="M 21604,10545 L 21577,10570 21985,10495 21623,10295 21639,10326 21650,10362 21655,10399 21653,10439 21643,10478 21626,10513 21604,10545 Z"/>
    </g>
   </g>
  </g>
  <g class="Group">
   <g class="com.sun.star.drawing.CustomShape">
    <g id="id13">
     <rect class="BoundingBox" stroke="none" fill="none" x="20504" y="10764" width="321" height="321"/>
     <path fill="rgb(68,119,170)" stroke="none" d="M 20821,10898 C 20826,10926 20823,10954 20813,10980 20803,11007 20786,11030 20765,11048 20743,11065 20717,11077 20690,11082 20662,11086 20634,11084 20608,11074 20581,11064 20558,11047 20540,11026 20523,11004 20511,10978 20506,10951 20502,10923 20504,10895 20514,10868 20524,10842 20541,10819 20562,10801 20584,10783 20610,10772 20637,10767 20665,10762 20693,10765 20720,10775 20746,10785 20769,10802 20787,10823 20805,10845 20816,10871 20821,10898 L 20821,10898 Z"/>
    </g>
   </g>
   <g class="com.sun.star.drawing.EllipseShape">
    <g id="id14">
     <rect class="BoundingBox" stroke="none" fill="none" x="20565" y="10514" width="1739" height="481"/>
     <path fill="none" stroke="rgb(68,119,170)" stroke-width="28" stroke-linejoin="round" d="M 20579,10980 C 20653,10930 20740,10884 20839,10842 21004,10773 21195,10720 21393,10687 21590,10654 21767,10644 21938,10654"/>
     <path fill="rgb(68,119,170)" stroke="none" d="M 21922,10765 L 21895,10790 22303,10714 21940,10515 21956,10546 21967,10582 21973,10620 21971,10659 21961,10698 21944,10734 21922,10765 Z"/>
    </g>
   </g>
  </g>
  <g class="Group">
   <g class="com.sun.star.drawing.CustomShape">
    <g id="id15">
     <rect class="BoundingBox" stroke="none" fill="none" x="21023" y="10777" width="321" height="321"/>
     <path fill="rgb(68,119,170)" stroke="none" d="M 21343,10939 C 21343,10967 21335,10994 21320,11018 21306,11042 21286,11062 21261,11076 21237,11089 21209,11096 21181,11096 21153,11096 21126,11088 21102,11073 21078,11059 21058,11039 21044,11014 21031,10990 21024,10962 21024,10934 21024,10906 21032,10879 21047,10855 21061,10831 21081,10811 21106,10797 21130,10784 21158,10777 21186,10777 21214,10777 21241,10785 21265,10800 21289,10814 21309,10834 21323,10859 21336,10883 21343,10911 21343,10939 L 21343,10939 Z"/>
    </g>
   </g>
   <g class="com.sun.star.drawing.EllipseShape">
    <g id="id16">
     <rect class="BoundingBox" stroke="none" fill="none" x="21078" y="10760" width="1759" height="265"/>
     <path fill="none" stroke="rgb(68,119,170)" stroke-width="28" stroke-linejoin="round" d="M 21092,10976 C 21173,10940 21268,10910 21372,10887 21547,10848 21744,10830 21945,10833 22145,10835 22321,10857 22487,10897"/>
     <path fill="rgb(68,119,170)" stroke="none" d="M 22452,11004 L 22421,11024 22835,11022 22514,10761 22525,10794 22529,10831 22528,10870 22518,10908 22502,10945 22479,10977 22452,11004 Z"/>
    </g>
   </g>
  </g>
  <g class="Group">
   <g class="com.sun.star.drawing.CustomShape">
    <g id="id17">
     <rect class="BoundingBox" stroke="none" fill="none" x="21195" y="11085" width="320" height="320"/>
     <path fill="rgb(68,119,170)" stroke="none" d="M 21514,11245 C 21514,11272 21507,11300 21493,11324 21479,11348 21458,11369 21434,11383 21410,11397 21382,11404 21355,11404 21327,11404 21299,11397 21275,11383 21251,11369 21230,11348 21216,11324 21202,11300 21195,11272 21195,11245 21195,11217 21202,11189 21216,11165 21230,11141 21251,11120 21275,11106 21299,11092 21327,11085 21355,11085 21382,11085 21410,11092 21434,11106 21458,11120 21479,11141 21493,11165 21507,11189 21514,11217 21514,11245 L 21514,11245 Z"/>
    </g>
   </g>
   <g class="com.sun.star.drawing.EllipseShape">
    <g id="id18">
     <rect class="BoundingBox" stroke="none" fill="none" x="21248" y="11048" width="1760" height="267"/>
     <path fill="none" stroke="rgb(68,119,170)" stroke-width="28" stroke-linejoin="round" d="M 21263,11285 C 21343,11248 21437,11217 21542,11192 21715,11151 21912,11129 22113,11129 22314,11129 22489,11148 22656,11185"/>
     <path fill="rgb(68,119,170)" stroke="none" d="M 22622,11293 L 22592,11313 23006,11305 22681,11049 22692,11082 22697,11119 22696,11158 22688,11197 22672,11233 22649,11265 22622,11293 Z"/>
    </g>
   </g>
  </g>
  <g class="Group">
   <g class="com.sun.star.drawing.CustomShape">
    <g id="id19">
     <rect class="BoundingBox" stroke="none" fill="none" x="20853" y="11471" width="321" height="321"/>
     <path fill="rgb(68,119,170)" stroke="none" d="M 21172,11647 C 21169,11675 21159,11701 21143,11724 21126,11747 21104,11765 21079,11776 21053,11788 21025,11792 20997,11789 20969,11786 20943,11776 20920,11760 20897,11743 20879,11721 20868,11696 20856,11670 20852,11642 20855,11614 20858,11586 20868,11560 20884,11537 20901,11514 20923,11496 20948,11485 20974,11474 21002,11469 21030,11472 21058,11475 21084,11485 21107,11501 21130,11518 21148,11540 21159,11565 21170,11591 21175,11619 21172,11647 L 21172,11647 Z"/>
    </g>
   </g>
   <g class="com.sun.star.drawing.EllipseShape">
    <g id="id20">
     <rect class="BoundingBox" stroke="none" fill="none" x="20905" y="11565" width="1748" height="297"/>
     <path fill="none" stroke="rgb(68,119,170)" stroke-width="28" stroke-linejoin="round" d="M 20919,11662 C 21003,11634 21100,11612 21206,11598 21383,11575 21582,11574 21781,11594 21981,11615 22154,11652 22316,11706"/>
     <path fill="rgb(68,119,170)" stroke="none" d="M 22271,11809 L 22239,11826 22652,11861 22355,11572 22362,11607 22363,11644 22359,11682 22346,11720 22327,11755 22301,11785 22271,11809 Z"/>
    </g>
   </g>
  </g>
  <g class="Group">
   <g class="com.sun.star.drawing.CustomShape">
    <g id="id21">
     <rect class="BoundingBox" stroke="none" fill="none" x="19568" y="14014" width="321" height="320"/>
     <path fill="rgb(68,119,170)" stroke="none" d="M 19887,14174 C 19887,14201 19880,14229 19866,14253 19852,14277 19831,14298 19807,14312 19783,14326 19755,14333 19728,14333 19700,14333 19672,14326 19648,14312 19624,14298 19603,14277 19589,14253 19575,14229 19568,14201 19568,14174 19568,14146 19575,14118 19589,14094 19603,14070 19624,14049 19648,14035 19672,14021 19700,14014 19728,14014 19755,14014 19783,14021 19807,14035 19831,14049 19852,14070 19866,14094 19880,14118 19887,14146 19887,14174 L 19887,14174 Z"/>
    </g>
   </g>
   <g class="com.sun.star.drawing.EllipseShape">
    <g id="id22">
     <rect class="BoundingBox" stroke="none" fill="none" x="19621" y="13977" width="1760" height="267"/>
     <path fill="none" stroke="rgb(68,119,170)" stroke-width="28" stroke-linejoin="round" d="M 19636,14214 C 19716,14177 19810,14146 19915,14121 20088,14080 20285,14058 20486,14058 20687,14058 20862,14077 21029,14114"/>
     <path fill="rgb(68,119,170)" stroke="none" d="M 20995,14222 L 20965,14242 21379,14234 21054,13978 21065,14011 21070,14048 21069,14087 21061,14126 21045,14162 21022,14194 20995,14222 Z"/>
    </g>
   </g>
  </g>
  <g class="Group">
   <g class="com.sun.star.drawing.CustomShape">
    <g id="id23">
     <rect class="BoundingBox" stroke="none" fill="none" x="18787" y="14522" width="321" height="321"/>
     <path fill="rgb(68,119,170)" stroke="none" d="M 19064,14791 C 19044,14811 19020,14826 18993,14834 18967,14842 18938,14843 18911,14837 18884,14831 18859,14817 18838,14798 18818,14779 18803,14755 18794,14728 18786,14701 18785,14673 18792,14646 18798,14618 18811,14593 18831,14573 18850,14552 18874,14537 18901,14529 18927,14521 18956,14520 18983,14526 19010,14533 19036,14546 19056,14565 19076,14584 19091,14609 19100,14635 19108,14662 19109,14691 19102,14718 19096,14745 19083,14770 19064,14791 L 19064,14791 Z"/>
    </g>
   </g>
   <g class="com.sun.star.drawing.EllipseShape">
    <g id="id24">
     <rect class="BoundingBox" stroke="none" fill="none" x="18838" y="14634" width="1276" height="1222"/>
     <path fill="none" stroke="rgb(68,119,170)" stroke-width="28" stroke-linejoin="round" d="M 18853,14649 C 18937,14677 19027,14718 19120,14771 19275,14860 19434,14979 19580,15116 19727,15253 19842,15387 19938,15528"/>
     <path fill="rgb(68,119,170)" stroke="none" d="M 19840,15583 L 19804,15578 20112,15855 20050,15445 20035,15477 20014,15508 19987,15535 19954,15558 19917,15574 19879,15582 19840,15583 Z"/>
    </g>
   </g>
  </g>
  <g class="Group">
   <g class="com.sun.star.drawing.CustomShape">
    <g id="id25">
     <rect class="BoundingBox" stroke="none" fill="none" x="18911" y="14052" width="321" height="321"/>
     <path fill="rgb(68,119,170)" stroke="none" d="M 19207,14295 C 19193,14319 19172,14338 19147,14352 19123,14365 19095,14372 19067,14371 19039,14370 19012,14362 18988,14348 18964,14333 18944,14312 18931,14288 18918,14263 18911,14236 18912,14208 18912,14180 18921,14152 18935,14128 18950,14105 18970,14085 18995,14072 19020,14058 19047,14052 19075,14052 19103,14053 19131,14061 19154,14076 19178,14090 19198,14111 19211,14136 19225,14160 19231,14188 19231,14216 19230,14244 19222,14271 19207,14295 L 19207,14295 Z"/>
    </g>
   </g>
   <g class="com.sun.star.drawing.EllipseShape">
    <g id="id26">
     <rect class="BoundingBox" stroke="none" fill="none" x="18958" y="14184" width="1492" height="944"/>
     <path fill="none" stroke="rgb(68,119,170)" stroke-width="28" stroke-linejoin="round" d="M 18972,14199 C 19060,14209 19157,14232 19259,14265 19428,14320 19608,14405 19779,14510 19950,14614 20090,14723 20213,14841"/>
     <path fill="rgb(68,119,170)" stroke="none" d="M 20128,14915 L 20091,14917 20449,15126 20305,14738 20297,14772 20282,14806 20262,14839 20234,14867 20201,14890 20165,14906 20128,14915 Z"/>
    </g>
   </g>
  </g>
  <g class="com.sun.star.drawing.OpenBezierShape">
   <g id="id27">
    <rect class="BoundingBox" stroke="none" fill="none" x="17556" y="5751" width="4381" height="9299"/>
    <g style="opacity: 0.749019607843137">
     <path fill="none" stroke="rgb(85,85,85)" stroke-width="106" stroke-linejoin="round" d="M 19409,5804 C 19642,7476 19619,8915 20318,9572 21017,10229 22160,11158 21822,12259 21483,13360 19219,16112 17610,14503"/>
    </g>
   </g>
  </g>
 </g>
</svg>