<?xml version="1.0" encoding="UTF-8"?>
<!DOCTYPE svg PUBLIC "-//W3C//DTD SVG 1.1//EN" "http://www.w3.org/Graphics/SVG/1.1/DTD/svg11.dtd">
<svg version="1.2" viewBox="13834 4331 7825 8447" preserveAspectRatio="xMidYMid" fill-rule="evenodd" stroke-width="28.222" stroke-linejoin="round" xmlns="http://www.w3.org/2000/svg" xmlns:ooo="http://xml.openoffice.org/svg/export" xmlns:xlink="http://www.w3.org/1999/xlink" xmlns:presentation="http://sun.com/xmlns/staroffice/presentation" xmlns:smil="http://www.w3.org/2001/SMIL20/" xmlns:anim="urn:oasis:names:tc:opendocument:xmlns:animation:1.0" xmlns:svg="urn:oasis:names:tc:opendocument:xmlns:svg-compatible:1.0" xml:space="preserve">
 <defs class="EmbeddedBulletChars">
  <g id="bullet-char-template-57356" transform="scale(0.00048828125,-0.00048828125)">
   <path d="M 580,1141 L 1163,571 580,0 -4,571 580,1141 Z"/>
  </g>
  <g id="bullet-char-template-57354" transform="scale(0.00048828125,-0.00048828125)">
   <path d="M 8,1128 L 1137,1128 1137,0 8,0 8,1128 Z"/>
  </g>
  <g id="bullet-char-template-10146" transform="scale(0.00048828125,-0.00048828125)">
   <path d="M 174,0 L 602,739 174,1481 1456,739 174,0 Z M 1358,739 L 309,1346 659,739 1358,739 Z"/>
  </g>
  <g id="bullet-char-template-10132" transform="scale(0.00048828125,-0.00048828125)">
   <path d="M 2015,739 L 1276,0 717,0 1260,543 174,543 174,936 1260,936 717,1481 1274,1481 2015,739 Z"/>
  </g>
  <g id="bullet-char-template-10007" transform="scale(0.00048828125,-0.00048828125)">
   <path d="M 0,-2 C -7,14 -16,27 -25,37 L 356,567 C 262,823 215,952 215,954 215,979 228,992 255,992 264,992 276,990 289,987 310,991 331,999 354,1012 L 381,999 492,748 772,1049 836,1024 860,1049 C 881,1039 901,1025 922,1006 886,937 835,863 770,784 769,783 710,716 594,584 L 774,223 C 774,196 753,168 711,139 L 727,119 C 717,90 699,76 672,76 641,76 570,178 457,381 L 164,-76 C 142,-110 111,-127 72,-127 30,-127 9,-110 8,-76 1,-67 -2,-52 -2,-32 -2,-23 -1,-13 0,-2 Z"/>
  </g>
  <g id="bullet-char-template-10004" transform="scale(0.00048828125,-0.00048828125)">
   <path d="M 285,-33 C 182,-33 111,30 74,156 52,228 41,333 41,471 41,549 55,616 82,672 116,743 169,778 240,778 293,778 328,747 346,684 L 369,508 C 377,444 397,411 428,410 L 1163,1116 C 1174,1127 1196,1133 1229,1133 1271,1133 1292,1118 1292,1087 L 1292,965 C 1292,929 1282,901 1262,881 L 442,47 C 390,-6 338,-33 285,-33 Z"/>
  </g>
  <g id="bullet-char-template-9679" transform="scale(0.00048828125,-0.00048828125)">
   <path d="M 813,0 C 632,0 489,54 383,161 276,268 223,411 223,592 223,773 276,916 383,1023 489,1130 632,1184 813,1184 992,1184 1136,1130 1245,1023 1353,916 1407,772 1407,592 1407,412 1353,268 1245,161 1136,54 992,0 813,0 Z"/>
  </g>
  <g id="bullet-char-template-8226" transform="scale(0.00048828125,-0.00048828125)">
   <path d="M 346,457 C 273,457 209,483 155,535 101,586 74,649 74,723 74,796 101,859 155,911 209,963 273,989 346,989 419,989 480,963 531,910 582,859 608,796 608,723 608,648 583,586 532,535 482,483 420,457 346,457 Z"/>
  </g>
  <g id="bullet-char-template-8211" transform="scale(0.00048828125,-0.00048828125)">
   <path d="M -4,459 L 1135,459 1135,606 -4,606 -4,459 Z"/>
  </g>
  <g id="bullet-char-template-61548" transform="scale(0.00048828125,-0.00048828125)">
   <path d="M 173,740 C 173,903 231,1043 346,1159 462,1274 601,1332 765,1332 928,1332 1067,1274 1183,1159 1299,1043 1357,903 1357,740 1357,577 1299,437 1183,322 1067,206 928,148 765,148 601,148 462,206 346,322 231,437 173,577 173,740 Z"/>
  </g>
 </defs>
 <g ooo:name="page6" class="Page">
  <g class="com.sun.star.drawing.OpenBezierShape">
   <g id="id3">
    <rect class="BoundingBox" stroke="none" fill="none" x="13834" y="4331" width="3978" height="8447"/>
    <g style="opacity: 0.749019607843137">
     <path fill="none" stroke="rgb(85,85,85)" stroke-width="106" stroke-linejoin="round" d="M 15517,4384 C 15728,5901 15708,7207 16341,7803 16974,8399 18009,9242 17702,10241 17396,11240 15345,13737 13888,12276"/>
    </g>
   </g>
  </g>
  <g class="com.sun.star.drawing.OpenBezierShape">
   <g id="id4">
    <rect class="BoundingBox" stroke="none" fill="none" x="14933" y="7769" width="4302" height="1426"/>
    <path fill="none" stroke="rgb(68,119,170)" stroke-width="81" stroke-linejoin="round" stroke-linecap="round" d="M 14974,9153 C 15802,8880 15547,8715 16216,8503 16813,8307 17030,8739 17691,8526 18338,8318 18143,8216 18608,8010"/>
    <path fill="rgb(68,119,170)" stroke="none" d="M 18691,8192 L 18673,8255 19234,7769 18492,7789 18545,7822 18595,7867 18638,7921 18670,7985 18691,8053 18696,8124 18691,8192 Z"/>
   </g>
  </g>
  <g class="Group">
   <g class="com.sun.star.drawing.ClosedBezierShape">
    <g id="id5">
     <rect class="BoundingBox" stroke="none" fill="none" x="18686" y="8338" width="727" height="1072"/>
     <path fill="rgb(68,119,170)" stroke="none" d="M 19412,9409 C 19412,9394 19412,9380 19412,9365 19387,9364 19362,9362 19337,9361 19263,9352 19245,9334 19245,9242 19245,9204 19245,9166 19245,9128 19333,9128 19368,9128 19412,9133 19412,9096 19412,9059 19412,9023 19369,9024 19333,9027 19285,9027 19271,9027 19258,9027 19245,9027 19245,8956 19245,8884 19245,8812 19245,8540 19245,8409 19254,8343 19248,8341 19242,8340 19236,8339 19198,8352 19160,8365 19122,8378 18977,8615 18832,8852 18687,9089 18693,9102 18699,9115 18705,9128 18841,9128 18977,9128 19113,9128 19113,9166 19113,9204 19113,9242 19113,9334 19096,9356 19021,9361 18989,9362 18956,9364 18924,9365 18924,9380 18924,9394 18924,9409 19008,9405 19091,9405 19175,9405 19254,9405 19333,9405 19412,9409 Z M 19113,9027 C 19003,9027 18893,9027 18784,9027 18893,8847 19003,8668 19113,8488 19113,8668 19113,8847 19113,9027 Z"/>
    </g>
   </g>
   <g class="com.sun.star.drawing.ClosedBezierShape">
    <g id="id6">
     <rect class="BoundingBox" stroke="none" fill="none" x="19772" y="8338" width="503" height="1366"/>
     <path fill="rgb(68,119,170)" stroke="none" d="M 20273,8387 C 20273,8371 20273,8355 20273,8339 20198,8343 20124,8343 20049,8343 19974,8343 19900,8343 19825,8339 19825,8355 19825,8371 19825,8387 19848,8388 19872,8390 19895,8391 19970,8396 19974,8409 19974,8527 19974,8828 19974,9130 19974,9431 19974,9558 19952,9606 19891,9606 19856,9606 19825,9598 19790,9576 19784,9579 19778,9581 19772,9584 19775,9622 19778,9660 19781,9698 19793,9700 19804,9701 19816,9703 19819,9703 19822,9703 19825,9703 19878,9703 19970,9655 20027,9580 20102,9488 20124,9409 20124,9225 20124,8992 20124,8760 20124,8527 20124,8409 20128,8396 20203,8391 20226,8390 20250,8388 20273,8387 Z"/>
    </g>
   </g>
   <g class="com.sun.star.drawing.ClosedBezierShape">
    <g id="id7">
     <rect class="BoundingBox" stroke="none" fill="none" x="20409" y="8264" width="547" height="1454"/>
     <path fill="rgb(68,119,170)" stroke="none" d="M 20409,9716 C 20437,9716 20465,9716 20493,9716 20646,9232 20800,8748 20954,8264 20925,8264 20895,8264 20866,8264 20714,8748 20562,9232 20409,9716 Z"/>
    </g>
   </g>
   <g class="com.sun.star.drawing.ClosedBezierShape">
    <g id="id8">
     <rect class="BoundingBox" stroke="none" fill="none" x="21099" y="8685" width="560" height="752"/>
     <path fill="rgb(68,119,170)" stroke="none" d="M 21657,9176 C 21657,9128 21644,9093 21613,9062 21574,9023 21521,9005 21389,8979 21262,8957 21218,8926 21218,8852 21218,8777 21275,8733 21367,8733 21472,8733 21547,8786 21547,8861 21547,8872 21547,8884 21547,8896 21562,8896 21576,8896 21591,8896 21595,8808 21595,8768 21600,8720 21516,8694 21464,8685 21398,8685 21222,8685 21112,8768 21112,8904 21112,8979 21147,9032 21218,9067 21257,9084 21341,9106 21446,9133 21512,9146 21543,9176 21543,9238 21543,9321 21468,9378 21358,9378 21244,9378 21165,9326 21165,9247 21165,9226 21165,9206 21165,9185 21149,9185 21133,9185 21117,9185 21117,9290 21112,9339 21099,9400 21183,9426 21240,9435 21310,9435 21512,9435 21657,9330 21657,9176 Z"/>
    </g>
   </g>
  </g>
 </g>
</svg>