<?xml version="1.0" encoding="UTF-8"?>
<!DOCTYPE svg PUBLIC "-//W3C//DTD SVG 1.1//EN" "http://www.w3.org/Graphics/SVG/1.1/DTD/svg11.dtd">
<svg version="1.2" viewBox="2970 4952 12059 8504" preserveAspectRatio="xMidYMid" fill-rule="evenodd" stroke-width="28.222" stroke-linejoin="round" xmlns="http://www.w3.org/2000/svg" xmlns:ooo="http://xml.openoffice.org/svg/export" xmlns:xlink="http://www.w3.org/1999/xlink" xmlns:presentation="http://sun.com/xmlns/staroffice/presentation" xmlns:smil="http://www.w3.org/2001/SMIL20/" xmlns:anim="urn:oasis:names:tc:opendocument:xmlns:animation:1.0" xmlns:svg="urn:oasis:names:tc:opendocument:xmlns:svg-compatible:1.0" xml:space="preserve">
 <defs class="EmbeddedBulletChars">
  <g id="bullet-char-template-57356" transform="scale(0.00048828125,-0.00048828125)">
   <path d="M 580,1141 L 1163,571 580,0 -4,571 580,1141 Z"/>
  </g>
  <g id="bullet-char-template-57354" transform="scale(0.00048828125,-0.00048828125)">
   <path d="M 8,1128 L 1137,1128 1137,0 8,0 8,1128 Z"/>
  </g>
  <g id="bullet-char-template-10146" transform="scale(0.00048828125,-0.00048828125)">
   <path d="M 174,0 L 602,739 174,1481 1456,739 174,0 Z M 1358,739 L 309,1346 659,739 1358,739 Z"/>
  </g>
  <g id="bullet-char-template-10132" transform="scale(0.00048828125,-0.00048828125)">
   <path d="M 2015,739 L 1276,0 717,0 1260,543 174,543 174,936 1260,936 717,1481 1274,1481 2015,739 Z"/>
  </g>
  <g id="bullet-char-template-10007" transform="scale(0.00048828125,-0.00048828125)">
   <path d="M 0,-2 C -7,14 -16,27 -25,37 L 356,567 C 262,823 215,952 215,954 215,979 228,992 255,992 264,992 276,990 289,987 310,991 331,999 354,1012 L 381,999 492,748 772,1049 836,1024 860,1049 C 881,1039 901,1025 922,1006 886,937 835,863 770,784 769,783 710,716 594,584 L 774,223 C 774,196 753,168 711,139 L 727,119 C 717,90 699,76 672,76 641,76 570,178 457,381 L 164,-76 C 142,-110 111,-127 72,-127 30,-127 9,-110 8,-76 1,-67 -2,-52 -2,-32 -2,-23 -1,-13 0,-2 Z"/>
  </g>
  <g id="bullet-char-template-10004" transform="scale(0.00048828125,-0.00048828125)">
   <path d="M 285,-33 C 182,-33 111,30 74,156 52,228 41,333 41,471 41,549 55,616 82,672 116,743 169,778 240,778 293,778 328,747 346,684 L 369,508 C 377,444 397,411 428,410 L 1163,1116 C 1174,1127 1196,1133 1229,1133 1271,1133 1292,1118 1292,1087 L 1292,965 C 1292,929 1282,901 1262,881 L 442,47 C 390,-6 338,-33 285,-33 Z"/>
  </g>
  <g id="bullet-char-template-9679" transform="scale(0.00048828125,-0.00048828125)">
   <path d="M 813,0 C 632,0 489,54 383,161 276,268 223,411 223,592 223,773 276,916 383,1023 489,1130 632,1184 813,1184 992,1184 1136,1130 1245,1023 1353,916 1407,772 1407,592 1407,412 1353,268 1245,161 1136,54 992,0 813,0 Z"/>
  </g>
  <g id="bullet-char-template-8226" transform="scale(0.00048828125,-0.00048828125)">
   <path d="M 346,457 C 273,457 209,483 155,535 101,586 74,649 74,723 74,796 101,859 155,911 209,963 273,989 346,989 419,989 480,963 531,910 582,859 608,796 608,723 608,648 583,586 532,535 482,483 420,457 346,457 Z"/>
  </g>
  <g id="bullet-char-template-8211" transform="scale(0.00048828125,-0.00048828125)">
   <path d="M -4,459 L 1135,459 1135,606 -4,606 -4,459 Z"/>
  </g>
  <g id="bullet-char-template-61548" transform="scale(0.00048828125,-0.00048828125)">
   <path d="M 173,740 C 173,903 231,1043 346,1159 462,1274 601,1332 765,1332 928,1332 1067,1274 1183,1159 1299,1043 1357,903 1357,740 1357,577 1299,437 1183,322 1067,206 928,148 765,148 601,148 462,206 346,322 231,437 173,577 173,740 Z"/>
  </g>
 </defs>
 <g ooo:name="page11" class="Page">
  <g class="com.sun.star.drawing.ClosedBezierShape">
   <g id="id3">
    <rect class="BoundingBox" stroke="none" fill="none" x="2970" y="4952" width="8808" height="8504"/>
    <path fill="rgb(187,187,187)" fill-opacity="0.251" stroke="none" d="M 8346,10278 C 9047,9621 12009,9326 11670,8225 11331,7124 8855,3861 7246,5470 5637,7079 6843,6998 4600,7273 2357,7548 2950,9389 3881,11273 4813,13157 5406,13348 7691,13369 9659,13516 7648,10935 8346,10278 Z"/>
    <g style="opacity: 0.8">
     <path fill="none" stroke="rgb(85,85,85)" stroke-width="159" stroke-linejoin="round" d="M 8346,10278 C 9047,9621 12009,9326 11670,8225 11331,7124 8855,3861 7246,5470 5637,7079 6843,6998 4600,7273 2357,7548 2950,9389 3881,11273 4813,13157 5406,13348 7691,13369 9659,13516 7648,10935 8346,10278 Z"/>
    </g>
   </g>
  </g>
  <g class="com.sun.star.drawing.LineShape">
   <g id="id4">
    <rect class="BoundingBox" stroke="none" fill="none" x="6824" y="8769" width="6385" height="3863"/>
    <path fill="none" stroke="rgb(68,119,170)" stroke-width="159" stroke-linejoin="round" d="M 6904,8849 L 12316,12096"/>
    <path fill="rgb(68,119,170)" stroke="none" d="M 12424,11847 L 13208,12631 12147,12308 12424,11847 Z"/>
   </g>
  </g>
  <g class="Group">
   <g class="com.sun.star.drawing.ClosedBezierShape">
    <g id="id5">
     <rect class="BoundingBox" stroke="none" fill="none" x="10969" y="9922" width="671" height="1094"/>
     <path fill="rgb(68,119,170)" stroke="none" d="M 11638,10668 C 11638,10545 11581,10475 11405,10396 11546,10299 11594,10238 11594,10146 11594,10014 11484,9922 11322,9922 11137,9922 11005,10041 11005,10203 11005,10308 11045,10365 11181,10453 11119,10484 11093,10497 11058,10532 11001,10589 10970,10659 10970,10738 10970,10896 11097,11014 11273,11014 11471,11014 11638,10856 11638,10668 Z M 11515,10729 C 11515,10861 11418,10962 11295,10962 11163,10962 11080,10869 11080,10725 11080,10615 11124,10545 11238,10475 11279,10492 11320,10510 11361,10527 11458,10571 11515,10646 11515,10729 Z M 11489,10163 C 11489,10251 11453,10308 11352,10374 11324,10361 11297,10348 11269,10334 11168,10286 11119,10225 11119,10146 11119,10045 11194,9975 11304,9975 11418,9975 11489,10049 11489,10163 Z"/>
    </g>
   </g>
   <g class="com.sun.star.drawing.ClosedBezierShape">
    <g id="id6">
     <rect class="BoundingBox" stroke="none" fill="none" x="12064" y="9917" width="1228" height="1099"/>
     <path fill="rgb(68,119,170)" stroke="none" d="M 13291,9966 C 13291,9950 13291,9934 13291,9918 13229,9922 13168,9922 13106,9922 13045,9922 12987,9922 12926,9918 12926,9934 12926,9950 12926,9966 12949,9967 12973,9969 12996,9970 13067,9975 13075,9988 13075,10106 13075,10348 13075,10589 13075,10830 12828,10526 12580,10222 12333,9918 12305,9919 12280,9922 12249,9922 12174,9922 12126,9919 12064,9918 12064,9934 12064,9950 12064,9966 12086,9967 12108,9969 12130,9970 12201,9975 12209,9988 12209,10106 12209,10337 12209,10568 12209,10799 12209,10918 12201,10931 12130,10935 12108,10937 12086,10938 12064,10940 12064,10956 12064,10972 12064,10988 12122,10984 12183,10984 12245,10984 12306,10984 12368,10984 12429,10988 12429,10972 12429,10956 12429,10940 12406,10938 12382,10937 12359,10935 12289,10931 12280,10918 12280,10799 12280,10561 12280,10323 12280,10084 12523,10386 12766,10687 13009,10988 13056,10997 13103,11005 13150,11014 13150,10997 13146,10970 13146,10957 13146,10674 13146,10390 13146,10106 13146,9988 13155,9975 13225,9970 13247,9969 13269,9967 13291,9966 Z"/>
    </g>
   </g>
   <g class="com.sun.star.drawing.ClosedBezierShape">
    <g id="id7">
     <rect class="BoundingBox" stroke="none" fill="none" x="13783" y="10479" width="177" height="177"/>
     <path fill="rgb(68,119,170)" stroke="none" d="M 13959,10567 C 13959,10523 13915,10479 13871,10479 13823,10479 13783,10521 13783,10567 13783,10613 13823,10655 13871,10655 13919,10655 13959,10615 13959,10567 Z"/>
    </g>
   </g>
   <g class="com.sun.star.drawing.ClosedBezierShape">
    <g id="id8">
     <rect class="BoundingBox" stroke="none" fill="none" x="14468" y="10259" width="561" height="757"/>
     <path fill="rgb(68,119,170)" stroke="none" d="M 15027,10755 C 15027,10707 15014,10672 14983,10641 14944,10602 14891,10584 14755,10558 14631,10532 14588,10501 14588,10431 14588,10356 14640,10313 14737,10313 14838,10313 14917,10365 14917,10440 14917,10451 14917,10463 14917,10475 14932,10475 14946,10475 14961,10475 14961,10383 14966,10348 14970,10299 14886,10273 14834,10260 14768,10260 14588,10260 14478,10348 14478,10484 14478,10558 14513,10611 14583,10641 14627,10663 14706,10685 14812,10707 14882,10725 14913,10755 14913,10817 14913,10900 14834,10957 14724,10957 14614,10957 14530,10905 14530,10826 14530,10805 14530,10785 14530,10764 14516,10764 14501,10764 14486,10764 14486,10869 14482,10913 14469,10975 14548,11001 14609,11014 14680,11014 14882,11014 15027,10905 15027,10755 Z"/>
    </g>
   </g>
  </g>
 </g>
</svg>