<?xml version="1.0" encoding="UTF-8"?>
<!DOCTYPE svg PUBLIC "-//W3C//DTD SVG 1.1//EN" "http://www.w3.org/Graphics/SVG/1.1/DTD/svg11.dtd">
<svg version="1.2" viewBox="3963 10311 8755 8451" preserveAspectRatio="xMidYMid" fill-rule="evenodd" stroke-width="28.222" stroke-linejoin="round" xmlns="http://www.w3.org/2000/svg" xmlns:ooo="http://xml.openoffice.org/svg/export" xmlns:xlink="http://www.w3.org/1999/xlink" xmlns:presentation="http://sun.com/xmlns/staroffice/presentation" xmlns:smil="http://www.w3.org/2001/SMIL20/" xmlns:anim="urn:oasis:names:tc:opendocument:xmlns:animation:1.0" xmlns:svg="urn:oasis:names:tc:opendocument:xmlns:svg-compatible:1.0" xml:space="preserve">
 <defs class="EmbeddedBulletChars">
  <g id="bullet-char-template-57356" transform="scale(0.00048828125,-0.00048828125)">
   <path d="M 580,1141 L 1163,571 580,0 -4,571 580,1141 Z"/>
  </g>
  <g id="bullet-char-template-57354" transform="scale(0.00048828125,-0.00048828125)">
   <path d="M 8,1128 L 1137,1128 1137,0 8,0 8,1128 Z"/>
  </g>
  <g id="bullet-char-template-10146" transform="scale(0.00048828125,-0.00048828125)">
   <path d="M 174,0 L 602,739 174,1481 1456,739 174,0 Z M 1358,739 L 309,1346 659,739 1358,739 Z"/>
  </g>
  <g id="bullet-char-template-10132" transform="scale(0.00048828125,-0.00048828125)">
   <path d="M 2015,739 L 1276,0 717,0 1260,543 174,543 174,936 1260,936 717,1481 1274,1481 2015,739 Z"/>
  </g>
  <g id="bullet-char-template-10007" transform="scale(0.00048828125,-0.00048828125)">
   <path d="M 0,-2 C -7,14 -16,27 -25,37 L 356,567 C 262,823 215,952 215,954 215,979 228,992 255,992 264,992 276,990 289,987 310,991 331,999 354,1012 L 381,999 492,748 772,1049 836,1024 860,1049 C 881,1039 901,1025 922,1006 886,937 835,863 770,784 769,783 710,716 594,584 L 774,223 C 774,196 753,168 711,139 L 727,119 C 717,90 699,76 672,76 641,76 570,178 457,381 L 164,-76 C 142,-110 111,-127 72,-127 30,-127 9,-110 8,-76 1,-67 -2,-52 -2,-32 -2,-23 -1,-13 0,-2 Z"/>
  </g>
  <g id="bullet-char-template-10004" transform="scale(0.00048828125,-0.00048828125)">
   <path d="M 285,-33 C 182,-33 111,30 74,156 52,228 41,333 41,471 41,549 55,616 82,672 116,743 169,778 240,778 293,778 328,747 346,684 L 369,508 C 377,444 397,411 428,410 L 1163,1116 C 1174,1127 1196,1133 1229,1133 1271,1133 1292,1118 1292,1087 L 1292,965 C 1292,929 1282,901 1262,881 L 442,47 C 390,-6 338,-33 285,-33 Z"/>
  </g>
  <g id="bullet-char-template-9679" transform="scale(0.00048828125,-0.00048828125)">
   <path d="M 813,0 C 632,0 489,54 383,161 276,268 223,411 223,592 223,773 276,916 383,1023 489,1130 632,1184 813,1184 992,1184 1136,1130 1245,1023 1353,916 1407,772 1407,592 1407,412 1353,268 1245,161 1136,54 992,0 813,0 Z"/>
  </g>
  <g id="bullet-char-template-8226" transform="scale(0.00048828125,-0.00048828125)">
   <path d="M 346,457 C 273,457 209,483 155,535 101,586 74,649 74,723 74,796 101,859 155,911 209,963 273,989 346,989 419,989 480,963 531,910 582,859 608,796 608,723 608,648 583,586 532,535 482,483 420,457 346,457 Z"/>
  </g>
  <g id="bullet-char-template-8211" transform="scale(0.00048828125,-0.00048828125)">
   <path d="M -4,459 L 1135,459 1135,606 -4,606 -4,459 Z"/>
  </g>
  <g id="bullet-char-template-61548" transform="scale(0.00048828125,-0.00048828125)">
   <path d="M 173,740 C 173,903 231,1043 346,1159 462,1274 601,1332 765,1332 928,1332 1067,1274 1183,1159 1299,1043 1357,903 1357,740 1357,577 1299,437 1183,322 1067,206 928,148 765,148 601,148 462,206 346,322 231,437 173,577 173,740 Z"/>
  </g>
 </defs>
 <g ooo:name="page4" class="Page">
  <g class="com.sun.star.drawing.ClosedBezierShape">
   <g id="id3">
    <rect class="BoundingBox" stroke="none" fill="none" x="3963" y="10311" width="8755" height="8451"/>
    <path fill="rgb(85,85,85)" fill-opacity="0.251" stroke="none" d="M 9313,15610 C 10014,14953 12976,14658 12637,13557 12298,12456 9822,9193 8213,10802 6604,12411 7810,12330 5567,12605 3324,12880 3917,14721 4848,16605 5780,18489 6373,18680 8658,18701 10626,18848 8615,16267 9313,15610 Z"/>
    <g style="opacity: 0.749019607843137">
     <path fill="none" stroke="rgb(85,85,85)" stroke-width="106" stroke-linejoin="round" d="M 9313,15610 C 10014,14953 12976,14658 12637,13557 12298,12456 9822,9193 8213,10802 6604,12411 7810,12330 5567,12605 3324,12880 3917,14721 4848,16605 5780,18489 6373,18680 8658,18701 10626,18848 8615,16267 9313,15610 Z"/>
    </g>
   </g>
  </g>
  <g class="com.sun.star.drawing.CustomShape">
   <g id="id4">
    <rect class="BoundingBox" stroke="none" fill="none" x="5715" y="13559" width="320" height="320"/>
    <path fill="rgb(238,102,119)" stroke="none" d="M 6034,13719 C 6034,13746 6027,13774 6013,13798 5999,13822 5978,13843 5954,13857 5930,13871 5902,13878 5875,13878 5847,13878 5819,13871 5795,13857 5771,13843 5750,13822 5736,13798 5722,13774 5715,13746 5715,13719 5715,13691 5722,13663 5736,13639 5750,13615 5771,13594 5795,13580 5819,13566 5847,13559 5875,13559 5902,13559 5930,13566 5954,13580 5978,13594 5999,13615 6013,13639 6027,13663 6034,13691 6034,13719 L 6034,13719 Z"/>
   </g>
  </g>
  <g class="com.sun.star.drawing.CustomShape">
   <g id="id5">
    <rect class="BoundingBox" stroke="none" fill="none" x="7716" y="13560" width="320" height="320"/>
    <path fill="rgb(68,119,170)" stroke="none" d="M 8035,13720 C 8035,13747 8028,13775 8014,13799 8000,13823 7979,13844 7955,13858 7931,13872 7903,13879 7876,13879 7848,13879 7820,13872 7796,13858 7772,13844 7751,13823 7737,13799 7723,13775 7716,13747 7716,13720 7716,13692 7723,13664 7737,13640 7751,13616 7772,13595 7796,13581 7820,13567 7848,13560 7876,13560 7903,13560 7931,13567 7955,13581 7979,13595 8000,13616 8014,13640 8028,13664 8035,13692 8035,13720 L 8035,13720 Z"/>
   </g>
  </g>
  <g class="com.sun.star.drawing.CustomShape">
   <g id="id6">
    <rect class="BoundingBox" stroke="none" fill="none" x="6717" y="15561" width="320" height="320"/>
    <path fill="rgb(238,102,119)" stroke="none" d="M 7036,15721 C 7036,15748 7029,15776 7015,15800 7001,15824 6980,15845 6956,15859 6932,15873 6904,15880 6877,15880 6849,15880 6821,15873 6797,15859 6773,15845 6752,15824 6738,15800 6724,15776 6717,15748 6717,15721 6717,15693 6724,15665 6738,15641 6752,15617 6773,15596 6797,15582 6821,15568 6849,15561 6877,15561 6904,15561 6932,15568 6956,15582 6980,15596 7001,15617 7015,15641 7029,15665 7036,15693 7036,15721 L 7036,15721 Z"/>
   </g>
  </g>
  <g class="com.sun.star.drawing.CustomShape">
   <g id="id7">
    <rect class="BoundingBox" stroke="none" fill="none" x="8983" y="12980" width="321" height="321"/>
    <path fill="rgb(238,102,119)" stroke="none" d="M 9302,13140 C 9302,13167 9295,13195 9281,13219 9267,13243 9246,13264 9222,13278 9198,13292 9170,13299 9143,13299 9115,13299 9087,13292 9063,13278 9039,13264 9018,13243 9004,13219 8990,13195 8983,13167 8983,13140 8983,13112 8990,13084 9004,13060 9018,13036 9039,13015 9063,13001 9087,12987 9115,12980 9143,12980 9170,12980 9198,12987 9222,13001 9246,13015 9267,13036 9281,13060 9295,13084 9302,13112 9302,13140 L 9302,13140 Z"/>
   </g>
  </g>
  <g class="com.sun.star.drawing.CustomShape">
   <g id="id8">
    <rect class="BoundingBox" stroke="none" fill="none" x="9810" y="13320" width="321" height="321"/>
    <path fill="rgb(68,119,170)" stroke="none" d="M 10129,13480 C 10129,13507 10122,13535 10108,13559 10094,13583 10073,13604 10049,13618 10025,13632 9997,13639 9970,13639 9942,13639 9914,13632 9890,13618 9866,13604 9845,13583 9831,13559 9817,13535 9810,13507 9810,13480 9810,13452 9817,13424 9831,13400 9845,13376 9866,13355 9890,13341 9914,13327 9942,13320 9970,13320 9997,13320 10025,13327 10049,13341 10073,13355 10094,13376 10108,13400 10122,13424 10129,13452 10129,13480 L 10129,13480 Z"/>
   </g>
  </g>
  <g class="com.sun.star.drawing.CustomShape">
   <g id="id9">
    <rect class="BoundingBox" stroke="none" fill="none" x="9091" y="11374" width="321" height="321"/>
    <path fill="rgb(238,102,119)" stroke="none" d="M 9410,11534 C 9410,11561 9403,11589 9389,11613 9375,11637 9354,11658 9330,11672 9306,11686 9278,11693 9251,11693 9223,11693 9195,11686 9171,11672 9147,11658 9126,11637 9112,11613 9098,11589 9091,11561 9091,11534 9091,11506 9098,11478 9112,11454 9126,11430 9147,11409 9171,11395 9195,11381 9223,11374 9251,11374 9278,11374 9306,11381 9330,11395 9354,11409 9375,11430 9389,11454 9403,11478 9410,11506 9410,11534 L 9410,11534 Z"/>
   </g>
  </g>
  <g class="com.sun.star.drawing.CustomShape">
   <g id="id10">
    <rect class="BoundingBox" stroke="none" fill="none" x="10087" y="12391" width="321" height="321"/>
    <path fill="rgb(68,119,170)" stroke="none" d="M 10406,12551 C 10406,12578 10399,12606 10385,12630 10371,12654 10350,12675 10326,12689 10302,12703 10274,12710 10247,12710 10219,12710 10191,12703 10167,12689 10143,12675 10122,12654 10108,12630 10094,12606 10087,12578 10087,12551 10087,12523 10094,12495 10108,12471 10122,12447 10143,12426 10167,12412 10191,12398 10219,12391 10247,12391 10274,12391 10302,12398 10326,12412 10350,12426 10371,12447 10385,12471 10399,12495 10406,12523 10406,12551 L 10406,12551 Z"/>
   </g>
  </g>
  <g class="com.sun.star.drawing.CustomShape">
   <g id="id11">
    <rect class="BoundingBox" stroke="none" fill="none" x="9432" y="14021" width="320" height="320"/>
    <path fill="rgb(68,119,170)" stroke="none" d="M 9751,14181 C 9751,14208 9744,14236 9730,14260 9716,14284 9695,14305 9671,14319 9647,14333 9619,14340 9592,14340 9564,14340 9536,14333 9512,14319 9488,14305 9467,14284 9453,14260 9439,14236 9432,14208 9432,14181 9432,14153 9439,14125 9453,14101 9467,14077 9488,14056 9512,14042 9536,14028 9564,14021 9592,14021 9619,14021 9647,14028 9671,14042 9695,14056 9716,14077 9730,14101 9744,14125 9751,14153 9751,14181 L 9751,14181 Z"/>
   </g>
  </g>
  <g class="com.sun.star.drawing.CustomShape">
   <g id="id12">
    <rect class="BoundingBox" stroke="none" fill="none" x="8205" y="15060" width="320" height="320"/>
    <path fill="rgb(68,119,170)" stroke="none" d="M 8524,15220 C 8524,15247 8517,15275 8503,15299 8489,15323 8468,15344 8444,15358 8420,15372 8392,15379 8365,15379 8337,15379 8309,15372 8285,15358 8261,15344 8240,15323 8226,15299 8212,15275 8205,15247 8205,15220 8205,15192 8212,15164 8226,15140 8240,15116 8261,15095 8285,15081 8309,15067 8337,15060 8365,15060 8392,15060 8420,15067 8444,15081 8468,15095 8489,15116 8503,15140 8517,15164 8524,15192 8524,15220 L 8524,15220 Z"/>
   </g>
  </g>
  <g class="com.sun.star.drawing.CustomShape">
   <g id="id13">
    <rect class="BoundingBox" stroke="none" fill="none" x="8185" y="16225" width="320" height="320"/>
    <path fill="rgb(68,119,170)" stroke="none" d="M 8504,16385 C 8504,16412 8497,16440 8483,16464 8469,16488 8448,16509 8424,16523 8400,16537 8372,16544 8345,16544 8317,16544 8289,16537 8265,16523 8241,16509 8220,16488 8206,16464 8192,16440 8185,16412 8185,16385 8185,16357 8192,16329 8206,16305 8220,16281 8241,16260 8265,16246 8289,16232 8317,16225 8345,16225 8372,16225 8400,16232 8424,16246 8448,16260 8469,16281 8483,16305 8497,16329 8504,16357 8504,16385 L 8504,16385 Z"/>
   </g>
  </g>
  <g class="com.sun.star.drawing.CustomShape">
   <g id="id14">
    <rect class="BoundingBox" stroke="none" fill="none" x="7106" y="16861" width="321" height="320"/>
    <path fill="rgb(68,119,170)" stroke="none" d="M 7425,17021 C 7425,17048 7418,17076 7404,17100 7390,17124 7369,17145 7345,17159 7321,17173 7293,17180 7266,17180 7238,17180 7210,17173 7186,17159 7162,17145 7141,17124 7127,17100 7113,17076 7106,17048 7106,17021 7106,16993 7113,16965 7127,16941 7141,16917 7162,16896 7186,16882 7210,16868 7238,16861 7266,16861 7293,16861 7321,16868 7345,16882 7369,16896 7390,16917 7404,16941 7418,16965 7425,16993 7425,17021 L 7425,17021 Z"/>
   </g>
  </g>
  <g class="com.sun.star.drawing.CustomShape">
   <g id="id15">
    <rect class="BoundingBox" stroke="none" fill="none" x="5541" y="16925" width="321" height="321"/>
    <path fill="rgb(68,119,170)" stroke="none" d="M 5860,17085 C 5860,17112 5853,17140 5839,17164 5825,17188 5804,17209 5780,17223 5756,17237 5728,17244 5701,17244 5673,17244 5645,17237 5621,17223 5597,17209 5576,17188 5562,17164 5548,17140 5541,17112 5541,17085 5541,17057 5548,17029 5562,17005 5576,16981 5597,16960 5621,16946 5645,16932 5673,16925 5701,16925 5728,16925 5756,16932 5780,16946 5804,16960 5825,16981 5839,17005 5853,17029 5860,17057 5860,17085 L 5860,17085 Z"/>
   </g>
  </g>
  <g class="com.sun.star.drawing.CustomShape">
   <g id="id16">
    <rect class="BoundingBox" stroke="none" fill="none" x="4886" y="15508" width="321" height="320"/>
    <path fill="rgb(68,119,170)" stroke="none" d="M 5205,15668 C 5205,15695 5198,15723 5184,15747 5170,15771 5149,15792 5125,15806 5101,15820 5073,15827 5046,15827 5018,15827 4990,15820 4966,15806 4942,15792 4921,15771 4907,15747 4893,15723 4886,15695 4886,15668 4886,15640 4893,15612 4907,15588 4921,15564 4942,15543 4966,15529 4990,15515 5018,15508 5046,15508 5073,15508 5101,15515 5125,15529 5149,15543 5170,15564 5184,15588 5198,15612 5205,15640 5205,15668 L 5205,15668 Z"/>
   </g>
  </g>
  <g class="com.sun.star.drawing.CustomShape">
   <g id="id17">
    <rect class="BoundingBox" stroke="none" fill="none" x="5755" y="16017" width="321" height="320"/>
    <path fill="rgb(68,119,170)" stroke="none" d="M 6074,16177 C 6074,16204 6067,16232 6053,16256 6039,16280 6018,16301 5994,16315 5970,16329 5942,16336 5915,16336 5887,16336 5859,16329 5835,16315 5811,16301 5790,16280 5776,16256 5762,16232 5755,16204 5755,16177 5755,16149 5762,16121 5776,16097 5790,16073 5811,16052 5835,16038 5859,16024 5887,16017 5915,16017 5942,16017 5970,16024 5994,16038 6018,16052 6039,16073 6053,16097 6067,16121 6074,16149 6074,16177 L 6074,16177 Z"/>
   </g>
  </g>
  <g class="com.sun.star.drawing.CustomShape">
   <g id="id18">
    <rect class="BoundingBox" stroke="none" fill="none" x="6595" y="14683" width="320" height="320"/>
    <path fill="rgb(68,119,170)" stroke="none" d="M 6914,14843 C 6914,14870 6907,14898 6893,14922 6879,14946 6858,14967 6834,14981 6810,14995 6782,15002 6755,15002 6727,15002 6699,14995 6675,14981 6651,14967 6630,14946 6616,14922 6602,14898 6595,14870 6595,14843 6595,14815 6602,14787 6616,14763 6630,14739 6651,14718 6675,14704 6699,14690 6727,14683 6755,14683 6782,14683 6810,14690 6834,14704 6858,14718 6879,14739 6893,14763 6907,14787 6914,14815 6914,14843 L 6914,14843 Z"/>
   </g>
  </g>
  <g class="com.sun.star.drawing.CustomShape">
   <g id="id19">
    <rect class="BoundingBox" stroke="none" fill="none" x="6596" y="13075" width="321" height="320"/>
    <path fill="rgb(68,119,170)" stroke="none" d="M 6915,13235 C 6915,13262 6908,13290 6894,13314 6880,13338 6859,13359 6835,13373 6811,13387 6783,13394 6756,13394 6728,13394 6700,13387 6676,13373 6652,13359 6631,13338 6617,13314 6603,13290 6596,13262 6596,13235 6596,13207 6603,13179 6617,13155 6631,13131 6652,13110 6676,13096 6700,13082 6728,13075 6756,13075 6783,13075 6811,13082 6835,13096 6859,13110 6880,13131 6894,13155 6908,13179 6915,13207 6915,13235 L 6915,13235 Z"/>
   </g>
  </g>
  <g class="com.sun.star.drawing.CustomShape">
   <g id="id20">
    <rect class="BoundingBox" stroke="none" fill="none" x="8121" y="12229" width="320" height="320"/>
    <path fill="rgb(68,119,170)" stroke="none" d="M 8440,12389 C 8440,12416 8433,12444 8419,12468 8405,12492 8384,12513 8360,12527 8336,12541 8308,12548 8281,12548 8253,12548 8225,12541 8201,12527 8177,12513 8156,12492 8142,12468 8128,12444 8121,12416 8121,12389 8121,12361 8128,12333 8142,12309 8156,12285 8177,12264 8201,12250 8225,12236 8253,12229 8281,12229 8308,12229 8336,12236 8360,12250 8384,12264 8405,12285 8419,12309 8433,12333 8440,12361 8440,12389 L 8440,12389 Z"/>
   </g>
  </g>
  <g class="com.sun.star.drawing.CustomShape">
   <g id="id21">
    <rect class="BoundingBox" stroke="none" fill="none" x="8948" y="12230" width="320" height="320"/>
    <path fill="rgb(238,102,119)" stroke="none" d="M 9267,12390 C 9267,12417 9260,12445 9246,12469 9232,12493 9211,12514 9187,12528 9163,12542 9135,12549 9108,12549 9080,12549 9052,12542 9028,12528 9004,12514 8983,12493 8969,12469 8955,12445 8948,12417 8948,12390 8948,12362 8955,12334 8969,12310 8983,12286 9004,12265 9028,12251 9052,12237 9080,12230 9108,12230 9135,12230 9163,12237 9187,12251 9211,12265 9232,12286 9246,12310 9260,12334 9267,12362 9267,12390 L 9267,12390 Z"/>
   </g>
  </g>
  <g class="com.sun.star.drawing.CustomShape">
   <g id="id22">
    <rect class="BoundingBox" stroke="none" fill="none" x="8483" y="14094" width="320" height="320"/>
    <path fill="rgb(238,102,119)" stroke="none" d="M 8802,14254 C 8802,14281 8795,14309 8781,14333 8767,14357 8746,14378 8722,14392 8698,14406 8670,14413 8643,14413 8615,14413 8587,14406 8563,14392 8539,14378 8518,14357 8504,14333 8490,14309 8483,14281 8483,14254 8483,14226 8490,14198 8504,14174 8518,14150 8539,14129 8563,14115 8587,14101 8615,14094 8643,14094 8670,14094 8698,14101 8722,14115 8746,14129 8767,14150 8781,14174 8795,14198 8802,14226 8802,14254 L 8802,14254 Z"/>
   </g>
  </g>
  <g class="com.sun.star.drawing.CustomShape">
   <g id="id23">
    <rect class="BoundingBox" stroke="none" fill="none" x="8611" y="17376" width="320" height="320"/>
    <path fill="rgb(68,119,170)" stroke="none" d="M 8930,17536 C 8930,17563 8923,17591 8909,17615 8895,17639 8874,17660 8850,17674 8826,17688 8798,17695 8771,17695 8743,17695 8715,17688 8691,17674 8667,17660 8646,17639 8632,17615 8618,17591 8611,17563 8611,17536 8611,17508 8618,17480 8632,17456 8646,17432 8667,17411 8691,17397 8715,17383 8743,17376 8771,17376 8798,17376 8826,17383 8850,17397 8874,17411 8895,17432 8909,17456 8923,17480 8930,17508 8930,17536 L 8930,17536 Z"/>
   </g>
  </g>
  <g class="com.sun.star.drawing.CustomShape">
   <g id="id24">
    <rect class="BoundingBox" stroke="none" fill="none" x="7490" y="17546" width="320" height="320"/>
    <path fill="rgb(238,102,119)" stroke="none" d="M 7809,17706 C 7809,17733 7802,17761 7788,17785 7774,17809 7753,17830 7729,17844 7705,17858 7677,17865 7650,17865 7622,17865 7594,17858 7570,17844 7546,17830 7525,17809 7511,17785 7497,17761 7490,17733 7490,17706 7490,17678 7497,17650 7511,17626 7525,17602 7546,17581 7570,17567 7594,17553 7622,17546 7650,17546 7677,17546 7705,17553 7729,17567 7753,17581 7774,17602 7788,17626 7802,17650 7809,17678 7809,17706 L 7809,17706 Z"/>
   </g>
  </g>
  <g class="com.sun.star.drawing.CustomShape">
   <g id="id25">
    <rect class="BoundingBox" stroke="none" fill="none" x="7301" y="15917" width="321" height="320"/>
    <path fill="rgb(238,102,119)" stroke="none" d="M 7620,16077 C 7620,16104 7613,16132 7599,16156 7585,16180 7564,16201 7540,16215 7516,16229 7488,16236 7461,16236 7433,16236 7405,16229 7381,16215 7357,16201 7336,16180 7322,16156 7308,16132 7301,16104 7301,16077 7301,16049 7308,16021 7322,15997 7336,15973 7357,15952 7381,15938 7405,15924 7433,15917 7461,15917 7488,15917 7516,15924 7540,15938 7564,15952 7585,15973 7599,15997 7613,16021 7620,16049 7620,16077 L 7620,16077 Z"/>
   </g>
  </g>
  <g class="com.sun.star.drawing.CustomShape">
   <g id="id26">
    <rect class="BoundingBox" stroke="none" fill="none" x="4741" y="14246" width="321" height="320"/>
    <path fill="rgb(238,102,119)" stroke="none" d="M 5060,14406 C 5060,14433 5053,14461 5039,14485 5025,14509 5004,14530 4980,14544 4956,14558 4928,14565 4901,14565 4873,14565 4845,14558 4821,14544 4797,14530 4776,14509 4762,14485 4748,14461 4741,14433 4741,14406 4741,14378 4748,14350 4762,14326 4776,14302 4797,14281 4821,14267 4845,14253 4873,14246 4901,14246 4928,14246 4956,14253 4980,14267 5004,14281 5025,14302 5039,14326 5053,14350 5060,14378 5060,14406 L 5060,14406 Z"/>
   </g>
  </g>
  <g class="com.sun.star.drawing.CustomShape">
   <g id="id27">
    <rect class="BoundingBox" stroke="none" fill="none" x="4742" y="13591" width="321" height="320"/>
    <path fill="rgb(238,102,119)" stroke="none" d="M 5061,13751 C 5061,13778 5054,13806 5040,13830 5026,13854 5005,13875 4981,13889 4957,13903 4929,13910 4902,13910 4874,13910 4846,13903 4822,13889 4798,13875 4777,13854 4763,13830 4749,13806 4742,13778 4742,13751 4742,13723 4749,13695 4763,13671 4777,13647 4798,13626 4822,13612 4846,13598 4874,13591 4902,13591 4929,13591 4957,13598 4981,13612 5005,13626 5026,13647 5040,13671 5054,13695 5061,13723 5061,13751 L 5061,13751 Z"/>
   </g>
  </g>
  <g class="com.sun.star.drawing.CustomShape">
   <g id="id28">
    <rect class="BoundingBox" stroke="none" fill="none" x="5208" y="13148" width="320" height="321"/>
    <path fill="rgb(238,102,119)" stroke="none" d="M 5527,13308 C 5527,13335 5520,13363 5506,13387 5492,13411 5471,13432 5447,13446 5423,13460 5395,13467 5368,13467 5340,13467 5312,13460 5288,13446 5264,13432 5243,13411 5229,13387 5215,13363 5208,13335 5208,13308 5208,13280 5215,13252 5229,13228 5243,13204 5264,13183 5288,13169 5312,13155 5340,13148 5368,13148 5395,13148 5423,13155 5447,13169 5471,13183 5492,13204 5506,13228 5520,13252 5527,13280 5527,13308 L 5527,13308 Z"/>
   </g>
  </g>
  <g class="com.sun.star.drawing.CustomShape">
   <g id="id29">
    <rect class="BoundingBox" stroke="none" fill="none" x="5273" y="13932" width="320" height="320"/>
    <path fill="rgb(238,102,119)" stroke="none" d="M 5592,14092 C 5592,14119 5585,14147 5571,14171 5557,14195 5536,14216 5512,14230 5488,14244 5460,14251 5433,14251 5405,14251 5377,14244 5353,14230 5329,14216 5308,14195 5294,14171 5280,14147 5273,14119 5273,14092 5273,14064 5280,14036 5294,14012 5308,13988 5329,13967 5353,13953 5377,13939 5405,13932 5433,13932 5460,13932 5488,13939 5512,13953 5536,13967 5557,13988 5571,14012 5585,14036 5592,14064 5592,14092 L 5592,14092 Z"/>
   </g>
  </g>
  <g class="com.sun.star.drawing.CustomShape">
   <g id="id30">
    <rect class="BoundingBox" stroke="none" fill="none" x="5316" y="14525" width="320" height="320"/>
    <path fill="rgb(68,119,170)" stroke="none" d="M 5635,14685 C 5635,14712 5628,14740 5614,14764 5600,14788 5579,14809 5555,14823 5531,14837 5503,14844 5476,14844 5448,14844 5420,14837 5396,14823 5372,14809 5351,14788 5337,14764 5323,14740 5316,14712 5316,14685 5316,14657 5323,14629 5337,14605 5351,14581 5372,14560 5396,14546 5420,14532 5448,14525 5476,14525 5503,14525 5531,14532 5555,14546 5579,14560 5600,14581 5614,14605 5628,14629 5635,14657 5635,14685 L 5635,14685 Z"/>
   </g>
  </g>
  <g class="com.sun.star.drawing.CustomShape">
   <g id="id31">
    <rect class="BoundingBox" stroke="none" fill="none" x="5783" y="14145" width="320" height="320"/>
    <path fill="rgb(238,102,119)" stroke="none" d="M 6102,14305 C 6102,14332 6095,14360 6081,14384 6067,14408 6046,14429 6022,14443 5998,14457 5970,14464 5943,14464 5915,14464 5887,14457 5863,14443 5839,14429 5818,14408 5804,14384 5790,14360 5783,14332 5783,14305 5783,14277 5790,14249 5804,14225 5818,14201 5839,14180 5863,14166 5887,14152 5915,14145 5943,14145 5970,14145 5998,14152 6022,14166 6046,14180 6067,14201 6081,14225 6095,14249 6102,14277 6102,14305 L 6102,14305 Z"/>
   </g>
  </g>
  <g class="com.sun.star.drawing.CustomShape">
   <g id="id32">
    <rect class="BoundingBox" stroke="none" fill="none" x="5805" y="14908" width="321" height="320"/>
    <path fill="rgb(68,119,170)" stroke="none" d="M 6124,15068 C 6124,15095 6117,15123 6103,15147 6089,15171 6068,15192 6044,15206 6020,15220 5992,15227 5965,15227 5937,15227 5909,15220 5885,15206 5861,15192 5840,15171 5826,15147 5812,15123 5805,15095 5805,15068 5805,15040 5812,15012 5826,14988 5840,14964 5861,14943 5885,14929 5909,14915 5937,14908 5965,14908 5992,14908 6020,14915 6044,14929 6068,14943 6089,14964 6103,14988 6117,15012 6124,15040 6124,15068 L 6124,15068 Z"/>
   </g>
  </g>
  <g class="com.sun.star.drawing.CustomShape">
   <g id="id33">
    <rect class="BoundingBox" stroke="none" fill="none" x="4917" y="14776" width="320" height="320"/>
    <path fill="rgb(68,119,170)" stroke="none" d="M 5236,14936 C 5236,14963 5229,14991 5215,15015 5201,15039 5180,15060 5156,15074 5132,15088 5104,15095 5077,15095 5049,15095 5021,15088 4997,15074 4973,15060 4952,15039 4938,15015 4924,14991 4917,14963 4917,14936 4917,14908 4924,14880 4938,14856 4952,14832 4973,14811 4997,14797 5021,14783 5049,14776 5077,14776 5104,14776 5132,14783 5156,14797 5180,14811 5201,14832 5215,14856 5229,14880 5236,14908 5236,14936 L 5236,14936 Z"/>
   </g>
  </g>
  <g class="com.sun.star.drawing.CustomShape">
   <g id="id34">
    <rect class="BoundingBox" stroke="none" fill="none" x="4304" y="13803" width="320" height="320"/>
    <path fill="rgb(238,102,119)" stroke="none" d="M 4623,13963 C 4623,13990 4616,14018 4602,14042 4588,14066 4567,14087 4543,14101 4519,14115 4491,14122 4464,14122 4436,14122 4408,14115 4384,14101 4360,14087 4339,14066 4325,14042 4311,14018 4304,13990 4304,13963 4304,13935 4311,13907 4325,13883 4339,13859 4360,13838 4384,13824 4408,13810 4436,13803 4464,13803 4491,13803 4519,13810 4543,13824 4567,13838 4588,13859 4602,13883 4616,13907 4623,13935 4623,13963 L 4623,13963 Z"/>
   </g>
  </g>
  <g class="com.sun.star.drawing.CustomShape">
   <g id="id35">
    <rect class="BoundingBox" stroke="none" fill="none" x="4728" y="13148" width="321" height="321"/>
    <path fill="rgb(238,102,119)" stroke="none" d="M 5047,13308 C 5047,13335 5040,13363 5026,13387 5012,13411 4991,13432 4967,13446 4943,13460 4915,13467 4888,13467 4860,13467 4832,13460 4808,13446 4784,13432 4763,13411 4749,13387 4735,13363 4728,13335 4728,13308 4728,13280 4735,13252 4749,13228 4763,13204 4784,13183 4808,13169 4832,13155 4860,13148 4888,13148 4915,13148 4943,13155 4967,13169 4991,13183 5012,13204 5026,13228 5040,13252 5047,13280 5047,13308 L 5047,13308 Z"/>
   </g>
  </g>
  <g class="com.sun.star.drawing.CustomShape">
   <g id="id36">
    <rect class="BoundingBox" stroke="none" fill="none" x="5703" y="13043" width="320" height="320"/>
    <path fill="rgb(238,102,119)" stroke="none" d="M 6022,13203 C 6022,13230 6015,13258 6001,13282 5987,13306 5966,13327 5942,13341 5918,13355 5890,13362 5863,13362 5835,13362 5807,13355 5783,13341 5759,13327 5738,13306 5724,13282 5710,13258 5703,13230 5703,13203 5703,13175 5710,13147 5724,13123 5738,13099 5759,13078 5783,13064 5807,13050 5835,13043 5863,13043 5890,13043 5918,13050 5942,13064 5966,13078 5987,13099 6001,13123 6015,13147 6022,13175 6022,13203 L 6022,13203 Z"/>
   </g>
  </g>
  <g class="com.sun.star.drawing.CustomShape">
   <g id="id37">
    <rect class="BoundingBox" stroke="none" fill="none" x="6170" y="13658" width="320" height="320"/>
    <path fill="rgb(238,102,119)" stroke="none" d="M 6489,13818 C 6489,13845 6482,13873 6468,13897 6454,13921 6433,13942 6409,13956 6385,13970 6357,13977 6330,13977 6302,13977 6274,13970 6250,13956 6226,13942 6205,13921 6191,13897 6177,13873 6170,13845 6170,13818 6170,13790 6177,13762 6191,13738 6205,13714 6226,13693 6250,13679 6274,13665 6302,13658 6330,13658 6357,13658 6385,13665 6409,13679 6433,13693 6454,13714 6468,13738 6482,13762 6489,13790 6489,13818 L 6489,13818 Z"/>
   </g>
  </g>
  <g class="com.sun.star.drawing.CustomShape">
   <g id="id38">
    <rect class="BoundingBox" stroke="none" fill="none" x="8520" y="12727" width="321" height="320"/>
    <path fill="rgb(238,102,119)" stroke="none" d="M 8839,12887 C 8839,12914 8832,12942 8818,12966 8804,12990 8783,13011 8759,13025 8735,13039 8707,13046 8680,13046 8652,13046 8624,13039 8600,13025 8576,13011 8555,12990 8541,12966 8527,12942 8520,12914 8520,12887 8520,12859 8527,12831 8541,12807 8555,12783 8576,12762 8600,12748 8624,12734 8652,12727 8680,12727 8707,12727 8735,12734 8759,12748 8783,12762 8804,12783 8818,12807 8832,12831 8839,12859 8839,12887 L 8839,12887 Z"/>
   </g>
  </g>
  <g class="com.sun.star.drawing.CustomShape">
   <g id="id39">
    <rect class="BoundingBox" stroke="none" fill="none" x="8606" y="13236" width="321" height="320"/>
    <path fill="rgb(68,119,170)" stroke="none" d="M 8925,13396 C 8925,13423 8918,13451 8904,13475 8890,13499 8869,13520 8845,13534 8821,13548 8793,13555 8766,13555 8738,13555 8710,13548 8686,13534 8662,13520 8641,13499 8627,13475 8613,13451 8606,13423 8606,13396 8606,13368 8613,13340 8627,13316 8641,13292 8662,13271 8686,13257 8710,13243 8738,13236 8766,13236 8793,13236 8821,13243 8845,13257 8869,13271 8890,13292 8904,13316 8918,13340 8925,13368 8925,13396 L 8925,13396 Z"/>
   </g>
  </g>
  <g class="com.sun.star.drawing.CustomShape">
   <g id="id40">
    <rect class="BoundingBox" stroke="none" fill="none" x="7993" y="12814" width="320" height="321"/>
    <path fill="rgb(68,119,170)" stroke="none" d="M 8312,12974 C 8312,13001 8305,13029 8291,13053 8277,13077 8256,13098 8232,13112 8208,13126 8180,13133 8153,13133 8125,13133 8097,13126 8073,13112 8049,13098 8028,13077 8014,13053 8000,13029 7993,13001 7993,12974 7993,12946 8000,12918 8014,12894 8028,12870 8049,12849 8073,12835 8097,12821 8125,12814 8153,12814 8180,12814 8208,12821 8232,12835 8256,12849 8277,12870 8291,12894 8305,12918 8312,12946 8312,12974 L 8312,12974 Z"/>
   </g>
  </g>
  <g class="com.sun.star.drawing.CustomShape">
   <g id="id41">
    <rect class="BoundingBox" stroke="none" fill="none" x="9266" y="12548" width="321" height="321"/>
    <path fill="rgb(238,102,119)" stroke="none" d="M 9585,12708 C 9585,12735 9578,12763 9564,12787 9550,12811 9529,12832 9505,12846 9481,12860 9453,12867 9426,12867 9398,12867 9370,12860 9346,12846 9322,12832 9301,12811 9287,12787 9273,12763 9266,12735 9266,12708 9266,12680 9273,12652 9287,12628 9301,12604 9322,12583 9346,12569 9370,12555 9398,12548 9426,12548 9453,12548 9481,12555 9505,12569 9529,12583 9550,12604 9564,12628 9578,12652 9585,12680 9585,12708 L 9585,12708 Z"/>
   </g>
  </g>
  <g class="com.sun.star.drawing.CustomShape">
   <g id="id42">
    <rect class="BoundingBox" stroke="none" fill="none" x="8505" y="11935" width="320" height="320"/>
    <path fill="rgb(68,119,170)" stroke="none" d="M 8824,12095 C 8824,12122 8817,12150 8803,12174 8789,12198 8768,12219 8744,12233 8720,12247 8692,12254 8665,12254 8637,12254 8609,12247 8585,12233 8561,12219 8540,12198 8526,12174 8512,12150 8505,12122 8505,12095 8505,12067 8512,12039 8526,12015 8540,11991 8561,11970 8585,11956 8609,11942 8637,11935 8665,11935 8692,11935 8720,11942 8744,11956 8768,11970 8789,11991 8803,12015 8817,12039 8824,12067 8824,12095 L 8824,12095 Z"/>
   </g>
  </g>
  <g class="com.sun.star.drawing.CustomShape">
   <g id="id43">
    <rect class="BoundingBox" stroke="none" fill="none" x="9141" y="11912" width="321" height="321"/>
    <path fill="rgb(68,119,170)" stroke="none" d="M 9460,12072 C 9460,12099 9453,12127 9439,12151 9425,12175 9404,12196 9380,12210 9356,12224 9328,12231 9301,12231 9273,12231 9245,12224 9221,12210 9197,12196 9176,12175 9162,12151 9148,12127 9141,12099 9141,12072 9141,12044 9148,12016 9162,11992 9176,11968 9197,11947 9221,11933 9245,11919 9273,11912 9301,11912 9328,11912 9356,11919 9380,11933 9404,11947 9425,11968 9439,11992 9453,12016 9460,12044 9460,12072 L 9460,12072 Z"/>
   </g>
  </g>
  <g class="com.sun.star.drawing.CustomShape">
   <g id="id44">
    <rect class="BoundingBox" stroke="none" fill="none" x="9713" y="11997" width="320" height="321"/>
    <path fill="rgb(68,119,170)" stroke="none" d="M 10032,12157 C 10032,12184 10025,12212 10011,12236 9997,12260 9976,12281 9952,12295 9928,12309 9900,12316 9873,12316 9845,12316 9817,12309 9793,12295 9769,12281 9748,12260 9734,12236 9720,12212 9713,12184 9713,12157 9713,12129 9720,12101 9734,12077 9748,12053 9769,12032 9793,12018 9817,12004 9845,11997 9873,11997 9900,11997 9928,12004 9952,12018 9976,12032 9997,12053 10011,12077 10025,12101 10032,12129 10032,12157 L 10032,12157 Z"/>
   </g>
  </g>
  <g class="com.sun.star.drawing.CustomShape">
   <g id="id45">
    <rect class="BoundingBox" stroke="none" fill="none" x="8985" y="10675" width="321" height="320"/>
    <path fill="rgb(238,102,119)" stroke="none" d="M 9304,10835 C 9304,10862 9297,10890 9283,10914 9269,10938 9248,10959 9224,10973 9200,10987 9172,10994 9145,10994 9117,10994 9089,10987 9065,10973 9041,10959 9020,10938 9006,10914 8992,10890 8985,10862 8985,10835 8985,10807 8992,10779 9006,10755 9020,10731 9041,10710 9065,10696 9089,10682 9117,10675 9145,10675 9172,10675 9200,10682 9224,10696 9248,10710 9269,10731 9283,10755 9297,10779 9304,10807 9304,10835 L 9304,10835 Z"/>
   </g>
  </g>
  <g class="com.sun.star.drawing.CustomShape">
   <g id="id46">
    <rect class="BoundingBox" stroke="none" fill="none" x="8034" y="11184" width="321" height="321"/>
    <path fill="rgb(238,102,119)" stroke="none" d="M 8353,11344 C 8353,11371 8346,11399 8332,11423 8318,11447 8297,11468 8273,11482 8249,11496 8221,11503 8194,11503 8166,11503 8138,11496 8114,11482 8090,11468 8069,11447 8055,11423 8041,11399 8034,11371 8034,11344 8034,11316 8041,11288 8055,11264 8069,11240 8090,11219 8114,11205 8138,11191 8166,11184 8194,11184 8221,11184 8249,11191 8273,11205 8297,11219 8318,11240 8332,11264 8346,11288 8353,11316 8353,11344 L 8353,11344 Z"/>
   </g>
  </g>
  <g class="com.sun.star.drawing.CustomShape">
   <g id="id47">
    <rect class="BoundingBox" stroke="none" fill="none" x="7209" y="12519" width="321" height="321"/>
    <path fill="rgb(68,119,170)" stroke="none" d="M 7528,12679 C 7528,12706 7521,12734 7507,12758 7493,12782 7472,12803 7448,12817 7424,12831 7396,12838 7369,12838 7341,12838 7313,12831 7289,12817 7265,12803 7244,12782 7230,12758 7216,12734 7209,12706 7209,12679 7209,12651 7216,12623 7230,12599 7244,12575 7265,12554 7289,12540 7313,12526 7341,12519 7369,12519 7396,12519 7424,12526 7448,12540 7472,12554 7493,12575 7507,12599 7521,12623 7528,12651 7528,12679 L 7528,12679 Z"/>
   </g>
  </g>
  <g class="com.sun.star.drawing.CustomShape">
   <g id="id48">
    <rect class="BoundingBox" stroke="none" fill="none" x="10385" y="11588" width="320" height="320"/>
    <path fill="rgb(68,119,170)" stroke="none" d="M 10704,11748 C 10704,11775 10697,11803 10683,11827 10669,11851 10648,11872 10624,11886 10600,11900 10572,11907 10545,11907 10517,11907 10489,11900 10465,11886 10441,11872 10420,11851 10406,11827 10392,11803 10385,11775 10385,11748 10385,11720 10392,11692 10406,11668 10420,11644 10441,11623 10465,11609 10489,11595 10517,11588 10545,11588 10572,11588 10600,11595 10624,11609 10648,11623 10669,11644 10683,11668 10697,11692 10704,11720 10704,11748 L 10704,11748 Z"/>
   </g>
  </g>
  <g class="com.sun.star.drawing.CustomShape">
   <g id="id49">
    <rect class="BoundingBox" stroke="none" fill="none" x="8100" y="15632" width="320" height="321"/>
    <path fill="rgb(68,119,170)" stroke="none" d="M 8419,15792 C 8419,15819 8412,15847 8398,15871 8384,15895 8363,15916 8339,15930 8315,15944 8287,15951 8260,15951 8232,15951 8204,15944 8180,15930 8156,15916 8135,15895 8121,15871 8107,15847 8100,15819 8100,15792 8100,15764 8107,15736 8121,15712 8135,15688 8156,15667 8180,15653 8204,15639 8232,15632 8260,15632 8287,15632 8315,15639 8339,15653 8363,15667 8384,15688 8398,15712 8412,15736 8419,15764 8419,15792 L 8419,15792 Z"/>
   </g>
  </g>
  <g class="com.sun.star.drawing.CustomShape">
   <g id="id50">
    <rect class="BoundingBox" stroke="none" fill="none" x="7550" y="15527" width="321" height="320"/>
    <path fill="rgb(238,102,119)" stroke="none" d="M 7869,15687 C 7869,15714 7862,15742 7848,15766 7834,15790 7813,15811 7789,15825 7765,15839 7737,15846 7710,15846 7682,15846 7654,15839 7630,15825 7606,15811 7585,15790 7571,15766 7557,15742 7550,15714 7550,15687 7550,15659 7557,15631 7571,15607 7585,15583 7606,15562 7630,15548 7654,15534 7682,15527 7710,15527 7737,15527 7765,15534 7789,15548 7813,15562 7834,15583 7848,15607 7862,15631 7869,15659 7869,15687 L 7869,15687 Z"/>
   </g>
  </g>
  <g class="com.sun.star.drawing.CustomShape">
   <g id="id51">
    <rect class="BoundingBox" stroke="none" fill="none" x="7700" y="16333" width="320" height="320"/>
    <path fill="rgb(68,119,170)" stroke="none" d="M 8019,16493 C 8019,16520 8012,16548 7998,16572 7984,16596 7963,16617 7939,16631 7915,16645 7887,16652 7860,16652 7832,16652 7804,16645 7780,16631 7756,16617 7735,16596 7721,16572 7707,16548 7700,16520 7700,16493 7700,16465 7707,16437 7721,16413 7735,16389 7756,16368 7780,16354 7804,16340 7832,16333 7860,16333 7887,16333 7915,16340 7939,16354 7963,16368 7984,16389 7998,16413 8012,16437 8019,16465 8019,16493 L 8019,16493 Z"/>
   </g>
  </g>
 </g>
</svg>