<?xml version="1.0" encoding="UTF-8"?>
<!DOCTYPE svg PUBLIC "-//W3C//DTD SVG 1.1//EN" "http://www.w3.org/Graphics/SVG/1.1/DTD/svg11.dtd">
<svg version="1.2" viewBox="6963 310 8755 8451" preserveAspectRatio="xMidYMid" fill-rule="evenodd" stroke-width="28.222" stroke-linejoin="round" xmlns="http://www.w3.org/2000/svg" xmlns:ooo="http://xml.openoffice.org/svg/export" xmlns:xlink="http://www.w3.org/1999/xlink" xmlns:presentation="http://sun.com/xmlns/staroffice/presentation" xmlns:smil="http://www.w3.org/2001/SMIL20/" xmlns:anim="urn:oasis:names:tc:opendocument:xmlns:animation:1.0" xmlns:svg="urn:oasis:names:tc:opendocument:xmlns:svg-compatible:1.0" xml:space="preserve">
 <defs class="EmbeddedBulletChars">
  <g id="bullet-char-template-57356" transform="scale(0.00048828125,-0.00048828125)">
   <path d="M 580,1141 L 1163,571 580,0 -4,571 580,1141 Z"/>
  </g>
  <g id="bullet-char-template-57354" transform="scale(0.00048828125,-0.00048828125)">
   <path d="M 8,1128 L 1137,1128 1137,0 8,0 8,1128 Z"/>
  </g>
  <g id="bullet-char-template-10146" transform="scale(0.00048828125,-0.00048828125)">
   <path d="M 174,0 L 602,739 174,1481 1456,739 174,0 Z M 1358,739 L 309,1346 659,739 1358,739 Z"/>
  </g>
  <g id="bullet-char-template-10132" transform="scale(0.00048828125,-0.00048828125)">
   <path d="M 2015,739 L 1276,0 717,0 1260,543 174,543 174,936 1260,936 717,1481 1274,1481 2015,739 Z"/>
  </g>
  <g id="bullet-char-template-10007" transform="scale(0.00048828125,-0.00048828125)">
   <path d="M 0,-2 C -7,14 -16,27 -25,37 L 356,567 C 262,823 215,952 215,954 215,979 228,992 255,992 264,992 276,990 289,987 310,991 331,999 354,1012 L 381,999 492,748 772,1049 836,1024 860,1049 C 881,1039 901,1025 922,1006 886,937 835,863 770,784 769,783 710,716 594,584 L 774,223 C 774,196 753,168 711,139 L 727,119 C 717,90 699,76 672,76 641,76 570,178 457,381 L 164,-76 C 142,-110 111,-127 72,-127 30,-127 9,-110 8,-76 1,-67 -2,-52 -2,-32 -2,-23 -1,-13 0,-2 Z"/>
  </g>
  <g id="bullet-char-template-10004" transform="scale(0.00048828125,-0.00048828125)">
   <path d="M 285,-33 C 182,-33 111,30 74,156 52,228 41,333 41,471 41,549 55,616 82,672 116,743 169,778 240,778 293,778 328,747 346,684 L 369,508 C 377,444 397,411 428,410 L 1163,1116 C 1174,1127 1196,1133 1229,1133 1271,1133 1292,1118 1292,1087 L 1292,965 C 1292,929 1282,901 1262,881 L 442,47 C 390,-6 338,-33 285,-33 Z"/>
  </g>
  <g id="bullet-char-template-9679" transform="scale(0.00048828125,-0.00048828125)">
   <path d="M 813,0 C 632,0 489,54 383,161 276,268 223,411 223,592 223,773 276,916 383,1023 489,1130 632,1184 813,1184 992,1184 1136,1130 1245,1023 1353,916 1407,772 1407,592 1407,412 1353,268 1245,161 1136,54 992,0 813,0 Z"/>
  </g>
  <g id="bullet-char-template-8226" transform="scale(0.00048828125,-0.00048828125)">
   <path d="M 346,457 C 273,457 209,483 155,535 101,586 74,649 74,723 74,796 101,859 155,911 209,963 273,989 346,989 419,989 480,963 531,910 582,859 608,796 608,723 608,648 583,586 532,535 482,483 420,457 346,457 Z"/>
  </g>
  <g id="bullet-char-template-8211" transform="scale(0.00048828125,-0.00048828125)">
   <path d="M -4,459 L 1135,459 1135,606 -4,606 -4,459 Z"/>
  </g>
  <g id="bullet-char-template-61548" transform="scale(0.00048828125,-0.00048828125)">
   <path d="M 173,740 C 173,903 231,1043 346,1159 462,1274 601,1332 765,1332 928,1332 1067,1274 1183,1159 1299,1043 1357,903 1357,740 1357,577 1299,437 1183,322 1067,206 928,148 765,148 601,148 462,206 346,322 231,437 173,577 173,740 Z"/>
  </g>
 </defs>
 <g ooo:name="page4" class="Page">
  <g class="com.sun.star.drawing.ClosedBezierShape">
   <g id="id3">
    <rect class="BoundingBox" stroke="none" fill="none" x="6963" y="310" width="8755" height="8451"/>
    <path fill="rgb(85,85,85)" fill-opacity="0.251" stroke="none" d="M 12313,5609 C 13014,4952 15976,4657 15637,3556 15298,2455 12822,-808 11213,801 9604,2410 10810,2329 8567,2604 6324,2879 6917,4720 7848,6604 8780,8488 9373,8679 11658,8700 13626,8847 11615,6266 12313,5609 Z"/>
    <g style="opacity: 0.749019607843137">
     <path fill="none" stroke="rgb(85,85,85)" stroke-width="106" stroke-linejoin="round" d="M 12313,5609 C 13014,4952 15976,4657 15637,3556 15298,2455 12822,-808 11213,801 9604,2410 10810,2329 8567,2604 6324,2879 6917,4720 7848,6604 8780,8488 9373,8679 11658,8700 13626,8847 11615,6266 12313,5609 Z"/>
    </g>
   </g>
  </g>
  <g class="com.sun.star.drawing.CustomShape">
   <g id="id4">
    <rect class="BoundingBox" stroke="none" fill="none" x="8715" y="3558" width="321" height="320"/>
    <path fill="rgb(68,119,170)" stroke="none" d="M 9034,3718 C 9034,3745 9027,3773 9013,3797 8999,3821 8978,3842 8954,3856 8930,3870 8902,3877 8875,3877 8847,3877 8819,3870 8795,3856 8771,3842 8750,3821 8736,3797 8722,3773 8715,3745 8715,3718 8715,3690 8722,3662 8736,3638 8750,3614 8771,3593 8795,3579 8819,3565 8847,3558 8875,3558 8902,3558 8930,3565 8954,3579 8978,3593 8999,3614 9013,3638 9027,3662 9034,3690 9034,3718 L 9034,3718 Z"/>
   </g>
  </g>
  <g class="com.sun.star.drawing.CustomShape">
   <g id="id5">
    <rect class="BoundingBox" stroke="none" fill="none" x="10716" y="3559" width="320" height="320"/>
    <path fill="rgb(68,119,170)" stroke="none" d="M 11035,3719 C 11035,3746 11028,3774 11014,3798 11000,3822 10979,3843 10955,3857 10931,3871 10903,3878 10876,3878 10848,3878 10820,3871 10796,3857 10772,3843 10751,3822 10737,3798 10723,3774 10716,3746 10716,3719 10716,3691 10723,3663 10737,3639 10751,3615 10772,3594 10796,3580 10820,3566 10848,3559 10876,3559 10903,3559 10931,3566 10955,3580 10979,3594 11000,3615 11014,3639 11028,3663 11035,3691 11035,3719 L 11035,3719 Z"/>
   </g>
  </g>
  <g class="com.sun.star.drawing.CustomShape">
   <g id="id6">
    <rect class="BoundingBox" stroke="none" fill="none" x="9717" y="5560" width="320" height="321"/>
    <path fill="rgb(68,119,170)" stroke="none" d="M 10036,5720 C 10036,5747 10029,5775 10015,5799 10001,5823 9980,5844 9956,5858 9932,5872 9904,5879 9877,5879 9849,5879 9821,5872 9797,5858 9773,5844 9752,5823 9738,5799 9724,5775 9717,5747 9717,5720 9717,5692 9724,5664 9738,5640 9752,5616 9773,5595 9797,5581 9821,5567 9849,5560 9877,5560 9904,5560 9932,5567 9956,5581 9980,5595 10001,5616 10015,5640 10029,5664 10036,5692 10036,5720 L 10036,5720 Z"/>
   </g>
  </g>
  <g class="com.sun.star.drawing.CustomShape">
   <g id="id7">
    <rect class="BoundingBox" stroke="none" fill="none" x="11983" y="2979" width="320" height="320"/>
    <path fill="rgb(68,119,170)" stroke="none" d="M 12302,3139 C 12302,3166 12295,3194 12281,3218 12267,3242 12246,3263 12222,3277 12198,3291 12170,3298 12143,3298 12115,3298 12087,3291 12063,3277 12039,3263 12018,3242 12004,3218 11990,3194 11983,3166 11983,3139 11983,3111 11990,3083 12004,3059 12018,3035 12039,3014 12063,3000 12087,2986 12115,2979 12143,2979 12170,2979 12198,2986 12222,3000 12246,3014 12267,3035 12281,3059 12295,3083 12302,3111 12302,3139 L 12302,3139 Z"/>
   </g>
  </g>
  <g class="com.sun.star.drawing.CustomShape">
   <g id="id8">
    <rect class="BoundingBox" stroke="none" fill="none" x="12810" y="3319" width="321" height="321"/>
    <path fill="rgb(68,119,170)" stroke="none" d="M 13129,3479 C 13129,3506 13122,3534 13108,3558 13094,3582 13073,3603 13049,3617 13025,3631 12997,3638 12970,3638 12942,3638 12914,3631 12890,3617 12866,3603 12845,3582 12831,3558 12817,3534 12810,3506 12810,3479 12810,3451 12817,3423 12831,3399 12845,3375 12866,3354 12890,3340 12914,3326 12942,3319 12970,3319 12997,3319 13025,3326 13049,3340 13073,3354 13094,3375 13108,3399 13122,3423 13129,3451 13129,3479 L 13129,3479 Z"/>
   </g>
  </g>
  <g class="com.sun.star.drawing.CustomShape">
   <g id="id9">
    <rect class="BoundingBox" stroke="none" fill="none" x="12091" y="1373" width="320" height="320"/>
    <path fill="rgb(68,119,170)" stroke="none" d="M 12410,1533 C 12410,1560 12403,1588 12389,1612 12375,1636 12354,1657 12330,1671 12306,1685 12278,1692 12251,1692 12223,1692 12195,1685 12171,1671 12147,1657 12126,1636 12112,1612 12098,1588 12091,1560 12091,1533 12091,1505 12098,1477 12112,1453 12126,1429 12147,1408 12171,1394 12195,1380 12223,1373 12251,1373 12278,1373 12306,1380 12330,1394 12354,1408 12375,1429 12389,1453 12403,1477 12410,1505 12410,1532 L 12410,1533 Z"/>
   </g>
  </g>
  <g class="com.sun.star.drawing.CustomShape">
   <g id="id10">
    <rect class="BoundingBox" stroke="none" fill="none" x="13087" y="2390" width="321" height="321"/>
    <path fill="rgb(68,119,170)" stroke="none" d="M 13406,2550 C 13406,2577 13399,2605 13385,2629 13371,2653 13350,2674 13326,2688 13302,2702 13274,2709 13247,2709 13219,2709 13191,2702 13167,2688 13143,2674 13122,2653 13108,2629 13094,2605 13087,2577 13087,2550 13087,2522 13094,2494 13108,2470 13122,2446 13143,2425 13167,2411 13191,2397 13219,2390 13247,2390 13274,2390 13302,2397 13326,2411 13350,2425 13371,2446 13385,2470 13399,2494 13406,2522 13406,2550 L 13406,2550 Z"/>
   </g>
  </g>
  <g class="com.sun.star.drawing.CustomShape">
   <g id="id11">
    <rect class="BoundingBox" stroke="none" fill="none" x="12432" y="4020" width="320" height="320"/>
    <path fill="rgb(68,119,170)" stroke="none" d="M 12751,4180 C 12751,4207 12744,4235 12730,4259 12716,4283 12695,4304 12671,4318 12647,4332 12619,4339 12592,4339 12564,4339 12536,4332 12512,4318 12488,4304 12467,4283 12453,4259 12439,4235 12432,4207 12432,4180 12432,4152 12439,4124 12453,4100 12467,4076 12488,4055 12512,4041 12536,4027 12564,4020 12592,4020 12619,4020 12647,4027 12671,4041 12695,4055 12716,4076 12730,4100 12744,4124 12751,4152 12751,4180 L 12751,4180 Z"/>
   </g>
  </g>
  <g class="com.sun.star.drawing.CustomShape">
   <g id="id12">
    <rect class="BoundingBox" stroke="none" fill="none" x="11205" y="5059" width="320" height="321"/>
    <path fill="rgb(68,119,170)" stroke="none" d="M 11524,5219 C 11524,5246 11517,5274 11503,5298 11489,5322 11468,5343 11444,5357 11420,5371 11392,5378 11365,5378 11337,5378 11309,5371 11285,5357 11261,5343 11240,5322 11226,5298 11212,5274 11205,5246 11205,5219 11205,5191 11212,5163 11226,5139 11240,5115 11261,5094 11285,5080 11309,5066 11337,5059 11365,5059 11392,5059 11420,5066 11444,5080 11468,5094 11489,5115 11503,5139 11517,5163 11524,5191 11524,5219 L 11524,5219 Z"/>
   </g>
  </g>
  <g class="com.sun.star.drawing.CustomShape">
   <g id="id13">
    <rect class="BoundingBox" stroke="none" fill="none" x="11185" y="6224" width="320" height="320"/>
    <path fill="rgb(68,119,170)" stroke="none" d="M 11504,6384 C 11504,6411 11497,6439 11483,6463 11469,6487 11448,6508 11424,6522 11400,6536 11372,6543 11345,6543 11317,6543 11289,6536 11265,6522 11241,6508 11220,6487 11206,6463 11192,6439 11185,6411 11185,6384 11185,6356 11192,6328 11206,6304 11220,6280 11241,6259 11265,6245 11289,6231 11317,6224 11345,6224 11372,6224 11400,6231 11424,6245 11448,6259 11469,6280 11483,6304 11497,6328 11504,6356 11504,6384 L 11504,6384 Z"/>
   </g>
  </g>
  <g class="com.sun.star.drawing.CustomShape">
   <g id="id14">
    <rect class="BoundingBox" stroke="none" fill="none" x="10106" y="6860" width="321" height="320"/>
    <path fill="rgb(68,119,170)" stroke="none" d="M 10425,7020 C 10425,7047 10418,7075 10404,7099 10390,7123 10369,7144 10345,7158 10321,7172 10293,7179 10266,7179 10238,7179 10210,7172 10186,7158 10162,7144 10141,7123 10127,7099 10113,7075 10106,7047 10106,7020 10106,6992 10113,6964 10127,6940 10141,6916 10162,6895 10186,6881 10210,6867 10238,6860 10266,6860 10293,6860 10321,6867 10345,6881 10369,6895 10390,6916 10404,6940 10418,6964 10425,6992 10425,7020 L 10425,7020 Z"/>
   </g>
  </g>
  <g class="com.sun.star.drawing.CustomShape">
   <g id="id15">
    <rect class="BoundingBox" stroke="none" fill="none" x="8541" y="6924" width="321" height="320"/>
    <path fill="rgb(68,119,170)" stroke="none" d="M 8860,7084 C 8860,7111 8853,7139 8839,7163 8825,7187 8804,7208 8780,7222 8756,7236 8728,7243 8701,7243 8673,7243 8645,7236 8621,7222 8597,7208 8576,7187 8562,7163 8548,7139 8541,7111 8541,7084 8541,7056 8548,7028 8562,7004 8576,6980 8597,6959 8621,6945 8645,6931 8673,6924 8701,6924 8728,6924 8756,6931 8780,6945 8804,6959 8825,6980 8839,7004 8853,7028 8860,7056 8860,7084 L 8860,7084 Z"/>
   </g>
  </g>
  <g class="com.sun.star.drawing.CustomShape">
   <g id="id16">
    <rect class="BoundingBox" stroke="none" fill="none" x="7886" y="5507" width="321" height="321"/>
    <path fill="rgb(68,119,170)" stroke="none" d="M 8205,5667 C 8205,5694 8198,5722 8184,5746 8170,5770 8149,5791 8125,5805 8101,5819 8073,5826 8046,5826 8018,5826 7990,5819 7966,5805 7942,5791 7921,5770 7907,5746 7893,5722 7886,5694 7886,5667 7886,5639 7893,5611 7907,5587 7921,5563 7942,5542 7966,5528 7990,5514 8018,5507 8046,5507 8073,5507 8101,5514 8125,5528 8149,5542 8170,5563 8184,5587 8198,5611 8205,5639 8205,5667 L 8205,5667 Z"/>
   </g>
  </g>
  <g class="com.sun.star.drawing.CustomShape">
   <g id="id17">
    <rect class="BoundingBox" stroke="none" fill="none" x="8755" y="6016" width="321" height="320"/>
    <path fill="rgb(68,119,170)" stroke="none" d="M 9074,6176 C 9074,6203 9067,6231 9053,6255 9039,6279 9018,6300 8994,6314 8970,6328 8942,6335 8915,6335 8887,6335 8859,6328 8835,6314 8811,6300 8790,6279 8776,6255 8762,6231 8755,6203 8755,6176 8755,6148 8762,6120 8776,6096 8790,6072 8811,6051 8835,6037 8859,6023 8887,6016 8915,6016 8942,6016 8970,6023 8994,6037 9018,6051 9039,6072 9053,6096 9067,6120 9074,6148 9074,6176 L 9074,6176 Z"/>
   </g>
  </g>
  <g class="com.sun.star.drawing.CustomShape">
   <g id="id18">
    <rect class="BoundingBox" stroke="none" fill="none" x="9595" y="4682" width="320" height="320"/>
    <path fill="rgb(68,119,170)" stroke="none" d="M 9914,4842 C 9914,4869 9907,4897 9893,4921 9879,4945 9858,4966 9834,4980 9810,4994 9782,5001 9755,5001 9727,5001 9699,4994 9675,4980 9651,4966 9630,4945 9616,4921 9602,4897 9595,4869 9595,4842 9595,4814 9602,4786 9616,4762 9630,4738 9651,4717 9675,4703 9699,4689 9727,4682 9755,4682 9782,4682 9810,4689 9834,4703 9858,4717 9879,4738 9893,4762 9907,4786 9914,4814 9914,4842 L 9914,4842 Z"/>
   </g>
  </g>
  <g class="com.sun.star.drawing.CustomShape">
   <g id="id19">
    <rect class="BoundingBox" stroke="none" fill="none" x="9596" y="3074" width="321" height="320"/>
    <path fill="rgb(68,119,170)" stroke="none" d="M 9915,3234 C 9915,3261 9908,3289 9894,3313 9880,3337 9859,3358 9835,3372 9811,3386 9783,3393 9756,3393 9728,3393 9700,3386 9676,3372 9652,3358 9631,3337 9617,3313 9603,3289 9596,3261 9596,3234 9596,3206 9603,3178 9617,3154 9631,3130 9652,3109 9676,3095 9700,3081 9728,3074 9756,3074 9783,3074 9811,3081 9835,3095 9859,3109 9880,3130 9894,3154 9908,3178 9915,3206 9915,3234 L 9915,3234 Z"/>
   </g>
  </g>
  <g class="com.sun.star.drawing.CustomShape">
   <g id="id20">
    <rect class="BoundingBox" stroke="none" fill="none" x="11121" y="2228" width="320" height="320"/>
    <path fill="rgb(68,119,170)" stroke="none" d="M 11440,2388 C 11440,2415 11433,2443 11419,2467 11405,2491 11384,2512 11360,2526 11336,2540 11308,2547 11281,2547 11253,2547 11225,2540 11201,2526 11177,2512 11156,2491 11142,2467 11128,2443 11121,2415 11121,2388 11121,2360 11128,2332 11142,2308 11156,2284 11177,2263 11201,2249 11225,2235 11253,2228 11281,2228 11308,2228 11336,2235 11360,2249 11384,2263 11405,2284 11419,2308 11433,2332 11440,2360 11440,2388 L 11440,2388 Z"/>
   </g>
  </g>
  <g class="com.sun.star.drawing.CustomShape">
   <g id="id21">
    <rect class="BoundingBox" stroke="none" fill="none" x="11948" y="2229" width="321" height="320"/>
    <path fill="rgb(68,119,170)" stroke="none" d="M 12267,2389 C 12267,2416 12260,2444 12246,2468 12232,2492 12211,2513 12187,2527 12163,2541 12135,2548 12108,2548 12080,2548 12052,2541 12028,2527 12004,2513 11983,2492 11969,2468 11955,2444 11948,2416 11948,2389 11948,2361 11955,2333 11969,2309 11983,2285 12004,2264 12028,2250 12052,2236 12080,2229 12108,2229 12135,2229 12163,2236 12187,2250 12211,2264 12232,2285 12246,2309 12260,2333 12267,2361 12267,2389 L 12267,2389 Z"/>
   </g>
  </g>
  <g class="com.sun.star.drawing.CustomShape">
   <g id="id22">
    <rect class="BoundingBox" stroke="none" fill="none" x="11483" y="4093" width="320" height="321"/>
    <path fill="rgb(68,119,170)" stroke="none" d="M 11802,4253 C 11802,4280 11795,4308 11781,4332 11767,4356 11746,4377 11722,4391 11698,4405 11670,4412 11643,4412 11615,4412 11587,4405 11563,4391 11539,4377 11518,4356 11504,4332 11490,4308 11483,4280 11483,4253 11483,4225 11490,4197 11504,4173 11518,4149 11539,4128 11563,4114 11587,4100 11615,4093 11643,4093 11670,4093 11698,4100 11722,4114 11746,4128 11767,4149 11781,4173 11795,4197 11802,4225 11802,4253 L 11802,4253 Z"/>
   </g>
  </g>
  <g class="com.sun.star.drawing.CustomShape">
   <g id="id23">
    <rect class="BoundingBox" stroke="none" fill="none" x="11611" y="7375" width="320" height="321"/>
    <path fill="rgb(68,119,170)" stroke="none" d="M 11930,7535 C 11930,7562 11923,7590 11909,7614 11895,7638 11874,7659 11850,7673 11826,7687 11798,7694 11771,7694 11743,7694 11715,7687 11691,7673 11667,7659 11646,7638 11632,7614 11618,7590 11611,7562 11611,7535 11611,7507 11618,7479 11632,7455 11646,7431 11667,7410 11691,7396 11715,7382 11743,7375 11771,7375 11798,7375 11826,7382 11850,7396 11874,7410 11895,7431 11909,7455 11923,7479 11930,7507 11930,7535 L 11930,7535 Z"/>
   </g>
  </g>
  <g class="com.sun.star.drawing.CustomShape">
   <g id="id24">
    <rect class="BoundingBox" stroke="none" fill="none" x="10490" y="7545" width="321" height="320"/>
    <path fill="rgb(68,119,170)" stroke="none" d="M 10809,7705 C 10809,7732 10802,7760 10788,7784 10774,7808 10753,7829 10729,7843 10705,7857 10677,7864 10650,7864 10622,7864 10594,7857 10570,7843 10546,7829 10525,7808 10511,7784 10497,7760 10490,7732 10490,7705 10490,7677 10497,7649 10511,7625 10525,7601 10546,7580 10570,7566 10594,7552 10622,7545 10650,7545 10677,7545 10705,7552 10729,7566 10753,7580 10774,7601 10788,7625 10802,7649 10809,7677 10809,7705 L 10809,7705 Z"/>
   </g>
  </g>
  <g class="com.sun.star.drawing.CustomShape">
   <g id="id25">
    <rect class="BoundingBox" stroke="none" fill="none" x="10301" y="5916" width="320" height="320"/>
    <path fill="rgb(68,119,170)" stroke="none" d="M 10620,6076 C 10620,6103 10613,6131 10599,6155 10585,6179 10564,6200 10540,6214 10516,6228 10488,6235 10461,6235 10433,6235 10405,6228 10381,6214 10357,6200 10336,6179 10322,6155 10308,6131 10301,6103 10301,6076 10301,6048 10308,6020 10322,5996 10336,5972 10357,5951 10381,5937 10405,5923 10433,5916 10461,5916 10488,5916 10516,5923 10540,5937 10564,5951 10585,5972 10599,5996 10613,6020 10620,6048 10620,6076 L 10620,6076 Z"/>
   </g>
  </g>
  <g class="com.sun.star.drawing.CustomShape">
   <g id="id26">
    <rect class="BoundingBox" stroke="none" fill="none" x="7741" y="4245" width="320" height="320"/>
    <path fill="rgb(68,119,170)" stroke="none" d="M 8060,4405 C 8060,4432 8053,4460 8039,4484 8025,4508 8004,4529 7980,4543 7956,4557 7928,4564 7901,4564 7873,4564 7845,4557 7821,4543 7797,4529 7776,4508 7762,4484 7748,4460 7741,4432 7741,4405 7741,4377 7748,4349 7762,4325 7776,4301 7797,4280 7821,4266 7845,4252 7873,4245 7901,4245 7928,4245 7956,4252 7980,4266 8004,4280 8025,4301 8039,4325 8053,4349 8060,4377 8060,4405 L 8060,4405 Z"/>
   </g>
  </g>
  <g class="com.sun.star.drawing.CustomShape">
   <g id="id27">
    <rect class="BoundingBox" stroke="none" fill="none" x="7742" y="3590" width="320" height="320"/>
    <path fill="rgb(68,119,170)" stroke="none" d="M 8061,3750 C 8061,3777 8054,3805 8040,3829 8026,3853 8005,3874 7981,3888 7957,3902 7929,3909 7902,3909 7874,3909 7846,3902 7822,3888 7798,3874 7777,3853 7763,3829 7749,3805 7742,3777 7742,3750 7742,3722 7749,3694 7763,3670 7777,3646 7798,3625 7822,3611 7846,3597 7874,3590 7902,3590 7929,3590 7957,3597 7981,3611 8005,3625 8026,3646 8040,3670 8054,3694 8061,3722 8061,3750 L 8061,3750 Z"/>
   </g>
  </g>
  <g class="com.sun.star.drawing.CustomShape">
   <g id="id28">
    <rect class="BoundingBox" stroke="none" fill="none" x="8208" y="3147" width="320" height="320"/>
    <path fill="rgb(68,119,170)" stroke="none" d="M 8527,3307 C 8527,3334 8520,3362 8506,3386 8492,3410 8471,3431 8447,3445 8423,3459 8395,3466 8368,3466 8340,3466 8312,3459 8288,3445 8264,3431 8243,3410 8229,3386 8215,3362 8208,3334 8208,3307 8208,3279 8215,3251 8229,3227 8243,3203 8264,3182 8288,3168 8312,3154 8340,3147 8368,3147 8395,3147 8423,3154 8447,3168 8471,3182 8492,3203 8506,3227 8520,3251 8527,3279 8527,3307 L 8527,3307 Z"/>
   </g>
  </g>
  <g class="com.sun.star.drawing.CustomShape">
   <g id="id29">
    <rect class="BoundingBox" stroke="none" fill="none" x="8273" y="3931" width="321" height="320"/>
    <path fill="rgb(68,119,170)" stroke="none" d="M 8592,4091 C 8592,4118 8585,4146 8571,4170 8557,4194 8536,4215 8512,4229 8488,4243 8460,4250 8433,4250 8405,4250 8377,4243 8353,4229 8329,4215 8308,4194 8294,4170 8280,4146 8273,4118 8273,4091 8273,4063 8280,4035 8294,4011 8308,3987 8329,3966 8353,3952 8377,3938 8405,3931 8433,3931 8460,3931 8488,3938 8512,3952 8536,3966 8557,3987 8571,4011 8585,4035 8592,4063 8592,4091 L 8592,4091 Z"/>
   </g>
  </g>
  <g class="com.sun.star.drawing.CustomShape">
   <g id="id30">
    <rect class="BoundingBox" stroke="none" fill="none" x="8316" y="4524" width="320" height="321"/>
    <path fill="rgb(68,119,170)" stroke="none" d="M 8635,4684 C 8635,4711 8628,4739 8614,4763 8600,4787 8579,4808 8555,4822 8531,4836 8503,4843 8476,4843 8448,4843 8420,4836 8396,4822 8372,4808 8351,4787 8337,4763 8323,4739 8316,4711 8316,4684 8316,4656 8323,4628 8337,4604 8351,4580 8372,4559 8396,4545 8420,4531 8448,4524 8476,4524 8503,4524 8531,4531 8555,4545 8579,4559 8600,4580 8614,4604 8628,4628 8635,4656 8635,4684 L 8635,4684 Z"/>
   </g>
  </g>
  <g class="com.sun.star.drawing.CustomShape">
   <g id="id31">
    <rect class="BoundingBox" stroke="none" fill="none" x="8783" y="4144" width="320" height="321"/>
    <path fill="rgb(68,119,170)" stroke="none" d="M 9102,4304 C 9102,4331 9095,4359 9081,4383 9067,4407 9046,4428 9022,4442 8998,4456 8970,4463 8943,4463 8915,4463 8887,4456 8863,4442 8839,4428 8818,4407 8804,4383 8790,4359 8783,4331 8783,4304 8783,4276 8790,4248 8804,4224 8818,4200 8839,4179 8863,4165 8887,4151 8915,4144 8943,4144 8970,4144 8998,4151 9022,4165 9046,4179 9067,4200 9081,4224 9095,4248 9102,4276 9102,4304 L 9102,4304 Z"/>
   </g>
  </g>
  <g class="com.sun.star.drawing.CustomShape">
   <g id="id32">
    <rect class="BoundingBox" stroke="none" fill="none" x="8805" y="4907" width="321" height="321"/>
    <path fill="rgb(68,119,170)" stroke="none" d="M 9124,5067 C 9124,5094 9117,5122 9103,5146 9089,5170 9068,5191 9044,5205 9020,5219 8992,5226 8965,5226 8937,5226 8909,5219 8885,5205 8861,5191 8840,5170 8826,5146 8812,5122 8805,5094 8805,5067 8805,5039 8812,5011 8826,4987 8840,4963 8861,4942 8885,4928 8909,4914 8937,4907 8965,4907 8992,4907 9020,4914 9044,4928 9068,4942 9089,4963 9103,4987 9117,5011 9124,5039 9124,5067 L 9124,5067 Z"/>
   </g>
  </g>
  <g class="com.sun.star.drawing.CustomShape">
   <g id="id33">
    <rect class="BoundingBox" stroke="none" fill="none" x="7917" y="4775" width="320" height="320"/>
    <path fill="rgb(68,119,170)" stroke="none" d="M 8236,4935 C 8236,4962 8229,4990 8215,5014 8201,5038 8180,5059 8156,5073 8132,5087 8104,5094 8077,5094 8049,5094 8021,5087 7997,5073 7973,5059 7952,5038 7938,5014 7924,4990 7917,4962 7917,4935 7917,4907 7924,4879 7938,4855 7952,4831 7973,4810 7997,4796 8021,4782 8049,4775 8077,4775 8104,4775 8132,4782 8156,4796 8180,4810 8201,4831 8215,4855 8229,4879 8236,4907 8236,4935 L 8236,4935 Z"/>
   </g>
  </g>
  <g class="com.sun.star.drawing.CustomShape">
   <g id="id34">
    <rect class="BoundingBox" stroke="none" fill="none" x="7304" y="3802" width="320" height="320"/>
    <path fill="rgb(68,119,170)" stroke="none" d="M 7623,3962 C 7623,3989 7616,4017 7602,4041 7588,4065 7567,4086 7543,4100 7519,4114 7491,4121 7464,4121 7436,4121 7408,4114 7384,4100 7360,4086 7339,4065 7325,4041 7311,4017 7304,3989 7304,3962 7304,3934 7311,3906 7325,3882 7339,3858 7360,3837 7384,3823 7408,3809 7436,3802 7464,3802 7491,3802 7519,3809 7543,3823 7567,3837 7588,3858 7602,3882 7616,3906 7623,3934 7623,3962 L 7623,3962 Z"/>
   </g>
  </g>
  <g class="com.sun.star.drawing.CustomShape">
   <g id="id35">
    <rect class="BoundingBox" stroke="none" fill="none" x="7728" y="3147" width="321" height="320"/>
    <path fill="rgb(68,119,170)" stroke="none" d="M 8047,3307 C 8047,3334 8040,3362 8026,3386 8012,3410 7991,3431 7967,3445 7943,3459 7915,3466 7888,3466 7860,3466 7832,3459 7808,3445 7784,3431 7763,3410 7749,3386 7735,3362 7728,3334 7728,3307 7728,3279 7735,3251 7749,3227 7763,3203 7784,3182 7808,3168 7832,3154 7860,3147 7888,3147 7915,3147 7943,3154 7967,3168 7991,3182 8012,3203 8026,3227 8040,3251 8047,3279 8047,3307 L 8047,3307 Z"/>
   </g>
  </g>
  <g class="com.sun.star.drawing.CustomShape">
   <g id="id36">
    <rect class="BoundingBox" stroke="none" fill="none" x="8703" y="3042" width="320" height="321"/>
    <path fill="rgb(68,119,170)" stroke="none" d="M 9022,3202 C 9022,3229 9015,3257 9001,3281 8987,3305 8966,3326 8942,3340 8918,3354 8890,3361 8863,3361 8835,3361 8807,3354 8783,3340 8759,3326 8738,3305 8724,3281 8710,3257 8703,3229 8703,3202 8703,3174 8710,3146 8724,3122 8738,3098 8759,3077 8783,3063 8807,3049 8835,3042 8863,3042 8890,3042 8918,3049 8942,3063 8966,3077 8987,3098 9001,3122 9015,3146 9022,3174 9022,3202 L 9022,3202 Z"/>
   </g>
  </g>
  <g class="com.sun.star.drawing.CustomShape">
   <g id="id37">
    <rect class="BoundingBox" stroke="none" fill="none" x="9170" y="3657" width="320" height="321"/>
    <path fill="rgb(68,119,170)" stroke="none" d="M 9489,3817 C 9489,3844 9482,3872 9468,3896 9454,3920 9433,3941 9409,3955 9385,3969 9357,3976 9330,3976 9302,3976 9274,3969 9250,3955 9226,3941 9205,3920 9191,3896 9177,3872 9170,3844 9170,3817 9170,3789 9177,3761 9191,3737 9205,3713 9226,3692 9250,3678 9274,3664 9302,3657 9330,3657 9357,3657 9385,3664 9409,3678 9433,3692 9454,3713 9468,3737 9482,3761 9489,3789 9489,3817 L 9489,3817 Z"/>
   </g>
  </g>
  <g class="com.sun.star.drawing.CustomShape">
   <g id="id38">
    <rect class="BoundingBox" stroke="none" fill="none" x="11520" y="2726" width="320" height="320"/>
    <path fill="rgb(68,119,170)" stroke="none" d="M 11839,2886 C 11839,2913 11832,2941 11818,2965 11804,2989 11783,3010 11759,3024 11735,3038 11707,3045 11680,3045 11652,3045 11624,3038 11600,3024 11576,3010 11555,2989 11541,2965 11527,2941 11520,2913 11520,2886 11520,2858 11527,2830 11541,2806 11555,2782 11576,2761 11600,2747 11624,2733 11652,2726 11680,2726 11707,2726 11735,2733 11759,2747 11783,2761 11804,2782 11818,2806 11832,2830 11839,2858 11839,2886 L 11839,2886 Z"/>
   </g>
  </g>
  <g class="com.sun.star.drawing.CustomShape">
   <g id="id39">
    <rect class="BoundingBox" stroke="none" fill="none" x="11606" y="3235" width="321" height="320"/>
    <path fill="rgb(68,119,170)" stroke="none" d="M 11925,3395 C 11925,3422 11918,3450 11904,3474 11890,3498 11869,3519 11845,3533 11821,3547 11793,3554 11766,3554 11738,3554 11710,3547 11686,3533 11662,3519 11641,3498 11627,3474 11613,3450 11606,3422 11606,3395 11606,3367 11613,3339 11627,3315 11641,3291 11662,3270 11686,3256 11710,3242 11738,3235 11766,3235 11793,3235 11821,3242 11845,3256 11869,3270 11890,3291 11904,3315 11918,3339 11925,3367 11925,3395 L 11925,3395 Z"/>
   </g>
  </g>
  <g class="com.sun.star.drawing.CustomShape">
   <g id="id40">
    <rect class="BoundingBox" stroke="none" fill="none" x="10993" y="2813" width="320" height="320"/>
    <path fill="rgb(68,119,170)" stroke="none" d="M 11312,2973 C 11312,3000 11305,3028 11291,3052 11277,3076 11256,3097 11232,3111 11208,3125 11180,3132 11153,3132 11125,3132 11097,3125 11073,3111 11049,3097 11028,3076 11014,3052 11000,3028 10993,3000 10993,2973 10993,2945 11000,2917 11014,2893 11028,2869 11049,2848 11073,2834 11097,2820 11125,2813 11153,2813 11180,2813 11208,2820 11232,2834 11256,2848 11277,2869 11291,2893 11305,2917 11312,2945 11312,2973 L 11312,2973 Z"/>
   </g>
  </g>
  <g class="com.sun.star.drawing.CustomShape">
   <g id="id41">
    <rect class="BoundingBox" stroke="none" fill="none" x="12266" y="2547" width="320" height="320"/>
    <path fill="rgb(68,119,170)" stroke="none" d="M 12585,2707 C 12585,2734 12578,2762 12564,2786 12550,2810 12529,2831 12505,2845 12481,2859 12453,2866 12426,2866 12398,2866 12370,2859 12346,2845 12322,2831 12301,2810 12287,2786 12273,2762 12266,2734 12266,2707 12266,2679 12273,2651 12287,2627 12301,2603 12322,2582 12346,2568 12370,2554 12398,2547 12426,2547 12453,2547 12481,2554 12505,2568 12529,2582 12550,2603 12564,2627 12578,2651 12585,2679 12585,2707 L 12585,2707 Z"/>
   </g>
  </g>
  <g class="com.sun.star.drawing.CustomShape">
   <g id="id42">
    <rect class="BoundingBox" stroke="none" fill="none" x="11505" y="1934" width="320" height="321"/>
    <path fill="rgb(68,119,170)" stroke="none" d="M 11824,2094 C 11824,2121 11817,2149 11803,2173 11789,2197 11768,2218 11744,2232 11720,2246 11692,2253 11665,2253 11637,2253 11609,2246 11585,2232 11561,2218 11540,2197 11526,2173 11512,2149 11505,2121 11505,2094 11505,2066 11512,2038 11526,2014 11540,1990 11561,1969 11585,1955 11609,1941 11637,1934 11665,1934 11692,1934 11720,1941 11744,1955 11768,1969 11789,1990 11803,2014 11817,2038 11824,2066 11824,2094 L 11824,2094 Z"/>
   </g>
  </g>
  <g class="com.sun.star.drawing.CustomShape">
   <g id="id43">
    <rect class="BoundingBox" stroke="none" fill="none" x="12141" y="1911" width="321" height="320"/>
    <path fill="rgb(68,119,170)" stroke="none" d="M 12460,2071 C 12460,2098 12453,2126 12439,2150 12425,2174 12404,2195 12380,2209 12356,2223 12328,2230 12301,2230 12273,2230 12245,2223 12221,2209 12197,2195 12176,2174 12162,2150 12148,2126 12141,2098 12141,2071 12141,2043 12148,2015 12162,1991 12176,1967 12197,1946 12221,1932 12245,1918 12273,1911 12301,1911 12328,1911 12356,1918 12380,1932 12404,1946 12425,1967 12439,1991 12453,2015 12460,2043 12460,2071 L 12460,2071 Z"/>
   </g>
  </g>
  <g class="com.sun.star.drawing.CustomShape">
   <g id="id44">
    <rect class="BoundingBox" stroke="none" fill="none" x="12713" y="1996" width="320" height="321"/>
    <path fill="rgb(68,119,170)" stroke="none" d="M 13032,2156 C 13032,2183 13025,2211 13011,2235 12997,2259 12976,2280 12952,2294 12928,2308 12900,2315 12873,2315 12845,2315 12817,2308 12793,2294 12769,2280 12748,2259 12734,2235 12720,2211 12713,2183 12713,2156 12713,2128 12720,2100 12734,2076 12748,2052 12769,2031 12793,2017 12817,2003 12845,1996 12873,1996 12900,1996 12928,2003 12952,2017 12976,2031 12997,2052 13011,2076 13025,2100 13032,2128 13032,2156 L 13032,2156 Z"/>
   </g>
  </g>
  <g class="com.sun.star.drawing.CustomShape">
   <g id="id45">
    <rect class="BoundingBox" stroke="none" fill="none" x="11985" y="674" width="320" height="320"/>
    <path fill="rgb(68,119,170)" stroke="none" d="M 12304,834 C 12304,861 12297,889 12283,913 12269,937 12248,958 12224,972 12200,986 12172,993 12145,993 12117,993 12089,986 12065,972 12041,958 12020,937 12006,913 11992,889 11985,861 11985,834 11985,806 11992,778 12006,754 12020,730 12041,709 12065,695 12089,681 12117,674 12145,674 12172,674 12200,681 12224,695 12248,709 12269,730 12283,754 12297,778 12304,806 12304,833 L 12304,834 Z"/>
   </g>
  </g>
  <g class="com.sun.star.drawing.CustomShape">
   <g id="id46">
    <rect class="BoundingBox" stroke="none" fill="none" x="11034" y="1183" width="320" height="320"/>
    <path fill="rgb(68,119,170)" stroke="none" d="M 11353,1343 C 11353,1370 11346,1398 11332,1422 11318,1446 11297,1467 11273,1481 11249,1495 11221,1502 11194,1502 11166,1502 11138,1495 11114,1481 11090,1467 11069,1446 11055,1422 11041,1398 11034,1370 11034,1343 11034,1315 11041,1287 11055,1263 11069,1239 11090,1218 11114,1204 11138,1190 11166,1183 11194,1183 11221,1183 11249,1190 11273,1204 11297,1218 11318,1239 11332,1263 11346,1287 11353,1315 11353,1342 L 11353,1343 Z"/>
   </g>
  </g>
  <g class="com.sun.star.drawing.CustomShape">
   <g id="id47">
    <rect class="BoundingBox" stroke="none" fill="none" x="10209" y="2518" width="321" height="321"/>
    <path fill="rgb(68,119,170)" stroke="none" d="M 10528,2678 C 10528,2705 10521,2733 10507,2757 10493,2781 10472,2802 10448,2816 10424,2830 10396,2837 10369,2837 10341,2837 10313,2830 10289,2816 10265,2802 10244,2781 10230,2757 10216,2733 10209,2705 10209,2678 10209,2650 10216,2622 10230,2598 10244,2574 10265,2553 10289,2539 10313,2525 10341,2518 10369,2518 10396,2518 10424,2525 10448,2539 10472,2553 10493,2574 10507,2598 10521,2622 10528,2650 10528,2678 L 10528,2678 Z"/>
   </g>
  </g>
  <g class="com.sun.star.drawing.CustomShape">
   <g id="id48">
    <rect class="BoundingBox" stroke="none" fill="none" x="13385" y="1587" width="320" height="321"/>
    <path fill="rgb(68,119,170)" stroke="none" d="M 13704,1747 C 13704,1774 13697,1802 13683,1826 13669,1850 13648,1871 13624,1885 13600,1899 13572,1906 13545,1906 13517,1906 13489,1899 13465,1885 13441,1871 13420,1850 13406,1826 13392,1802 13385,1774 13385,1747 13385,1719 13392,1691 13406,1667 13420,1643 13441,1622 13465,1608 13489,1594 13517,1587 13545,1587 13572,1587 13600,1594 13624,1608 13648,1622 13669,1643 13683,1667 13697,1691 13704,1719 13704,1747 L 13704,1747 Z"/>
   </g>
  </g>
  <g class="com.sun.star.drawing.CustomShape">
   <g id="id49">
    <rect class="BoundingBox" stroke="none" fill="none" x="11100" y="5631" width="320" height="320"/>
    <path fill="rgb(68,119,170)" stroke="none" d="M 11419,5791 C 11419,5818 11412,5846 11398,5870 11384,5894 11363,5915 11339,5929 11315,5943 11287,5950 11260,5950 11232,5950 11204,5943 11180,5929 11156,5915 11135,5894 11121,5870 11107,5846 11100,5818 11100,5791 11100,5763 11107,5735 11121,5711 11135,5687 11156,5666 11180,5652 11204,5638 11232,5631 11260,5631 11287,5631 11315,5638 11339,5652 11363,5666 11384,5687 11398,5711 11412,5735 11419,5763 11419,5791 L 11419,5791 Z"/>
   </g>
  </g>
  <g class="com.sun.star.drawing.CustomShape">
   <g id="id50">
    <rect class="BoundingBox" stroke="none" fill="none" x="10550" y="5526" width="321" height="321"/>
    <path fill="rgb(68,119,170)" stroke="none" d="M 10869,5686 C 10869,5713 10862,5741 10848,5765 10834,5789 10813,5810 10789,5824 10765,5838 10737,5845 10710,5845 10682,5845 10654,5838 10630,5824 10606,5810 10585,5789 10571,5765 10557,5741 10550,5713 10550,5686 10550,5658 10557,5630 10571,5606 10585,5582 10606,5561 10630,5547 10654,5533 10682,5526 10710,5526 10737,5526 10765,5533 10789,5547 10813,5561 10834,5582 10848,5606 10862,5630 10869,5658 10869,5686 L 10869,5686 Z"/>
   </g>
  </g>
  <g class="com.sun.star.drawing.CustomShape">
   <g id="id51">
    <rect class="BoundingBox" stroke="none" fill="none" x="10700" y="6332" width="320" height="320"/>
    <path fill="rgb(68,119,170)" stroke="none" d="M 11019,6492 C 11019,6519 11012,6547 10998,6571 10984,6595 10963,6616 10939,6630 10915,6644 10887,6651 10860,6651 10832,6651 10804,6644 10780,6630 10756,6616 10735,6595 10721,6571 10707,6547 10700,6519 10700,6492 10700,6464 10707,6436 10721,6412 10735,6388 10756,6367 10780,6353 10804,6339 10832,6332 10860,6332 10887,6332 10915,6339 10939,6353 10963,6367 10984,6388 10998,6412 11012,6436 11019,6464 11019,6492 L 11019,6492 Z"/>
   </g>
  </g>
 </g>
</svg>