<?xml version="1.0" encoding="UTF-8" standalone="no"?>
<svg
   version="1.2"
   viewBox="19334 2930 3593 4976"
   preserveAspectRatio="xMidYMid"
   fill-rule="evenodd"
   stroke-width="28.222"
   stroke-linejoin="round"
   xml:space="preserve"
   id="svg19"
   sodipodi:docname="volumeintegral_N_divided.svg"
   inkscape:version="1.3.2 (1:1.3.2+202311252150+091e20ef0f)"
   xmlns:inkscape="http://www.inkscape.org/namespaces/inkscape"
   xmlns:sodipodi="http://sodipodi.sourceforge.net/DTD/sodipodi-0.dtd"
   xmlns="http://www.w3.org/2000/svg"
   xmlns:svg="http://www.w3.org/2000/svg"
   xmlns:ooo="http://xml.openoffice.org/svg/export"><sodipodi:namedview
   id="namedview19"
   pagecolor="#ffffff"
   bordercolor="#000000"
   borderopacity="0.25"
   inkscape:showpageshadow="2"
   inkscape:pageopacity="0.0"
   inkscape:pagecheckerboard="0"
   inkscape:deskcolor="#d1d1d1"
   inkscape:zoom="0.19111736"
   inkscape:cx="1794.7087"
   inkscape:cy="2488"
   inkscape:window-width="1888"
   inkscape:window-height="1173"
   inkscape:window-x="0"
   inkscape:window-y="0"
   inkscape:window-maximized="1"
   inkscape:current-layer="g19" />
 <defs
   class="EmbeddedBulletChars"
   id="defs10">
  <g
   id="bullet-char-template-57356"
   transform="scale(0.00048828125,-0.00048828125)">
   <path
   d="M 580,1141 L 1163,571 580,0 -4,571 580,1141 Z"
   id="path1" />
  </g>
  <g
   id="bullet-char-template-57354"
   transform="scale(0.00048828125,-0.00048828125)">
   <path
   d="M 8,1128 L 1137,1128 1137,0 8,0 8,1128 Z"
   id="path2" />
  </g>
  <g
   id="bullet-char-template-10146"
   transform="scale(0.00048828125,-0.00048828125)">
   <path
   d="M 174,0 L 602,739 174,1481 1456,739 174,0 Z M 1358,739 L 309,1346 659,739 1358,739 Z"
   id="path3" />
  </g>
  <g
   id="bullet-char-template-10132"
   transform="scale(0.00048828125,-0.00048828125)">
   <path
   d="M 2015,739 L 1276,0 717,0 1260,543 174,543 174,936 1260,936 717,1481 1274,1481 2015,739 Z"
   id="path4" />
  </g>
  <g
   id="bullet-char-template-10007"
   transform="scale(0.00048828125,-0.00048828125)">
   <path
   d="M 0,-2 C -7,14 -16,27 -25,37 L 356,567 C 262,823 215,952 215,954 215,979 228,992 255,992 264,992 276,990 289,987 310,991 331,999 354,1012 L 381,999 492,748 772,1049 836,1024 860,1049 C 881,1039 901,1025 922,1006 886,937 835,863 770,784 769,783 710,716 594,584 L 774,223 C 774,196 753,168 711,139 L 727,119 C 717,90 699,76 672,76 641,76 570,178 457,381 L 164,-76 C 142,-110 111,-127 72,-127 30,-127 9,-110 8,-76 1,-67 -2,-52 -2,-32 -2,-23 -1,-13 0,-2 Z"
   id="path5" />
  </g>
  <g
   id="bullet-char-template-10004"
   transform="scale(0.00048828125,-0.00048828125)">
   <path
   d="M 285,-33 C 182,-33 111,30 74,156 52,228 41,333 41,471 41,549 55,616 82,672 116,743 169,778 240,778 293,778 328,747 346,684 L 369,508 C 377,444 397,411 428,410 L 1163,1116 C 1174,1127 1196,1133 1229,1133 1271,1133 1292,1118 1292,1087 L 1292,965 C 1292,929 1282,901 1262,881 L 442,47 C 390,-6 338,-33 285,-33 Z"
   id="path6" />
  </g>
  <g
   id="bullet-char-template-9679"
   transform="scale(0.00048828125,-0.00048828125)">
   <path
   d="M 813,0 C 632,0 489,54 383,161 276,268 223,411 223,592 223,773 276,916 383,1023 489,1130 632,1184 813,1184 992,1184 1136,1130 1245,1023 1353,916 1407,772 1407,592 1407,412 1353,268 1245,161 1136,54 992,0 813,0 Z"
   id="path7" />
  </g>
  <g
   id="bullet-char-template-8226"
   transform="scale(0.00048828125,-0.00048828125)">
   <path
   d="M 346,457 C 273,457 209,483 155,535 101,586 74,649 74,723 74,796 101,859 155,911 209,963 273,989 346,989 419,989 480,963 531,910 582,859 608,796 608,723 608,648 583,586 532,535 482,483 420,457 346,457 Z"
   id="path8" />
  </g>
  <g
   id="bullet-char-template-8211"
   transform="scale(0.00048828125,-0.00048828125)">
   <path
   d="M -4,459 L 1135,459 1135,606 -4,606 -4,459 Z"
   id="path9" />
  </g>
  <g
   id="bullet-char-template-61548"
   transform="scale(0.00048828125,-0.00048828125)">
   <path
   d="M 173,740 C 173,903 231,1043 346,1159 462,1274 601,1332 765,1332 928,1332 1067,1274 1183,1159 1299,1043 1357,903 1357,740 1357,577 1299,437 1183,322 1067,206 928,148 765,148 601,148 462,206 346,322 231,437 173,577 173,740 Z"
   id="path10" />
  </g>
 </defs>
 <g
   ooo:name="page12"
   class="Page"
   id="g19">
  <g
   class="com.sun.star.drawing.CustomShape"
   id="g13">
   <g
   id="id3">
    <rect
   class="BoundingBox"
   stroke="none"
   fill="none"
   x="19334"
   y="4269"
   width="3593"
   height="2259"
   id="rect10" />
    <path
   fill="rgb(187,187,187)"
   fill-opacity="0.251"
   stroke="none"
   d="M 19387,6116 L 19387,6115 C 19387,6178 19404,6240 19435,6295 19467,6349 19512,6394 19566,6426 19621,6457 19683,6474 19746,6474 L 22514,6474 22514,6474 C 22577,6474 22639,6457 22694,6426 22748,6394 22793,6349 22825,6295 22856,6240 22873,6178 22873,6115 L 22873,4681 22873,4681 C 22873,4618 22856,4556 22825,4501 22793,4447 22748,4402 22694,4370 22639,4339 22577,4322 22514,4322 L 19745,4322 19746,4322 19746,4322 C 19683,4322 19621,4339 19566,4370 19512,4402 19467,4447 19435,4501 19404,4556 19387,4618 19387,4681 L 19387,6116 Z"
   id="path11" />
    <g
   style="opacity: 0.8"
   id="g12">
     <path
   fill="none"
   stroke="rgb(85,85,85)"
   stroke-width="106"
   stroke-linejoin="round"
   d="M 19387,6116 L 19387,6115 C 19387,6178 19404,6240 19435,6295 19467,6349 19512,6394 19566,6426 19621,6457 19683,6474 19746,6474 L 22514,6474 22514,6474 C 22577,6474 22639,6457 22694,6426 22748,6394 22793,6349 22825,6295 22856,6240 22873,6178 22873,6115 L 22873,4681 22873,4681 C 22873,4618 22856,4556 22825,4501 22793,4447 22748,4402 22694,4370 22639,4339 22577,4322 22514,4322 L 19745,4322 19746,4322 19746,4322 C 19683,4322 19621,4339 19566,4370 19512,4402 19467,4447 19435,4501 19404,4556 19387,4618 19387,4681 L 19387,6116 Z"
   id="path12" />
    </g>
   </g>
  </g>
  <g
   class="com.sun.star.drawing.LineShape"
   id="g14">
   <g
   id="id4">
    <rect
   class="BoundingBox"
   stroke="none"
   fill="none"
   x="20051"
   y="2930"
   width="459"
   height="2503"
   id="rect13" />
    <path
   fill="none"
   stroke="rgb(68,119,170)"
   stroke-width="106"
   stroke-linejoin="round"
   d="M 20280,5379 L 20280,3410"
   id="path13" />
    <path
   fill="rgb(68,119,170)"
   stroke="none"
   d="M 20507,3405 L 20304,2949 20294,2935 20281,2930 20266,2935 20256,2947 20053,3405 20051,3411 20051,3414 20053,3424 20059,3433 20066,3439 20076,3441 20484,3441 20494,3439 20503,3433 20507,3424 20509,3414 20509,3411 20507,3405 Z"
   id="path14" />
   </g>
  </g>
  <g
   class="com.sun.star.drawing.LineShape"
   id="g16">
   <g
   id="id5">
    <rect
   class="BoundingBox"
   stroke="none"
   fill="none"
   x="21751"
   y="5403"
   width="459"
   height="2503"
   id="rect14" />
    <path
   fill="none"
   stroke="rgb(68,119,170)"
   stroke-width="106"
   stroke-linejoin="round"
   d="M 21980,5456 L 21980,7425"
   id="path15" />
    <path
   fill="rgb(68,119,170)"
   stroke="none"
   d="M 21753,7430 L 21956,7886 21966,7900 21979,7905 21994,7900 22004,7888 22207,7430 22209,7424 22209,7421 22207,7411 22201,7402 22194,7396 22184,7394 21776,7394 21766,7396 21757,7402 21753,7411 21751,7421 21751,7424 21753,7430 Z"
   id="path16" />
   </g>
  </g>
  
 <path
   style="fill:#808080;stroke:#808080;stroke-width:70;stroke-linecap:square;stroke-dasharray:210, 210;stroke-dashoffset:0;stroke-opacity:1"
   d="m 21209,4323 c 0,2151 0,2151 0,2151"
   id="path19" /></g>
</svg>
