<?xml version="1.0" encoding="UTF-8"?>
<!DOCTYPE svg PUBLIC "-//W3C//DTD SVG 1.1//EN" "http://www.w3.org/Graphics/SVG/1.1/DTD/svg11.dtd">
<svg version="1.2" viewBox="19970 4953 8808 8504" preserveAspectRatio="xMidYMid" fill-rule="evenodd" stroke-width="28.222" stroke-linejoin="round" xmlns="http://www.w3.org/2000/svg" xmlns:ooo="http://xml.openoffice.org/svg/export" xmlns:xlink="http://www.w3.org/1999/xlink" xmlns:presentation="http://sun.com/xmlns/staroffice/presentation" xmlns:smil="http://www.w3.org/2001/SMIL20/" xmlns:anim="urn:oasis:names:tc:opendocument:xmlns:animation:1.0" xmlns:svg="urn:oasis:names:tc:opendocument:xmlns:svg-compatible:1.0" xml:space="preserve">
 <defs class="EmbeddedBulletChars">
  <g id="bullet-char-template-57356" transform="scale(0.00048828125,-0.00048828125)">
   <path d="M 580,1141 L 1163,571 580,0 -4,571 580,1141 Z"/>
  </g>
  <g id="bullet-char-template-57354" transform="scale(0.00048828125,-0.00048828125)">
   <path d="M 8,1128 L 1137,1128 1137,0 8,0 8,1128 Z"/>
  </g>
  <g id="bullet-char-template-10146" transform="scale(0.00048828125,-0.00048828125)">
   <path d="M 174,0 L 602,739 174,1481 1456,739 174,0 Z M 1358,739 L 309,1346 659,739 1358,739 Z"/>
  </g>
  <g id="bullet-char-template-10132" transform="scale(0.00048828125,-0.00048828125)">
   <path d="M 2015,739 L 1276,0 717,0 1260,543 174,543 174,936 1260,936 717,1481 1274,1481 2015,739 Z"/>
  </g>
  <g id="bullet-char-template-10007" transform="scale(0.00048828125,-0.00048828125)">
   <path d="M 0,-2 C -7,14 -16,27 -25,37 L 356,567 C 262,823 215,952 215,954 215,979 228,992 255,992 264,992 276,990 289,987 310,991 331,999 354,1012 L 381,999 492,748 772,1049 836,1024 860,1049 C 881,1039 901,1025 922,1006 886,937 835,863 770,784 769,783 710,716 594,584 L 774,223 C 774,196 753,168 711,139 L 727,119 C 717,90 699,76 672,76 641,76 570,178 457,381 L 164,-76 C 142,-110 111,-127 72,-127 30,-127 9,-110 8,-76 1,-67 -2,-52 -2,-32 -2,-23 -1,-13 0,-2 Z"/>
  </g>
  <g id="bullet-char-template-10004" transform="scale(0.00048828125,-0.00048828125)">
   <path d="M 285,-33 C 182,-33 111,30 74,156 52,228 41,333 41,471 41,549 55,616 82,672 116,743 169,778 240,778 293,778 328,747 346,684 L 369,508 C 377,444 397,411 428,410 L 1163,1116 C 1174,1127 1196,1133 1229,1133 1271,1133 1292,1118 1292,1087 L 1292,965 C 1292,929 1282,901 1262,881 L 442,47 C 390,-6 338,-33 285,-33 Z"/>
  </g>
  <g id="bullet-char-template-9679" transform="scale(0.00048828125,-0.00048828125)">
   <path d="M 813,0 C 632,0 489,54 383,161 276,268 223,411 223,592 223,773 276,916 383,1023 489,1130 632,1184 813,1184 992,1184 1136,1130 1245,1023 1353,916 1407,772 1407,592 1407,412 1353,268 1245,161 1136,54 992,0 813,0 Z"/>
  </g>
  <g id="bullet-char-template-8226" transform="scale(0.00048828125,-0.00048828125)">
   <path d="M 346,457 C 273,457 209,483 155,535 101,586 74,649 74,723 74,796 101,859 155,911 209,963 273,989 346,989 419,989 480,963 531,910 582,859 608,796 608,723 608,648 583,586 532,535 482,483 420,457 346,457 Z"/>
  </g>
  <g id="bullet-char-template-8211" transform="scale(0.00048828125,-0.00048828125)">
   <path d="M -4,459 L 1135,459 1135,606 -4,606 -4,459 Z"/>
  </g>
  <g id="bullet-char-template-61548" transform="scale(0.00048828125,-0.00048828125)">
   <path d="M 173,740 C 173,903 231,1043 346,1159 462,1274 601,1332 765,1332 928,1332 1067,1274 1183,1159 1299,1043 1357,903 1357,740 1357,577 1299,437 1183,322 1067,206 928,148 765,148 601,148 462,206 346,322 231,437 173,577 173,740 Z"/>
  </g>
 </defs>
 <g ooo:name="page5" class="Page">
  <g class="com.sun.star.drawing.ClosedBezierShape">
   <g id="id3">
    <rect class="BoundingBox" stroke="none" fill="none" x="19970" y="4953" width="8808" height="8504"/>
    <path fill="rgb(85,85,85)" fill-opacity="0.2" stroke="none" d="M 25346,10279 C 26047,9622 29009,9327 28670,8226 28331,7125 25855,3862 24246,5471 22637,7080 23843,6999 21600,7274 19357,7549 19950,9390 20881,11274 21813,13158 22406,13349 24691,13370 26659,13517 24648,10936 25346,10279 Z"/>
    <g style="opacity: 0.8">
     <path fill="none" stroke="rgb(85,85,85)" stroke-width="159" stroke-linejoin="round" d="M 25346,10279 C 26047,9622 29009,9327 28670,8226 28331,7125 25855,3862 24246,5471 22637,7080 23843,6999 21600,7274 19357,7549 19950,9390 20881,11274 21813,13158 22406,13349 24691,13370 26659,13517 24648,10936 25346,10279 Z"/>
    </g>
   </g>
  </g>
  <g class="Group">
   <g class="com.sun.star.drawing.ClosedBezierShape">
    <g id="id4">
     <rect class="BoundingBox" stroke="none" fill="none" x="20959" y="9087" width="1206" height="137"/>
     <path fill="rgb(170,51,119)" stroke="none" d="M 20960,9088 C 21361,9088 21762,9088 22164,9088 22164,9133 22164,9178 22164,9222 21762,9222 21361,9222 20960,9222 20960,9178 20960,9133 20960,9088 Z"/>
    </g>
   </g>
   <g class="com.sun.star.drawing.ClosedBezierShape">
    <g id="id5">
     <rect class="BoundingBox" stroke="none" fill="none" x="22387" y="8216" width="982" height="1591"/>
     <path fill="rgb(170,51,119)" stroke="none" d="M 23368,9267 C 23368,9011 23214,8845 22971,8845 22843,8845 22759,8896 22612,9017 22657,8614 22843,8396 23252,8274 23252,8268 23252,8262 23252,8255 23225,8242 23197,8230 23169,8217 22951,8287 22862,8332 22747,8435 22516,8627 22388,8902 22388,9210 22388,9575 22567,9805 22855,9805 23150,9805 23368,9575 23368,9267 Z M 23176,9351 C 23176,9581 23060,9728 22887,9728 22695,9728 22593,9568 22593,9267 22593,9190 22599,9146 22625,9107 22676,9030 22779,8979 22887,8979 23060,8979 23176,9126 23176,9351 Z"/>
    </g>
   </g>
   <g class="com.sun.star.drawing.ClosedBezierShape">
    <g id="id6">
     <rect class="BoundingBox" stroke="none" fill="none" x="23989" y="8172" width="1455" height="1635"/>
     <path fill="rgb(170,51,119)" stroke="none" d="M 25443,9575 C 25437,9566 25430,9558 25424,9549 25283,9639 25129,9684 24956,9684 24521,9684 24226,9395 24226,8953 24226,8537 24482,8268 24873,8268 25091,8268 25315,8358 25315,8441 25315,8497 25315,8552 25315,8608 25338,8608 25362,8608 25385,8608 25392,8492 25398,8409 25430,8262 25238,8204 25072,8172 24911,8172 24713,8172 24527,8217 24380,8307 24124,8454 23989,8691 23989,8992 23989,9479 24341,9805 24873,9805 25059,9805 25225,9767 25379,9684 25400,9647 25422,9611 25443,9575 Z"/>
    </g>
   </g>
  </g>
 </g>
</svg>