<?xml version="1.0" encoding="UTF-8" standalone="no"?>
<!-- Uploaded to: SVG Repo, www.svgrepo.com, Generator: SVG Repo Mixer Tools -->

<svg
   width="600"
   height="602.49567"
   viewBox="0 0 18 18.074869"
   version="1.1"
   id="svg1"
   sodipodi:docname="books2.svg"
   inkscape:version="1.4.3 (1:1.4.3+202512261035+0d15f75042)"
   xmlns:inkscape="http://www.inkscape.org/namespaces/inkscape"
   xmlns:sodipodi="http://sodipodi.sourceforge.net/DTD/sodipodi-0.dtd"
   xmlns="http://www.w3.org/2000/svg"
   xmlns:svg="http://www.w3.org/2000/svg"
   xmlns:rdf="http://www.w3.org/1999/02/22-rdf-syntax-ns#"
   xmlns:cc="http://creativecommons.org/ns#"
   xmlns:dc="http://purl.org/dc/elements/1.1/">
  <defs
     id="defs1" />
  <sodipodi:namedview
     id="namedview1"
     pagecolor="#ffffff"
     bordercolor="#000000"
     borderopacity="0.25"
     inkscape:showpageshadow="2"
     inkscape:pageopacity="0.0"
     inkscape:pagecheckerboard="0"
     inkscape:deskcolor="#d1d1d1"
     inkscape:zoom="1.19375"
     inkscape:cx="299.47644"
     inkscape:cy="299.47644"
     inkscape:window-width="1890"
     inkscape:window-height="1175"
     inkscape:window-x="0"
     inkscape:window-y="0"
     inkscape:window-maximized="1"
     inkscape:current-layer="页面-1" />
  <title
     id="title1">book_3_fill</title>
  <g
     id="页面-1"
     stroke="none"
     stroke-width="1"
     fill="none"
     fill-rule="evenodd"
     transform="translate(-3.0251309,-2.9502618)">
    <path
       d="M 24.025131,0.02513089 V 24.025131 H 0.02513089 V 0.02513089 Z m -11.40651,23.25784111 -0.01155,0.0017 -0.07106,0.03553 -0.019,0.0037 v 0 l -0.01516,-0.0037 -0.07106,-0.03553 c -0.0098,-0.0031 -0.01861,-4.89e-4 -0.02351,0.0054 l -0.0041,0.01092 -0.01709,0.427279 0.005,0.02039 0.01101,0.01222 0.103573,0.07398 0.01487,0.0039 v 0 l 0.01177,-0.0039 0.103575,-0.07398 0.0126,-0.01604 v 0 l 0.0034,-0.01656 -0.01709,-0.427279 c -0.002,-0.01013 -0.0085,-0.01653 -0.01607,-0.01799 z m 0.264901,-0.112555 -0.01384,0.002 -0.184705,0.09235 -0.01,0.01024 v 0 l -0.0027,0.01121 0.0179,0.429528 0.0048,0.01278 v 0 l 0.0085,0.0071 0.200954,0.09275 c 0.01209,0.0037 0.02289,-2.52e-4 0.02849,-0.008 l 0.004,-0.01406 -0.03415,-0.614631 c -0.0024,-0.01194 -0.01027,-0.01953 -0.01929,-0.02125 z m -0.715344,0.002 c -0.0098,-0.0049 -0.02087,-0.002 -0.02741,0.0053 l -0.0057,0.01394 -0.03415,0.614631 c -6.39e-4,0.0115 0.007,0.0207 0.01688,0.0234 l 0.01561,-0.0013 0.200955,-0.09275 0.0094,-0.0081 v 0 l 0.0039,-0.0118 0.0179,-0.429528 -0.0032,-0.01259 v 0 l -0.0095,-0.0089 z"
       id="MingCute"
       fill-rule="nonzero" />
    <path
       style="fill:#bbbbbb"
       d="m 3.2800209,4.6175618 c -0.5615498,-0.6551402 -0.09607,-1.6673 0.76685,-1.6673 H 16.525131 c 2.4853,0 4.5,2.01472 4.5,4.5 0,2.48528 -2.0147,4.5000002 -4.5,4.5000002 H 4.0468709 c -0.86298,0 -1.32836,-1.0122 -0.76685,-1.6673 l 0.75457,-0.8803302 c 0.9629686,-1.1234612 0.96297,-2.78128 0,-3.90474 z"
       id="形状" />
    <path
       style="fill:#bbbbbb;stroke:none;stroke-width:0.6;stroke-dasharray:1.2, 0.6;stroke-dashoffset:0"
       d="m 3.0251309,16.525131 c 0,-2.4853 2.01472,-4.5 4.5,-4.5 H 20.003431 c 0.8629,0 1.3283,1.0122 0.7668,1.6673 l -0.7546,0.8803 c -0.9629,1.1235 -0.9629,2.7813 0,3.9048 l 0.7546,0.8803 c 0.5615,0.6551 0.0961,1.6673 -0.7668,1.6673 H 7.5251309 c -2.48528,0 -4.5,-2.0147 -4.5,-4.5 z"
       id="path1" />
  </g>
  <metadata
     id="metadata1">
    <rdf:RDF>
      <cc:Work
         rdf:about="">
        <dc:title>book_3_fill</dc:title>
      </cc:Work>
    </rdf:RDF>
  </metadata>
</svg>
