<?xml version="1.0" encoding="UTF-8"?>
<!DOCTYPE svg PUBLIC "-//W3C//DTD SVG 1.1//EN" "http://www.w3.org/Graphics/SVG/1.1/DTD/svg11.dtd">
<svg version="1.2" viewBox="8014 3225 11021 2268" preserveAspectRatio="xMidYMid" fill-rule="evenodd" stroke-width="28.222" stroke-linejoin="round" xmlns="http://www.w3.org/2000/svg" xmlns:ooo="http://xml.openoffice.org/svg/export" xmlns:xlink="http://www.w3.org/1999/xlink" xmlns:presentation="http://sun.com/xmlns/staroffice/presentation" xmlns:smil="http://www.w3.org/2001/SMIL20/" xmlns:anim="urn:oasis:names:tc:opendocument:xmlns:animation:1.0" xmlns:svg="urn:oasis:names:tc:opendocument:xmlns:svg-compatible:1.0" xml:space="preserve">
 <defs class="EmbeddedBulletChars">
  <g id="bullet-char-template-57356" transform="scale(0.00048828125,-0.00048828125)">
   <path d="M 580,1141 L 1163,571 580,0 -4,571 580,1141 Z"/>
  </g>
  <g id="bullet-char-template-57354" transform="scale(0.00048828125,-0.00048828125)">
   <path d="M 8,1128 L 1137,1128 1137,0 8,0 8,1128 Z"/>
  </g>
  <g id="bullet-char-template-10146" transform="scale(0.00048828125,-0.00048828125)">
   <path d="M 174,0 L 602,739 174,1481 1456,739 174,0 Z M 1358,739 L 309,1346 659,739 1358,739 Z"/>
  </g>
  <g id="bullet-char-template-10132" transform="scale(0.00048828125,-0.00048828125)">
   <path d="M 2015,739 L 1276,0 717,0 1260,543 174,543 174,936 1260,936 717,1481 1274,1481 2015,739 Z"/>
  </g>
  <g id="bullet-char-template-10007" transform="scale(0.00048828125,-0.00048828125)">
   <path d="M 0,-2 C -7,14 -16,27 -25,37 L 356,567 C 262,823 215,952 215,954 215,979 228,992 255,992 264,992 276,990 289,987 310,991 331,999 354,1012 L 381,999 492,748 772,1049 836,1024 860,1049 C 881,1039 901,1025 922,1006 886,937 835,863 770,784 769,783 710,716 594,584 L 774,223 C 774,196 753,168 711,139 L 727,119 C 717,90 699,76 672,76 641,76 570,178 457,381 L 164,-76 C 142,-110 111,-127 72,-127 30,-127 9,-110 8,-76 1,-67 -2,-52 -2,-32 -2,-23 -1,-13 0,-2 Z"/>
  </g>
  <g id="bullet-char-template-10004" transform="scale(0.00048828125,-0.00048828125)">
   <path d="M 285,-33 C 182,-33 111,30 74,156 52,228 41,333 41,471 41,549 55,616 82,672 116,743 169,778 240,778 293,778 328,747 346,684 L 369,508 C 377,444 397,411 428,410 L 1163,1116 C 1174,1127 1196,1133 1229,1133 1271,1133 1292,1118 1292,1087 L 1292,965 C 1292,929 1282,901 1262,881 L 442,47 C 390,-6 338,-33 285,-33 Z"/>
  </g>
  <g id="bullet-char-template-9679" transform="scale(0.00048828125,-0.00048828125)">
   <path d="M 813,0 C 632,0 489,54 383,161 276,268 223,411 223,592 223,773 276,916 383,1023 489,1130 632,1184 813,1184 992,1184 1136,1130 1245,1023 1353,916 1407,772 1407,592 1407,412 1353,268 1245,161 1136,54 992,0 813,0 Z"/>
  </g>
  <g id="bullet-char-template-8226" transform="scale(0.00048828125,-0.00048828125)">
   <path d="M 346,457 C 273,457 209,483 155,535 101,586 74,649 74,723 74,796 101,859 155,911 209,963 273,989 346,989 419,989 480,963 531,910 582,859 608,796 608,723 608,648 583,586 532,535 482,483 420,457 346,457 Z"/>
  </g>
  <g id="bullet-char-template-8211" transform="scale(0.00048828125,-0.00048828125)">
   <path d="M -4,459 L 1135,459 1135,606 -4,606 -4,459 Z"/>
  </g>
  <g id="bullet-char-template-61548" transform="scale(0.00048828125,-0.00048828125)">
   <path d="M 173,740 C 173,903 231,1043 346,1159 462,1274 601,1332 765,1332 928,1332 1067,1274 1183,1159 1299,1043 1357,903 1357,740 1357,577 1299,437 1183,322 1067,206 928,148 765,148 601,148 462,206 346,322 231,437 173,577 173,740 Z"/>
  </g>
 </defs>
 <g ooo:name="page1" class="Page">
  <g class="Group">
   <g class="com.sun.star.drawing.ClosedBezierShape">
    <g id="id3">
     <rect class="BoundingBox" stroke="none" fill="none" x="8014" y="3939" width="378" height="689"/>
     <path fill="rgb(0,0,0)" stroke="none" d="M 8337,3945 C 8309,3942 8287,3939 8259,3939 8186,3939 8124,3959 8091,4029 8085,4040 8079,4051 8079,4065 8079,4101 8133,4152 8169,4185 8093,4261 8015,4361 8015,4462 8015,4543 8057,4627 8161,4627 8289,4627 8390,4498 8390,4372 8390,4319 8362,4269 8323,4233 8292,4203 8261,4173 8231,4143 8152,4068 8127,4051 8127,4026 8127,3995 8158,3987 8191,3987 8256,3987 8292,3992 8328,3995 8333,3981 8338,3967 8342,3953 8341,3950 8339,3947 8337,3945 Z M 8194,4205 C 8253,4263 8328,4345 8328,4414 8328,4496 8284,4577 8208,4577 8127,4577 8091,4482 8091,4412 8091,4336 8124,4275 8194,4205 Z"/>
    </g>
   </g>
   <g class="com.sun.star.drawing.ClosedBezierShape">
    <g id="id4">
     <rect class="BoundingBox" stroke="none" fill="none" x="8344" y="3225" width="996" height="2268"/>
     <path fill="rgb(0,0,0)" stroke="none" d="M 9336,3343 C 9350,3279 9308,3226 9238,3226 9003,3226 8944,3629 8891,3880 8824,4185 8743,4613 8687,4921 8662,5069 8592,5452 8457,5452 8421,5452 8496,5416 8499,5365 8505,5320 8482,5293 8438,5293 8393,5293 8348,5343 8345,5368 8340,5421 8373,5491 8449,5491 8684,5491 8740,5133 8785,4915 8844,4635 8936,4149 8989,3869 9020,3707 9107,3262 9199,3262 9247,3262 9182,3310 9179,3349 9179,3380 9207,3411 9247,3411 9280,3411 9328,3391 9336,3343 Z"/>
    </g>
   </g>
   <g class="com.sun.star.drawing.ClosedBezierShape">
    <g id="id5">
     <rect class="BoundingBox" stroke="none" fill="none" x="9218" y="3941" width="498" height="682"/>
     <path fill="rgb(0,0,0)" stroke="none" d="M 9692,4619 C 9692,4596 9703,4518 9714,4459 9704,4459 9694,4459 9683,4459 9678,4479 9672,4498 9667,4518 9658,4549 9650,4565 9641,4571 9630,4577 9555,4582 9499,4582 9445,4582 9420,4579 9361,4574 9361,4563 9361,4551 9361,4540 9392,4367 9423,4194 9454,4020 9459,3984 9468,3975 9501,3973 9515,3972 9529,3971 9543,3970 9544,3960 9545,3951 9546,3942 9507,3945 9468,3945 9429,3945 9384,3945 9342,3945 9297,3942 9296,3951 9295,3960 9294,3970 9309,3971 9324,3972 9339,3973 9364,3973 9375,3981 9375,3998 9375,4012 9373,4040 9364,4073 9336,4237 9308,4401 9280,4565 9277,4582 9266,4591 9221,4596 9221,4605 9220,4613 9219,4621 9266,4621 9319,4619 9370,4619 9443,4619 9515,4621 9588,4621 9630,4621 9658,4621 9692,4619 Z"/>
    </g>
   </g>
   <g class="com.sun.star.drawing.ClosedBezierShape">
    <g id="id6">
     <rect class="BoundingBox" stroke="none" fill="none" x="9957" y="3905" width="537" height="726"/>
     <path fill="rgb(0,0,0)" stroke="none" d="M 10492,4621 C 10492,4612 10492,4603 10492,4593 10477,4592 10462,4592 10448,4591 10414,4588 10411,4582 10411,4518 10411,4317 10411,4115 10411,3914 10408,3911 10406,3908 10403,3905 10358,3922 10327,3931 10249,3942 10249,3951 10249,3960 10249,3970 10267,3970 10284,3970 10302,3970 10322,3970 10327,3981 10327,4012 10327,4071 10327,4131 10327,4191 10274,4166 10246,4160 10210,4160 10184,4160 10162,4166 10137,4177 10108,4192 10079,4207 10050,4221 9994,4252 9958,4325 9958,4406 9958,4487 9983,4551 10030,4591 10064,4619 10112,4630 10176,4630 10196,4630 10218,4627 10224,4624 10260,4593 10296,4563 10333,4532 10331,4562 10329,4592 10327,4621 10352,4621 10378,4619 10403,4619 10431,4619 10462,4621 10492,4621 Z M 10327,4403 C 10327,4465 10327,4476 10313,4498 10285,4546 10238,4574 10190,4574 10103,4574 10042,4493 10042,4375 10042,4269 10095,4205 10184,4205 10221,4205 10260,4219 10296,4241 10316,4255 10327,4269 10327,4275 10327,4317 10327,4360 10327,4403 Z"/>
    </g>
   </g>
   <g class="com.sun.star.drawing.ClosedBezierShape">
    <g id="id7">
     <rect class="BoundingBox" stroke="none" fill="none" x="10573" y="3986" width="265" height="642"/>
     <path fill="rgb(0,0,0)" stroke="none" d="M 10792,4523 C 10789,4517 10786,4510 10783,4504 10769,4514 10754,4524 10739,4535 10711,4557 10691,4565 10680,4565 10672,4565 10666,4557 10666,4546 10666,4521 10677,4442 10708,4300 10713,4279 10717,4259 10722,4238 10756,4238 10791,4238 10825,4238 10829,4221 10833,4205 10837,4188 10800,4194 10767,4194 10730,4194 10744,4104 10755,4054 10772,4003 10769,3998 10767,3992 10764,3987 10744,4001 10716,4012 10686,4023 10678,4078 10671,4133 10663,4188 10618,4210 10593,4221 10576,4224 10575,4229 10574,4234 10574,4238 10601,4238 10628,4238 10655,4238 10637,4331 10619,4423 10602,4515 10596,4540 10588,4563 10588,4588 10588,4613 10599,4627 10618,4627 10652,4627 10686,4607 10764,4546 10781,4532 10775,4537 10792,4523 Z"/>
    </g>
   </g>
   <g class="com.sun.star.drawing.ClosedBezierShape">
    <g id="id8">
     <rect class="BoundingBox" stroke="none" fill="none" x="11256" y="4221" width="531" height="268"/>
     <path fill="rgb(0,0,0)" stroke="none" d="M 11257,4280 C 11433,4280 11609,4280 11786,4280 11786,4261 11786,4241 11786,4221 11609,4221 11433,4221 11257,4221 11257,4241 11257,4261 11257,4280 Z M 11257,4487 C 11433,4487 11609,4487 11786,4487 11786,4468 11786,4450 11786,4431 11609,4431 11433,4431 11257,4431 11257,4450 11257,4468 11257,4487 Z"/>
    </g>
   </g>
   <g class="com.sun.star.drawing.ClosedBezierShape">
    <g id="id9">
     <rect class="BoundingBox" stroke="none" fill="none" x="12152" y="3941" width="430" height="699"/>
     <path fill="rgb(0,0,0)" stroke="none" d="M 12581,4261 C 12581,4045 12519,3942 12382,3942 12231,3942 12152,4065 12152,4303 12152,4417 12175,4515 12208,4563 12242,4610 12298,4638 12359,4638 12508,4638 12581,4512 12581,4261 Z M 12499,4308 C 12499,4518 12463,4605 12371,4605 12276,4605 12236,4507 12236,4266 12236,4059 12273,3978 12365,3978 12460,3978 12499,4073 12499,4308 Z"/>
    </g>
   </g>
   <g class="com.sun.star.drawing.ClosedBezierShape">
    <g id="id10">
     <rect class="BoundingBox" stroke="none" fill="none" x="14618" y="3941" width="500" height="682"/>
     <path fill="rgb(0,0,0)" stroke="none" d="M 15094,4619 C 15092,4596 15103,4518 15117,4459 15107,4459 15096,4459 15086,4459 15080,4479 15075,4498 15069,4518 15061,4549 15052,4565 15041,4571 15030,4577 14957,4582 14901,4582 14848,4582 14823,4579 14761,4574 14761,4563 14761,4551 14764,4540 14794,4367 14824,4194 14854,4020 14862,3984 14868,3975 14904,3973 14918,3972 14932,3971 14946,3970 14947,3960 14948,3951 14949,3942 14910,3945 14870,3945 14831,3945 14786,3945 14742,3945 14700,3942 14698,3951 14696,3960 14694,3970 14710,3971 14726,3972 14742,3973 14764,3973 14775,3981 14775,3998 14775,4012 14772,4040 14767,4073 14739,4237 14711,4401 14683,4565 14680,4582 14666,4591 14624,4596 14622,4605 14620,4613 14619,4621 14669,4621 14719,4619 14770,4619 14842,4619 14918,4621 14991,4621 15030,4621 15058,4621 15094,4619 Z"/>
    </g>
   </g>
   <g class="com.sun.star.drawing.ClosedBezierShape">
    <g id="id11">
     <rect class="BoundingBox" stroke="none" fill="none" x="15497" y="4221" width="528" height="268"/>
     <path fill="rgb(0,0,0)" stroke="none" d="M 15497,4280 C 15673,4280 15848,4280 16024,4280 16024,4261 16024,4241 16024,4221 15848,4221 15673,4221 15497,4221 15497,4241 15497,4261 15497,4280 Z M 15497,4487 C 15673,4487 15848,4487 16024,4487 16024,4468 16024,4450 16024,4431 15848,4431 15673,4431 15497,4431 15497,4450 15497,4468 15497,4487 Z"/>
    </g>
   </g>
   <g class="com.sun.star.drawing.ClosedBezierShape">
    <g id="id12">
     <rect class="BoundingBox" stroke="none" fill="none" x="16541" y="3273" width="355" height="687"/>
     <path fill="rgb(0,0,0)" stroke="none" d="M 16894,3959 C 16894,3948 16894,3938 16894,3928 16877,3927 16859,3926 16841,3925 16788,3922 16780,3911 16780,3861 16780,3667 16780,3473 16780,3279 16775,3277 16770,3275 16766,3273 16701,3307 16631,3338 16542,3369 16544,3383 16545,3397 16547,3411 16551,3411 16555,3411 16558,3411 16600,3391 16645,3371 16687,3352 16693,3352 16696,3360 16696,3385 16696,3544 16696,3702 16696,3861 16696,3911 16684,3922 16631,3925 16613,3926 16596,3927 16578,3928 16578,3938 16578,3948 16578,3959 16631,3956 16684,3956 16740,3956 16791,3956 16841,3956 16894,3959 Z"/>
    </g>
   </g>
   <g class="com.sun.star.drawing.ClosedBezierShape">
    <g id="id13">
     <rect class="BoundingBox" stroke="none" fill="none" x="16482" y="4338" width="495" height="58"/>
     <path fill="rgb(0,0,0)" stroke="none" d="M 16483,4339 C 16647,4339 16811,4339 16976,4339 16976,4358 16976,4376 16976,4395 16811,4395 16647,4395 16483,4395 16483,4376 16483,4358 16483,4339 Z"/>
    </g>
   </g>
   <g class="com.sun.star.drawing.ClosedBezierShape">
    <g id="id14">
     <rect class="BoundingBox" stroke="none" fill="none" x="16499" y="4615" width="444" height="682"/>
     <path fill="rgb(0,0,0)" stroke="none" d="M 16942,5295 C 16942,5276 16942,5265 16942,5251 16942,5239 16942,5228 16942,5206 16829,5210 16716,5213 16603,5217 16663,5154 16723,5090 16782,5027 16878,4926 16906,4873 16906,4798 16906,4686 16830,4616 16704,4616 16634,4616 16586,4635 16539,4686 16533,4729 16528,4773 16522,4817 16531,4817 16541,4817 16550,4817 16554,4802 16557,4787 16561,4772 16578,4716 16614,4691 16679,4691 16763,4691 16819,4744 16819,4828 16819,4901 16777,4974 16665,5091 16610,5151 16555,5210 16500,5270 16500,5279 16500,5287 16500,5295 16572,5293 16645,5293 16718,5293 16794,5293 16869,5293 16942,5295 Z"/>
    </g>
   </g>
   <g class="com.sun.star.drawing.ClosedBezierShape">
    <g id="id15">
     <rect class="BoundingBox" stroke="none" fill="none" x="17135" y="4148" width="704" height="480"/>
     <path fill="rgb(0,0,0)" stroke="none" d="M 17838,4537 C 17834,4531 17830,4524 17827,4518 17818,4523 17810,4529 17801,4535 17773,4554 17751,4565 17743,4565 17734,4565 17729,4557 17729,4546 17729,4535 17731,4526 17737,4507 17761,4410 17785,4313 17810,4216 17813,4199 17815,4182 17815,4174 17815,4160 17807,4149 17790,4149 17762,4149 17726,4166 17667,4207 17605,4252 17569,4286 17521,4353 17532,4308 17542,4263 17552,4219 17555,4199 17558,4185 17558,4180 17558,4160 17549,4149 17533,4149 17502,4149 17457,4168 17404,4210 17362,4244 17342,4263 17278,4350 17288,4307 17298,4264 17309,4221 17314,4205 17317,4191 17317,4180 17317,4160 17306,4149 17295,4149 17272,4149 17236,4168 17163,4221 17154,4228 17144,4235 17135,4241 17138,4248 17141,4254 17143,4261 17154,4253 17164,4246 17174,4238 17208,4216 17213,4213 17219,4213 17230,4213 17239,4224 17239,4238 17239,4289 17197,4479 17157,4619 17158,4621 17159,4624 17160,4627 17183,4622 17205,4618 17227,4613 17234,4579 17241,4546 17247,4512 17272,4406 17297,4347 17353,4289 17393,4244 17437,4213 17465,4213 17471,4213 17477,4221 17477,4235 17477,4269 17454,4381 17415,4551 17409,4574 17404,4596 17398,4619 17400,4621 17402,4624 17404,4627 17426,4622 17449,4618 17471,4613 17478,4578 17484,4544 17491,4510 17507,4428 17541,4356 17583,4308 17636,4249 17687,4213 17717,4213 17726,4213 17731,4224 17731,4238 17731,4263 17729,4277 17706,4361 17692,4413 17678,4464 17664,4515 17656,4543 17650,4568 17650,4588 17650,4613 17661,4627 17681,4627 17706,4627 17743,4607 17838,4537 Z"/>
    </g>
   </g>
   <g class="com.sun.star.drawing.ClosedBezierShape">
    <g id="id16">
     <rect class="BoundingBox" stroke="none" fill="none" x="18117" y="4159" width="486" height="478"/>
     <path fill="rgb(0,0,0)" stroke="none" d="M 18602,4258 C 18602,4205 18571,4160 18535,4160 18526,4160 18521,4163 18510,4166 18479,4202 18462,4216 18445,4230 18448,4236 18451,4243 18454,4249 18462,4244 18476,4238 18490,4238 18512,4238 18526,4261 18526,4291 18526,4347 18504,4428 18470,4487 18437,4546 18400,4574 18358,4574 18316,4574 18294,4540 18294,4476 18294,4437 18300,4398 18314,4356 18333,4289 18361,4247 18417,4180 18412,4173 18408,4166 18403,4160 18392,4168 18364,4174 18342,4174 18300,4174 18232,4168 18210,4168 18193,4168 18179,4168 18160,4174 18146,4217 18132,4260 18118,4303 18127,4303 18136,4303 18146,4303 18155,4283 18164,4263 18174,4244 18176,4238 18188,4235 18216,4235 18280,4235 18316,4233 18350,4224 18336,4238 18322,4252 18308,4266 18216,4359 18185,4417 18185,4498 18185,4585 18230,4635 18302,4635 18356,4635 18412,4607 18462,4557 18543,4473 18602,4347 18602,4258 Z"/>
    </g>
   </g>
   <g class="com.sun.star.drawing.ClosedBezierShape">
    <g id="id17">
     <rect class="BoundingBox" stroke="none" fill="none" x="18708" y="3720" width="327" height="497"/>
     <path fill="rgb(0,0,0)" stroke="none" d="M 19033,4216 C 19030,4202 19030,4194 19030,4185 19030,4174 19030,4168 19033,4152 18950,4154 18867,4157 18784,4160 18828,4113 18872,4067 18915,4020 18985,3947 19005,3908 19005,3852 19005,3771 18949,3721 18859,3721 18806,3721 18773,3735 18736,3771 18733,3804 18729,3837 18725,3869 18732,3869 18738,3869 18745,3869 18748,3858 18752,3847 18756,3836 18767,3794 18792,3774 18840,3774 18901,3774 18941,3813 18941,3875 18941,3928 18910,3981 18829,4068 18789,4111 18748,4153 18708,4196 18708,4203 18708,4209 18708,4216 18761,4216 18815,4213 18868,4213 18924,4213 18977,4216 19033,4216 Z"/>
    </g>
   </g>
  </g>
 </g>
</svg>