<?xml version="1.0" encoding="UTF-8"?>
<!DOCTYPE svg PUBLIC "-//W3C//DTD SVG 1.1//EN" "http://www.w3.org/Graphics/SVG/1.1/DTD/svg11.dtd">
<svg version="1.2" viewBox="17691 13204 6878 4614" preserveAspectRatio="xMidYMid" fill-rule="evenodd" stroke-width="28.222" stroke-linejoin="round" xmlns="http://www.w3.org/2000/svg" xmlns:ooo="http://xml.openoffice.org/svg/export" xmlns:xlink="http://www.w3.org/1999/xlink" xmlns:presentation="http://sun.com/xmlns/staroffice/presentation" xmlns:smil="http://www.w3.org/2001/SMIL20/" xmlns:anim="urn:oasis:names:tc:opendocument:xmlns:animation:1.0" xmlns:svg="urn:oasis:names:tc:opendocument:xmlns:svg-compatible:1.0" xml:space="preserve">
 <defs class="EmbeddedBulletChars">
  <g id="bullet-char-template-57356" transform="scale(0.00048828125,-0.00048828125)">
   <path d="M 580,1141 L 1163,571 580,0 -4,571 580,1141 Z"/>
  </g>
  <g id="bullet-char-template-57354" transform="scale(0.00048828125,-0.00048828125)">
   <path d="M 8,1128 L 1137,1128 1137,0 8,0 8,1128 Z"/>
  </g>
  <g id="bullet-char-template-10146" transform="scale(0.00048828125,-0.00048828125)">
   <path d="M 174,0 L 602,739 174,1481 1456,739 174,0 Z M 1358,739 L 309,1346 659,739 1358,739 Z"/>
  </g>
  <g id="bullet-char-template-10132" transform="scale(0.00048828125,-0.00048828125)">
   <path d="M 2015,739 L 1276,0 717,0 1260,543 174,543 174,936 1260,936 717,1481 1274,1481 2015,739 Z"/>
  </g>
  <g id="bullet-char-template-10007" transform="scale(0.00048828125,-0.00048828125)">
   <path d="M 0,-2 C -7,14 -16,27 -25,37 L 356,567 C 262,823 215,952 215,954 215,979 228,992 255,992 264,992 276,990 289,987 310,991 331,999 354,1012 L 381,999 492,748 772,1049 836,1024 860,1049 C 881,1039 901,1025 922,1006 886,937 835,863 770,784 769,783 710,716 594,584 L 774,223 C 774,196 753,168 711,139 L 727,119 C 717,90 699,76 672,76 641,76 570,178 457,381 L 164,-76 C 142,-110 111,-127 72,-127 30,-127 9,-110 8,-76 1,-67 -2,-52 -2,-32 -2,-23 -1,-13 0,-2 Z"/>
  </g>
  <g id="bullet-char-template-10004" transform="scale(0.00048828125,-0.00048828125)">
   <path d="M 285,-33 C 182,-33 111,30 74,156 52,228 41,333 41,471 41,549 55,616 82,672 116,743 169,778 240,778 293,778 328,747 346,684 L 369,508 C 377,444 397,411 428,410 L 1163,1116 C 1174,1127 1196,1133 1229,1133 1271,1133 1292,1118 1292,1087 L 1292,965 C 1292,929 1282,901 1262,881 L 442,47 C 390,-6 338,-33 285,-33 Z"/>
  </g>
  <g id="bullet-char-template-9679" transform="scale(0.00048828125,-0.00048828125)">
   <path d="M 813,0 C 632,0 489,54 383,161 276,268 223,411 223,592 223,773 276,916 383,1023 489,1130 632,1184 813,1184 992,1184 1136,1130 1245,1023 1353,916 1407,772 1407,592 1407,412 1353,268 1245,161 1136,54 992,0 813,0 Z"/>
  </g>
  <g id="bullet-char-template-8226" transform="scale(0.00048828125,-0.00048828125)">
   <path d="M 346,457 C 273,457 209,483 155,535 101,586 74,649 74,723 74,796 101,859 155,911 209,963 273,989 346,989 419,989 480,963 531,910 582,859 608,796 608,723 608,648 583,586 532,535 482,483 420,457 346,457 Z"/>
  </g>
  <g id="bullet-char-template-8211" transform="scale(0.00048828125,-0.00048828125)">
   <path d="M -4,459 L 1135,459 1135,606 -4,606 -4,459 Z"/>
  </g>
  <g id="bullet-char-template-61548" transform="scale(0.00048828125,-0.00048828125)">
   <path d="M 173,740 C 173,903 231,1043 346,1159 462,1274 601,1332 765,1332 928,1332 1067,1274 1183,1159 1299,1043 1357,903 1357,740 1357,577 1299,437 1183,322 1067,206 928,148 765,148 601,148 462,206 346,322 231,437 173,577 173,740 Z"/>
  </g>
 </defs>
 <g ooo:name="page20" class="Page">
  <g class="com.sun.star.drawing.ClosedBezierShape">
   <g id="id3">
    <rect class="BoundingBox" stroke="none" fill="none" x="19103" y="13974" width="5175" height="3674"/>
    <path fill="rgb(187,187,187)" fill-opacity="0.251" stroke="none" d="M 19674,15000 L 19162,14786 C 19092,14907 19696,15308 19696,15448 19696,15588 19357,15584 19427,15706 19497,15828 19597,15927 19718,15997 20496,16446 21274,16895 22052,17344 22052,17345 22052,17345 22052,17345 22174,17415 22813,17651 22935,17581 23057,17511 22876,17031 23141,17053 23406,17075 23201,17576 23636,17427 24071,17278 24006,16942 24006,16942 24076,16821 23527,16311 23527,16171 23527,16031 24289,15846 24219,15725 24149,15604 23250,15551 23128,15481 22350,15032 21572,14582 20794,14133 L 20794,14134 C 20673,14064 20536,14027 20396,14027 20256,14027 20458,14738 20336,14808 20214,14878 19390,14025 19320,14146 19227,14308 19767,14839 19674,15000 Z"/>
    <g style="opacity: 0.8">
     <path fill="none" stroke="rgb(85,85,85)" stroke-width="106" stroke-linejoin="round" d="M 19674,15000 L 19162,14786 C 19092,14907 19696,15308 19696,15448 19696,15588 19357,15584 19427,15706 19497,15828 19597,15927 19718,15997 L 22052,17344 C 22052,17345 22052,17345 22052,17345 22174,17415 22813,17651 22935,17581 23057,17511 22876,17031 23141,17053 23406,17075 23201,17576 23636,17427 24071,17278 24006,16942 24006,16942 24076,16821 23527,16311 23527,16171 23527,16031 24289,15846 24219,15725 24149,15604 23250,15551 23128,15481 22350,15032 21572,14582 20794,14133 L 20794,14134 C 20673,14064 20536,14027 20396,14027 20256,14027 20458,14738 20336,14808 20214,14878 19390,14025 19320,14146 19227,14308 19767,14839 19674,15000 Z"/>
    </g>
   </g>
  </g>
  <g class="com.sun.star.drawing.PolyPolygonShape">
   <g id="id4">
    <rect class="BoundingBox" stroke="none" fill="none" x="21194" y="14995" width="1080" height="1819"/>
    <path fill="rgb(85,85,85)" fill-opacity="0.502" stroke="none" d="M 21240,16813 L 21217,16799 21194,16786 21273,16648 21296,16662 21319,16675 21240,16813 Z M 21346,16629 L 21323,16616 21300,16603 21379,16465 21402,16478 21425,16491 21346,16629 Z M 21452,16445 L 21429,16432 21406,16419 21485,16281 21508,16294 21531,16308 21452,16445 Z M 21558,16262 L 21535,16249 21512,16235 21591,16098 21614,16111 21637,16124 21558,16262 Z M 21664,16078 L 21641,16065 21618,16052 21697,15914 21720,15927 21743,15941 21664,16078 Z M 21770,15895 L 21747,15881 21724,15868 21803,15730 21826,15744 21849,15757 21770,15895 Z M 21876,15711 L 21853,15698 21830,15685 21909,15547 21932,15560 21955,15573 21876,15711 Z M 21982,15527 L 21959,15514 21936,15501 22015,15363 22038,15376 22061,15390 21982,15527 Z M 22088,15344 L 22065,15331 22042,15317 22121,15180 22144,15193 22167,15206 22088,15344 Z M 22194,15160 L 22171,15147 22148,15134 22227,14996 22250,15009 22273,15022 22194,15160 Z"/>
   </g>
  </g>
  <g class="Group">
   <g class="com.sun.star.drawing.ClosedBezierShape">
    <g id="id5">
     <rect class="BoundingBox" stroke="none" fill="none" x="22708" y="13693" width="315" height="500"/>
     <path fill="rgb(102,204,238)" stroke="none" d="M 23022,14019 C 23022,13985 23008,13957 22984,13939 22966,13927 22950,13921 22914,13915 22970,13871 22992,13839 22992,13797 22992,13735 22940,13693 22862,13693 22814,13693 22782,13707 22748,13741 22741,13770 22735,13798 22728,13827 22735,13827 22743,13827 22750,13827 22755,13814 22759,13802 22764,13789 22770,13765 22816,13741 22852,13741 22898,13741 22934,13777 22934,13821 22934,13875 22892,13919 22844,13919 22838,13919 22821,13918 22810,13917 22807,13929 22805,13941 22802,13953 22803,13954 22805,13956 22806,13957 22834,13945 22846,13943 22866,13943 22924,13943 22958,13979 22958,14043 22958,14115 22914,14161 22850,14161 22818,14161 22788,14151 22768,14131 22750,14117 22742,14101 22728,14063 22721,14065 22715,14067 22708,14069 22724,14113 22730,14137 22734,14173 22770,14185 22802,14191 22828,14191 22912,14191 23022,14117 23022,14019 Z"/>
    </g>
   </g>
   <g class="com.sun.star.drawing.ClosedBezierShape">
    <g id="id6">
     <rect class="BoundingBox" stroke="none" fill="none" x="23219" y="13691" width="560" height="501"/>
     <path fill="rgb(102,204,238)" stroke="none" d="M 23778,13713 C 23778,13706 23778,13698 23778,13691 23750,13693 23722,13693 23694,13693 23665,13693 23639,13693 23611,13691 23611,13698 23611,13706 23611,13713 23622,13714 23633,13714 23643,13715 23676,13717 23680,13723 23680,13777 23680,13887 23680,13997 23680,14107 23567,13968 23454,13830 23341,13691 23328,13692 23317,13693 23303,13693 23269,13693 23247,13692 23219,13691 23219,13698 23219,13706 23219,13713 23229,13714 23239,13714 23249,13715 23281,13717 23285,13723 23285,13777 23285,13882 23285,13988 23285,14093 23285,14147 23281,14153 23249,14155 23239,14156 23229,14156 23219,14157 23219,14164 23219,14172 23219,14179 23245,14177 23273,14177 23301,14177 23329,14177 23357,14177 23385,14179 23385,14172 23385,14164 23385,14157 23375,14156 23364,14156 23353,14155 23321,14153 23317,14147 23317,14093 23317,13984 23317,13876 23317,13767 23428,13904 23539,14042 23649,14179 23671,14183 23692,14187 23714,14191 23714,14183 23712,14171 23712,14165 23712,14036 23712,13906 23712,13777 23712,13723 23716,13717 23748,13715 23758,13714 23768,13714 23778,13713 Z"/>
    </g>
   </g>
   <g class="com.sun.star.drawing.ClosedBezierShape">
    <g id="id7">
     <rect class="BoundingBox" stroke="none" fill="none" x="24001" y="13947" width="81" height="81"/>
     <path fill="rgb(102,204,238)" stroke="none" d="M 24081,13987 C 24081,13967 24061,13947 24041,13947 24019,13947 24001,13966 24001,13987 24001,14008 24019,14027 24041,14027 24063,14027 24081,14009 24081,13987 Z"/>
    </g>
   </g>
   <g class="com.sun.star.drawing.ClosedBezierShape">
    <g id="id8">
     <rect class="BoundingBox" stroke="none" fill="none" x="24314" y="13847" width="255" height="345"/>
     <path fill="rgb(102,204,238)" stroke="none" d="M 24568,14073 C 24568,14051 24562,14035 24548,14021 24530,14003 24506,13995 24444,13983 24388,13971 24368,13957 24368,13925 24368,13891 24392,13871 24436,13871 24482,13871 24518,13895 24518,13929 24518,13934 24518,13940 24518,13945 24525,13945 24532,13945 24538,13945 24538,13903 24540,13887 24542,13865 24504,13853 24480,13847 24450,13847 24368,13847 24318,13887 24318,13949 24318,13983 24334,14007 24366,14021 24386,14031 24422,14041 24470,14051 24502,14059 24516,14073 24516,14101 24516,14139 24480,14165 24430,14165 24380,14165 24342,14141 24342,14105 24342,14096 24342,14086 24342,14077 24335,14077 24329,14077 24322,14077 24322,14125 24320,14145 24314,14173 24350,14185 24378,14191 24410,14191 24502,14191 24568,14141 24568,14073 Z"/>
    </g>
   </g>
  </g>
  <g class="Group">
   <g class="com.sun.star.drawing.ClosedBezierShape">
    <g id="id9">
     <rect class="BoundingBox" stroke="none" fill="none" x="18399" y="17318" width="315" height="500"/>
     <path fill="rgb(102,204,238)" stroke="none" d="M 18713,17648 C 18713,17568 18662,17514 18586,17514 18544,17514 18517,17532 18470,17570 18487,17442 18546,17374 18674,17336 18674,17334 18674,17332 18674,17330 18665,17326 18656,17322 18648,17318 18580,17340 18550,17354 18513,17386 18440,17446 18399,17532 18399,17628 18399,17744 18458,17816 18550,17816 18641,17816 18713,17744 18713,17648 Z M 18650,17672 C 18650,17746 18613,17792 18558,17792 18499,17792 18464,17742 18464,17648 18464,17622 18468,17610 18476,17598 18491,17574 18525,17556 18560,17556 18613,17556 18650,17604 18650,17672 Z"/>
    </g>
   </g>
   <g class="com.sun.star.drawing.ClosedBezierShape">
    <g id="id10">
     <rect class="BoundingBox" stroke="none" fill="none" x="18906" y="17316" width="569" height="501"/>
     <path fill="rgb(102,204,238)" stroke="none" d="M 19474,17338 C 19474,17331 19474,17323 19474,17316 19446,17318 19417,17318 19389,17318 19360,17318 19334,17318 19305,17316 19305,17323 19305,17331 19305,17338 19316,17339 19327,17339 19338,17340 19370,17342 19374,17348 19374,17402 19374,17512 19374,17622 19374,17732 19260,17593 19145,17455 19030,17316 19017,17317 19006,17318 18992,17318 18957,17318 18935,17317 18906,17316 18906,17323 18906,17331 18906,17338 18916,17339 18926,17339 18937,17340 18969,17342 18973,17348 18973,17402 18973,17507 18973,17613 18973,17718 18973,17772 18969,17778 18937,17780 18926,17781 18916,17782 18906,17782 18906,17790 18906,17797 18906,17804 18932,17802 18961,17802 18990,17802 19018,17802 19047,17802 19075,17804 19075,17797 19075,17790 19075,17782 19064,17782 19053,17781 19042,17780 19010,17778 19006,17772 19006,17718 19006,17609 19006,17501 19006,17392 19119,17529 19231,17667 19344,17804 19366,17808 19387,17812 19409,17816 19409,17808 19407,17796 19407,17790 19407,17661 19407,17531 19407,17402 19407,17348 19411,17342 19444,17340 19454,17339 19464,17339 19474,17338 Z"/>
    </g>
   </g>
   <g class="com.sun.star.drawing.ClosedBezierShape">
    <g id="id11">
     <rect class="BoundingBox" stroke="none" fill="none" x="19703" y="17571" width="82" height="82"/>
     <path fill="rgb(102,204,238)" stroke="none" d="M 19784,17612 C 19784,17592 19764,17572 19744,17572 19721,17572 19703,17591 19703,17612 19703,17633 19721,17652 19744,17652 19766,17652 19784,17634 19784,17612 Z"/>
    </g>
   </g>
   <g class="com.sun.star.drawing.ClosedBezierShape">
    <g id="id12">
     <rect class="BoundingBox" stroke="none" fill="none" x="20020" y="17472" width="260" height="345"/>
     <path fill="rgb(102,204,238)" stroke="none" d="M 20279,17698 C 20279,17676 20273,17660 20258,17646 20240,17628 20216,17620 20152,17608 20095,17596 20075,17582 20075,17550 20075,17516 20099,17496 20144,17496 20191,17496 20228,17520 20228,17554 20228,17559 20228,17565 20228,17570 20235,17570 20241,17570 20248,17570 20248,17528 20250,17512 20252,17490 20214,17478 20189,17472 20159,17472 20075,17472 20024,17512 20024,17574 20024,17608 20040,17632 20073,17646 20093,17656 20130,17666 20179,17676 20211,17684 20226,17698 20226,17726 20226,17764 20189,17790 20138,17790 20087,17790 20049,17766 20049,17730 20049,17721 20049,17711 20049,17702 20042,17702 20035,17702 20028,17702 20028,17750 20026,17770 20020,17798 20057,17810 20085,17816 20118,17816 20211,17816 20279,17766 20279,17698 Z"/>
    </g>
   </g>
  </g>
  <g class="com.sun.star.drawing.LineShape">
   <g id="id13">
    <rect class="BoundingBox" stroke="none" fill="none" x="20916" y="13204" width="1829" height="1829"/>
    <path fill="none" stroke="rgb(102,204,238)" stroke-width="106" stroke-linejoin="round" d="M 20969,14979 L 22397,13551"/>
    <path fill="rgb(102,204,238)" stroke="none" d="M 22562,13707 L 22741,13242 22743,13225 22738,13212 22723,13205 22708,13206 22241,13386 22235,13389 22233,13392 22227,13400 22225,13410 22226,13420 22231,13428 22520,13717 22528,13722 22539,13725 22548,13721 22556,13715 22559,13713 22562,13707 Z"/>
   </g>
  </g>
  <g class="com.sun.star.drawing.LineShape">
   <g id="id14">
    <rect class="BoundingBox" stroke="none" fill="none" x="17691" y="16944" width="5054" height="459"/>
    <path fill="none" stroke="rgb(102,204,238)" stroke-width="106" stroke-linejoin="round" d="M 22691,17173 L 18171,17173"/>
    <path fill="rgb(102,204,238)" stroke="none" d="M 18166,16946 L 17710,17149 17696,17159 17691,17172 17696,17187 17708,17197 18166,17400 18172,17402 18175,17402 18185,17400 18194,17394 18200,17387 18202,17377 18202,16969 18200,16959 18194,16950 18185,16946 18175,16944 18172,16944 18166,16946 Z"/>
   </g>
  </g>
 </g>
</svg>