<?xml version="1.0" encoding="UTF-8" standalone="no"?>
<!-- Uploaded to: SVG Repo, www.svgrepo.com, Generator: SVG Repo Mixer Tools -->

<svg
   height="799.99908"
   width="585.23669"
   version="1.1"
   id="Layer_1"
   viewBox="0 0 284.00001 388.21856"
   xml:space="preserve"
   sodipodi:docname="flame-danger-svgrepo-com.svg"
   inkscape:version="1.4.3 (1:1.4.3+202512261035+0d15f75042)"
   xmlns:inkscape="http://www.inkscape.org/namespaces/inkscape"
   xmlns:sodipodi="http://sodipodi.sourceforge.net/DTD/sodipodi-0.dtd"
   xmlns="http://www.w3.org/2000/svg"
   xmlns:svg="http://www.w3.org/2000/svg"><defs
   id="defs6" /><sodipodi:namedview
   id="namedview6"
   pagecolor="#ffffff"
   bordercolor="#000000"
   borderopacity="0.25"
   inkscape:showpageshadow="2"
   inkscape:pageopacity="0.0"
   inkscape:pagecheckerboard="0"
   inkscape:deskcolor="#d1d1d1"
   inkscape:zoom="1.1875"
   inkscape:cx="291.78947"
   inkscape:cy="400"
   inkscape:window-width="1890"
   inkscape:window-height="1172"
   inkscape:window-x="0"
   inkscape:window-y="0"
   inkscape:window-maximized="1"
   inkscape:current-layer="Layer_1" />
<path
   style="fill:#ff793b"
   d="m 108,182.61856 c 0.8,6.8 -6,11.6 -12,8 -22,-12.8 -32.8,-36.4 -47.2,-56.8 -23.2,36.8 -40.8,72.4 -40.8,110.4 0,77.2 54.8,136 132,136 77.2,0 136,-58.8 136,-136 0,-96.8 -101.2,-113.6 -100,-236.0000009 C 135.2,37.018559 96.8,101.41856 108,182.61856 Z"
   id="path1" />
<path
   style="fill:#c6490f"
   d="m 140,388.21856 c -81.2,0 -140,-60.4 -140,-144 0,-42 20.4,-80 42,-114.8 1.6,-2.4 4,-3.6 6.4,-3.6 2.8,0 5.2,1.2 6.8,3.2 3.6,4.8 6.8,10 10,15.2 10,15.6 19.6,30.4 34.8,39.2 v 0 c -11.6,-82.8 27.6,-151.200001 71.2,-182.0000009 2.4,-1.59999997 5.6,-1.99999997 8.4,-0.4 2.8,1.2 4.4,4 4.4,7.2 -0.8,61.9999999 26.4,96.0000009 52.4,128.4000009 23.6,29.2 47.6,59.2 47.6,107.6 0,82 -62,144 -144,144 z m -90.8,-239.6 c -18,29.6 -33.2,61.6 -33.2,95.6 0,74 52,128 124,128 72.8,0 128,-55.2 128,-128 0,-42.8 -20.4,-68 -44,-97.6 -24.4,-30.4 -51.6,-64.400001 -55.6,-122.000001 -34.4,31.2 -62,88.400001 -52.4,156.800001 v 0 c 0.8,6.4 -2,12.4 -7.2,15.6 -5.2,3.2 -11.6,3.2 -16.8,0 -18.4,-10.8 -29.2,-28 -40,-44.4 -1.2,-1.2 -2,-2.4 -2.8,-4 z"
   id="path2" />
<path
   style="fill:#ff793b"
   d="m 226,304.21856 c 14,-21.6 22,-47.6 22,-76"
   id="path3" />
<path
   style="fill:#c6490f"
   d="m 226,312.21856 c -1.6,0 -3.2,-0.4 -4.4,-1.2 -3.6,-2.4 -4.8,-7.2 -2.4,-11.2 13.6,-20.8 20.8,-45.6 20.8,-71.6 0,-4.4 3.6,-8 8,-8 4.4,0 8,3.6 8,8 0,29.2 -8,56.8 -23.2,80.4 -1.6,2.4 -4,3.6 -6.8,3.6 z"
   id="path4" />
<path
   style="fill:#ff793b"
   d="m 201.6,332.21856 c 2.8,-2.4 6,-5.2 8.4,-8"
   id="path5" />
<path
   style="fill:#c6490f"
   d="m 201.6,340.21856 c -2.4,0 -4.4,-0.8 -6,-2.8 -2.8,-3.2 -2.4,-8.4 0.8,-11.2 2.4,-2.4 5.6,-4.8 7.6,-7.2 2.8,-3.2 8,-3.6 11.2,-0.8 3.2,2.8 3.6,8 0.8,11.2 -2.8,3.2 -6.4,6.4 -9.2,8.8 -1.6,1.2 -3.2,2 -5.2,2 z"
   id="path6" />
</svg>
