<?xml version="1.0" encoding="UTF-8"?>
<!DOCTYPE svg PUBLIC "-//W3C//DTD SVG 1.1//EN" "http://www.w3.org/Graphics/SVG/1.1/DTD/svg11.dtd">
<svg version="1.2" viewBox="5376 668 7551 8501" preserveAspectRatio="xMidYMid" fill-rule="evenodd" stroke-width="28.222" stroke-linejoin="round" xmlns="http://www.w3.org/2000/svg" xmlns:ooo="http://xml.openoffice.org/svg/export" xmlns:xlink="http://www.w3.org/1999/xlink" xmlns:presentation="http://sun.com/xmlns/staroffice/presentation" xmlns:smil="http://www.w3.org/2001/SMIL20/" xmlns:anim="urn:oasis:names:tc:opendocument:xmlns:animation:1.0" xmlns:svg="urn:oasis:names:tc:opendocument:xmlns:svg-compatible:1.0" xml:space="preserve">
 <defs class="EmbeddedBulletChars">
  <g id="bullet-char-template-57356" transform="scale(0.00048828125,-0.00048828125)">
   <path d="M 580,1141 L 1163,571 580,0 -4,571 580,1141 Z"/>
  </g>
  <g id="bullet-char-template-57354" transform="scale(0.00048828125,-0.00048828125)">
   <path d="M 8,1128 L 1137,1128 1137,0 8,0 8,1128 Z"/>
  </g>
  <g id="bullet-char-template-10146" transform="scale(0.00048828125,-0.00048828125)">
   <path d="M 174,0 L 602,739 174,1481 1456,739 174,0 Z M 1358,739 L 309,1346 659,739 1358,739 Z"/>
  </g>
  <g id="bullet-char-template-10132" transform="scale(0.00048828125,-0.00048828125)">
   <path d="M 2015,739 L 1276,0 717,0 1260,543 174,543 174,936 1260,936 717,1481 1274,1481 2015,739 Z"/>
  </g>
  <g id="bullet-char-template-10007" transform="scale(0.00048828125,-0.00048828125)">
   <path d="M 0,-2 C -7,14 -16,27 -25,37 L 356,567 C 262,823 215,952 215,954 215,979 228,992 255,992 264,992 276,990 289,987 310,991 331,999 354,1012 L 381,999 492,748 772,1049 836,1024 860,1049 C 881,1039 901,1025 922,1006 886,937 835,863 770,784 769,783 710,716 594,584 L 774,223 C 774,196 753,168 711,139 L 727,119 C 717,90 699,76 672,76 641,76 570,178 457,381 L 164,-76 C 142,-110 111,-127 72,-127 30,-127 9,-110 8,-76 1,-67 -2,-52 -2,-32 -2,-23 -1,-13 0,-2 Z"/>
  </g>
  <g id="bullet-char-template-10004" transform="scale(0.00048828125,-0.00048828125)">
   <path d="M 285,-33 C 182,-33 111,30 74,156 52,228 41,333 41,471 41,549 55,616 82,672 116,743 169,778 240,778 293,778 328,747 346,684 L 369,508 C 377,444 397,411 428,410 L 1163,1116 C 1174,1127 1196,1133 1229,1133 1271,1133 1292,1118 1292,1087 L 1292,965 C 1292,929 1282,901 1262,881 L 442,47 C 390,-6 338,-33 285,-33 Z"/>
  </g>
  <g id="bullet-char-template-9679" transform="scale(0.00048828125,-0.00048828125)">
   <path d="M 813,0 C 632,0 489,54 383,161 276,268 223,411 223,592 223,773 276,916 383,1023 489,1130 632,1184 813,1184 992,1184 1136,1130 1245,1023 1353,916 1407,772 1407,592 1407,412 1353,268 1245,161 1136,54 992,0 813,0 Z"/>
  </g>
  <g id="bullet-char-template-8226" transform="scale(0.00048828125,-0.00048828125)">
   <path d="M 346,457 C 273,457 209,483 155,535 101,586 74,649 74,723 74,796 101,859 155,911 209,963 273,989 346,989 419,989 480,963 531,910 582,859 608,796 608,723 608,648 583,586 532,535 482,483 420,457 346,457 Z"/>
  </g>
  <g id="bullet-char-template-8211" transform="scale(0.00048828125,-0.00048828125)">
   <path d="M -4,459 L 1135,459 1135,606 -4,606 -4,459 Z"/>
  </g>
  <g id="bullet-char-template-61548" transform="scale(0.00048828125,-0.00048828125)">
   <path d="M 173,740 C 173,903 231,1043 346,1159 462,1274 601,1332 765,1332 928,1332 1067,1274 1183,1159 1299,1043 1357,903 1357,740 1357,577 1299,437 1183,322 1067,206 928,148 765,148 601,148 462,206 346,322 231,437 173,577 173,740 Z"/>
  </g>
 </defs>
 <g ooo:name="page6" class="Page">
  <g class="com.sun.star.drawing.OpenBezierShape">
   <g id="id3">
    <rect class="BoundingBox" stroke="none" fill="none" x="5376" y="668" width="4031" height="8501"/>
    <g style="opacity: 0.749019607843137">
     <path fill="none" stroke="rgb(85,85,85)" stroke-width="159" stroke-linejoin="round" d="M 7085,748 C 7296,2265 7276,3571 7909,4167 8542,4763 9577,5606 9270,6605 8964,7604 6913,10101 5456,8640"/>
    </g>
   </g>
  </g>
  <g class="com.sun.star.drawing.OpenBezierShape">
   <g id="id4">
    <rect class="BoundingBox" stroke="none" fill="none" x="6501" y="4133" width="4302" height="1426"/>
    <path fill="none" stroke="rgb(68,119,170)" stroke-width="81" stroke-linejoin="round" stroke-linecap="round" d="M 6542,5517 C 7370,5244 7115,5079 7784,4867 8381,4671 8598,5103 9259,4890 9906,4682 9711,4580 10176,4374"/>
    <path fill="rgb(68,119,170)" stroke="none" d="M 10259,4556 L 10241,4619 10802,4133 10060,4153 10113,4186 10163,4231 10206,4285 10238,4349 10259,4417 10264,4488 10259,4556 Z"/>
   </g>
  </g>
  <g class="Group">
   <g class="com.sun.star.drawing.ClosedBezierShape">
    <g id="id5">
     <rect class="BoundingBox" stroke="none" fill="none" x="9954" y="4702" width="727" height="1072"/>
     <path fill="rgb(68,119,170)" stroke="none" d="M 10680,5773 C 10680,5758 10680,5744 10680,5729 10655,5728 10630,5726 10605,5725 10531,5716 10513,5698 10513,5606 10513,5568 10513,5530 10513,5492 10601,5492 10636,5492 10680,5497 10680,5460 10680,5423 10680,5387 10637,5388 10601,5391 10553,5391 10539,5391 10526,5391 10513,5391 10513,5320 10513,5248 10513,5176 10513,4904 10513,4773 10522,4707 10516,4705 10510,4704 10504,4703 10466,4716 10428,4729 10390,4742 10245,4979 10100,5216 9955,5453 9961,5466 9967,5479 9973,5492 10109,5492 10245,5492 10381,5492 10381,5530 10381,5568 10381,5606 10381,5698 10364,5720 10289,5725 10257,5726 10224,5728 10192,5729 10192,5744 10192,5758 10192,5773 10276,5769 10359,5769 10443,5769 10522,5769 10601,5769 10680,5773 Z M 10381,5391 C 10271,5391 10161,5391 10052,5391 10161,5211 10271,5032 10381,4852 10381,5032 10381,5211 10381,5391 Z"/>
    </g>
   </g>
   <g class="com.sun.star.drawing.ClosedBezierShape">
    <g id="id6">
     <rect class="BoundingBox" stroke="none" fill="none" x="11040" y="4702" width="503" height="1366"/>
     <path fill="rgb(68,119,170)" stroke="none" d="M 11541,4751 C 11541,4735 11541,4719 11541,4703 11466,4707 11392,4707 11317,4707 11242,4707 11168,4707 11093,4703 11093,4719 11093,4735 11093,4751 11116,4752 11140,4754 11163,4755 11238,4760 11242,4773 11242,4891 11242,5192 11242,5494 11242,5795 11242,5922 11220,5970 11159,5970 11124,5970 11093,5962 11058,5940 11052,5943 11046,5945 11040,5948 11043,5986 11046,6024 11049,6062 11061,6064 11072,6065 11084,6067 11087,6067 11090,6067 11093,6067 11146,6067 11238,6019 11295,5944 11370,5852 11392,5773 11392,5589 11392,5356 11392,5124 11392,4891 11392,4773 11396,4760 11471,4755 11494,4754 11518,4752 11541,4751 Z"/>
    </g>
   </g>
   <g class="com.sun.star.drawing.ClosedBezierShape">
    <g id="id7">
     <rect class="BoundingBox" stroke="none" fill="none" x="11677" y="4628" width="547" height="1454"/>
     <path fill="rgb(68,119,170)" stroke="none" d="M 11677,6080 C 11705,6080 11733,6080 11761,6080 11914,5596 12068,5112 12222,4628 12193,4628 12163,4628 12134,4628 11982,5112 11830,5596 11677,6080 Z"/>
    </g>
   </g>
   <g class="com.sun.star.drawing.ClosedBezierShape">
    <g id="id8">
     <rect class="BoundingBox" stroke="none" fill="none" x="12367" y="5049" width="560" height="752"/>
     <path fill="rgb(68,119,170)" stroke="none" d="M 12925,5540 C 12925,5492 12912,5457 12881,5426 12842,5387 12789,5369 12657,5343 12530,5321 12486,5290 12486,5216 12486,5141 12543,5097 12635,5097 12740,5097 12815,5150 12815,5225 12815,5236 12815,5248 12815,5260 12830,5260 12844,5260 12859,5260 12863,5172 12863,5132 12868,5084 12784,5058 12732,5049 12666,5049 12490,5049 12380,5132 12380,5268 12380,5343 12415,5396 12486,5431 12525,5448 12609,5470 12714,5497 12780,5510 12811,5540 12811,5602 12811,5685 12736,5742 12626,5742 12512,5742 12433,5690 12433,5611 12433,5590 12433,5570 12433,5549 12417,5549 12401,5549 12385,5549 12385,5654 12380,5703 12367,5764 12451,5790 12508,5799 12578,5799 12780,5799 12925,5694 12925,5540 Z"/>
    </g>
   </g>
  </g>
 </g>
</svg>