<?xml version="1.0" encoding="UTF-8"?>
<!DOCTYPE svg PUBLIC "-//W3C//DTD SVG 1.1//EN" "http://www.w3.org/Graphics/SVG/1.1/DTD/svg11.dtd">
<svg version="1.2" viewBox="778 5140 12253 10760" preserveAspectRatio="xMidYMid" fill-rule="evenodd" stroke-width="28.222" stroke-linejoin="round" xmlns="http://www.w3.org/2000/svg" xmlns:ooo="http://xml.openoffice.org/svg/export" xmlns:xlink="http://www.w3.org/1999/xlink" xmlns:presentation="http://sun.com/xmlns/staroffice/presentation" xmlns:smil="http://www.w3.org/2001/SMIL20/" xmlns:anim="urn:oasis:names:tc:opendocument:xmlns:animation:1.0" xmlns:svg="urn:oasis:names:tc:opendocument:xmlns:svg-compatible:1.0" xml:space="preserve">
 <defs class="EmbeddedBulletChars">
  <g id="bullet-char-template-57356" transform="scale(0.00048828125,-0.00048828125)">
   <path d="M 580,1141 L 1163,571 580,0 -4,571 580,1141 Z"/>
  </g>
  <g id="bullet-char-template-57354" transform="scale(0.00048828125,-0.00048828125)">
   <path d="M 8,1128 L 1137,1128 1137,0 8,0 8,1128 Z"/>
  </g>
  <g id="bullet-char-template-10146" transform="scale(0.00048828125,-0.00048828125)">
   <path d="M 174,0 L 602,739 174,1481 1456,739 174,0 Z M 1358,739 L 309,1346 659,739 1358,739 Z"/>
  </g>
  <g id="bullet-char-template-10132" transform="scale(0.00048828125,-0.00048828125)">
   <path d="M 2015,739 L 1276,0 717,0 1260,543 174,543 174,936 1260,936 717,1481 1274,1481 2015,739 Z"/>
  </g>
  <g id="bullet-char-template-10007" transform="scale(0.00048828125,-0.00048828125)">
   <path d="M 0,-2 C -7,14 -16,27 -25,37 L 356,567 C 262,823 215,952 215,954 215,979 228,992 255,992 264,992 276,990 289,987 310,991 331,999 354,1012 L 381,999 492,748 772,1049 836,1024 860,1049 C 881,1039 901,1025 922,1006 886,937 835,863 770,784 769,783 710,716 594,584 L 774,223 C 774,196 753,168 711,139 L 727,119 C 717,90 699,76 672,76 641,76 570,178 457,381 L 164,-76 C 142,-110 111,-127 72,-127 30,-127 9,-110 8,-76 1,-67 -2,-52 -2,-32 -2,-23 -1,-13 0,-2 Z"/>
  </g>
  <g id="bullet-char-template-10004" transform="scale(0.00048828125,-0.00048828125)">
   <path d="M 285,-33 C 182,-33 111,30 74,156 52,228 41,333 41,471 41,549 55,616 82,672 116,743 169,778 240,778 293,778 328,747 346,684 L 369,508 C 377,444 397,411 428,410 L 1163,1116 C 1174,1127 1196,1133 1229,1133 1271,1133 1292,1118 1292,1087 L 1292,965 C 1292,929 1282,901 1262,881 L 442,47 C 390,-6 338,-33 285,-33 Z"/>
  </g>
  <g id="bullet-char-template-9679" transform="scale(0.00048828125,-0.00048828125)">
   <path d="M 813,0 C 632,0 489,54 383,161 276,268 223,411 223,592 223,773 276,916 383,1023 489,1130 632,1184 813,1184 992,1184 1136,1130 1245,1023 1353,916 1407,772 1407,592 1407,412 1353,268 1245,161 1136,54 992,0 813,0 Z"/>
  </g>
  <g id="bullet-char-template-8226" transform="scale(0.00048828125,-0.00048828125)">
   <path d="M 346,457 C 273,457 209,483 155,535 101,586 74,649 74,723 74,796 101,859 155,911 209,963 273,989 346,989 419,989 480,963 531,910 582,859 608,796 608,723 608,648 583,586 532,535 482,483 420,457 346,457 Z"/>
  </g>
  <g id="bullet-char-template-8211" transform="scale(0.00048828125,-0.00048828125)">
   <path d="M -4,459 L 1135,459 1135,606 -4,606 -4,459 Z"/>
  </g>
  <g id="bullet-char-template-61548" transform="scale(0.00048828125,-0.00048828125)">
   <path d="M 173,740 C 173,903 231,1043 346,1159 462,1274 601,1332 765,1332 928,1332 1067,1274 1183,1159 1299,1043 1357,903 1357,740 1357,577 1299,437 1183,322 1067,206 928,148 765,148 601,148 462,206 346,322 231,437 173,577 173,740 Z"/>
  </g>
 </defs>
 <g ooo:name="page65" class="Page">
  <g class="com.sun.star.drawing.CustomShape">
   <g id="id3">
    <rect class="BoundingBox" stroke="none" fill="none" x="3137" y="6727" width="7596" height="7596"/>
    <path fill="rgb(187,187,187)" fill-opacity="0.251" stroke="none" d="M 6935,14269 L 3190,14269 3190,6780 10679,6780 10679,14269 6935,14269 Z"/>
    <g style="opacity: 0.8">
     <path fill="none" stroke="rgb(119,119,119)" stroke-width="106" stroke-linejoin="round" d="M 6935,14269 L 3190,14269 3190,6780 10679,6780 10679,14269 6935,14269 Z"/>
    </g>
   </g>
  </g>
  <g class="com.sun.star.drawing.LineShape">
   <g id="id4">
    <rect class="BoundingBox" stroke="none" fill="none" x="5849" y="6000" width="2093" height="651"/>
    <path fill="none" stroke="rgb(170,51,119)" stroke-width="159" stroke-linejoin="round" d="M 5929,6325 L 7259,6325"/>
    <path fill="rgb(170,51,119)" stroke="none" d="M 7267,6647 L 7914,6359 7933,6345 7941,6327 7933,6305 7917,6291 7267,6003 7259,6000 7254,6000 7240,6003 7227,6011 7218,6022 7216,6035 7216,6615 7218,6628 7227,6642 7240,6647 7254,6650 7259,6650 7267,6647 Z"/>
   </g>
  </g>
  <g class="com.sun.star.drawing.LineShape">
   <g id="id5">
    <rect class="BoundingBox" stroke="none" fill="none" x="5849" y="14400" width="2093" height="651"/>
    <path fill="none" stroke="rgb(170,51,119)" stroke-width="159" stroke-linejoin="round" d="M 5929,14725 L 7259,14725"/>
    <path fill="rgb(170,51,119)" stroke="none" d="M 7267,15047 L 7914,14759 7933,14745 7941,14727 7933,14705 7917,14691 7267,14403 7259,14400 7254,14400 7240,14403 7227,14411 7218,14422 7216,14435 7216,15015 7218,15028 7227,15042 7240,15047 7254,15050 7259,15050 7267,15047 Z"/>
   </g>
  </g>
  <g class="com.sun.star.drawing.LineShape">
   <g id="id6">
    <rect class="BoundingBox" stroke="none" fill="none" x="778" y="10200" width="2093" height="651"/>
    <path fill="none" stroke="rgb(170,51,119)" stroke-width="159" stroke-linejoin="round" d="M 858,10525 L 2188,10525"/>
    <path fill="rgb(170,51,119)" stroke="none" d="M 2196,10847 L 2843,10559 2862,10545 2870,10527 2862,10505 2846,10491 2196,10203 2188,10200 2183,10200 2169,10203 2156,10211 2147,10222 2145,10235 2145,10815 2147,10828 2156,10842 2169,10847 2183,10850 2188,10850 2196,10847 Z"/>
   </g>
  </g>
  <g class="com.sun.star.drawing.LineShape">
   <g id="id7">
    <rect class="BoundingBox" stroke="none" fill="none" x="10938" y="10200" width="2093" height="651"/>
    <path fill="none" stroke="rgb(170,51,119)" stroke-width="159" stroke-linejoin="round" d="M 11018,10525 L 12348,10525"/>
    <path fill="rgb(170,51,119)" stroke="none" d="M 12356,10847 L 13003,10559 13022,10545 13030,10527 13022,10505 13006,10491 12356,10203 12348,10200 12343,10200 12329,10203 12316,10211 12307,10222 12305,10235 12305,10815 12307,10828 12316,10842 12329,10847 12343,10850 12348,10850 12356,10847 Z"/>
   </g>
  </g>
  <g class="com.sun.star.drawing.OpenBezierShape">
   <g id="id8">
    <rect class="BoundingBox" stroke="none" fill="none" x="8301" y="5140" width="596" height="2973"/>
    <g style="opacity: 0.749019607843137">
     <path fill="none" stroke="rgb(238,102,119)" stroke-width="81" stroke-linejoin="round" stroke-linecap="round" d="M 8535,8071 C 8532,7540 8389,7657 8391,7229 8388,6847 8679,6802 8679,6379 8679,5965 8626,6067 8586,5932"/>
     <path fill="rgb(238,102,119)" stroke="none" d="M 8827,5892 L 8895,5930 8483,5141 8301,6012 8355,5959 8421,5913 8496,5878 8579,5858 8665,5853 8748,5866 8827,5892 Z"/>
    </g>
   </g>
  </g>
  <g class="com.sun.star.drawing.OpenBezierShape">
   <g id="id9">
    <rect class="BoundingBox" stroke="none" fill="none" x="8365" y="12927" width="596" height="2973"/>
    <g style="opacity: 0.749019607843137">
     <path fill="none" stroke="rgb(238,102,119)" stroke-width="81" stroke-linejoin="round" stroke-linecap="round" d="M 8599,12968 C 8596,13499 8453,13382 8455,13810 8452,14192 8743,14237 8743,14660 8743,15074 8690,14972 8650,15107"/>
     <path fill="rgb(238,102,119)" stroke="none" d="M 8421,15082 L 8365,15027 8549,15899 8959,15109 8893,15145 8817,15171 8736,15185 8650,15182 8566,15164 8489,15128 8421,15082 Z"/>
    </g>
   </g>
  </g>
  <g class="com.sun.star.drawing.OpenBezierShape">
   <g id="id10">
    <rect class="BoundingBox" stroke="none" fill="none" x="1489" y="11279" width="2973" height="596"/>
    <g style="opacity: 0.749019607843137">
     <path fill="none" stroke="rgb(238,102,119)" stroke-width="81" stroke-linejoin="round" stroke-linecap="round" d="M 4420,11513 C 3889,11510 4006,11367 3578,11369 3196,11366 3151,11657 2728,11657 2314,11657 2416,11604 2281,11564"/>
     <path fill="rgb(238,102,119)" stroke="none" d="M 2306,11335 L 2361,11279 1489,11463 2279,11873 2243,11807 2217,11731 2203,11650 2206,11564 2224,11480 2260,11403 2306,11335 Z"/>
    </g>
   </g>
  </g>
  <g class="com.sun.star.drawing.OpenBezierShape">
   <g id="id11">
    <rect class="BoundingBox" stroke="none" fill="none" x="9376" y="11343" width="2973" height="596"/>
    <g style="opacity: 0.749019607843137">
     <path fill="none" stroke="rgb(238,102,119)" stroke-width="81" stroke-linejoin="round" stroke-linecap="round" d="M 9417,11577 C 9948,11574 9831,11431 10259,11433 10641,11430 10686,11721 11109,11721 11523,11721 11421,11668 11556,11628"/>
     <path fill="rgb(238,102,119)" stroke="none" d="M 11596,11869 L 11558,11937 12347,11525 11476,11343 11529,11397 11575,11463 11610,11538 11630,11621 11635,11707 11622,11790 11596,11869 Z"/>
    </g>
   </g>
  </g>
 </g>
</svg>