<?xml version="1.0" encoding="UTF-8"?>
<!DOCTYPE svg PUBLIC "-//W3C//DTD SVG 1.1//EN" "http://www.w3.org/Graphics/SVG/1.1/DTD/svg11.dtd">
<svg version="1.2" viewBox="15378 6003 7509 8501" preserveAspectRatio="xMidYMid" fill-rule="evenodd" stroke-width="28.222" stroke-linejoin="round" xmlns="http://www.w3.org/2000/svg" xmlns:ooo="http://xml.openoffice.org/svg/export" xmlns:xlink="http://www.w3.org/1999/xlink" xmlns:presentation="http://sun.com/xmlns/staroffice/presentation" xmlns:smil="http://www.w3.org/2001/SMIL20/" xmlns:anim="urn:oasis:names:tc:opendocument:xmlns:animation:1.0" xmlns:svg="urn:oasis:names:tc:opendocument:xmlns:svg-compatible:1.0" xml:space="preserve">
 <defs class="EmbeddedBulletChars">
  <g id="bullet-char-template-57356" transform="scale(0.00048828125,-0.00048828125)">
   <path d="M 580,1141 L 1163,571 580,0 -4,571 580,1141 Z"/>
  </g>
  <g id="bullet-char-template-57354" transform="scale(0.00048828125,-0.00048828125)">
   <path d="M 8,1128 L 1137,1128 1137,0 8,0 8,1128 Z"/>
  </g>
  <g id="bullet-char-template-10146" transform="scale(0.00048828125,-0.00048828125)">
   <path d="M 174,0 L 602,739 174,1481 1456,739 174,0 Z M 1358,739 L 309,1346 659,739 1358,739 Z"/>
  </g>
  <g id="bullet-char-template-10132" transform="scale(0.00048828125,-0.00048828125)">
   <path d="M 2015,739 L 1276,0 717,0 1260,543 174,543 174,936 1260,936 717,1481 1274,1481 2015,739 Z"/>
  </g>
  <g id="bullet-char-template-10007" transform="scale(0.00048828125,-0.00048828125)">
   <path d="M 0,-2 C -7,14 -16,27 -25,37 L 356,567 C 262,823 215,952 215,954 215,979 228,992 255,992 264,992 276,990 289,987 310,991 331,999 354,1012 L 381,999 492,748 772,1049 836,1024 860,1049 C 881,1039 901,1025 922,1006 886,937 835,863 770,784 769,783 710,716 594,584 L 774,223 C 774,196 753,168 711,139 L 727,119 C 717,90 699,76 672,76 641,76 570,178 457,381 L 164,-76 C 142,-110 111,-127 72,-127 30,-127 9,-110 8,-76 1,-67 -2,-52 -2,-32 -2,-23 -1,-13 0,-2 Z"/>
  </g>
  <g id="bullet-char-template-10004" transform="scale(0.00048828125,-0.00048828125)">
   <path d="M 285,-33 C 182,-33 111,30 74,156 52,228 41,333 41,471 41,549 55,616 82,672 116,743 169,778 240,778 293,778 328,747 346,684 L 369,508 C 377,444 397,411 428,410 L 1163,1116 C 1174,1127 1196,1133 1229,1133 1271,1133 1292,1118 1292,1087 L 1292,965 C 1292,929 1282,901 1262,881 L 442,47 C 390,-6 338,-33 285,-33 Z"/>
  </g>
  <g id="bullet-char-template-9679" transform="scale(0.00048828125,-0.00048828125)">
   <path d="M 813,0 C 632,0 489,54 383,161 276,268 223,411 223,592 223,773 276,916 383,1023 489,1130 632,1184 813,1184 992,1184 1136,1130 1245,1023 1353,916 1407,772 1407,592 1407,412 1353,268 1245,161 1136,54 992,0 813,0 Z"/>
  </g>
  <g id="bullet-char-template-8226" transform="scale(0.00048828125,-0.00048828125)">
   <path d="M 346,457 C 273,457 209,483 155,535 101,586 74,649 74,723 74,796 101,859 155,911 209,963 273,989 346,989 419,989 480,963 531,910 582,859 608,796 608,723 608,648 583,586 532,535 482,483 420,457 346,457 Z"/>
  </g>
  <g id="bullet-char-template-8211" transform="scale(0.00048828125,-0.00048828125)">
   <path d="M -4,459 L 1135,459 1135,606 -4,606 -4,459 Z"/>
  </g>
  <g id="bullet-char-template-61548" transform="scale(0.00048828125,-0.00048828125)">
   <path d="M 173,740 C 173,903 231,1043 346,1159 462,1274 601,1332 765,1332 928,1332 1067,1274 1183,1159 1299,1043 1357,903 1357,740 1357,577 1299,437 1183,322 1067,206 928,148 765,148 601,148 462,206 346,322 231,437 173,577 173,740 Z"/>
  </g>
 </defs>
 <g ooo:name="page6" class="Page">
  <g class="com.sun.star.drawing.OpenBezierShape">
   <g id="id3">
    <rect class="BoundingBox" stroke="none" fill="none" x="17745" y="6003" width="4031" height="8501"/>
    <g style="opacity: 0.749019607843137">
     <path fill="none" stroke="rgb(85,85,85)" stroke-width="159" stroke-linejoin="round" d="M 19454,6083 C 19665,7600 19645,8906 20278,9502 20911,10098 21946,10941 21639,11940 21333,12939 19282,15436 17825,13975"/>
    </g>
   </g>
  </g>
  <g class="com.sun.star.drawing.OpenBezierShape">
   <g id="id4">
    <rect class="BoundingBox" stroke="none" fill="none" x="18585" y="9553" width="4302" height="1426"/>
    <path fill="none" stroke="rgb(170,51,119)" stroke-width="81" stroke-linejoin="round" stroke-linecap="round" d="M 22845,9594 C 22017,9867 22272,10032 21603,10244 21006,10440 20789,10008 20128,10221 19481,10429 19676,10531 19211,10737"/>
    <path fill="rgb(170,51,119)" stroke="none" d="M 19128,10555 L 19146,10492 18585,10978 19327,10958 19274,10925 19224,10880 19181,10826 19149,10762 19128,10694 19123,10623 19128,10555 Z"/>
   </g>
  </g>
  <g class="Group">
   <g class="com.sun.star.drawing.ClosedBezierShape">
    <g id="id5">
     <rect class="BoundingBox" stroke="none" fill="none" x="15378" y="11768" width="829" height="95"/>
     <path fill="rgb(170,51,119)" stroke="none" d="M 15379,11769 C 15654,11769 15930,11769 16205,11769 16205,11800 16205,11830 16205,11861 15930,11861 15654,11861 15379,11861 15379,11830 15379,11800 15379,11769 Z"/>
    </g>
   </g>
   <g class="com.sun.star.drawing.ClosedBezierShape">
    <g id="id6">
     <rect class="BoundingBox" stroke="none" fill="none" x="16315" y="11163" width="727" height="1072"/>
     <path fill="rgb(170,51,119)" stroke="none" d="M 17040,12234 C 17040,12219 17040,12205 17040,12190 17016,12189 16991,12187 16966,12186 16891,12177 16873,12159 16873,12067 16873,12029 16873,11991 16873,11953 16966,11953 16996,11953 17040,11958 17040,11921 17040,11884 17040,11848 16998,11849 16966,11852 16913,11852 16900,11852 16887,11852 16873,11852 16873,11781 16873,11709 16873,11637 16873,11365 16878,11234 16882,11168 16876,11166 16870,11165 16865,11164 16827,11177 16788,11190 16750,11203 16605,11440 16460,11677 16315,11914 16321,11927 16327,11940 16333,11953 16469,11953 16605,11953 16742,11953 16742,11991 16742,12029 16742,12067 16742,12159 16724,12181 16649,12186 16617,12187 16585,12189 16553,12190 16553,12205 16553,12219 16553,12234 16636,12230 16720,12230 16803,12230 16882,12230 16961,12230 17040,12234 Z M 16742,11852 C 16632,11852 16522,11852 16412,11852 16522,11672 16632,11493 16742,11313 16742,11493 16742,11672 16742,11852 Z"/>
    </g>
   </g>
   <g class="com.sun.star.drawing.ClosedBezierShape">
    <g id="id7">
     <rect class="BoundingBox" stroke="none" fill="none" x="17400" y="11163" width="508" height="1366"/>
     <path fill="rgb(170,51,119)" stroke="none" d="M 17906,11212 C 17906,11196 17906,11180 17906,11164 17832,11168 17753,11168 17678,11168 17603,11168 17528,11168 17454,11164 17454,11180 17454,11196 17454,11212 17479,11213 17503,11215 17528,11216 17599,11221 17607,11234 17607,11352 17607,11653 17607,11955 17607,12256 17607,12383 17585,12431 17524,12431 17484,12431 17454,12423 17418,12401 17413,12404 17407,12406 17401,12409 17404,12447 17407,12485 17410,12523 17423,12525 17436,12526 17449,12528 17451,12528 17452,12528 17454,12528 17511,12528 17599,12480 17656,12405 17735,12313 17753,12234 17753,12050 17753,11817 17753,11585 17753,11352 17753,11234 17761,11221 17832,11216 17857,11215 17881,11213 17906,11212 Z"/>
    </g>
   </g>
   <g class="com.sun.star.drawing.ClosedBezierShape">
    <g id="id8">
     <rect class="BoundingBox" stroke="none" fill="none" x="18038" y="11089" width="547" height="1454"/>
     <path fill="rgb(170,51,119)" stroke="none" d="M 18038,12541 C 18068,12541 18097,12541 18126,12541 18279,12057 18431,11573 18583,11089 18555,11089 18528,11089 18500,11089 18346,11573 18192,12057 18038,12541 Z"/>
    </g>
   </g>
   <g class="com.sun.star.drawing.ClosedBezierShape">
    <g id="id9">
     <rect class="BoundingBox" stroke="none" fill="none" x="18732" y="11510" width="561" height="752"/>
     <path fill="rgb(170,51,119)" stroke="none" d="M 19291,12001 C 19291,11953 19278,11918 19247,11887 19207,11848 19155,11830 19023,11804 18895,11782 18851,11751 18851,11677 18851,11602 18909,11558 19001,11558 19102,11558 19181,11611 19181,11686 19181,11697 19181,11709 19181,11721 19196,11721 19210,11721 19225,11721 19229,11633 19229,11593 19234,11545 19150,11519 19098,11510 19032,11510 18856,11510 18746,11593 18746,11729 18746,11804 18777,11857 18851,11892 18891,11909 18975,11931 19080,11958 19146,11971 19177,12001 19177,12063 19177,12146 19098,12203 18992,12203 18878,12203 18799,12151 18799,12072 18799,12051 18799,12031 18799,12010 18783,12010 18766,12010 18750,12010 18750,12115 18746,12164 18733,12225 18812,12251 18873,12260 18944,12260 19146,12260 19291,12155 19291,12001 Z"/>
    </g>
   </g>
  </g>
 </g>
</svg>