<?xml version="1.0" encoding="UTF-8"?>
<!DOCTYPE svg PUBLIC "-//W3C//DTD SVG 1.1//EN" "http://www.w3.org/Graphics/SVG/1.1/DTD/svg11.dtd">
<svg version="1.2" viewBox="19567 5925 6982 8501" preserveAspectRatio="xMidYMid" fill-rule="evenodd" stroke-width="28.222" stroke-linejoin="round" xmlns="http://www.w3.org/2000/svg" xmlns:ooo="http://xml.openoffice.org/svg/export" xmlns:xlink="http://www.w3.org/1999/xlink" xmlns:presentation="http://sun.com/xmlns/staroffice/presentation" xmlns:smil="http://www.w3.org/2001/SMIL20/" xmlns:anim="urn:oasis:names:tc:opendocument:xmlns:animation:1.0" xmlns:svg="urn:oasis:names:tc:opendocument:xmlns:svg-compatible:1.0" xml:space="preserve">
 <defs class="EmbeddedBulletChars">
  <g id="bullet-char-template-57356" transform="scale(0.00048828125,-0.00048828125)">
   <path d="M 580,1141 L 1163,571 580,0 -4,571 580,1141 Z"/>
  </g>
  <g id="bullet-char-template-57354" transform="scale(0.00048828125,-0.00048828125)">
   <path d="M 8,1128 L 1137,1128 1137,0 8,0 8,1128 Z"/>
  </g>
  <g id="bullet-char-template-10146" transform="scale(0.00048828125,-0.00048828125)">
   <path d="M 174,0 L 602,739 174,1481 1456,739 174,0 Z M 1358,739 L 309,1346 659,739 1358,739 Z"/>
  </g>
  <g id="bullet-char-template-10132" transform="scale(0.00048828125,-0.00048828125)">
   <path d="M 2015,739 L 1276,0 717,0 1260,543 174,543 174,936 1260,936 717,1481 1274,1481 2015,739 Z"/>
  </g>
  <g id="bullet-char-template-10007" transform="scale(0.00048828125,-0.00048828125)">
   <path d="M 0,-2 C -7,14 -16,27 -25,37 L 356,567 C 262,823 215,952 215,954 215,979 228,992 255,992 264,992 276,990 289,987 310,991 331,999 354,1012 L 381,999 492,748 772,1049 836,1024 860,1049 C 881,1039 901,1025 922,1006 886,937 835,863 770,784 769,783 710,716 594,584 L 774,223 C 774,196 753,168 711,139 L 727,119 C 717,90 699,76 672,76 641,76 570,178 457,381 L 164,-76 C 142,-110 111,-127 72,-127 30,-127 9,-110 8,-76 1,-67 -2,-52 -2,-32 -2,-23 -1,-13 0,-2 Z"/>
  </g>
  <g id="bullet-char-template-10004" transform="scale(0.00048828125,-0.00048828125)">
   <path d="M 285,-33 C 182,-33 111,30 74,156 52,228 41,333 41,471 41,549 55,616 82,672 116,743 169,778 240,778 293,778 328,747 346,684 L 369,508 C 377,444 397,411 428,410 L 1163,1116 C 1174,1127 1196,1133 1229,1133 1271,1133 1292,1118 1292,1087 L 1292,965 C 1292,929 1282,901 1262,881 L 442,47 C 390,-6 338,-33 285,-33 Z"/>
  </g>
  <g id="bullet-char-template-9679" transform="scale(0.00048828125,-0.00048828125)">
   <path d="M 813,0 C 632,0 489,54 383,161 276,268 223,411 223,592 223,773 276,916 383,1023 489,1130 632,1184 813,1184 992,1184 1136,1130 1245,1023 1353,916 1407,772 1407,592 1407,412 1353,268 1245,161 1136,54 992,0 813,0 Z"/>
  </g>
  <g id="bullet-char-template-8226" transform="scale(0.00048828125,-0.00048828125)">
   <path d="M 346,457 C 273,457 209,483 155,535 101,586 74,649 74,723 74,796 101,859 155,911 209,963 273,989 346,989 419,989 480,963 531,910 582,859 608,796 608,723 608,648 583,586 532,535 482,483 420,457 346,457 Z"/>
  </g>
  <g id="bullet-char-template-8211" transform="scale(0.00048828125,-0.00048828125)">
   <path d="M -4,459 L 1135,459 1135,606 -4,606 -4,459 Z"/>
  </g>
  <g id="bullet-char-template-61548" transform="scale(0.00048828125,-0.00048828125)">
   <path d="M 173,740 C 173,903 231,1043 346,1159 462,1274 601,1332 765,1332 928,1332 1067,1274 1183,1159 1299,1043 1357,903 1357,740 1357,577 1299,437 1183,322 1067,206 928,148 765,148 601,148 462,206 346,322 231,437 173,577 173,740 Z"/>
  </g>
 </defs>
 <g ooo:name="page14" class="Page">
  <g class="com.sun.star.drawing.LineShape">
   <g id="id3">
    <rect class="BoundingBox" stroke="none" fill="none" x="23202" y="7343" width="2268" height="2502"/>
    <path fill="none" stroke="rgb(68,119,170)" stroke-width="106" stroke-linejoin="round" d="M 25249,9614 L 23796,8002"/>
    <path fill="rgb(68,119,170)" stroke="none" d="M 25257,9586 L 25281,9574 25308,9567 25337,9565 25365,9570 25391,9580 25414,9594 25433,9611 25448,9632 25460,9656 25467,9683 25469,9711 25464,9740 25453,9766 25440,9789 25422,9808 25402,9823 25377,9834 25351,9841 25322,9844 25294,9839 25268,9829 25245,9814 25226,9798 25211,9776 25200,9753 25192,9726 25190,9697 25195,9668 25205,9643 25219,9620 25236,9601 25257,9586 Z"/>
    <path fill="rgb(68,119,170)" stroke="none" d="M 23646,8178 L 23203,7344 23986,7871 23646,8178 Z"/>
   </g>
  </g>
  <g class="com.sun.star.drawing.LineShape">
   <g id="id4">
    <rect class="BoundingBox" stroke="none" fill="none" x="20837" y="10472" width="2268" height="2501"/>
    <path fill="none" stroke="rgb(170,51,119)" stroke-width="106" stroke-linejoin="round" d="M 21058,10702 L 22511,12314"/>
    <path fill="rgb(170,51,119)" stroke="none" d="M 21050,10730 L 21026,10742 20999,10749 20970,10751 20942,10746 20915,10736 20893,10722 20873,10705 20859,10684 20847,10660 20839,10633 20838,10605 20843,10576 20853,10550 20867,10527 20884,10508 20904,10493 20929,10482 20956,10475 20985,10472 21013,10477 21039,10487 21062,10502 21081,10518 21096,10540 21107,10563 21115,10590 21117,10619 21112,10648 21102,10673 21088,10696 21071,10715 21050,10730 Z"/>
    <path fill="rgb(170,51,119)" stroke="none" d="M 22661,12138 L 23104,12972 22321,12445 22661,12138 Z"/>
   </g>
  </g>
  <g class="com.sun.star.drawing.OpenBezierShape">
   <g id="id5">
    <rect class="BoundingBox" stroke="none" fill="none" x="20577" y="5925" width="4031" height="8501"/>
    <g style="opacity: 0.749019607843137">
     <path fill="none" stroke="rgb(85,85,85)" stroke-width="159" stroke-linejoin="round" d="M 22287,6005 C 22497,7523 22476,8828 23109,9424 23743,10020 24778,10862 24472,11861 24165,12860 22114,15358 20657,13898"/>
    </g>
   </g>
  </g>
  <g class="Group">
   <g class="com.sun.star.drawing.ClosedBezierShape">
    <g id="id6">
     <rect class="BoundingBox" stroke="none" fill="none" x="24227" y="7101" width="674" height="1094"/>
     <path fill="rgb(68,119,170)" stroke="none" d="M 24900,7825 C 24900,7649 24794,7531 24632,7531 24540,7531 24483,7570 24382,7654 24417,7373 24544,7224 24821,7141 24821,7136 24821,7132 24821,7127 24802,7119 24783,7110 24764,7101 24614,7149 24553,7180 24474,7250 24316,7382 24228,7570 24228,7781 24228,8035 24351,8193 24553,8193 24751,8193 24900,8035 24900,7825 Z M 24768,7877 C 24768,8040 24689,8141 24570,8141 24439,8141 24368,8031 24368,7825 24368,7768 24377,7741 24395,7715 24425,7663 24500,7623 24575,7623 24689,7623 24768,7728 24768,7877 Z"/>
    </g>
   </g>
   <g class="com.sun.star.drawing.ClosedBezierShape">
    <g id="id7">
     <rect class="BoundingBox" stroke="none" fill="none" x="25321" y="7096" width="1228" height="1099"/>
     <path fill="rgb(68,119,170)" stroke="none" d="M 26547,7145 C 26547,7129 26547,7113 26547,7097 26486,7101 26424,7101 26363,7101 26301,7101 26244,7101 26183,7097 26183,7113 26183,7129 26183,7145 26204,7146 26226,7148 26248,7149 26323,7154 26327,7167 26327,7285 26327,7527 26327,7768 26327,8009 26081,7705 25836,7401 25590,7097 25562,7098 25537,7101 25506,7101 25431,7101 25383,7098 25322,7097 25322,7113 25322,7129 25322,7145 25344,7146 25365,7148 25387,7149 25458,7154 25467,7167 25467,7285 25467,7516 25467,7747 25467,7978 25467,8097 25458,8110 25387,8114 25365,8116 25344,8117 25322,8119 25322,8135 25322,8151 25322,8167 25379,8163 25440,8163 25497,8163 25559,8163 25620,8163 25682,8167 25682,8151 25682,8135 25682,8119 25660,8117 25638,8116 25616,8114 25546,8110 25537,8097 25537,7978 25537,7740 25537,7502 25537,7263 25780,7565 26023,7866 26266,8167 26313,8176 26360,8184 26407,8193 26407,8176 26398,8149 26398,8136 26398,7853 26398,7569 26398,7285 26398,7167 26407,7154 26477,7149 26500,7148 26524,7146 26547,7145 Z"/>
    </g>
   </g>
  </g>
  <g class="Group">
   <g class="com.sun.star.drawing.ClosedBezierShape">
    <g id="id8">
     <rect class="BoundingBox" stroke="none" fill="none" x="19567" y="12106" width="674" height="1094"/>
     <path fill="rgb(170,51,119)" stroke="none" d="M 20240,12830 C 20240,12654 20134,12536 19972,12536 19880,12536 19823,12575 19722,12659 19757,12378 19884,12229 20161,12146 20161,12141 20161,12137 20161,12132 20142,12124 20123,12115 20104,12106 19954,12154 19893,12185 19814,12255 19656,12387 19568,12575 19568,12786 19568,13040 19691,13198 19893,13198 20091,13198 20240,13040 20240,12830 Z M 20108,12882 C 20108,13045 20029,13146 19910,13146 19779,13146 19708,13036 19708,12830 19708,12773 19717,12746 19735,12720 19765,12668 19840,12628 19915,12628 20029,12628 20108,12733 20108,12882 Z"/>
    </g>
   </g>
   <g class="com.sun.star.drawing.ClosedBezierShape">
    <g id="id9">
     <rect class="BoundingBox" stroke="none" fill="none" x="20661" y="12101" width="1228" height="1099"/>
     <path fill="rgb(170,51,119)" stroke="none" d="M 21887,12150 C 21887,12134 21887,12118 21887,12102 21826,12106 21764,12106 21703,12106 21641,12106 21584,12106 21523,12102 21523,12118 21523,12134 21523,12150 21544,12151 21566,12153 21588,12154 21663,12159 21667,12172 21667,12290 21667,12532 21667,12773 21667,13014 21421,12710 21176,12406 20930,12102 20902,12103 20877,12106 20846,12106 20771,12106 20723,12103 20662,12102 20662,12118 20662,12134 20662,12150 20684,12151 20705,12153 20727,12154 20798,12159 20807,12172 20807,12290 20807,12521 20807,12752 20807,12983 20807,13102 20798,13115 20727,13119 20705,13121 20684,13122 20662,13124 20662,13140 20662,13156 20662,13172 20719,13168 20780,13168 20837,13168 20899,13168 20960,13168 21022,13172 21022,13156 21022,13140 21022,13124 21000,13122 20978,13121 20956,13119 20886,13115 20877,13102 20877,12983 20877,12745 20877,12507 20877,12268 21120,12570 21363,12871 21606,13172 21653,13181 21700,13189 21747,13198 21747,13181 21738,13154 21738,13141 21738,12858 21738,12574 21738,12290 21738,12172 21747,12159 21817,12154 21840,12153 21864,12151 21887,12150 Z"/>
    </g>
   </g>
  </g>
 </g>
</svg>