<?xml version="1.0" encoding="UTF-8"?>
<!DOCTYPE svg PUBLIC "-//W3C//DTD SVG 1.1//EN" "http://www.w3.org/Graphics/SVG/1.1/DTD/svg11.dtd">
<svg version="1.2" viewBox="5484 309 5127 20362" preserveAspectRatio="xMidYMid" fill-rule="evenodd" stroke-width="28.222" stroke-linejoin="round" xmlns="http://www.w3.org/2000/svg" xmlns:ooo="http://xml.openoffice.org/svg/export" xmlns:xlink="http://www.w3.org/1999/xlink" xmlns:presentation="http://sun.com/xmlns/staroffice/presentation" xmlns:smil="http://www.w3.org/2001/SMIL20/" xmlns:anim="urn:oasis:names:tc:opendocument:xmlns:animation:1.0" xmlns:svg="urn:oasis:names:tc:opendocument:xmlns:svg-compatible:1.0" xml:space="preserve">
 <defs class="EmbeddedBulletChars">
  <g id="bullet-char-template-57356" transform="scale(0.00048828125,-0.00048828125)">
   <path d="M 580,1141 L 1163,571 580,0 -4,571 580,1141 Z"/>
  </g>
  <g id="bullet-char-template-57354" transform="scale(0.00048828125,-0.00048828125)">
   <path d="M 8,1128 L 1137,1128 1137,0 8,0 8,1128 Z"/>
  </g>
  <g id="bullet-char-template-10146" transform="scale(0.00048828125,-0.00048828125)">
   <path d="M 174,0 L 602,739 174,1481 1456,739 174,0 Z M 1358,739 L 309,1346 659,739 1358,739 Z"/>
  </g>
  <g id="bullet-char-template-10132" transform="scale(0.00048828125,-0.00048828125)">
   <path d="M 2015,739 L 1276,0 717,0 1260,543 174,543 174,936 1260,936 717,1481 1274,1481 2015,739 Z"/>
  </g>
  <g id="bullet-char-template-10007" transform="scale(0.00048828125,-0.00048828125)">
   <path d="M 0,-2 C -7,14 -16,27 -25,37 L 356,567 C 262,823 215,952 215,954 215,979 228,992 255,992 264,992 276,990 289,987 310,991 331,999 354,1012 L 381,999 492,748 772,1049 836,1024 860,1049 C 881,1039 901,1025 922,1006 886,937 835,863 770,784 769,783 710,716 594,584 L 774,223 C 774,196 753,168 711,139 L 727,119 C 717,90 699,76 672,76 641,76 570,178 457,381 L 164,-76 C 142,-110 111,-127 72,-127 30,-127 9,-110 8,-76 1,-67 -2,-52 -2,-32 -2,-23 -1,-13 0,-2 Z"/>
  </g>
  <g id="bullet-char-template-10004" transform="scale(0.00048828125,-0.00048828125)">
   <path d="M 285,-33 C 182,-33 111,30 74,156 52,228 41,333 41,471 41,549 55,616 82,672 116,743 169,778 240,778 293,778 328,747 346,684 L 369,508 C 377,444 397,411 428,410 L 1163,1116 C 1174,1127 1196,1133 1229,1133 1271,1133 1292,1118 1292,1087 L 1292,965 C 1292,929 1282,901 1262,881 L 442,47 C 390,-6 338,-33 285,-33 Z"/>
  </g>
  <g id="bullet-char-template-9679" transform="scale(0.00048828125,-0.00048828125)">
   <path d="M 813,0 C 632,0 489,54 383,161 276,268 223,411 223,592 223,773 276,916 383,1023 489,1130 632,1184 813,1184 992,1184 1136,1130 1245,1023 1353,916 1407,772 1407,592 1407,412 1353,268 1245,161 1136,54 992,0 813,0 Z"/>
  </g>
  <g id="bullet-char-template-8226" transform="scale(0.00048828125,-0.00048828125)">
   <path d="M 346,457 C 273,457 209,483 155,535 101,586 74,649 74,723 74,796 101,859 155,911 209,963 273,989 346,989 419,989 480,963 531,910 582,859 608,796 608,723 608,648 583,586 532,535 482,483 420,457 346,457 Z"/>
  </g>
  <g id="bullet-char-template-8211" transform="scale(0.00048828125,-0.00048828125)">
   <path d="M -4,459 L 1135,459 1135,606 -4,606 -4,459 Z"/>
  </g>
  <g id="bullet-char-template-61548" transform="scale(0.00048828125,-0.00048828125)">
   <path d="M 173,740 C 173,903 231,1043 346,1159 462,1274 601,1332 765,1332 928,1332 1067,1274 1183,1159 1299,1043 1357,903 1357,740 1357,577 1299,437 1183,322 1067,206 928,148 765,148 601,148 462,206 346,322 231,437 173,577 173,740 Z"/>
  </g>
 </defs>
 <g ooo:name="page12" class="Page">
  <g class="Group">
   <g class="com.sun.star.drawing.OpenBezierShape">
    <g id="id3">
     <rect class="BoundingBox" stroke="none" fill="none" x="5658" y="345" width="3493" height="7342"/>
     <g style="opacity: 0.749019607843137">
      <path fill="none" stroke="rgb(85,85,85)" stroke-width="159" stroke-linejoin="round" d="M 7141,425 C 7322,1730 7304,2856 7849,3368 8395,3882 9287,4607 9023,5468 8758,6328 6992,8478 5738,7221"/>
     </g>
    </g>
   </g>
   <g class="com.sun.star.drawing.LineShape">
    <g id="id4">
     <rect class="BoundingBox" stroke="none" fill="none" x="5565" y="309" width="1143" height="1258"/>
     <path fill="none" stroke="rgb(68,119,170)" stroke-width="53" stroke-linejoin="round" d="M 6548,1401 L 5802,573"/>
     <path fill="rgb(68,119,170)" stroke="none" d="M 6554,1381 L 6571,1373 6591,1367 6611,1366 6632,1369 6651,1377 6666,1387 6681,1399 6691,1414 6700,1431 6705,1451 6706,1471 6702,1491 6695,1510 6686,1527 6673,1540 6658,1551 6640,1559 6622,1564 6601,1566 6581,1563 6562,1555 6546,1545 6532,1533 6521,1517 6513,1501 6508,1481 6506,1460 6510,1440 6517,1422 6527,1405 6539,1392 6554,1381 Z"/>
     <path fill="rgb(68,119,170)" stroke="none" d="M 5678,718 L 5565,310 5959,465 5678,718 Z"/>
    </g>
   </g>
   <g class="com.sun.star.drawing.LineShape">
    <g id="id5">
     <rect class="BoundingBox" stroke="none" fill="none" x="5682" y="1122" width="1143" height="1258"/>
     <path fill="none" stroke="rgb(68,119,170)" stroke-width="53" stroke-linejoin="round" d="M 6665,2214 L 5919,1386"/>
     <path fill="rgb(68,119,170)" stroke="none" d="M 6671,2194 L 6688,2186 6708,2180 6728,2179 6749,2182 6768,2190 6783,2200 6798,2212 6808,2227 6817,2244 6822,2264 6823,2284 6819,2304 6812,2323 6803,2340 6790,2353 6775,2364 6757,2372 6739,2377 6718,2379 6698,2376 6679,2368 6663,2358 6649,2346 6638,2330 6630,2314 6625,2294 6623,2273 6627,2253 6634,2235 6644,2218 6656,2205 6671,2194 Z"/>
     <path fill="rgb(68,119,170)" stroke="none" d="M 5795,1531 L 5682,1123 6076,1278 5795,1531 Z"/>
    </g>
   </g>
   <g class="com.sun.star.drawing.LineShape">
    <g id="id6">
     <rect class="BoundingBox" stroke="none" fill="none" x="5999" y="2035" width="1143" height="1258"/>
     <path fill="none" stroke="rgb(68,119,170)" stroke-width="53" stroke-linejoin="round" d="M 6982,3127 L 6236,2299"/>
     <path fill="rgb(68,119,170)" stroke="none" d="M 6988,3107 L 7005,3099 7025,3093 7045,3092 7066,3095 7085,3103 7100,3113 7115,3125 7125,3140 7134,3157 7139,3177 7140,3197 7136,3217 7129,3236 7120,3253 7107,3266 7092,3277 7074,3285 7056,3290 7035,3292 7015,3289 6996,3281 6980,3271 6966,3259 6955,3243 6947,3227 6942,3207 6940,3186 6944,3166 6951,3148 6961,3131 6973,3118 6988,3107 Z"/>
     <path fill="rgb(68,119,170)" stroke="none" d="M 6112,2444 L 5999,2036 6393,2191 6112,2444 Z"/>
    </g>
   </g>
   <g class="com.sun.star.drawing.LineShape">
    <g id="id7">
     <rect class="BoundingBox" stroke="none" fill="none" x="6416" y="3048" width="1143" height="1258"/>
     <path fill="none" stroke="rgb(68,119,170)" stroke-width="53" stroke-linejoin="round" d="M 7399,4140 L 6653,3312"/>
     <path fill="rgb(68,119,170)" stroke="none" d="M 7405,4120 L 7422,4112 7442,4106 7462,4105 7483,4108 7502,4116 7517,4126 7532,4138 7542,4153 7551,4170 7556,4190 7557,4210 7553,4230 7546,4249 7537,4266 7524,4279 7509,4290 7491,4298 7473,4303 7452,4305 7432,4302 7413,4294 7397,4284 7383,4272 7372,4256 7364,4240 7359,4220 7357,4199 7361,4179 7368,4161 7378,4144 7390,4131 7405,4120 Z"/>
     <path fill="rgb(68,119,170)" stroke="none" d="M 6529,3457 L 6416,3049 6810,3204 6529,3457 Z"/>
    </g>
   </g>
   <g class="com.sun.star.drawing.LineShape">
    <g id="id8">
     <rect class="BoundingBox" stroke="none" fill="none" x="7133" y="4561" width="1143" height="1258"/>
     <path fill="none" stroke="rgb(68,119,170)" stroke-width="53" stroke-linejoin="round" d="M 8116,5653 L 7370,4825"/>
     <path fill="rgb(68,119,170)" stroke="none" d="M 8122,5633 L 8139,5625 8159,5619 8179,5618 8200,5621 8219,5629 8234,5639 8249,5651 8259,5666 8268,5683 8273,5703 8274,5723 8270,5743 8263,5762 8254,5779 8241,5792 8226,5803 8208,5811 8190,5816 8169,5818 8149,5815 8130,5807 8114,5797 8100,5785 8089,5769 8081,5753 8076,5733 8074,5712 8078,5692 8085,5674 8095,5657 8107,5644 8122,5633 Z"/>
     <path fill="rgb(68,119,170)" stroke="none" d="M 7246,4970 L 7133,4562 7527,4717 7246,4970 Z"/>
    </g>
   </g>
   <g class="com.sun.star.drawing.LineShape">
    <g id="id9">
     <rect class="BoundingBox" stroke="none" fill="none" x="6850" y="5174" width="1143" height="1258"/>
     <path fill="none" stroke="rgb(68,119,170)" stroke-width="53" stroke-linejoin="round" d="M 7833,6266 L 7087,5438"/>
     <path fill="rgb(68,119,170)" stroke="none" d="M 7839,6246 L 7856,6238 7876,6232 7896,6231 7917,6234 7936,6242 7951,6252 7966,6264 7976,6279 7985,6296 7990,6316 7991,6336 7987,6356 7980,6375 7971,6392 7958,6405 7943,6416 7925,6424 7907,6429 7886,6431 7866,6428 7847,6420 7831,6410 7817,6398 7806,6382 7798,6366 7793,6346 7791,6325 7795,6305 7802,6287 7812,6270 7824,6257 7839,6246 Z"/>
     <path fill="rgb(68,119,170)" stroke="none" d="M 6963,5583 L 6850,5175 7244,5330 6963,5583 Z"/>
    </g>
   </g>
   <g class="com.sun.star.drawing.LineShape">
    <g id="id10">
     <rect class="BoundingBox" stroke="none" fill="none" x="6267" y="5587" width="1143" height="1258"/>
     <path fill="none" stroke="rgb(68,119,170)" stroke-width="53" stroke-linejoin="round" d="M 7250,6679 L 6504,5851"/>
     <path fill="rgb(68,119,170)" stroke="none" d="M 7256,6659 L 7273,6651 7293,6645 7313,6644 7334,6647 7353,6655 7368,6665 7383,6677 7393,6692 7402,6709 7407,6729 7408,6749 7404,6769 7397,6788 7388,6805 7375,6818 7360,6829 7342,6837 7324,6842 7303,6844 7283,6841 7264,6833 7248,6823 7234,6811 7223,6795 7215,6779 7210,6759 7208,6738 7212,6718 7219,6700 7229,6683 7241,6670 7256,6659 Z"/>
     <path fill="rgb(68,119,170)" stroke="none" d="M 6380,5996 L 6267,5588 6661,5743 6380,5996 Z"/>
    </g>
   </g>
   <g class="com.sun.star.drawing.LineShape">
    <g id="id11">
     <rect class="BoundingBox" stroke="none" fill="none" x="5484" y="5700" width="1143" height="1258"/>
     <path fill="none" stroke="rgb(68,119,170)" stroke-width="53" stroke-linejoin="round" d="M 6467,6792 L 5721,5964"/>
     <path fill="rgb(68,119,170)" stroke="none" d="M 6473,6772 L 6490,6764 6510,6758 6530,6757 6551,6760 6570,6768 6585,6778 6600,6790 6610,6805 6619,6822 6624,6842 6625,6862 6621,6882 6614,6901 6605,6918 6592,6931 6577,6942 6559,6950 6541,6955 6520,6957 6500,6954 6481,6946 6465,6936 6451,6924 6440,6908 6432,6892 6427,6872 6425,6851 6429,6831 6436,6813 6446,6796 6458,6783 6473,6772 Z"/>
     <path fill="rgb(68,119,170)" stroke="none" d="M 5597,6109 L 5484,5701 5878,5856 5597,6109 Z"/>
    </g>
   </g>
  </g>
  <g class="Group">
   <g class="com.sun.star.drawing.OpenBezierShape">
    <g id="id12">
     <rect class="BoundingBox" stroke="none" fill="none" x="5658" y="13162" width="3493" height="7343"/>
     <g style="opacity: 0.749019607843137">
      <path fill="none" stroke="rgb(85,85,85)" stroke-width="159" stroke-linejoin="round" d="M 7141,13242 C 7322,14548 7304,15673 7849,16186 8395,16699 9287,17425 9023,18285 8758,19145 6992,21296 5738,20039"/>
     </g>
    </g>
   </g>
   <g class="com.sun.star.drawing.LineShape">
    <g id="id13">
     <rect class="BoundingBox" stroke="none" fill="none" x="8083" y="13222" width="1143" height="1258"/>
     <path fill="none" stroke="rgb(68,119,170)" stroke-width="53" stroke-linejoin="round" d="M 9066,14314 L 8320,13486"/>
     <path fill="rgb(68,119,170)" stroke="none" d="M 9072,14294 L 9089,14286 9109,14280 9129,14279 9150,14282 9169,14290 9184,14300 9199,14312 9209,14327 9218,14344 9223,14364 9224,14384 9220,14404 9213,14423 9204,14440 9191,14453 9176,14464 9158,14472 9140,14477 9119,14479 9099,14476 9080,14468 9064,14458 9050,14446 9039,14430 9031,14414 9026,14394 9024,14373 9028,14353 9035,14335 9045,14318 9057,14305 9072,14294 Z"/>
     <path fill="rgb(68,119,170)" stroke="none" d="M 8196,13631 L 8083,13223 8477,13378 8196,13631 Z"/>
    </g>
   </g>
   <g class="com.sun.star.drawing.LineShape">
    <g id="id14">
     <rect class="BoundingBox" stroke="none" fill="none" x="8200" y="14035" width="1143" height="1258"/>
     <path fill="none" stroke="rgb(68,119,170)" stroke-width="53" stroke-linejoin="round" d="M 9183,15127 L 8437,14299"/>
     <path fill="rgb(68,119,170)" stroke="none" d="M 9189,15107 L 9206,15099 9226,15093 9246,15092 9267,15095 9286,15103 9301,15113 9316,15125 9326,15140 9335,15157 9340,15177 9341,15197 9337,15217 9330,15236 9321,15253 9308,15266 9293,15277 9275,15285 9257,15290 9236,15292 9216,15289 9197,15281 9181,15271 9167,15259 9156,15243 9148,15227 9143,15207 9141,15186 9145,15166 9152,15148 9162,15131 9174,15118 9189,15107 Z"/>
     <path fill="rgb(68,119,170)" stroke="none" d="M 8313,14444 L 8200,14036 8594,14191 8313,14444 Z"/>
    </g>
   </g>
   <g class="com.sun.star.drawing.LineShape">
    <g id="id15">
     <rect class="BoundingBox" stroke="none" fill="none" x="8517" y="14948" width="1143" height="1258"/>
     <path fill="none" stroke="rgb(68,119,170)" stroke-width="53" stroke-linejoin="round" d="M 9500,16040 L 8754,15212"/>
     <path fill="rgb(68,119,170)" stroke="none" d="M 9506,16020 L 9523,16012 9543,16006 9563,16005 9584,16008 9603,16016 9618,16026 9633,16038 9643,16053 9652,16070 9657,16090 9658,16110 9654,16130 9647,16149 9638,16166 9625,16179 9610,16190 9592,16198 9574,16203 9553,16205 9533,16202 9514,16194 9498,16184 9484,16172 9473,16156 9465,16140 9460,16120 9458,16099 9462,16079 9469,16061 9479,16044 9491,16031 9506,16020 Z"/>
     <path fill="rgb(68,119,170)" stroke="none" d="M 8630,15357 L 8517,14949 8911,15104 8630,15357 Z"/>
    </g>
   </g>
   <g class="com.sun.star.drawing.LineShape">
    <g id="id16">
     <rect class="BoundingBox" stroke="none" fill="none" x="8934" y="15961" width="1143" height="1258"/>
     <path fill="none" stroke="rgb(68,119,170)" stroke-width="53" stroke-linejoin="round" d="M 9917,17053 L 9171,16225"/>
     <path fill="rgb(68,119,170)" stroke="none" d="M 9923,17033 L 9940,17025 9960,17019 9980,17018 10001,17021 10020,17029 10035,17039 10050,17051 10060,17066 10069,17083 10074,17103 10075,17123 10071,17143 10064,17162 10055,17179 10042,17192 10027,17203 10009,17211 9991,17216 9970,17218 9950,17215 9931,17207 9915,17197 9901,17185 9890,17169 9882,17153 9877,17133 9875,17112 9879,17092 9886,17074 9896,17057 9908,17044 9923,17033 Z"/>
     <path fill="rgb(68,119,170)" stroke="none" d="M 9047,16370 L 8934,15962 9328,16117 9047,16370 Z"/>
    </g>
   </g>
   <g class="com.sun.star.drawing.LineShape">
    <g id="id17">
     <rect class="BoundingBox" stroke="none" fill="none" x="9351" y="17274" width="1143" height="1258"/>
     <path fill="none" stroke="rgb(68,119,170)" stroke-width="53" stroke-linejoin="round" d="M 10334,18366 L 9588,17538"/>
     <path fill="rgb(68,119,170)" stroke="none" d="M 10340,18346 L 10357,18338 10377,18332 10397,18331 10418,18334 10437,18342 10452,18352 10467,18364 10477,18379 10486,18396 10491,18416 10492,18436 10488,18456 10481,18475 10472,18492 10459,18505 10444,18516 10426,18524 10408,18529 10387,18531 10367,18528 10348,18520 10332,18510 10318,18498 10307,18482 10299,18466 10294,18446 10292,18425 10296,18405 10303,18387 10313,18370 10325,18357 10340,18346 Z"/>
     <path fill="rgb(68,119,170)" stroke="none" d="M 9464,17683 L 9351,17275 9745,17430 9464,17683 Z"/>
    </g>
   </g>
   <g class="com.sun.star.drawing.LineShape">
    <g id="id18">
     <rect class="BoundingBox" stroke="none" fill="none" x="9468" y="18187" width="1143" height="1258"/>
     <path fill="none" stroke="rgb(68,119,170)" stroke-width="53" stroke-linejoin="round" d="M 10451,19279 L 9705,18451"/>
     <path fill="rgb(68,119,170)" stroke="none" d="M 10457,19259 L 10474,19251 10494,19245 10514,19244 10535,19247 10554,19255 10569,19265 10584,19277 10594,19292 10603,19309 10608,19329 10609,19349 10605,19369 10598,19388 10589,19405 10576,19418 10561,19429 10543,19437 10525,19442 10504,19444 10484,19441 10465,19433 10449,19423 10435,19411 10424,19395 10416,19379 10411,19359 10409,19338 10413,19318 10420,19300 10430,19283 10442,19270 10457,19259 Z"/>
     <path fill="rgb(68,119,170)" stroke="none" d="M 9581,18596 L 9468,18188 9862,18343 9581,18596 Z"/>
    </g>
   </g>
   <g class="com.sun.star.drawing.LineShape">
    <g id="id19">
     <rect class="BoundingBox" stroke="none" fill="none" x="9285" y="18900" width="1143" height="1258"/>
     <path fill="none" stroke="rgb(68,119,170)" stroke-width="53" stroke-linejoin="round" d="M 10268,19992 L 9522,19164"/>
     <path fill="rgb(68,119,170)" stroke="none" d="M 10274,19972 L 10291,19964 10311,19958 10331,19957 10352,19960 10371,19968 10386,19978 10401,19990 10411,20005 10420,20022 10425,20042 10426,20062 10422,20082 10415,20101 10406,20118 10393,20131 10378,20142 10360,20150 10342,20155 10321,20157 10301,20154 10282,20146 10266,20136 10252,20124 10241,20108 10233,20092 10228,20072 10226,20051 10230,20031 10237,20013 10247,19996 10259,19983 10274,19972 Z"/>
     <path fill="rgb(68,119,170)" stroke="none" d="M 9398,19309 L 9285,18901 9679,19056 9398,19309 Z"/>
    </g>
   </g>
   <g class="com.sun.star.drawing.LineShape">
    <g id="id20">
     <rect class="BoundingBox" stroke="none" fill="none" x="8702" y="19413" width="1143" height="1258"/>
     <path fill="none" stroke="rgb(68,119,170)" stroke-width="53" stroke-linejoin="round" d="M 9685,20505 L 8939,19677"/>
     <path fill="rgb(68,119,170)" stroke="none" d="M 9691,20485 L 9708,20477 9728,20471 9748,20470 9769,20473 9788,20481 9803,20491 9818,20503 9828,20518 9837,20535 9842,20555 9843,20575 9839,20595 9832,20614 9823,20631 9810,20644 9795,20655 9777,20663 9759,20668 9738,20670 9718,20667 9699,20659 9683,20649 9669,20637 9658,20621 9650,20605 9645,20585 9643,20564 9647,20544 9654,20526 9664,20509 9676,20496 9691,20485 Z"/>
     <path fill="rgb(68,119,170)" stroke="none" d="M 8815,19822 L 8702,19414 9096,19569 8815,19822 Z"/>
    </g>
   </g>
  </g>
  <g class="com.sun.star.drawing.CustomShape">
   <g id="id21">
    <rect class="BoundingBox" stroke="none" fill="none" x="6958" y="8900" width="934" height="3109"/>
    <path fill="rgb(204,187,68)" fill-opacity="0.8" stroke="none" d="M 7191,8900 L 7191,11231 6958,11231 7424,12008 7891,11231 7657,11231 7657,8900 7191,8900 Z"/>
   </g>
  </g>
  <g class="Group">
   <g class="com.sun.star.drawing.ClosedBezierShape">
    <g id="id22">
     <rect class="BoundingBox" stroke="none" fill="none" x="8009" y="10160" width="264" height="641"/>
     <path fill="rgb(204,187,68)" stroke="none" d="M 8230,10693 C 8226,10687 8223,10682 8219,10676 8204,10686 8189,10697 8174,10707 8146,10726 8126,10735 8115,10735 8107,10735 8104,10729 8104,10715 8104,10690 8115,10615 8146,10470 8150,10450 8154,10431 8157,10411 8193,10411 8228,10411 8264,10411 8266,10394 8269,10378 8272,10361 8236,10366 8202,10366 8166,10366 8182,10277 8191,10227 8210,10177 8207,10171 8203,10166 8199,10160 8180,10174 8152,10185 8124,10196 8115,10251 8107,10306 8099,10361 8054,10383 8029,10392 8012,10397 8011,10402 8010,10406 8009,10411 8037,10411 8065,10411 8093,10411 8074,10503 8056,10595 8037,10687 8031,10710 8026,10735 8026,10760 8026,10785 8034,10799 8054,10799 8087,10799 8121,10779 8199,10718 8216,10704 8210,10710 8230,10693 Z"/>
    </g>
   </g>
   <g class="com.sun.star.drawing.ClosedBezierShape">
    <g id="id23">
     <rect class="BoundingBox" stroke="none" fill="none" x="8636" y="10261" width="535" height="534"/>
     <path fill="rgb(204,187,68)" stroke="none" d="M 9170,10554 C 9170,10535 9170,10517 9170,10498 9090,10498 9010,10498 8930,10498 8930,10419 8930,10340 8930,10261 8912,10261 8894,10261 8877,10261 8877,10340 8877,10419 8877,10498 8796,10498 8716,10498 8636,10498 8636,10517 8636,10535 8636,10554 8716,10554 8796,10554 8877,10554 8877,10634 8877,10714 8877,10794 8894,10794 8912,10794 8930,10794 8930,10714 8930,10634 8930,10554 9010,10554 9090,10554 9170,10554 Z"/>
    </g>
   </g>
   <g class="com.sun.star.drawing.ClosedBezierShape">
    <g id="id24">
     <rect class="BoundingBox" stroke="none" fill="none" x="9477" y="10110" width="650" height="684"/>
     <path fill="rgb(204,187,68)" stroke="none" d="M 9804,10135 C 9695,10339 9586,10542 9477,10746 9478,10760 9479,10774 9480,10788 9553,10782 9625,10779 9698,10779 9818,10779 9941,10785 10064,10793 10084,10783 10104,10773 10123,10763 10124,10757 10125,10752 10126,10746 10020,10542 9933,10328 9863,10110 9843,10118 9824,10127 9804,10135 Z M 10000,10740 C 9885,10740 9771,10738 9653,10738 9620,10738 9586,10738 9550,10740 9549,10736 9548,10731 9547,10726 9625,10562 9704,10408 9799,10249 9802,10249 9806,10249 9810,10249 9875,10410 9966,10640 10006,10732 10004,10735 10002,10738 10000,10740 Z"/>
    </g>
   </g>
   <g class="com.sun.star.drawing.ClosedBezierShape">
    <g id="id25">
     <rect class="BoundingBox" stroke="none" fill="none" x="10198" y="10160" width="265" height="641"/>
     <path fill="rgb(204,187,68)" stroke="none" d="M 10417,10693 C 10414,10687 10412,10682 10409,10676 10394,10686 10379,10697 10364,10707 10336,10726 10316,10735 10305,10735 10297,10735 10291,10729 10291,10715 10291,10690 10302,10615 10333,10470 10338,10450 10343,10431 10347,10411 10382,10411 10416,10411 10451,10411 10454,10394 10458,10378 10462,10361 10426,10366 10392,10366 10356,10366 10370,10277 10381,10227 10398,10177 10394,10171 10390,10166 10386,10160 10367,10174 10342,10185 10311,10196 10302,10251 10294,10306 10286,10361 10244,10383 10219,10392 10202,10397 10201,10402 10200,10406 10199,10411 10226,10411 10253,10411 10280,10411 10262,10503 10245,10595 10227,10687 10221,10710 10213,10735 10213,10760 10213,10785 10224,10799 10244,10799 10277,10799 10311,10779 10386,10718 10406,10704 10400,10710 10417,10693 Z"/>
    </g>
   </g>
  </g>
  <g class="com.sun.star.drawing.EllipseShape">
   <g id="id26">
    <rect class="BoundingBox" stroke="none" fill="none" x="7533" y="3838" width="2181" height="450"/>
    <g style="opacity: 0.498039215686275">
     <path fill="none" stroke="rgb(68,119,170)" stroke-width="28" stroke-linejoin="round" d="M 7547,4272 C 7640,4224 7751,4179 7876,4140 8084,4074 8324,4023 8573,3994 8822,3965 9070,3958 9293,3973 9452,3984 9329,3976 9347,3977"/>
     <path fill="rgb(68,119,170)" stroke="none" d="M 9332,4088 L 9305,4113 9713,4039 9351,3838 9367,3869 9378,3905 9383,3943 9381,3983 9371,4022 9354,4057 9332,4088 Z"/>
    </g>
   </g>
  </g>
 </g>
</svg>