<?xml version="1.0" encoding="UTF-8"?>
<!DOCTYPE svg PUBLIC "-//W3C//DTD SVG 1.1//EN" "http://www.w3.org/Graphics/SVG/1.1/DTD/svg11.dtd">
<svg version="1.2" viewBox="5681 10480 14489 7647" preserveAspectRatio="xMidYMid" fill-rule="evenodd" stroke-width="28.222" stroke-linejoin="round" xmlns="http://www.w3.org/2000/svg" xmlns:ooo="http://xml.openoffice.org/svg/export" xmlns:xlink="http://www.w3.org/1999/xlink" xmlns:presentation="http://sun.com/xmlns/staroffice/presentation" xmlns:smil="http://www.w3.org/2001/SMIL20/" xmlns:anim="urn:oasis:names:tc:opendocument:xmlns:animation:1.0" xmlns:svg="urn:oasis:names:tc:opendocument:xmlns:svg-compatible:1.0" xml:space="preserve">
 <defs class="EmbeddedBulletChars">
  <g id="bullet-char-template-57356" transform="scale(0.00048828125,-0.00048828125)">
   <path d="M 580,1141 L 1163,571 580,0 -4,571 580,1141 Z"/>
  </g>
  <g id="bullet-char-template-57354" transform="scale(0.00048828125,-0.00048828125)">
   <path d="M 8,1128 L 1137,1128 1137,0 8,0 8,1128 Z"/>
  </g>
  <g id="bullet-char-template-10146" transform="scale(0.00048828125,-0.00048828125)">
   <path d="M 174,0 L 602,739 174,1481 1456,739 174,0 Z M 1358,739 L 309,1346 659,739 1358,739 Z"/>
  </g>
  <g id="bullet-char-template-10132" transform="scale(0.00048828125,-0.00048828125)">
   <path d="M 2015,739 L 1276,0 717,0 1260,543 174,543 174,936 1260,936 717,1481 1274,1481 2015,739 Z"/>
  </g>
  <g id="bullet-char-template-10007" transform="scale(0.00048828125,-0.00048828125)">
   <path d="M 0,-2 C -7,14 -16,27 -25,37 L 356,567 C 262,823 215,952 215,954 215,979 228,992 255,992 264,992 276,990 289,987 310,991 331,999 354,1012 L 381,999 492,748 772,1049 836,1024 860,1049 C 881,1039 901,1025 922,1006 886,937 835,863 770,784 769,783 710,716 594,584 L 774,223 C 774,196 753,168 711,139 L 727,119 C 717,90 699,76 672,76 641,76 570,178 457,381 L 164,-76 C 142,-110 111,-127 72,-127 30,-127 9,-110 8,-76 1,-67 -2,-52 -2,-32 -2,-23 -1,-13 0,-2 Z"/>
  </g>
  <g id="bullet-char-template-10004" transform="scale(0.00048828125,-0.00048828125)">
   <path d="M 285,-33 C 182,-33 111,30 74,156 52,228 41,333 41,471 41,549 55,616 82,672 116,743 169,778 240,778 293,778 328,747 346,684 L 369,508 C 377,444 397,411 428,410 L 1163,1116 C 1174,1127 1196,1133 1229,1133 1271,1133 1292,1118 1292,1087 L 1292,965 C 1292,929 1282,901 1262,881 L 442,47 C 390,-6 338,-33 285,-33 Z"/>
  </g>
  <g id="bullet-char-template-9679" transform="scale(0.00048828125,-0.00048828125)">
   <path d="M 813,0 C 632,0 489,54 383,161 276,268 223,411 223,592 223,773 276,916 383,1023 489,1130 632,1184 813,1184 992,1184 1136,1130 1245,1023 1353,916 1407,772 1407,592 1407,412 1353,268 1245,161 1136,54 992,0 813,0 Z"/>
  </g>
  <g id="bullet-char-template-8226" transform="scale(0.00048828125,-0.00048828125)">
   <path d="M 346,457 C 273,457 209,483 155,535 101,586 74,649 74,723 74,796 101,859 155,911 209,963 273,989 346,989 419,989 480,963 531,910 582,859 608,796 608,723 608,648 583,586 532,535 482,483 420,457 346,457 Z"/>
  </g>
  <g id="bullet-char-template-8211" transform="scale(0.00048828125,-0.00048828125)">
   <path d="M -4,459 L 1135,459 1135,606 -4,606 -4,459 Z"/>
  </g>
  <g id="bullet-char-template-61548" transform="scale(0.00048828125,-0.00048828125)">
   <path d="M 173,740 C 173,903 231,1043 346,1159 462,1274 601,1332 765,1332 928,1332 1067,1274 1183,1159 1299,1043 1357,903 1357,740 1357,577 1299,437 1183,322 1067,206 928,148 765,148 601,148 462,206 346,322 231,437 173,577 173,740 Z"/>
  </g>
 </defs>
 <g ooo:name="page14" class="Page">
  <g class="Group">
   <g class="com.sun.star.drawing.OpenBezierShape">
    <g id="id3">
     <rect class="BoundingBox" stroke="none" fill="none" x="5681" y="10644" width="3493" height="7343"/>
     <g style="opacity: 0.749019607843137">
      <path fill="none" stroke="rgb(85,85,85)" stroke-width="159" stroke-linejoin="round" d="M 7164,10724 C 7345,12030 7327,13155 7872,13668 8418,14181 9310,14907 9046,15767 8781,16627 7015,18778 5761,17521"/>
     </g>
    </g>
   </g>
   <g class="com.sun.star.drawing.LineShape">
    <g id="id4">
     <rect class="BoundingBox" stroke="none" fill="none" x="8072" y="10679" width="1143" height="1257"/>
     <path fill="none" stroke="rgb(170,51,119)" stroke-width="53" stroke-linejoin="round" d="M 8231,10844 L 8977,11672"/>
     <path fill="rgb(170,51,119)" stroke="none" d="M 8225,10864 L 8208,10872 8188,10878 8168,10879 8147,10876 8128,10868 8113,10858 8098,10846 8088,10831 8079,10814 8074,10794 8073,10774 8077,10754 8084,10735 8093,10718 8106,10705 8121,10694 8139,10686 8157,10681 8178,10679 8198,10682 8217,10690 8233,10700 8247,10712 8258,10728 8266,10744 8271,10764 8273,10785 8269,10805 8262,10823 8252,10840 8240,10853 8225,10864 Z"/>
     <path fill="rgb(170,51,119)" stroke="none" d="M 9101,11527 L 9214,11935 8820,11780 9101,11527 Z"/>
    </g>
   </g>
   <g class="com.sun.star.drawing.LineShape">
    <g id="id5">
     <rect class="BoundingBox" stroke="none" fill="none" x="8189" y="11492" width="1143" height="1257"/>
     <path fill="none" stroke="rgb(170,51,119)" stroke-width="53" stroke-linejoin="round" d="M 8348,11657 L 9094,12485"/>
     <path fill="rgb(170,51,119)" stroke="none" d="M 8342,11677 L 8325,11685 8305,11691 8285,11692 8264,11689 8245,11681 8230,11671 8215,11659 8205,11644 8196,11627 8191,11607 8190,11587 8194,11567 8201,11548 8210,11531 8223,11518 8238,11507 8256,11499 8274,11494 8295,11492 8315,11495 8334,11503 8350,11513 8364,11525 8375,11541 8383,11557 8388,11577 8390,11598 8386,11618 8379,11636 8369,11653 8357,11666 8342,11677 Z"/>
     <path fill="rgb(170,51,119)" stroke="none" d="M 9218,12340 L 9331,12748 8937,12593 9218,12340 Z"/>
    </g>
   </g>
   <g class="com.sun.star.drawing.LineShape">
    <g id="id6">
     <rect class="BoundingBox" stroke="none" fill="none" x="8506" y="12405" width="1143" height="1257"/>
     <path fill="none" stroke="rgb(170,51,119)" stroke-width="53" stroke-linejoin="round" d="M 8665,12570 L 9411,13398"/>
     <path fill="rgb(170,51,119)" stroke="none" d="M 8659,12590 L 8642,12598 8622,12604 8602,12605 8581,12602 8562,12594 8547,12584 8532,12572 8522,12557 8513,12540 8508,12520 8507,12500 8511,12480 8518,12461 8527,12444 8540,12431 8555,12420 8573,12412 8591,12407 8612,12405 8632,12408 8651,12416 8667,12426 8681,12438 8692,12454 8700,12470 8705,12490 8707,12511 8703,12531 8696,12549 8686,12566 8674,12579 8659,12590 Z"/>
     <path fill="rgb(170,51,119)" stroke="none" d="M 9535,13253 L 9648,13661 9254,13506 9535,13253 Z"/>
    </g>
   </g>
   <g class="com.sun.star.drawing.LineShape">
    <g id="id7">
     <rect class="BoundingBox" stroke="none" fill="none" x="8923" y="13418" width="1143" height="1257"/>
     <path fill="none" stroke="rgb(170,51,119)" stroke-width="53" stroke-linejoin="round" d="M 9082,13583 L 9828,14411"/>
     <path fill="rgb(170,51,119)" stroke="none" d="M 9076,13603 L 9059,13611 9039,13617 9019,13618 8998,13615 8979,13607 8964,13597 8949,13585 8939,13570 8930,13553 8925,13533 8924,13513 8928,13493 8935,13474 8944,13457 8957,13444 8972,13433 8990,13425 9008,13420 9029,13418 9049,13421 9068,13429 9084,13439 9098,13451 9109,13467 9117,13483 9122,13503 9124,13524 9120,13544 9113,13562 9103,13579 9091,13592 9076,13603 Z"/>
     <path fill="rgb(170,51,119)" stroke="none" d="M 9952,14266 L 10065,14674 9671,14519 9952,14266 Z"/>
    </g>
   </g>
   <g class="com.sun.star.drawing.LineShape">
    <g id="id8">
     <rect class="BoundingBox" stroke="none" fill="none" x="9340" y="14731" width="1143" height="1257"/>
     <path fill="none" stroke="rgb(170,51,119)" stroke-width="53" stroke-linejoin="round" d="M 9499,14896 L 10245,15724"/>
     <path fill="rgb(170,51,119)" stroke="none" d="M 9493,14916 L 9476,14924 9456,14930 9436,14931 9415,14928 9396,14920 9381,14910 9366,14898 9356,14883 9347,14866 9342,14846 9341,14826 9345,14806 9352,14787 9361,14770 9374,14757 9389,14746 9407,14738 9425,14733 9446,14731 9466,14734 9485,14742 9501,14752 9515,14764 9526,14780 9534,14796 9539,14816 9541,14837 9537,14857 9530,14875 9520,14892 9508,14905 9493,14916 Z"/>
     <path fill="rgb(170,51,119)" stroke="none" d="M 10369,15579 L 10482,15987 10088,15832 10369,15579 Z"/>
    </g>
   </g>
   <g class="com.sun.star.drawing.LineShape">
    <g id="id9">
     <rect class="BoundingBox" stroke="none" fill="none" x="9457" y="15644" width="1143" height="1257"/>
     <path fill="none" stroke="rgb(170,51,119)" stroke-width="53" stroke-linejoin="round" d="M 9616,15809 L 10362,16637"/>
     <path fill="rgb(170,51,119)" stroke="none" d="M 9610,15829 L 9593,15837 9573,15843 9553,15844 9532,15841 9513,15833 9498,15823 9483,15811 9473,15796 9464,15779 9459,15759 9458,15739 9462,15719 9469,15700 9478,15683 9491,15670 9506,15659 9524,15651 9542,15646 9563,15644 9583,15647 9602,15655 9618,15665 9632,15677 9643,15693 9651,15709 9656,15729 9658,15750 9654,15770 9647,15788 9637,15805 9625,15818 9610,15829 Z"/>
     <path fill="rgb(170,51,119)" stroke="none" d="M 10486,16492 L 10599,16900 10205,16745 10486,16492 Z"/>
    </g>
   </g>
   <g class="com.sun.star.drawing.LineShape">
    <g id="id10">
     <rect class="BoundingBox" stroke="none" fill="none" x="9274" y="16357" width="1143" height="1257"/>
     <path fill="none" stroke="rgb(170,51,119)" stroke-width="53" stroke-linejoin="round" d="M 9433,16522 L 10179,17350"/>
     <path fill="rgb(170,51,119)" stroke="none" d="M 9427,16542 L 9410,16550 9390,16556 9370,16557 9349,16554 9330,16546 9315,16536 9300,16524 9290,16509 9281,16492 9276,16472 9275,16452 9279,16432 9286,16413 9295,16396 9308,16383 9323,16372 9341,16364 9359,16359 9380,16357 9400,16360 9419,16368 9435,16378 9449,16390 9460,16406 9468,16422 9473,16442 9475,16463 9471,16483 9464,16501 9454,16518 9442,16531 9427,16542 Z"/>
     <path fill="rgb(170,51,119)" stroke="none" d="M 10303,17205 L 10416,17613 10022,17458 10303,17205 Z"/>
    </g>
   </g>
   <g class="com.sun.star.drawing.LineShape">
    <g id="id11">
     <rect class="BoundingBox" stroke="none" fill="none" x="8691" y="16870" width="1143" height="1257"/>
     <path fill="none" stroke="rgb(170,51,119)" stroke-width="53" stroke-linejoin="round" d="M 8850,17035 L 9596,17863"/>
     <path fill="rgb(170,51,119)" stroke="none" d="M 8844,17055 L 8827,17063 8807,17069 8787,17070 8766,17067 8747,17059 8732,17049 8717,17037 8707,17022 8698,17005 8693,16985 8692,16965 8696,16945 8703,16926 8712,16909 8725,16896 8740,16885 8758,16877 8776,16872 8797,16870 8817,16873 8836,16881 8852,16891 8866,16903 8877,16919 8885,16935 8890,16955 8892,16976 8888,16996 8881,17014 8871,17031 8859,17044 8844,17055 Z"/>
     <path fill="rgb(170,51,119)" stroke="none" d="M 9720,17718 L 9833,18126 9439,17971 9720,17718 Z"/>
    </g>
   </g>
  </g>
  <g class="com.sun.star.drawing.CustomShape">
   <g id="id12">
    <rect class="BoundingBox" stroke="none" fill="none" x="11723" y="13848" width="3109" height="934"/>
    <path fill="rgb(204,187,68)" fill-opacity="0.8" stroke="none" d="M 11723,14548 L 14054,14548 14054,14781 14831,14315 14054,13848 14054,14082 11723,14082 11723,14548 Z"/>
   </g>
  </g>
  <g class="Group">
   <g class="com.sun.star.drawing.ClosedBezierShape">
    <g id="id13">
     <rect class="BoundingBox" stroke="none" fill="none" x="12051" y="13082" width="264" height="641"/>
     <path fill="rgb(204,187,68)" stroke="none" d="M 12272,13615 C 12268,13609 12265,13604 12261,13598 12246,13608 12231,13619 12216,13629 12188,13648 12168,13657 12157,13657 12149,13657 12146,13651 12146,13637 12146,13612 12157,13537 12188,13392 12192,13372 12196,13353 12199,13333 12235,13333 12270,13333 12306,13333 12308,13316 12311,13300 12314,13283 12278,13288 12244,13288 12208,13288 12224,13199 12233,13149 12252,13099 12249,13093 12245,13088 12241,13082 12222,13096 12194,13107 12166,13118 12157,13173 12149,13228 12141,13283 12096,13305 12071,13314 12054,13319 12053,13324 12052,13328 12051,13333 12079,13333 12107,13333 12135,13333 12116,13425 12098,13517 12079,13609 12073,13632 12068,13657 12068,13682 12068,13707 12076,13721 12096,13721 12129,13721 12163,13701 12241,13640 12258,13626 12252,13632 12272,13615 Z"/>
    </g>
   </g>
   <g class="com.sun.star.drawing.ClosedBezierShape">
    <g id="id14">
     <rect class="BoundingBox" stroke="none" fill="none" x="12678" y="13183" width="535" height="534"/>
     <path fill="rgb(204,187,68)" stroke="none" d="M 13212,13476 C 13212,13457 13212,13439 13212,13420 13132,13420 13052,13420 12972,13420 12972,13341 12972,13262 12972,13183 12954,13183 12936,13183 12919,13183 12919,13262 12919,13341 12919,13420 12838,13420 12758,13420 12678,13420 12678,13439 12678,13457 12678,13476 12758,13476 12838,13476 12919,13476 12919,13556 12919,13636 12919,13716 12936,13716 12954,13716 12972,13716 12972,13636 12972,13556 12972,13476 13052,13476 13132,13476 13212,13476 Z"/>
    </g>
   </g>
   <g class="com.sun.star.drawing.ClosedBezierShape">
    <g id="id15">
     <rect class="BoundingBox" stroke="none" fill="none" x="13519" y="13032" width="650" height="684"/>
     <path fill="rgb(204,187,68)" stroke="none" d="M 13846,13057 C 13737,13261 13628,13464 13519,13668 13520,13682 13521,13696 13522,13710 13595,13704 13667,13701 13740,13701 13860,13701 13983,13707 14106,13715 14126,13705 14146,13695 14165,13685 14166,13679 14167,13674 14168,13668 14062,13464 13975,13250 13905,13032 13885,13040 13866,13049 13846,13057 Z M 14042,13662 C 13927,13662 13813,13660 13695,13660 13662,13660 13628,13660 13592,13662 13591,13658 13590,13653 13589,13648 13667,13484 13746,13330 13841,13171 13844,13171 13848,13171 13852,13171 13917,13332 14008,13562 14048,13654 14046,13657 14044,13660 14042,13662 Z"/>
    </g>
   </g>
   <g class="com.sun.star.drawing.ClosedBezierShape">
    <g id="id16">
     <rect class="BoundingBox" stroke="none" fill="none" x="14240" y="13082" width="265" height="641"/>
     <path fill="rgb(204,187,68)" stroke="none" d="M 14459,13615 C 14456,13609 14454,13604 14451,13598 14436,13608 14421,13619 14406,13629 14378,13648 14358,13657 14347,13657 14339,13657 14333,13651 14333,13637 14333,13612 14344,13537 14375,13392 14380,13372 14385,13353 14389,13333 14424,13333 14458,13333 14493,13333 14496,13316 14500,13300 14504,13283 14468,13288 14434,13288 14398,13288 14412,13199 14423,13149 14440,13099 14436,13093 14432,13088 14428,13082 14409,13096 14384,13107 14353,13118 14344,13173 14336,13228 14328,13283 14286,13305 14261,13314 14244,13319 14243,13324 14242,13328 14241,13333 14268,13333 14295,13333 14322,13333 14304,13425 14287,13517 14269,13609 14263,13632 14255,13657 14255,13682 14255,13707 14266,13721 14286,13721 14319,13721 14353,13701 14428,13640 14448,13626 14442,13632 14459,13615 Z"/>
    </g>
   </g>
  </g>
  <g class="Group">
   <g class="com.sun.star.drawing.OpenBezierShape">
    <g id="id17">
     <rect class="BoundingBox" stroke="none" fill="none" x="16677" y="10541" width="3493" height="7342"/>
     <g style="opacity: 0.749019607843137">
      <path fill="none" stroke="rgb(85,85,85)" stroke-width="159" stroke-linejoin="round" d="M 18160,10621 C 18341,11926 18323,13052 18868,13564 19414,14078 20306,14803 20042,15664 19777,16524 18011,18674 16757,17417"/>
     </g>
    </g>
   </g>
   <g class="com.sun.star.drawing.LineShape">
    <g id="id18">
     <rect class="BoundingBox" stroke="none" fill="none" x="16550" y="10480" width="1143" height="1257"/>
     <path fill="none" stroke="rgb(170,51,119)" stroke-width="53" stroke-linejoin="round" d="M 16709,10645 L 17455,11473"/>
     <path fill="rgb(170,51,119)" stroke="none" d="M 16703,10665 L 16686,10673 16666,10679 16646,10680 16625,10677 16606,10669 16591,10659 16576,10647 16566,10632 16557,10615 16552,10595 16551,10575 16555,10555 16562,10536 16571,10519 16584,10506 16599,10495 16617,10487 16635,10482 16656,10480 16676,10483 16695,10491 16711,10501 16725,10513 16736,10529 16744,10545 16749,10565 16751,10586 16747,10606 16740,10624 16730,10641 16718,10654 16703,10665 Z"/>
     <path fill="rgb(170,51,119)" stroke="none" d="M 17579,11328 L 17692,11736 17298,11581 17579,11328 Z"/>
    </g>
   </g>
   <g class="com.sun.star.drawing.LineShape">
    <g id="id19">
     <rect class="BoundingBox" stroke="none" fill="none" x="16667" y="11293" width="1143" height="1257"/>
     <path fill="none" stroke="rgb(170,51,119)" stroke-width="53" stroke-linejoin="round" d="M 16826,11458 L 17572,12286"/>
     <path fill="rgb(170,51,119)" stroke="none" d="M 16820,11478 L 16803,11486 16783,11492 16763,11493 16742,11490 16723,11482 16708,11472 16693,11460 16683,11445 16674,11428 16669,11408 16668,11388 16672,11368 16679,11349 16688,11332 16701,11319 16716,11308 16734,11300 16752,11295 16773,11293 16793,11296 16812,11304 16828,11314 16842,11326 16853,11342 16861,11358 16866,11378 16868,11399 16864,11419 16857,11437 16847,11454 16835,11467 16820,11478 Z"/>
     <path fill="rgb(170,51,119)" stroke="none" d="M 17696,12141 L 17809,12549 17415,12394 17696,12141 Z"/>
    </g>
   </g>
   <g class="com.sun.star.drawing.LineShape">
    <g id="id20">
     <rect class="BoundingBox" stroke="none" fill="none" x="16984" y="12206" width="1143" height="1257"/>
     <path fill="none" stroke="rgb(170,51,119)" stroke-width="53" stroke-linejoin="round" d="M 17143,12371 L 17889,13199"/>
     <path fill="rgb(170,51,119)" stroke="none" d="M 17137,12391 L 17120,12399 17100,12405 17080,12406 17059,12403 17040,12395 17025,12385 17010,12373 17000,12358 16991,12341 16986,12321 16985,12301 16989,12281 16996,12262 17005,12245 17018,12232 17033,12221 17051,12213 17069,12208 17090,12206 17110,12209 17129,12217 17145,12227 17159,12239 17170,12255 17178,12271 17183,12291 17185,12312 17181,12332 17174,12350 17164,12367 17152,12380 17137,12391 Z"/>
     <path fill="rgb(170,51,119)" stroke="none" d="M 18013,13054 L 18126,13462 17732,13307 18013,13054 Z"/>
    </g>
   </g>
   <g class="com.sun.star.drawing.LineShape">
    <g id="id21">
     <rect class="BoundingBox" stroke="none" fill="none" x="17401" y="13219" width="1143" height="1257"/>
     <path fill="none" stroke="rgb(170,51,119)" stroke-width="53" stroke-linejoin="round" d="M 17560,13384 L 18306,14212"/>
     <path fill="rgb(170,51,119)" stroke="none" d="M 17554,13404 L 17537,13412 17517,13418 17497,13419 17476,13416 17457,13408 17442,13398 17427,13386 17417,13371 17408,13354 17403,13334 17402,13314 17406,13294 17413,13275 17422,13258 17435,13245 17450,13234 17468,13226 17486,13221 17507,13219 17527,13222 17546,13230 17562,13240 17576,13252 17587,13268 17595,13284 17600,13304 17602,13325 17598,13345 17591,13363 17581,13380 17569,13393 17554,13404 Z"/>
     <path fill="rgb(170,51,119)" stroke="none" d="M 18430,14067 L 18543,14475 18149,14320 18430,14067 Z"/>
    </g>
   </g>
   <g class="com.sun.star.drawing.LineShape">
    <g id="id22">
     <rect class="BoundingBox" stroke="none" fill="none" x="18118" y="14732" width="1143" height="1257"/>
     <path fill="none" stroke="rgb(170,51,119)" stroke-width="53" stroke-linejoin="round" d="M 18277,14897 L 19023,15725"/>
     <path fill="rgb(170,51,119)" stroke="none" d="M 18271,14917 L 18254,14925 18234,14931 18214,14932 18193,14929 18174,14921 18159,14911 18144,14899 18134,14884 18125,14867 18120,14847 18119,14827 18123,14807 18130,14788 18139,14771 18152,14758 18167,14747 18185,14739 18203,14734 18224,14732 18244,14735 18263,14743 18279,14753 18293,14765 18304,14781 18312,14797 18317,14817 18319,14838 18315,14858 18308,14876 18298,14893 18286,14906 18271,14917 Z"/>
     <path fill="rgb(170,51,119)" stroke="none" d="M 19147,15580 L 19260,15988 18866,15833 19147,15580 Z"/>
    </g>
   </g>
   <g class="com.sun.star.drawing.LineShape">
    <g id="id23">
     <rect class="BoundingBox" stroke="none" fill="none" x="17835" y="15345" width="1143" height="1257"/>
     <path fill="none" stroke="rgb(170,51,119)" stroke-width="53" stroke-linejoin="round" d="M 17994,15510 L 18740,16338"/>
     <path fill="rgb(170,51,119)" stroke="none" d="M 17988,15530 L 17971,15538 17951,15544 17931,15545 17910,15542 17891,15534 17876,15524 17861,15512 17851,15497 17842,15480 17837,15460 17836,15440 17840,15420 17847,15401 17856,15384 17869,15371 17884,15360 17902,15352 17920,15347 17941,15345 17961,15348 17980,15356 17996,15366 18010,15378 18021,15394 18029,15410 18034,15430 18036,15451 18032,15471 18025,15489 18015,15506 18003,15519 17988,15530 Z"/>
     <path fill="rgb(170,51,119)" stroke="none" d="M 18864,16193 L 18977,16601 18583,16446 18864,16193 Z"/>
    </g>
   </g>
   <g class="com.sun.star.drawing.LineShape">
    <g id="id24">
     <rect class="BoundingBox" stroke="none" fill="none" x="17252" y="15758" width="1143" height="1257"/>
     <path fill="none" stroke="rgb(170,51,119)" stroke-width="53" stroke-linejoin="round" d="M 17411,15923 L 18157,16751"/>
     <path fill="rgb(170,51,119)" stroke="none" d="M 17405,15943 L 17388,15951 17368,15957 17348,15958 17327,15955 17308,15947 17293,15937 17278,15925 17268,15910 17259,15893 17254,15873 17253,15853 17257,15833 17264,15814 17273,15797 17286,15784 17301,15773 17319,15765 17337,15760 17358,15758 17378,15761 17397,15769 17413,15779 17427,15791 17438,15807 17446,15823 17451,15843 17453,15864 17449,15884 17442,15902 17432,15919 17420,15932 17405,15943 Z"/>
     <path fill="rgb(170,51,119)" stroke="none" d="M 18281,16606 L 18394,17014 18000,16859 18281,16606 Z"/>
    </g>
   </g>
   <g class="com.sun.star.drawing.LineShape">
    <g id="id25">
     <rect class="BoundingBox" stroke="none" fill="none" x="16469" y="15871" width="1143" height="1257"/>
     <path fill="none" stroke="rgb(170,51,119)" stroke-width="53" stroke-linejoin="round" d="M 16628,16036 L 17374,16864"/>
     <path fill="rgb(170,51,119)" stroke="none" d="M 16622,16056 L 16605,16064 16585,16070 16565,16071 16544,16068 16525,16060 16510,16050 16495,16038 16485,16023 16476,16006 16471,15986 16470,15966 16474,15946 16481,15927 16490,15910 16503,15897 16518,15886 16536,15878 16554,15873 16575,15871 16595,15874 16614,15882 16630,15892 16644,15904 16655,15920 16663,15936 16668,15956 16670,15977 16666,15997 16659,16015 16649,16032 16637,16045 16622,16056 Z"/>
     <path fill="rgb(170,51,119)" stroke="none" d="M 17498,16719 L 17611,17127 17217,16972 17498,16719 Z"/>
    </g>
   </g>
  </g>
 </g>
</svg>