<?xml version="1.0" encoding="UTF-8" standalone="no"?>
<!-- Uploaded to: SVG Repo, www.svgrepo.com, Generator: SVG Repo Mixer Tools -->

<svg
   fill="#000000"
   height="799.99841"
   width="461.95889"
   version="1.1"
   id="Layer_1"
   viewBox="0 0 295.64734 511.98798"
   xml:space="preserve"
   sodipodi:docname="ice-skater_grey.svg"
   inkscape:version="1.4.3 (1:1.4.3+202512261035+0d15f75042)"
   xmlns:inkscape="http://www.inkscape.org/namespaces/inkscape"
   xmlns:sodipodi="http://sodipodi.sourceforge.net/DTD/sodipodi-0.dtd"
   xmlns="http://www.w3.org/2000/svg"
   xmlns:svg="http://www.w3.org/2000/svg"><defs
   id="defs4" /><sodipodi:namedview
   id="namedview4"
   pagecolor="#ffffff"
   bordercolor="#000000"
   borderopacity="0.25"
   inkscape:showpageshadow="2"
   inkscape:pageopacity="0.0"
   inkscape:pagecheckerboard="0"
   inkscape:deskcolor="#d1d1d1"
   inkscape:zoom="1.19375"
   inkscape:cx="230.78534"
   inkscape:cy="400"
   inkscape:window-width="1890"
   inkscape:window-height="1175"
   inkscape:window-x="0"
   inkscape:window-y="0"
   inkscape:window-maximized="1"
   inkscape:current-layer="g3" />
<g
   id="g2"
   transform="translate(-108.171)">
	<g
   id="g1">
		<circle
   cx="300.59"
   cy="43.784"
   r="43.784"
   id="circle1"
   style="fill:#444444;fill-opacity:1" />
	</g>
</g>
<g
   id="g4"
   transform="translate(-108.171)">
	<g
   id="g3">
		<path
   d="m 305.094,224.6 79.247,-1.443 c 10.958,-0.196 19.673,-9.246 19.474,-20.196 -0.185,-10.256 -8.389,-19.473 -20.196,-19.473 -7.269,0.133 -61.339,1.117 -68.612,1.249 l -42.896,-62.07 38.697,33.321 4.242,-11.788 c 5.662,-15.324 -2.171,-32.336 -17.494,-37.999 l -49.48,-18.283 c -6.839,-2.527 -14.012,-2.359 -20.365,-0.043 -4.884,1.01 0.812,-2.004 -88.353,53.987 -5.612,3.525 -9.11,9.629 -9.282,16.289 l -2.045,79.233 c -0.284,10.93 8.347,20.06 19.32,20.343 2.942,0.076 5.992,-0.556 8.73,-1.789 l 17.698,110.824 -37.939,100.589 c -3.436,9.109 -0.91,18.994 5.62,25.4 h -23.671 c -5.312,0 -9.618,4.307 -9.618,9.618 0,5.312 4.307,9.619 9.618,9.619 h 96.407 c 14.543,0 26.374,-11.831 26.374,-26.374 0,-14.543 -11.831,-26.374 -26.374,-26.374 h -6.733 c -5.312,0 -9.618,4.307 -9.618,9.618 0,5.311 4.307,9.618 9.618,9.618 h 6.733 c 3.935,0 7.137,3.202 7.137,7.137 0,3.935 -3.202,7.137 -7.137,7.137 h -39.43 c 2.405,-2.352 4.357,-5.242 5.623,-8.598 l 40.157,-106.471 c 1.454,-3.855 1.882,-8.023 1.244,-12.093 -1.239,-7.892 -12.196,-77.685 -13.419,-85.476 l 14.702,5.433 35.744,79.093 26.462,116.391 c 1.053,4.634 3.404,8.63 6.567,11.721 h -22.418 c -5.254,0 -9.618,4.27 -9.618,9.618 0,5.312 4.307,9.619 9.618,9.619 11.518,0 85.093,0 96.407,0 14.543,0 26.374,-11.831 26.374,-26.374 0,-14.543 -11.831,-26.374 -26.374,-26.374 h -6.733 c -5.355,0 -9.618,4.372 -9.618,9.618 0,5.301 4.335,9.618 9.618,9.618 h 6.733 c 3.935,0 7.137,3.202 7.137,7.137 0,3.935 -3.202,7.137 -7.137,7.137 -8.634,0 -14.233,0 -17.745,0 -3.947,0 -5.256,0 -5.242,0 -3.509,0 -9.101,0 -17.724,0 5.707,-5.594 8.483,-13.912 6.582,-22.277 L 304.71,351.741 c -0.353,-1.556 -0.863,-3.072 -1.521,-4.526 L 269.121,271.83 c 4.682,-13.008 8.358,-23.226 12.808,-35.591 -4.407,-3.193 -9.311,-8.309 -11.244,-13.234 l -29.64,-75.502 47.368,68.542 c 3.817,5.521 10.159,8.674 16.681,8.555 z m -136.977,-2.578 1.348,-52.214 22.533,-14.149 z"
   id="path2"
   style="fill:#444444;fill-opacity:1" />
	</g>
</g>
</svg>
