<?xml version="1.0" encoding="UTF-8"?>
<!DOCTYPE svg PUBLIC "-//W3C//DTD SVG 1.1//EN" "http://www.w3.org/Graphics/SVG/1.1/DTD/svg11.dtd">
<svg version="1.2" viewBox="9970 4952 8808 8504" preserveAspectRatio="xMidYMid" fill-rule="evenodd" stroke-width="28.222" stroke-linejoin="round" xmlns="http://www.w3.org/2000/svg" xmlns:ooo="http://xml.openoffice.org/svg/export" xmlns:xlink="http://www.w3.org/1999/xlink" xmlns:presentation="http://sun.com/xmlns/staroffice/presentation" xmlns:smil="http://www.w3.org/2001/SMIL20/" xmlns:anim="urn:oasis:names:tc:opendocument:xmlns:animation:1.0" xmlns:svg="urn:oasis:names:tc:opendocument:xmlns:svg-compatible:1.0" xml:space="preserve">
 <defs class="EmbeddedBulletChars">
  <g id="bullet-char-template-57356" transform="scale(0.00048828125,-0.00048828125)">
   <path d="M 580,1141 L 1163,571 580,0 -4,571 580,1141 Z"/>
  </g>
  <g id="bullet-char-template-57354" transform="scale(0.00048828125,-0.00048828125)">
   <path d="M 8,1128 L 1137,1128 1137,0 8,0 8,1128 Z"/>
  </g>
  <g id="bullet-char-template-10146" transform="scale(0.00048828125,-0.00048828125)">
   <path d="M 174,0 L 602,739 174,1481 1456,739 174,0 Z M 1358,739 L 309,1346 659,739 1358,739 Z"/>
  </g>
  <g id="bullet-char-template-10132" transform="scale(0.00048828125,-0.00048828125)">
   <path d="M 2015,739 L 1276,0 717,0 1260,543 174,543 174,936 1260,936 717,1481 1274,1481 2015,739 Z"/>
  </g>
  <g id="bullet-char-template-10007" transform="scale(0.00048828125,-0.00048828125)">
   <path d="M 0,-2 C -7,14 -16,27 -25,37 L 356,567 C 262,823 215,952 215,954 215,979 228,992 255,992 264,992 276,990 289,987 310,991 331,999 354,1012 L 381,999 492,748 772,1049 836,1024 860,1049 C 881,1039 901,1025 922,1006 886,937 835,863 770,784 769,783 710,716 594,584 L 774,223 C 774,196 753,168 711,139 L 727,119 C 717,90 699,76 672,76 641,76 570,178 457,381 L 164,-76 C 142,-110 111,-127 72,-127 30,-127 9,-110 8,-76 1,-67 -2,-52 -2,-32 -2,-23 -1,-13 0,-2 Z"/>
  </g>
  <g id="bullet-char-template-10004" transform="scale(0.00048828125,-0.00048828125)">
   <path d="M 285,-33 C 182,-33 111,30 74,156 52,228 41,333 41,471 41,549 55,616 82,672 116,743 169,778 240,778 293,778 328,747 346,684 L 369,508 C 377,444 397,411 428,410 L 1163,1116 C 1174,1127 1196,1133 1229,1133 1271,1133 1292,1118 1292,1087 L 1292,965 C 1292,929 1282,901 1262,881 L 442,47 C 390,-6 338,-33 285,-33 Z"/>
  </g>
  <g id="bullet-char-template-9679" transform="scale(0.00048828125,-0.00048828125)">
   <path d="M 813,0 C 632,0 489,54 383,161 276,268 223,411 223,592 223,773 276,916 383,1023 489,1130 632,1184 813,1184 992,1184 1136,1130 1245,1023 1353,916 1407,772 1407,592 1407,412 1353,268 1245,161 1136,54 992,0 813,0 Z"/>
  </g>
  <g id="bullet-char-template-8226" transform="scale(0.00048828125,-0.00048828125)">
   <path d="M 346,457 C 273,457 209,483 155,535 101,586 74,649 74,723 74,796 101,859 155,911 209,963 273,989 346,989 419,989 480,963 531,910 582,859 608,796 608,723 608,648 583,586 532,535 482,483 420,457 346,457 Z"/>
  </g>
  <g id="bullet-char-template-8211" transform="scale(0.00048828125,-0.00048828125)">
   <path d="M -4,459 L 1135,459 1135,606 -4,606 -4,459 Z"/>
  </g>
  <g id="bullet-char-template-61548" transform="scale(0.00048828125,-0.00048828125)">
   <path d="M 173,740 C 173,903 231,1043 346,1159 462,1274 601,1332 765,1332 928,1332 1067,1274 1183,1159 1299,1043 1357,903 1357,740 1357,577 1299,437 1183,322 1067,206 928,148 765,148 601,148 462,206 346,322 231,437 173,577 173,740 Z"/>
  </g>
 </defs>
 <g ooo:name="page5" class="Page">
  <g class="com.sun.star.drawing.ClosedBezierShape">
   <g id="id3">
    <rect class="BoundingBox" stroke="none" fill="none" x="9970" y="4952" width="8808" height="8504"/>
    <path fill="rgb(187,187,187)" fill-opacity="0.251" stroke="none" d="M 15346,10278 C 16047,9621 19009,9326 18670,8225 18331,7124 15855,3861 14246,5470 12637,7079 13843,6998 11600,7273 9357,7548 9950,9389 10881,11273 11813,13157 12406,13348 14691,13369 16659,13516 14648,10935 15346,10278 Z"/>
    <g style="opacity: 0.8">
     <path fill="none" stroke="rgb(85,85,85)" stroke-width="159" stroke-linejoin="round" d="M 15346,10278 C 16047,9621 19009,9326 18670,8225 18331,7124 15855,3861 14246,5470 12637,7079 13843,6998 11600,7273 9357,7548 9950,9389 10881,11273 11813,13157 12406,13348 14691,13369 16659,13516 14648,10935 15346,10278 Z"/>
    </g>
   </g>
  </g>
  <g class="Group">
   <g class="com.sun.star.drawing.ClosedBezierShape">
    <g id="id4">
     <rect class="BoundingBox" stroke="none" fill="none" x="12632" y="8002" width="972" height="1591"/>
     <path fill="rgb(68,119,170)" stroke="none" d="M 13603,9081 C 13603,8902 13520,8806 13264,8692 13469,8551 13539,8462 13539,8328 13539,8130 13379,8002 13143,8002 12875,8002 12683,8174 12683,8411 12683,8557 12741,8647 12939,8775 12843,8813 12811,8838 12760,8889 12677,8972 12632,9075 12632,9190 12632,9419 12817,9592 13066,9592 13360,9592 13603,9362 13603,9081 Z M 13424,9177 C 13424,9368 13284,9515 13098,9515 12913,9515 12785,9381 12785,9170 12785,9004 12856,8902 13015,8806 13077,8832 13139,8858 13200,8883 13341,8947 13424,9055 13424,9177 Z M 13386,8347 C 13386,8474 13328,8564 13181,8660 13141,8638 13100,8617 13060,8596 12919,8526 12849,8436 12849,8328 12849,8181 12958,8079 13117,8079 13277,8079 13386,8187 13386,8347 Z"/>
    </g>
   </g>
   <g class="com.sun.star.drawing.ClosedBezierShape">
    <g id="id5">
     <rect class="BoundingBox" stroke="none" fill="none" x="14145" y="7995" width="730" height="1987"/>
     <path fill="rgb(68,119,170)" stroke="none" d="M 14874,8065 C 14874,8042 14874,8018 14874,7995 14766,8001 14654,8001 14542,8001 14430,8001 14331,8001 14216,7995 14216,8018 14216,8042 14216,8065 14252,8067 14289,8069 14325,8072 14427,8078 14440,8091 14440,8270 14440,8708 14440,9146 14440,9585 14440,9770 14408,9834 14318,9834 14267,9834 14223,9821 14172,9789 14163,9793 14155,9798 14146,9802 14150,9859 14155,9917 14159,9974 14176,9976 14193,9978 14210,9981 14214,9981 14218,9981 14223,9981 14299,9981 14433,9904 14516,9802 14625,9668 14651,9553 14651,9285 14651,8946 14651,8608 14651,8270 14651,8091 14663,8078 14766,8072 14802,8069 14838,8067 14874,8065 Z"/>
    </g>
   </g>
  </g>
 </g>
</svg>